<svg width="85" height="85" viewBox="0 0 85 85" fill="none" xmlns="http://www.w3.org/2000/svg">
<circle cx="42.5" cy="42.5" r="38.5" fill="#456DBB" stroke="white" stroke-width="8"/>
<path d="M57.4112 46.2954C56.9971 44.1106 56.0483 42.1151 55.1048 40.3038C52.2689 34.7727 48.8565 29.7533 45.4964 25.1073L45.0771 24.4575C44.5005 23.6696 43.8138 23.25 43.0275 23.25C41.8743 23.25 41.1404 24.1761 40.9308 24.4575C40.9308 24.4575 40.9308 24.4575 40.9308 24.5036L40.1969 25.5269C38.8864 27.3843 37.5183 29.3388 36.2026 31.2883C34.153 34.3532 31.5792 38.4465 29.6922 42.811C29.0631 44.2539 28.4865 45.6917 28.4341 47.2727C28.2244 51.3609 29.9018 54.7993 33.372 57.4958C36.0506 59.5834 39.463 60.75 42.9803 60.75C48.1278 60.75 52.8036 58.427 55.477 54.477C57.254 51.8726 57.9354 49.0789 57.4112 46.2954ZM53.7891 53.5918C51.4774 57.0302 47.4359 59.0257 42.9698 59.0257C39.9296 59.0257 36.9312 58.0484 34.6248 56.2371C31.6264 53.9141 30.1587 50.8953 30.3212 47.3597C30.3684 46.0601 30.8454 44.8065 31.4744 43.4557C33.3143 39.1833 35.8356 35.182 37.8276 32.1632C39.0909 30.2598 40.4537 28.3053 41.8166 26.4479L42.4981 25.4706C42.4981 25.4246 42.5505 25.4246 42.5505 25.3785C42.6553 25.2404 42.865 25.005 42.9698 24.959C42.9698 24.959 43.1271 25.005 43.3892 25.3785L43.8085 25.9823C47.0637 30.5361 50.4814 35.5095 53.2596 40.9485C54.1508 42.7138 55.0419 44.5711 55.4088 46.5257C55.9435 48.9407 55.3669 51.3098 53.7891 53.5918ZM43.9186 54.61C43.9186 55.0756 43.4993 55.4491 42.9698 55.4491C38.1945 55.4491 34.3627 52.0107 34.3627 47.8253C34.3627 47.3597 34.782 46.9913 35.3062 46.9913C35.8356 46.9913 36.255 47.3597 36.255 47.8253C36.3074 51.0795 39.3005 53.7299 42.9698 53.7299C43.4993 53.7299 43.9186 54.1495 43.9186 54.61Z" fill="white" stroke="white" stroke-width="0.25"/>
</svg>
