<svg width="85" height="85" viewBox="0 0 85 85" fill="none" xmlns="http://www.w3.org/2000/svg">
<circle cx="42.5" cy="42.5" r="38.5" fill="#398673" stroke="white" stroke-width="8"/>
<mask id="path-2-inside-1_5269_45628" fill="white">
<path d="M55.4998 36.0835C55.6175 35.2037 55.5465 34.3088 55.2914 33.4585C54.7276 31.8798 53.6631 30.5287 52.2602 29.611C50.8574 28.6933 49.193 28.2594 47.5206 28.3752V28.3752C47.1393 27.1674 46.4155 26.0963 45.4373 25.2919C42.2498 22.646 37.0414 23.6044 33.8331 27.4169C33.1928 28.1617 32.6663 28.9971 32.2706 29.896C31.0792 30.3893 30.0414 31.1922 29.2648 32.2215C28.4883 33.2509 28.0011 34.4692 27.8539 35.7502C27.7922 36.8014 27.9852 37.852 28.4164 38.8127C27.7201 39.3464 27.1526 40.0297 26.756 40.8123C26.3593 41.5948 26.1436 42.4564 26.1248 43.3335C26.191 44.2708 26.4546 45.1835 26.8983 46.0118C27.342 46.84 27.9557 47.5651 28.6993 48.1396C29.4429 48.714 30.2995 49.1247 31.213 49.3448C32.1265 49.565 33.0761 49.5895 33.9998 49.4169C34.7668 50.2196 35.7662 50.7619 36.8573 50.9674C37.9484 51.1729 39.0765 51.0314 40.0831 50.5627C40.7513 50.8168 41.4533 50.9712 42.1664 51.021V58.3752H37.3123C37.036 58.3752 36.771 58.485 36.5757 58.6803C36.3803 58.8757 36.2706 59.1406 36.2706 59.4169C36.2759 59.6915 36.3874 59.9533 36.5816 60.1475C36.7758 60.3417 37.0377 60.4532 37.3123 60.4585H49.4373C49.7135 60.4585 49.9785 60.3488 50.1738 60.1534C50.3692 59.9581 50.4789 59.6931 50.4789 59.4169C50.4789 59.1406 50.3692 58.8757 50.1738 58.6803C49.9785 58.485 49.7135 58.3752 49.4373 58.3752H44.3331V50.9377C45.125 50.7899 45.8859 50.5081 46.5831 50.1044C48.6578 50.8418 50.9146 50.8929 53.0206 50.2502C57.8331 48.8335 60.7914 44.4377 59.6248 40.4585C59.3094 39.4666 58.7749 38.5582 58.0609 37.8009C57.3468 37.0436 56.4715 36.4566 55.4998 36.0835ZM52.4373 48.2502C50.6146 48.8192 48.6484 48.7157 46.8956 47.9585L46.3123 47.7085L45.7914 48.1044C45.3587 48.4286 44.8614 48.6559 44.3331 48.771V39.9169H44.7289C45.8113 39.9419 46.8697 39.5964 47.7289 38.9377C48.8462 37.9473 49.546 36.5699 49.6873 35.0835C49.7105 34.8104 49.6251 34.5391 49.4496 34.3285C49.2741 34.1179 49.0226 33.985 48.7498 33.9585C48.4745 33.941 48.2033 34.0312 47.9933 34.2101C47.7834 34.3889 47.6512 34.6424 47.6248 34.9169C47.5275 35.8361 47.0978 36.6881 46.4164 37.3127C46.1177 37.5255 45.7799 37.6774 45.4224 37.7596C45.065 37.8418 44.6948 37.8528 44.3331 37.7919V35.0002C44.3331 34.7239 44.2233 34.459 44.028 34.2636C43.8326 34.0683 43.5677 33.9585 43.2914 33.9585C43.0152 33.9585 42.7502 34.0683 42.5549 34.2636C42.3595 34.459 42.2498 34.7239 42.2498 35.0002V43.1669C41.0366 43.2958 39.8188 42.9691 38.8331 42.2502C37.6587 41.1582 36.9187 39.6783 36.7498 38.0835C36.7419 37.9475 36.7069 37.8144 36.6468 37.6921C36.5866 37.5699 36.5027 37.4609 36.3998 37.3715C36.2968 37.2822 36.1771 37.2144 36.0476 37.1721C35.9181 37.1298 35.7814 37.1139 35.6456 37.1252C35.5086 37.1357 35.3751 37.1732 35.2527 37.2355C35.1303 37.2979 35.0214 37.3838 34.9324 37.4883C34.8433 37.5929 34.7758 37.714 34.7337 37.8448C34.6917 37.9755 34.6759 38.1133 34.6873 38.2502C34.8702 40.4299 35.9028 42.4502 37.5623 43.8752C38.7931 44.8311 40.3168 45.3316 41.8748 45.2919H42.2498V48.9585C41.6489 48.9203 41.0615 48.7646 40.5206 48.5002L39.9789 48.2502L39.4789 48.6044C38.8146 49.0228 38.017 49.1758 37.245 49.033C36.4729 48.8902 35.7829 48.462 35.3123 47.8335L34.9373 47.2085L34.2081 47.3544C33.5504 47.5617 32.8549 47.6208 32.1717 47.5272C31.4885 47.4337 30.8345 47.1899 30.2568 46.8134C29.679 46.4368 29.1919 45.9369 28.8305 45.3497C28.469 44.7624 28.2423 44.1023 28.1664 43.4169C28.1963 42.7341 28.4044 42.0711 28.7698 41.4937C29.1353 40.9162 29.6455 40.4444 30.2498 40.1252L31.1248 39.6044L30.4998 38.6252C29.9963 37.8011 29.7699 36.8373 29.8539 35.8752C30.0093 34.9273 30.4187 34.0392 31.0387 33.3055C31.6587 32.5717 32.466 32.0199 33.3748 31.7085L33.8539 31.5835L34.0206 31.1877C34.3586 30.3406 34.8298 29.5528 35.4164 28.8544C37.8956 25.8752 41.7914 25.021 44.1039 26.9377C44.9226 27.6467 45.4679 28.6194 45.6456 29.6877L45.8123 30.6252H46.7706C48.1054 30.3324 49.5006 30.5159 50.7143 31.1437C51.9281 31.7715 52.884 32.8041 53.4164 34.0627C53.6456 34.852 53.6456 35.6901 53.4164 36.4794L53.1456 37.4794L54.1248 37.771C54.926 37.9893 55.6609 38.402 56.2642 38.9726C56.8676 39.5432 57.3206 40.254 57.5831 41.0419C58.4581 43.9169 56.1456 47.146 52.4373 48.2502Z"/>
</mask>
<path d="M55.4998 36.0835C55.6175 35.2037 55.5465 34.3088 55.2914 33.4585C54.7276 31.8798 53.6631 30.5287 52.2602 29.611C50.8574 28.6933 49.193 28.2594 47.5206 28.3752V28.3752C47.1393 27.1674 46.4155 26.0963 45.4373 25.2919C42.2498 22.646 37.0414 23.6044 33.8331 27.4169C33.1928 28.1617 32.6663 28.9971 32.2706 29.896C31.0792 30.3893 30.0414 31.1922 29.2648 32.2215C28.4883 33.2509 28.0011 34.4692 27.8539 35.7502C27.7922 36.8014 27.9852 37.852 28.4164 38.8127C27.7201 39.3464 27.1526 40.0297 26.756 40.8123C26.3593 41.5948 26.1436 42.4564 26.1248 43.3335C26.191 44.2708 26.4546 45.1835 26.8983 46.0118C27.342 46.84 27.9557 47.5651 28.6993 48.1396C29.4429 48.714 30.2995 49.1247 31.213 49.3448C32.1265 49.565 33.0761 49.5895 33.9998 49.4169C34.7668 50.2196 35.7662 50.7619 36.8573 50.9674C37.9484 51.1729 39.0765 51.0314 40.0831 50.5627C40.7513 50.8168 41.4533 50.9712 42.1664 51.021V58.3752H37.3123C37.036 58.3752 36.771 58.485 36.5757 58.6803C36.3803 58.8757 36.2706 59.1406 36.2706 59.4169C36.2759 59.6915 36.3874 59.9533 36.5816 60.1475C36.7758 60.3417 37.0377 60.4532 37.3123 60.4585H49.4373C49.7135 60.4585 49.9785 60.3488 50.1738 60.1534C50.3692 59.9581 50.4789 59.6931 50.4789 59.4169C50.4789 59.1406 50.3692 58.8757 50.1738 58.6803C49.9785 58.485 49.7135 58.3752 49.4373 58.3752H44.3331V50.9377C45.125 50.7899 45.8859 50.5081 46.5831 50.1044C48.6578 50.8418 50.9146 50.8929 53.0206 50.2502C57.8331 48.8335 60.7914 44.4377 59.6248 40.4585C59.3094 39.4666 58.7749 38.5582 58.0609 37.8009C57.3468 37.0436 56.4715 36.4566 55.4998 36.0835ZM52.4373 48.2502C50.6146 48.8192 48.6484 48.7157 46.8956 47.9585L46.3123 47.7085L45.7914 48.1044C45.3587 48.4286 44.8614 48.6559 44.3331 48.771V39.9169H44.7289C45.8113 39.9419 46.8697 39.5964 47.7289 38.9377C48.8462 37.9473 49.546 36.5699 49.6873 35.0835C49.7105 34.8104 49.6251 34.5391 49.4496 34.3285C49.2741 34.1179 49.0226 33.985 48.7498 33.9585C48.4745 33.941 48.2033 34.0312 47.9933 34.2101C47.7834 34.3889 47.6512 34.6424 47.6248 34.9169C47.5275 35.8361 47.0978 36.6881 46.4164 37.3127C46.1177 37.5255 45.7799 37.6774 45.4224 37.7596C45.065 37.8418 44.6948 37.8528 44.3331 37.7919V35.0002C44.3331 34.7239 44.2233 34.459 44.028 34.2636C43.8326 34.0683 43.5677 33.9585 43.2914 33.9585C43.0152 33.9585 42.7502 34.0683 42.5549 34.2636C42.3595 34.459 42.2498 34.7239 42.2498 35.0002V43.1669C41.0366 43.2958 39.8188 42.9691 38.8331 42.2502C37.6587 41.1582 36.9187 39.6783 36.7498 38.0835C36.7419 37.9475 36.7069 37.8144 36.6468 37.6921C36.5866 37.5699 36.5027 37.4609 36.3998 37.3715C36.2968 37.2822 36.1771 37.2144 36.0476 37.1721C35.9181 37.1298 35.7814 37.1139 35.6456 37.1252C35.5086 37.1357 35.3751 37.1732 35.2527 37.2355C35.1303 37.2979 35.0214 37.3838 34.9324 37.4883C34.8433 37.5929 34.7758 37.714 34.7337 37.8448C34.6917 37.9755 34.6759 38.1133 34.6873 38.2502C34.8702 40.4299 35.9028 42.4502 37.5623 43.8752C38.7931 44.8311 40.3168 45.3316 41.8748 45.2919H42.2498V48.9585C41.6489 48.9203 41.0615 48.7646 40.5206 48.5002L39.9789 48.2502L39.4789 48.6044C38.8146 49.0228 38.017 49.1758 37.245 49.033C36.4729 48.8902 35.7829 48.462 35.3123 47.8335L34.9373 47.2085L34.2081 47.3544C33.5504 47.5617 32.8549 47.6208 32.1717 47.5272C31.4885 47.4337 30.8345 47.1899 30.2568 46.8134C29.679 46.4368 29.1919 45.9369 28.8305 45.3497C28.469 44.7624 28.2423 44.1023 28.1664 43.4169C28.1963 42.7341 28.4044 42.0711 28.7698 41.4937C29.1353 40.9162 29.6455 40.4444 30.2498 40.1252L31.1248 39.6044L30.4998 38.6252C29.9963 37.8011 29.7699 36.8373 29.8539 35.8752C30.0093 34.9273 30.4187 34.0392 31.0387 33.3055C31.6587 32.5717 32.466 32.0199 33.3748 31.7085L33.8539 31.5835L34.0206 31.1877C34.3586 30.3406 34.8298 29.5528 35.4164 28.8544C37.8956 25.8752 41.7914 25.021 44.1039 26.9377C44.9226 27.6467 45.4679 28.6194 45.6456 29.6877L45.8123 30.6252H46.7706C48.1054 30.3324 49.5006 30.5159 50.7143 31.1437C51.9281 31.7715 52.884 32.8041 53.4164 34.0627C53.6456 34.852 53.6456 35.6901 53.4164 36.4794L53.1456 37.4794L54.1248 37.771C54.926 37.9893 55.6609 38.402 56.2642 38.9726C56.8676 39.5432 57.3206 40.254 57.5831 41.0419C58.4581 43.9169 56.1456 47.146 52.4373 48.2502Z" fill="white" stroke="white" stroke-width="2" mask="url(#path-2-inside-1_5269_45628)"/>
</svg>
