<svg width="85" height="85" viewBox="0 0 85 85" fill="none" xmlns="http://www.w3.org/2000/svg">
<circle cx="42.5" cy="42.5" r="38.5" fill="#7C7C7C" stroke="white" stroke-width="8"/>
<path d="M27.9793 28.6668C27.9792 28.934 28.0839 29.1905 28.2708 29.3814C28.4578 29.5722 28.7121 29.6822 28.9793 29.6876H30.2709H30.7709V30.1876V43.8126C30.7612 43.9096 30.7612 44.0073 30.7709 44.1043C30.7612 44.2013 30.7612 44.299 30.7709 44.396V51.146C30.7774 52.2263 31.176 53.2676 31.8926 54.0761C32.6092 54.8847 33.595 55.4055 34.6668 55.5418V60.2085C34.6664 60.3399 34.692 60.4701 34.7421 60.5917C34.7921 60.7132 34.8656 60.8237 34.9584 60.9168L27.9793 28.6668ZM27.9793 28.6668V24.7085V28.6668ZM55.3543 37.521H55.3543C55.7839 37.5209 56.2092 37.6055 56.6061 37.7698C57.003 37.9341 57.3636 38.175 57.6674 38.4787L58.0209 38.1252L57.6737 38.4849C57.9867 38.787 58.2358 39.1487 58.4064 39.5488C58.5769 39.9487 58.6654 40.3787 58.6668 40.8134C58.6668 40.8137 58.6668 40.8139 58.6668 40.8141L58.6668 43.6668H58.6666L58.6669 43.6772C58.6682 43.7438 58.6563 43.8099 58.6318 43.8718C58.6073 43.9336 58.5707 43.99 58.5241 44.0375C58.4776 44.0851 58.422 44.1228 58.3606 44.1486C58.2993 44.1744 58.2334 44.1877 58.1669 44.1876H58.1668H57.0209H56.5209V44.6876V46.1668V46.167C56.5219 48.4715 55.6243 50.6856 54.0189 52.3389C52.4134 53.9922 50.2267 54.9545 47.9231 55.0212L47.4376 55.0352V55.521V60.2085H47.4375L47.4377 60.2189C47.4391 60.2854 47.4272 60.3516 47.4027 60.4134C47.3782 60.4753 47.3415 60.5317 47.295 60.5792C47.2484 60.6267 47.1928 60.6645 47.1315 60.6903C47.0701 60.716 47.0042 60.7293 46.9377 60.7293H46.9376H35.6983C35.5529 60.7219 35.415 60.6623 35.31 60.5613C35.2648 60.5153 35.229 60.461 35.2044 60.4013C35.1794 60.3405 35.1666 60.2754 35.1668 60.2097V60.2085V55.5418V55.1014L34.7298 55.0458C33.7783 54.9248 32.903 54.4624 32.2668 53.7445C31.6309 53.027 31.2771 52.1031 31.2709 51.1444V44.396V44.3709L31.2684 44.346C31.262 44.2822 31.262 44.218 31.2684 44.1543L31.2734 44.1043L31.2684 44.0543C31.262 43.9906 31.262 43.9264 31.2684 43.8626L31.2709 43.8377V43.8126V29.6876V29.1876H30.7709H28.9852C28.8505 29.1838 28.7224 29.1278 28.628 29.0315C28.5326 28.9341 28.4792 28.8032 28.4793 28.6669V28.6668L28.4793 24.7085L28.4792 24.7072C28.4791 24.6415 28.4919 24.5764 28.5169 24.5156C28.5419 24.4549 28.5787 24.3996 28.6251 24.3531L28.6346 24.3435L28.6436 24.3334C28.6852 24.287 28.7361 24.25 28.7931 24.2248C28.8501 24.1997 28.9119 24.187 28.9742 24.1876L28.9742 24.1876H28.9793H43.0001V23.6876L43.0105 24.1875C43.077 24.1861 43.1432 24.1981 43.205 24.2226C43.2669 24.2471 43.3233 24.2837 43.3708 24.3302C43.4183 24.3768 43.4561 24.4324 43.4819 24.4938C43.5077 24.5551 43.5209 24.621 43.5209 24.6875V24.6876V28.6043H43.5208L43.521 28.6148C43.5224 28.6823 43.5102 28.7493 43.4851 28.8118C43.4599 28.8744 43.4224 28.9312 43.3747 28.9789C43.327 29.0266 43.2702 29.0641 43.2076 29.0893C43.145 29.1144 43.078 29.1267 43.0106 29.1253L43.0106 29.1251H43.0001H41.4167H40.9167V29.6251V37.021V37.521H41.4167H55.3543ZM29.9168 25.271H29.4168V25.771V27.6251V28.1251H29.9168H31.6876H40.3334H41.8959H42.3959V27.6251V25.771V25.271H41.8959H29.9168ZM39.8334 29.6251V29.1251H39.3334H32.7293H32.2293V29.6251V42.7293V43.2293H32.7293H39.3334H39.8334V42.7293V38.1251V29.6251ZM36.2501 59.1876V59.6888L36.7512 59.6876L45.9804 59.6668L46.4793 59.6657V59.1668V55.5835V55.0835H45.9793H36.7501H36.2501V55.5835V59.1876ZM55.4793 44.6043V44.068L54.9443 44.1055L52.5867 44.271H40.3959H32.7709H32.2709V44.771V51.0181C32.2666 51.411 32.3424 51.8007 32.4935 52.1635C32.645 52.5272 32.8692 52.8561 33.1523 53.1302L33.1523 53.1302L33.1572 53.1349C33.7225 53.6674 34.4668 53.9686 35.2432 53.9793L35.2432 53.9793H35.2501L47.7501 53.9793L47.7529 53.9793C48.7734 53.9735 49.7828 53.7667 50.7233 53.3708C51.6639 52.9749 52.5173 52.3975 53.2347 51.6718C53.9522 50.9461 54.5197 50.0862 54.9048 49.1411C55.2897 48.1966 55.4849 47.1855 55.4793 46.1656V44.6043ZM40.9584 42.521V43.021H41.4584H55.39L57.1135 43.2056L57.6667 43.2649V42.7085L57.6667 40.8972L57.1667 40.896H57.6667V40.8964C57.6674 40.5977 57.6086 40.3019 57.4937 40.0262C57.3802 39.7539 57.2142 39.5065 57.0053 39.2982C56.7963 39.0743 56.5413 38.8982 56.2578 38.782C55.9746 38.666 55.6698 38.6125 55.364 38.6251H41.4584H40.9584V39.1251V42.521Z" fill="white" stroke="white"/>
</svg>
