<svg width="32" height="34" viewBox="0 0 32 34" fill="none" xmlns="http://www.w3.org/2000/svg">
<mask id="path-1-inside-1_12978_6295" fill="white">
<path d="M27.25 11.6752C27.356 10.8833 27.2921 10.0779 27.0625 9.31267C26.555 7.89184 25.597 6.67584 24.3344 5.84991C23.0718 5.02398 21.5739 4.6334 20.0687 4.73767V4.73767C19.7256 3.65066 19.0742 2.68665 18.1937 1.96267C15.325 -0.418583 10.6375 0.443917 7.75 3.87517C7.17378 4.5455 6.6999 5.29739 6.34375 6.10642C5.27151 6.55032 4.33751 7.27293 3.63858 8.19935C2.93965 9.12576 2.50122 10.2223 2.36875 11.3752C2.3132 12.3213 2.48687 13.2668 2.875 14.1314C2.24831 14.6117 1.73759 15.2267 1.38059 15.931C1.02359 16.6353 0.829442 17.4108 0.8125 18.2002C0.872098 19.0437 1.10934 19.8651 1.50866 20.6106C1.90799 21.356 2.46038 22.0086 3.12961 22.5256C3.79884 23.0425 4.56979 23.4122 5.39191 23.6103C6.21403 23.8084 7.06874 23.8305 7.9 23.6752C8.59037 24.3976 9.48975 24.8857 10.4718 25.0706C11.4538 25.2556 12.4691 25.1282 13.375 24.7064C13.9764 24.9351 14.6082 25.0741 15.25 25.1189V31.7377H10.8813C10.6326 31.7377 10.3942 31.8364 10.2183 32.0123C10.0425 32.1881 9.94375 32.4265 9.94375 32.6752C9.94855 32.9223 10.0489 33.158 10.2236 33.3328C10.3984 33.5075 10.6341 33.6079 10.8813 33.6127H21.7937C22.0424 33.6127 22.2808 33.5139 22.4567 33.3381C22.6325 33.1623 22.7312 32.9238 22.7312 32.6752C22.7312 32.4265 22.6325 32.1881 22.4567 32.0123C22.2808 31.8364 22.0424 31.7377 21.7937 31.7377H17.2V25.0439C17.9127 24.9109 18.5976 24.6572 19.225 24.2939C21.0923 24.9576 23.1234 25.0036 25.0187 24.4252C29.35 23.1502 32.0125 19.1939 30.9625 15.6127C30.6787 14.7199 30.1977 13.9024 29.555 13.2208C28.9124 12.5392 28.1246 12.0109 27.25 11.6752ZM24.4938 22.6252C22.8534 23.1372 21.0838 23.0441 19.5062 22.3627L18.9812 22.1377L18.5125 22.4939C18.1231 22.7857 17.6755 22.9903 17.2 23.0939V15.1252H17.5562C18.5304 15.1477 19.483 14.8368 20.2563 14.2439C21.2618 13.3525 21.8916 12.1129 22.0187 10.7752C22.0396 10.5293 21.9628 10.2852 21.8048 10.0956C21.6469 9.90609 21.4206 9.78645 21.175 9.76267C20.9273 9.74692 20.6832 9.8281 20.4942 9.98905C20.3053 10.15 20.1863 10.3781 20.1625 10.6252C20.0749 11.4524 19.6882 12.2192 19.075 12.7814C18.8061 12.973 18.5021 13.1096 18.1804 13.1836C17.8587 13.2576 17.5255 13.2675 17.2 13.2127V10.7002C17.2 10.4515 17.1012 10.2131 16.9254 10.0373C16.7496 9.86144 16.5111 9.76267 16.2625 9.76267C16.0139 9.76267 15.7754 9.86144 15.5996 10.0373C15.4238 10.2131 15.325 10.4515 15.325 10.7002V18.0502C14.2331 18.1662 13.1371 17.8721 12.25 17.2252C11.193 16.2423 10.5271 14.9104 10.375 13.4752C10.3679 13.3527 10.3364 13.233 10.2823 13.1229C10.2282 13.0129 10.1526 12.9147 10.06 12.8344C9.96738 12.754 9.85961 12.693 9.74304 12.6549C9.62647 12.6168 9.50346 12.6024 9.38125 12.6127C9.25799 12.6221 9.13783 12.6559 9.02766 12.712C8.9175 12.7681 8.81952 12.8454 8.73935 12.9395C8.65919 13.0336 8.59843 13.1426 8.56057 13.2603C8.52271 13.378 8.5085 13.502 8.51875 13.6252C8.68343 15.5868 9.61278 17.4051 11.1062 18.6877C12.214 19.548 13.5854 19.9985 14.9875 19.9627H15.325V23.2627C14.7843 23.2282 14.2555 23.0881 13.7687 22.8502L13.2812 22.6252L12.8312 22.9439C12.2333 23.3205 11.5156 23.4582 10.8207 23.3297C10.1259 23.2011 9.50487 22.8157 9.08125 22.2502L8.74375 21.6877L8.0875 21.8189C7.49559 22.0055 6.86967 22.0587 6.25477 21.9745C5.63987 21.8903 5.05127 21.6709 4.53131 21.332C4.01135 20.9931 3.57296 20.5432 3.24766 20.0147C2.92236 19.4861 2.71825 18.892 2.65 18.2752C2.67692 17.6607 2.86414 17.064 3.19307 16.5443C3.52199 16.0246 3.98118 15.6 4.525 15.3127L5.3125 14.8439L4.75 13.9627C4.29686 13.2209 4.09316 12.3536 4.16875 11.4877C4.30855 10.6345 4.67706 9.83524 5.23505 9.17489C5.79304 8.51455 6.51964 8.01785 7.3375 7.73767L7.76875 7.62517L7.91875 7.26892C8.22298 6.50647 8.64707 5.79754 9.175 5.16892C11.4062 2.48767 14.9125 1.71892 16.9937 3.44392C17.7306 4.08198 18.2214 4.95741 18.3813 5.91892L18.5313 6.76267H19.3937C20.5951 6.49917 21.8507 6.66424 22.9431 7.22928C24.0355 7.79432 24.8958 8.72371 25.375 9.85641C25.5813 10.5667 25.5813 11.3211 25.375 12.0314L25.1313 12.9314L26.0125 13.1939C26.7336 13.3903 27.395 13.7618 27.938 14.2753C28.481 14.7889 28.8888 15.4286 29.125 16.1377C29.9125 18.7252 27.8313 21.6314 24.4938 22.6252Z"/>
</mask>
<path d="M27.25 11.6752C27.356 10.8833 27.2921 10.0779 27.0625 9.31267C26.555 7.89184 25.597 6.67584 24.3344 5.84991C23.0718 5.02398 21.5739 4.6334 20.0687 4.73767V4.73767C19.7256 3.65066 19.0742 2.68665 18.1937 1.96267C15.325 -0.418583 10.6375 0.443917 7.75 3.87517C7.17378 4.5455 6.6999 5.29739 6.34375 6.10642C5.27151 6.55032 4.33751 7.27293 3.63858 8.19935C2.93965 9.12576 2.50122 10.2223 2.36875 11.3752C2.3132 12.3213 2.48687 13.2668 2.875 14.1314C2.24831 14.6117 1.73759 15.2267 1.38059 15.931C1.02359 16.6353 0.829442 17.4108 0.8125 18.2002C0.872098 19.0437 1.10934 19.8651 1.50866 20.6106C1.90799 21.356 2.46038 22.0086 3.12961 22.5256C3.79884 23.0425 4.56979 23.4122 5.39191 23.6103C6.21403 23.8084 7.06874 23.8305 7.9 23.6752C8.59037 24.3976 9.48975 24.8857 10.4718 25.0706C11.4538 25.2556 12.4691 25.1282 13.375 24.7064C13.9764 24.9351 14.6082 25.0741 15.25 25.1189V31.7377H10.8813C10.6326 31.7377 10.3942 31.8364 10.2183 32.0123C10.0425 32.1881 9.94375 32.4265 9.94375 32.6752C9.94855 32.9223 10.0489 33.158 10.2236 33.3328C10.3984 33.5075 10.6341 33.6079 10.8813 33.6127H21.7937C22.0424 33.6127 22.2808 33.5139 22.4567 33.3381C22.6325 33.1623 22.7312 32.9238 22.7312 32.6752C22.7312 32.4265 22.6325 32.1881 22.4567 32.0123C22.2808 31.8364 22.0424 31.7377 21.7937 31.7377H17.2V25.0439C17.9127 24.9109 18.5976 24.6572 19.225 24.2939C21.0923 24.9576 23.1234 25.0036 25.0187 24.4252C29.35 23.1502 32.0125 19.1939 30.9625 15.6127C30.6787 14.7199 30.1977 13.9024 29.555 13.2208C28.9124 12.5392 28.1246 12.0109 27.25 11.6752ZM24.4938 22.6252C22.8534 23.1372 21.0838 23.0441 19.5062 22.3627L18.9812 22.1377L18.5125 22.4939C18.1231 22.7857 17.6755 22.9903 17.2 23.0939V15.1252H17.5562C18.5304 15.1477 19.483 14.8368 20.2563 14.2439C21.2618 13.3525 21.8916 12.1129 22.0187 10.7752C22.0396 10.5293 21.9628 10.2852 21.8048 10.0956C21.6469 9.90609 21.4206 9.78645 21.175 9.76267C20.9273 9.74692 20.6832 9.8281 20.4942 9.98905C20.3053 10.15 20.1863 10.3781 20.1625 10.6252C20.0749 11.4524 19.6882 12.2192 19.075 12.7814C18.8061 12.973 18.5021 13.1096 18.1804 13.1836C17.8587 13.2576 17.5255 13.2675 17.2 13.2127V10.7002C17.2 10.4515 17.1012 10.2131 16.9254 10.0373C16.7496 9.86144 16.5111 9.76267 16.2625 9.76267C16.0139 9.76267 15.7754 9.86144 15.5996 10.0373C15.4238 10.2131 15.325 10.4515 15.325 10.7002V18.0502C14.2331 18.1662 13.1371 17.8721 12.25 17.2252C11.193 16.2423 10.5271 14.9104 10.375 13.4752C10.3679 13.3527 10.3364 13.233 10.2823 13.1229C10.2282 13.0129 10.1526 12.9147 10.06 12.8344C9.96738 12.754 9.85961 12.693 9.74304 12.6549C9.62647 12.6168 9.50346 12.6024 9.38125 12.6127C9.25799 12.6221 9.13783 12.6559 9.02766 12.712C8.9175 12.7681 8.81952 12.8454 8.73935 12.9395C8.65919 13.0336 8.59843 13.1426 8.56057 13.2603C8.52271 13.378 8.5085 13.502 8.51875 13.6252C8.68343 15.5868 9.61278 17.4051 11.1062 18.6877C12.214 19.548 13.5854 19.9985 14.9875 19.9627H15.325V23.2627C14.7843 23.2282 14.2555 23.0881 13.7687 22.8502L13.2812 22.6252L12.8312 22.9439C12.2333 23.3205 11.5156 23.4582 10.8207 23.3297C10.1259 23.2011 9.50487 22.8157 9.08125 22.2502L8.74375 21.6877L8.0875 21.8189C7.49559 22.0055 6.86967 22.0587 6.25477 21.9745C5.63987 21.8903 5.05127 21.6709 4.53131 21.332C4.01135 20.9931 3.57296 20.5432 3.24766 20.0147C2.92236 19.4861 2.71825 18.892 2.65 18.2752C2.67692 17.6607 2.86414 17.064 3.19307 16.5443C3.52199 16.0246 3.98118 15.6 4.525 15.3127L5.3125 14.8439L4.75 13.9627C4.29686 13.2209 4.09316 12.3536 4.16875 11.4877C4.30855 10.6345 4.67706 9.83524 5.23505 9.17489C5.79304 8.51455 6.51964 8.01785 7.3375 7.73767L7.76875 7.62517L7.91875 7.26892C8.22298 6.50647 8.64707 5.79754 9.175 5.16892C11.4062 2.48767 14.9125 1.71892 16.9937 3.44392C17.7306 4.08198 18.2214 4.95741 18.3813 5.91892L18.5313 6.76267H19.3937C20.5951 6.49917 21.8507 6.66424 22.9431 7.22928C24.0355 7.79432 24.8958 8.72371 25.375 9.85641C25.5813 10.5667 25.5813 11.3211 25.375 12.0314L25.1313 12.9314L26.0125 13.1939C26.7336 13.3903 27.395 13.7618 27.938 14.2753C28.481 14.7889 28.8888 15.4286 29.125 16.1377C29.9125 18.7252 27.8313 21.6314 24.4938 22.6252Z" fill="white" stroke="white" stroke-width="1.77419" mask="url(#path-1-inside-1_12978_6295)"/>
</svg>
