<svg width="32" height="41" viewBox="0 0 32 41" fill="none" xmlns="http://www.w3.org/2000/svg">
<path d="M24.7851 31.0739C24.521 29.6872 23.9369 28.4245 23.3572 27.2788C21.6142 23.7801 19.5282 20.6105 17.4763 17.6781L17.2197 17.2677C16.8676 16.7704 16.452 16.5081 15.9794 16.5132C15.2862 16.5208 14.8516 17.1146 14.7275 17.2949C14.7275 17.2949 14.7275 17.2949 14.7278 17.3242L14.2938 17.9798C13.519 19.1696 12.7103 20.4215 11.933 21.6699C10.7224 23.6324 9.20383 26.2524 8.09991 29.0403C7.73185 29.962 7.39526 30.8801 7.37475 31.8859C7.27713 34.4871 8.30926 36.6626 10.4138 38.3546C12.0383 39.6645 14.0975 40.3839 16.2117 40.3608C19.3057 40.327 22.1 38.819 23.6794 36.2895C24.7294 34.6216 25.1195 32.8405 24.7851 31.0739ZM22.6587 35.7376C21.2931 37.9394 18.8778 39.235 16.1934 39.2643C14.366 39.2843 12.557 38.6826 11.1581 37.5459C9.33969 36.0884 8.43651 34.1783 8.50961 31.9288C8.52893 31.102 8.80694 30.3017 9.17563 29.4386C10.2518 26.7095 11.7395 24.1485 12.9158 22.2156C13.6619 20.9969 14.4675 19.7449 15.2738 18.5548L15.6766 17.9289C15.6763 17.8996 15.7078 17.8993 15.7075 17.87C15.7695 17.7814 15.8939 17.6304 15.9566 17.6004C15.9566 17.6004 16.0514 17.6287 16.2116 17.8645L16.4678 18.2457C18.4561 21.1201 20.5449 24.2604 22.2526 27.7009C22.8005 28.8176 23.349 29.9929 23.5831 31.2335C23.9213 32.7657 23.5912 34.2761 22.6587 35.7376ZM16.733 36.4501C16.7362 36.7462 16.4867 36.9864 16.1685 36.9899C13.2982 37.0213 10.9711 34.86 10.942 32.1983C10.9388 31.9022 11.1883 31.6652 11.5034 31.6618C11.8216 31.6583 12.0762 31.8898 12.0795 32.1859C12.1336 34.255 13.9511 35.9208 16.1566 35.8966C16.4748 35.8932 16.7298 36.1572 16.733 36.4501Z" fill="#2D3748"/>
<path d="M17.23 2.61377C16.7763 2.61874 16.4035 2.24207 16.3984 1.77352C16.3932 1.30497 16.7577 0.920243 17.2114 0.915279L22.1947 0.467C22.8059 0.460313 23.3098 1.01127 23.3173 1.69783C23.3248 2.38438 22.8331 2.94623 22.2219 2.95292L17.23 2.61377Z" fill="#2D3748"/>
<path d="M14.369 0.946367C14.8227 0.941403 15.1955 1.31807 15.2006 1.78662C15.2057 2.25517 14.8413 2.6399 14.3876 2.64486L9.40429 3.09314C8.79305 3.09983 8.28916 2.54887 8.28165 1.86231C8.27415 1.17576 8.76273 0.613942 9.37712 0.607221L14.369 0.946367Z" fill="#2D3748"/>
<path d="M17.7622 1.75854C17.7719 2.64684 17.0835 3.37355 16.2233 3.38296L15.4104 3.39185C14.5503 3.40126 13.8461 2.68979 13.8364 1.80149C13.8267 0.913201 14.5152 0.186489 15.3753 0.177079L16.1882 0.168185C17.0483 0.158775 17.7525 0.870251 17.7622 1.75854Z" fill="#2D3748"/>
<path d="M18.2265 6.44281C18.2358 7.29206 17.1783 7.99026 15.8676 8.0046C14.5569 8.01894 13.4845 7.34078 13.4752 6.49479L13.4641 5.47309C13.4548 4.62384 14.5122 3.92564 15.8229 3.9113C17.1336 3.89696 18.2061 4.57511 18.2153 5.42111L18.2265 6.44281Z" fill="#2D3748"/>
<path d="M27.9928 11.1782C27.9646 8.59791 25.9159 6.24475 23.4174 6.27208L8.40418 6.43633C5.90881 6.46363 3.9089 8.86434 3.93706 11.4414C1.8954 11.4637 0.141354 13.2955 0.165822 15.5341L0.195517 18.2511L0.239829 22.3053L3.93247 22.2649C5.97098 22.2426 7.60527 20.4089 7.5808 18.1703L7.57867 17.975C7.55758 16.0455 9.05597 14.4638 10.9243 14.4434L13.404 14.4163C13.404 14.4163 14.2714 13.0563 15.9192 13.0383C17.5671 13.0202 18.464 14.3609 18.464 14.3609L20.9279 14.334C22.7962 14.3135 24.3288 15.862 24.3499 17.7915L24.371 17.9866C24.3954 20.2252 26.0694 22.0227 28.1079 22.0004L31.8006 21.96L31.7563 17.909L31.7266 15.1921C31.7084 12.9501 30.0345 11.1559 27.9928 11.1782Z" fill="#2D3748"/>
</svg>
