<svg width="48" height="48" viewBox="0 0 48 48" fill="none" xmlns="http://www.w3.org/2000/svg">
<circle cx="24" cy="24" r="24" fill="#5286E9"/>
<path d="M33.787 27.3023C33.5081 25.7691 32.8691 24.3688 32.2337 23.0978C30.3239 19.2164 28.0259 15.694 25.7631 12.4338L25.4807 11.9778C25.0924 11.4249 24.6299 11.1304 24.1004 11.1304C23.3238 11.1304 22.8296 11.7803 22.6884 11.9778C22.6884 11.9778 22.6884 11.9778 22.6884 12.0101L22.1942 12.7282C21.3116 14.0316 20.3903 15.4032 19.5042 16.7712C18.124 18.9219 16.3907 21.7944 15.1199 24.8571C14.6963 25.8697 14.3079 26.8786 14.2726 27.9881C14.1314 30.857 15.2611 33.2698 17.598 35.1621C19.4019 36.627 21.6999 37.4456 24.0686 37.4456C27.5352 37.4456 30.684 35.8155 32.4844 33.0436C33.6811 31.216 34.14 29.2556 33.787 27.3023ZM31.3477 32.4225C29.7909 34.8353 27.0692 36.2356 24.0616 36.2356C22.0141 36.2356 19.9949 35.5498 18.4417 34.2788C16.4225 32.6487 15.434 30.5302 15.5435 28.0492C15.5752 27.1371 15.8965 26.2575 16.3201 25.3096C17.5592 22.3114 19.2571 19.5036 20.5986 17.3852C21.4493 16.0495 22.3671 14.6779 23.285 13.3745L23.7439 12.6887C23.7439 12.6564 23.7792 12.6564 23.7792 12.6241C23.8498 12.5272 23.991 12.362 24.0616 12.3297C24.0616 12.3297 24.1675 12.362 24.344 12.6241L24.6264 13.0478C26.8186 16.2434 29.1202 19.7334 30.9911 23.5502C31.5912 24.7889 32.1914 26.0923 32.4385 27.4639C32.7985 29.1586 32.4102 30.8211 31.3477 32.4225ZM24.7005 33.137C24.7005 33.4637 24.4181 33.7258 24.0616 33.7258C20.8457 33.7258 18.2652 31.313 18.2652 28.3759C18.2652 28.0492 18.5476 27.7906 18.9006 27.7906C19.2571 27.7906 19.5395 28.0492 19.5395 28.3759C19.5748 30.6595 21.5905 32.5194 24.0616 32.5194C24.4181 32.5194 24.7005 32.8138 24.7005 33.137Z" fill="white"/>
</svg>
