<svg width="275" height="226" viewBox="0 0 275 226" fill="none" xmlns="http://www.w3.org/2000/svg">
<path d="M25.0234 187.08V155.347H26.0725V153.773H32.8913H32.9787H33.0661V155.347H34.1152V173.268H39.0108M43.3818 173.268H39.0108M39.0108 173.268V149.14H40.7592V139.523H43.8189M48.5396 183.583H39.273M48.5396 183.583V160.242M48.5396 183.583H55.8829M43.8189 139.523H46.6164V149.14H48.4522H48.5396V160.242M43.8189 139.523V132.792M246.198 183.583H55.8829M48.5396 160.242H55.8829V183.583" stroke="#2D3748" stroke-width="1.1047"/>
<path d="M55.8828 160.241V145.03H66.8104V172.393M66.8978 159.979L71.8808 155.608M71.8808 155.608V183.582M71.8808 155.608V131.742H89.4524V149.051M89.4524 183.582V149.051M89.4524 149.051H101.691M101.691 149.051V183.582M101.691 149.051V118.804V118.629H103.09M118.826 183.582V118.629H117.514M103.09 118.629V95.3749L104.168 93.102M103.09 118.629H113.755M117.514 118.629V95.3749L116.64 93.5092M117.514 118.629H113.755M104.168 93.102V89.2555L106.674 84.3599M104.168 93.102L106.674 87.8178M106.674 84.3599V81.475L110.346 72.4707L114.018 81.475V84.3599M106.674 84.3599V87.8178M114.018 84.3599L116.64 89.2555V93.5092M114.018 84.3599V87.9122M116.64 93.5092L114.018 87.9122M106.674 87.8178L110.346 80.0763L114.018 87.9122M106.936 94.0636L110.346 86.8077L113.755 94.0636V118.629" stroke="#2D3748" stroke-width="1.1047"/>
<path d="M106.938 118.63V103.331M106.938 103.331V94.0649L110.41 86.9033M106.938 103.331H113.756M118.827 150.014H121.974L128.705 141.01M128.705 141.01V183.584M128.705 141.01V104.468L129.19 103.474" stroke="#2D3748" stroke-width="1.1047"/>
<path d="M128.705 104.468L130.168 101.32M146.014 183.583V104.468L144.441 101.082M130.168 101.32L137.36 85.8469L144.441 101.082M130.168 101.32V95.2884L137.36 80.0771L144.441 95.2884V101.082" stroke="#2D3748" stroke-width="1.1047"/>
<path d="M143.479 93.102V89.1681V89.0807L140.769 84.0977M140.769 87.3323V81.3002L137.36 72.9079M137.36 72.9079L133.688 81.3002V84.0977M137.36 72.9079V58.3086M133.688 87.7694V84.0977M133.688 84.0977L131.24 89.1681V93.0146M146.014 130.168H146.976L150.997 135.851V151.062H157.816M157.816 151.062V118.279H174.076V183.582M157.816 151.062V183.582" stroke="#2D3748" stroke-width="1.1047"/>
<path d="M160.264 118.28V114.259M171.716 118.28V114.259M171.716 114.259V113.559L166.033 107.44L160.264 113.559V114.259M171.716 114.259H160.264M174.076 168.722H181.857M186.49 168.722H181.857M181.857 168.722V138.474H188.85M188.85 138.474V183.583M188.85 138.474V88.4696H193.658M193.658 88.4696L191.735 183.583L195.844 99.2224H200.215L203.012 153.948L202.313 88.4696M193.658 88.4696L194.183 77.3672H201.876L202.313 88.4696M202.313 88.4696H207.121V153.948" stroke="#2D3748" stroke-width="1.1047"/>
<path d="M196.98 183.584V154.735H222.332M222.332 154.735V168.023H219.535V183.584M222.332 154.735V136.027H223.294V134.541H230.2V136.027H231.424V171.782H233.26V141.884H237.631M251.181 191.014V174.754H242.352V141.884H237.631M237.631 141.884V133.754" stroke="#2D3748" stroke-width="1.1047"/>
<path d="M101.691 135.939H118.913M101.691 153.511H118.826M101.691 170.82H118.826M128.704 118.63H133.775M146.014 118.63H140.856M133.775 118.63V100.883L137.272 93.54L140.856 100.883V118.63M133.775 118.63H140.856" stroke="#2D3748" stroke-width="1.1047"/>
<path d="M133.862 112.86L135.567 109.669M137.272 106.478V93.7148M137.272 106.478L139.064 109.669M137.272 106.478L135.567 109.669M140.856 112.86L139.064 109.669M139.064 109.669V97.2117M135.567 109.669V97.2117M162.711 114.259V118.28M166.033 114.259V118.28M169.355 114.259V118.28M77.6506 137.338V134.715M74.5909 137.338V134.715M80.7104 137.338V134.715M83.7701 137.338V134.715M86.8298 137.338V134.715M71.8809 140.398H89.4524M74.5909 144.769H86.8298M74.5909 149.052H86.8298M74.5909 153.336H86.8298M74.5909 157.619H86.8298M74.5909 161.903H86.8298M74.5909 166.187H86.8298M74.5909 170.47H86.8298M74.5909 174.841H86.8298" stroke="#2D3748" stroke-width="1.1047"/>
<path d="M106.938 118.63V183.583H113.756V118.63M160.352 123.875V133.142M163.149 123.875V133.142M165.946 123.875V133.142M168.919 123.875V133.142M171.804 123.875V133.142" stroke="#2D3748" stroke-width="1.1047"/>
<path d="M160.352 138.999V148.266M163.149 138.999V148.266M165.946 138.999V148.266M168.919 138.999V148.266M171.804 138.999V148.266M160.352 169.771V179.038M163.149 169.771V179.038M165.946 169.771V179.038M168.919 169.771V179.038M171.804 169.771V179.038" stroke="#2D3748" stroke-width="1.1047"/>
<path d="M160.352 154.56V163.826M163.149 154.56V163.826M165.946 154.56V163.826M168.919 154.56V163.826M171.804 154.56V163.826" stroke="#2D3748" stroke-width="1.1047"/>
<path d="M201.176 159.455H222.332V164.438H201.176M201.176 169.508H219.534M201.176 174.491H219.534M201.176 179.562H219.534" stroke="#2D3748" stroke-width="1.1047"/>
<rect x="79.4863" y="16.748" width="3.72612" height="3.72612" rx="0.621019" transform="rotate(-25 79.4863 16.748)" fill="#F15447"/>
<rect x="20.4805" y="19.6777" width="1.86306" height="1.86306" rx="0.621019" transform="rotate(-25 20.4805 19.6777)" fill="#10B6FF"/>
<rect x="117.037" y="51.5479" width="5.21656" height="5.21656" rx="0.621019" transform="rotate(-25 117.037 51.5479)" fill="#EFC715"/>
<rect x="194.125" y="61.2949" width="3.72612" height="3.72612" rx="0.621019" transform="rotate(-25 194.125 61.2949)" fill="#398673"/>
<rect x="16.8789" y="191.295" width="1.86306" height="1.86306" rx="0.621019" transform="rotate(-25 16.8789 191.295)" fill="#10B6FF"/>
<rect x="107.051" y="196.438" width="5.21656" height="5.21656" rx="0.621019" transform="rotate(-25 107.051 196.438)" fill="#5DA694"/>
<path d="M30.989 217C30.8441 216.689 30.9786 216.32 31.2894 216.175L32.8653 215.44C33.1762 215.295 33.5457 215.43 33.6906 215.741L34.4255 217.316C34.5704 217.627 34.436 217.997 34.1251 218.142L32.5492 218.877C32.2383 219.022 31.8688 218.887 31.7239 218.576L30.989 217Z" fill="#10B6FF"/>
<rect x="257.338" y="191.304" width="2.98089" height="2.98089" rx="0.621019" transform="rotate(-25 257.338 191.304)" fill="#9E9E9E"/>
<rect x="198.092" y="200.412" width="5.21656" height="5.21656" rx="0.621019" transform="rotate(-25 198.092 200.412)" fill="#E1473A"/>
<path d="M65.7952 199.757L66.5423 203.994L62.4993 202.522L65.7952 199.757Z" fill="#F2853A"/>
<path d="M92.376 221.01L96.6132 221.757L93.8476 225.053L92.376 221.01Z" fill="#EFC715"/>
<circle cx="245.91" cy="41.4957" r="3.1051" fill="#EFC715"/>
<g filter="url(#filter0_d_8303_161239)">
<path d="M81.651 25.4551C77.1314 25.4703 72.7655 27.0978 69.3389 30.0448C65.9122 32.9918 63.6495 37.0649 62.9579 41.5313C62.2664 45.9977 63.1913 50.5642 65.5662 54.4096C67.9412 58.2549 71.6104 61.1265 75.9138 62.5079L80.9816 72.811C81.0418 72.9376 81.1366 73.0445 81.2551 73.1194C81.3735 73.1942 81.5108 73.234 81.651 73.234C81.7911 73.234 81.9284 73.1942 82.0469 73.1194C82.1654 73.0445 82.2602 72.9376 82.3203 72.811L87.4121 62.5079C91.7173 61.1258 95.3878 58.2522 97.7626 54.4044C100.137 50.5567 101.061 45.9875 100.366 41.5195C99.6712 37.0515 97.4043 32.9784 93.9733 30.0333C90.5423 27.0882 86.1726 25.4647 81.651 25.4551Z" fill="#FF9A55"/>
</g>
<path d="M81.651 25.4551C77.1314 25.4703 72.7655 27.0978 69.3389 30.0448C65.9122 32.9918 63.6495 37.0649 62.9579 41.5313C62.2664 45.9977 63.1913 50.5642 65.5662 54.4096C67.9412 58.2549 71.6104 61.1265 75.9138 62.5079L80.9816 72.811C81.0418 72.9376 81.1366 73.0445 81.2551 73.1194C81.3735 73.1942 81.5108 73.234 81.651 73.234C81.7911 73.234 81.9284 73.1942 82.0469 73.1194C82.1654 73.0445 82.2602 72.9376 82.3203 72.811L87.4121 62.5079C91.7173 61.1258 95.3878 58.2522 97.7626 54.4044C100.137 50.5567 101.061 45.9875 100.366 41.5195C99.6712 37.0515 97.4043 32.9784 93.9733 30.0333C90.5423 27.0882 86.1726 25.4647 81.651 25.4551ZM85.3324 59.8783L81.8183 67.2411C81.8059 67.2722 81.7845 67.2988 81.7568 67.3175C81.7291 67.3363 81.6964 67.3463 81.6629 67.3463C81.6295 67.3463 81.5968 67.3363 81.5691 67.3175C81.5414 67.2988 81.52 67.2722 81.5075 67.2411L77.9935 59.9022C75.0864 59.2149 72.4317 57.7224 70.3338 55.5958C68.236 53.4691 66.7798 50.7943 66.1322 47.8781C65.4846 44.9619 65.6718 41.9222 66.6723 39.1074C67.6729 36.2927 69.4462 33.8169 71.7892 31.9637C74.1322 30.1105 76.9499 28.955 79.9194 28.6296C82.8889 28.3042 85.89 28.8221 88.5787 30.1239C91.2674 31.4258 93.5349 33.4588 95.1212 35.9901C96.7075 38.5214 97.5485 41.4484 97.5478 44.4357C97.5344 48.0057 96.3234 51.4679 94.1086 54.2678C91.8937 57.0678 88.8034 59.0434 85.3324 59.8783Z" fill="white"/>
<path d="M90.5259 42.0235C90.4508 41.8137 90.3137 41.6316 90.1329 41.5015C89.952 41.3713 89.7359 41.2993 89.5131 41.2948H89.0437C88.9544 40.6495 88.8266 40.0103 88.6609 39.3804C88.4412 38.6125 88.3208 37.8197 88.3027 37.0213C88.3027 36.5643 88.3027 36.1938 88.3027 35.8974C88.4436 35.8567 88.5693 35.7752 88.6638 35.6631C88.7584 35.5509 88.8175 35.4133 88.8338 35.2675L88.8955 34.6376C88.9127 34.4396 88.851 34.2428 88.7237 34.0901C88.5965 33.9375 88.4141 33.8412 88.2162 33.8224L84.9803 33.5013H84.9062C84.724 33.5034 84.5489 33.5726 84.4145 33.6957C84.2801 33.8187 84.1957 33.9869 84.1775 34.1683L84.1157 34.8105C84.0987 34.9488 84.1223 35.089 84.1837 35.214C84.2451 35.3391 84.3417 35.4435 84.4615 35.5145C84.4615 35.7986 84.338 36.1444 84.2639 36.5767C84.1959 36.9414 84.1009 37.3005 83.9799 37.6512L83.9058 37.2683L83.3006 33.8718C83.2899 33.8001 83.2647 33.7313 83.2265 33.6697C83.1882 33.6081 83.1378 33.555 83.0782 33.5137C82.7092 33.2646 82.2928 33.0944 81.855 33.0137C81.4173 32.9329 80.9675 32.9433 80.5339 33.0443C79.2829 33.3463 78.081 33.8246 76.9645 34.4647C76.5378 34.7061 76.0964 34.9206 75.643 35.1069C74.707 35.428 73.7106 35.5336 72.7281 35.4157C72.6409 35.4042 72.5523 35.4127 72.4688 35.4405C72.3854 35.4683 72.3093 35.5148 72.2465 35.5763C72.1838 35.638 72.1375 35.7143 72.1116 35.7984C72.0857 35.8825 72.0811 35.9717 72.0983 36.058L73.0122 41.2948H72.827C72.6013 41.2992 72.3818 41.3693 72.1953 41.4965C72.0089 41.6237 71.8635 41.8026 71.7771 42.0111L69.9739 45.9387C69.894 46.1051 69.8588 46.2894 69.8718 46.4734C69.8848 46.6575 69.9455 46.8351 70.048 46.9885C70.127 47.1182 70.2375 47.2258 70.3692 47.3014C70.5009 47.377 70.6496 47.418 70.8014 47.4208H72.4441V53.0405C72.4205 53.4907 72.5762 53.9318 72.8771 54.2675C73.178 54.6031 73.5996 54.8059 74.0497 54.8314H88.772C89.2221 54.8059 89.6437 54.6031 89.9446 54.2675C90.2455 53.9318 90.4012 53.4907 90.3776 53.0405V47.4208H91.3534C91.4991 47.4188 91.6421 47.3805 91.7693 47.3093C91.8966 47.2382 92.0041 47.1364 92.0821 47.0132C92.1873 46.8595 92.2535 46.6824 92.275 46.4974C92.2965 46.3123 92.2727 46.1248 92.2056 45.9511L90.5259 42.0235ZM84.4986 39.2445C84.882 38.46 85.1642 37.6299 85.3385 36.7743C85.4126 36.3297 85.4867 35.9838 85.5361 35.6998L87.1664 35.8603C87.1664 36.1568 87.1664 36.5396 87.1664 37.0954C87.1832 37.9777 87.3161 38.8539 87.5616 39.7015C87.6851 40.2079 87.8086 40.7266 87.9075 41.3565H83.7205C83.879 40.7996 84.0771 40.2548 84.3133 39.7262L84.4986 39.2445ZM73.6792 42.4063H85.6225L83.8687 46.3216H71.0731L72.8393 42.4187L73.6792 42.4063ZM76.0506 36.1444C76.5463 35.9398 77.0289 35.7047 77.4956 35.4404C78.5173 34.8445 79.6196 34.3994 80.7686 34.1189C81.261 34.0053 81.7777 34.071 82.226 34.3041L82.6089 36.4408C82.1344 36.3231 81.6383 36.3231 81.1638 36.4408C79.9192 36.7621 78.7259 37.2569 77.6191 37.9106C77.1979 38.1543 76.7605 38.3689 76.3099 38.5528C75.4685 38.8582 74.5716 38.9803 73.6792 38.911L73.321 36.5767C74.2505 36.615 75.1784 36.4681 76.0506 36.1444ZM73.9262 40.0226C74.8722 40.0669 75.8173 39.9199 76.7052 39.5903C77.2025 39.3988 77.6854 39.1718 78.1502 38.911C79.1775 38.3177 80.2836 37.8728 81.4356 37.5895C81.897 37.458 82.3895 37.4885 82.8312 37.6759L83.1523 39.5039C82.9228 40.0747 82.733 40.6607 82.5842 41.2577H74.1485L73.9262 40.0226ZM86.0301 53.7321H74.025C73.7533 53.7321 73.531 53.4234 73.531 53.0528V47.4208H83.8687C84.093 47.4172 84.3113 47.3472 84.4959 47.2197C84.6805 47.0922 84.8233 46.913 84.9062 46.7045L86.0178 44.2343L86.0301 53.7321ZM89.2784 53.0528C89.2784 53.4234 89.0561 53.7321 88.7844 53.7321H87.1293V43.9378L88.278 46.6921C88.3158 46.8012 88.3746 46.9019 88.4509 46.9885L88.525 47.0626C88.5722 47.1222 88.6261 47.176 88.6856 47.2232H88.7844C88.8366 47.2617 88.8951 47.2909 88.9573 47.3097H89.0808H89.2661L89.2784 53.0528ZM90.39 46.3216H89.3155L87.6975 42.4681H88.7967H89.5131L91.1187 46.3216H90.39ZM91.1558 46.4204H91.2669L91.6127 46.2722L91.1558 46.4204Z" fill="white"/>
<g filter="url(#filter1_d_8303_161239)">
<path d="M169.292 20.3115C164.772 20.3268 160.406 21.9543 156.979 24.9013C153.553 27.8483 151.29 31.9213 150.599 36.3877C149.907 40.8541 150.832 45.4207 153.207 49.266C155.582 53.1113 159.251 55.983 163.554 57.3643L168.622 67.6674C168.682 67.794 168.777 67.9009 168.896 67.9758C169.014 68.0507 169.151 68.0904 169.292 68.0904C169.432 68.0904 169.569 68.0507 169.688 67.9758C169.806 67.9009 169.901 67.794 169.961 67.6674L175.053 57.3643C179.358 55.9823 183.028 53.1087 185.403 49.2609C187.778 45.4131 188.701 40.8439 188.007 36.3759C187.312 31.908 185.045 27.8348 181.614 24.8897C178.183 21.9446 173.813 20.3211 169.292 20.3115Z" fill="#5DA694"/>
</g>
<path d="M169.292 20.3115C164.772 20.3268 160.406 21.9543 156.979 24.9013C153.553 27.8483 151.29 31.9213 150.599 36.3877C149.907 40.8541 150.832 45.4207 153.207 49.266C155.582 53.1113 159.251 55.983 163.554 57.3643L168.622 67.6674C168.682 67.794 168.777 67.9009 168.896 67.9758C169.014 68.0507 169.151 68.0904 169.292 68.0904C169.432 68.0904 169.569 68.0507 169.688 67.9758C169.806 67.9009 169.901 67.794 169.961 67.6674L175.053 57.3643C179.358 55.9823 183.028 53.1087 185.403 49.2609C187.778 45.4131 188.701 40.8439 188.007 36.3759C187.312 31.908 185.045 27.8348 181.614 24.8897C178.183 21.9446 173.813 20.3211 169.292 20.3115ZM172.973 54.7348L169.459 62.0975C169.447 62.1286 169.425 62.1552 169.397 62.174C169.37 62.1927 169.337 62.2028 169.304 62.2028C169.27 62.2028 169.237 62.1927 169.21 62.174C169.182 62.1552 169.161 62.1286 169.148 62.0975L165.634 54.7587C162.727 54.0714 160.072 52.5789 157.974 50.4522C155.877 48.3255 154.42 45.6508 153.773 42.7345C153.125 39.8183 153.312 36.7786 154.313 33.9639C155.313 31.1492 157.087 28.6733 159.43 26.8201C161.773 24.9669 164.591 23.8114 167.56 23.486C170.53 23.1606 173.531 23.6786 176.219 24.9804C178.908 26.2822 181.175 28.3153 182.762 30.8466C184.348 33.3778 185.189 36.3049 185.188 39.2921C185.175 42.8621 183.964 46.3243 181.749 49.1243C179.534 51.9242 176.444 53.8998 172.973 54.7348Z" fill="#F7F8FA"/>
<path d="M176.971 35.2018C177.041 34.6801 176.999 34.1496 176.848 33.6455C176.514 32.7096 175.883 31.9086 175.051 31.3646C174.219 30.8205 173.233 30.5632 172.241 30.6319C172.015 29.9159 171.586 29.2809 171.006 28.804C169.116 27.2354 166.029 27.8035 164.126 30.0638C163.747 30.5053 163.435 31.0006 163.2 31.5335C162.494 31.8259 161.879 32.3019 161.418 32.9122C160.958 33.5224 160.669 34.2447 160.582 35.0041C160.545 35.6274 160.66 36.2502 160.915 36.8197C160.502 37.1361 160.166 37.5412 159.931 38.0051C159.696 38.4691 159.568 38.9799 159.557 39.4999C159.596 40.0555 159.752 40.5966 160.015 41.0877C160.278 41.5787 160.642 42.0086 161.083 42.3491C161.524 42.6896 162.032 42.9331 162.573 43.0636C163.115 43.1941 163.678 43.2087 164.225 43.1064C164.68 43.5823 165.272 43.9037 165.919 44.0256C166.566 44.1474 167.235 44.0635 167.832 43.7857C168.228 43.9363 168.644 44.0278 169.067 44.0574V48.4173H166.189C166.025 48.4173 165.868 48.4823 165.752 48.5981C165.637 48.7139 165.572 48.871 165.572 49.0348C165.575 49.1976 165.641 49.3528 165.756 49.468C165.871 49.5831 166.026 49.6492 166.189 49.6524H173.377C173.541 49.6524 173.698 49.5873 173.814 49.4715C173.93 49.3557 173.995 49.1986 173.995 49.0348C173.995 48.871 173.93 48.7139 173.814 48.5981C173.698 48.4823 173.541 48.4173 173.377 48.4173H170.351V44.008C170.821 43.9203 171.272 43.7533 171.685 43.5139C172.915 43.9511 174.253 43.9814 175.502 43.6004C178.355 42.7605 180.109 40.1545 179.417 37.7954C179.23 37.2074 178.913 36.6689 178.49 36.2199C178.066 35.7709 177.548 35.4229 176.971 35.2018ZM175.156 42.4147C174.075 42.752 172.91 42.6906 171.871 42.2418L171.525 42.0936L171.216 42.3282C170.959 42.5204 170.665 42.6552 170.351 42.7235V37.4743H170.586C171.228 37.4892 171.855 37.2844 172.365 36.8938C173.027 36.3067 173.442 35.4901 173.526 34.6089C173.539 34.447 173.489 34.2861 173.385 34.1613C173.281 34.0364 173.132 33.9576 172.97 33.942C172.807 33.9316 172.646 33.9851 172.521 34.0911C172.397 34.1971 172.319 34.3474 172.303 34.5101C172.245 35.055 171.99 35.5601 171.586 35.9305C171.409 36.0566 171.209 36.1467 170.997 36.1954C170.785 36.2441 170.566 36.2506 170.351 36.2145V34.5595C170.351 34.3957 170.286 34.2386 170.17 34.1228C170.055 34.007 169.898 33.942 169.734 33.942C169.57 33.942 169.413 34.007 169.297 34.1228C169.181 34.2386 169.116 34.3957 169.116 34.5595V39.4011C168.397 39.4775 167.675 39.2838 167.091 38.8576C166.394 38.2102 165.956 37.3329 165.856 36.3874C165.851 36.3068 165.83 36.2279 165.795 36.1554C165.759 36.0829 165.709 36.0183 165.648 35.9653C165.587 35.9124 165.516 35.8722 165.439 35.8471C165.363 35.822 165.282 35.8126 165.201 35.8193C165.12 35.8255 165.041 35.8478 164.968 35.8847C164.896 35.9217 164.831 35.9726 164.778 36.0346C164.725 36.0966 164.685 36.1684 164.66 36.2459C164.635 36.3234 164.626 36.4051 164.633 36.4862C164.741 37.7784 165.354 38.9762 166.337 39.821C167.067 40.3877 167.97 40.6844 168.894 40.6609H169.116V42.8346C168.76 42.812 168.412 42.7196 168.091 42.5629L167.77 42.4147L167.474 42.6247C167.08 42.8727 166.607 42.9635 166.149 42.8788C165.692 42.7941 165.282 42.5402 165.003 42.1677L164.781 41.7972L164.349 41.8836C163.959 42.0065 163.547 42.0415 163.142 41.9861C162.737 41.9306 162.349 41.7861 162.006 41.5629C161.664 41.3396 161.375 41.0433 161.161 40.6951C160.946 40.347 160.812 39.9556 160.767 39.5493C160.785 39.1445 160.908 38.7515 161.125 38.4091C161.341 38.0668 161.644 37.7871 162.002 37.5978L162.521 37.2891L162.15 36.7086C161.852 36.22 161.718 35.6486 161.767 35.0782C161.86 34.5163 162.102 33.9898 162.47 33.5548C162.837 33.1198 163.316 32.7926 163.855 32.6081L164.139 32.5339L164.238 32.2993C164.438 31.797 164.717 31.3301 165.065 30.916C166.535 29.1498 168.845 28.6434 170.216 29.7797C170.701 30.2 171.024 30.7767 171.129 31.41L171.228 31.9658H171.796C172.588 31.7922 173.415 31.901 174.134 32.2732C174.854 32.6454 175.421 33.2576 175.736 34.0037C175.872 34.4716 175.872 34.9685 175.736 35.4364L175.576 36.0293L176.156 36.2022C176.631 36.3315 177.067 36.5762 177.425 36.9145C177.782 37.2528 178.051 37.6742 178.207 38.1413C178.725 39.8457 177.354 41.7601 175.156 42.4147Z" fill="white"/>
<g filter="url(#filter2_d_8303_161239)">
<path d="M29.3619 87.3291C24.8423 87.3444 20.4765 88.9719 17.0498 91.9188C13.6231 94.8658 11.3604 98.9389 10.6689 103.405C9.9773 107.872 10.9022 112.438 13.2772 116.284C15.6522 120.129 19.3214 123.001 23.6247 124.382L28.6926 134.685C28.7527 134.812 28.8475 134.919 28.966 134.993C29.0845 135.068 29.2218 135.108 29.3619 135.108C29.5021 135.108 29.6393 135.068 29.7578 134.993C29.8763 134.919 29.9711 134.812 30.0313 134.685L35.123 124.382C39.4283 123 43.0987 120.126 45.4735 116.278C47.8484 112.431 48.7715 107.861 48.0768 103.394C47.3821 98.9256 45.1152 94.8524 41.6842 91.9073C38.2532 88.9622 33.8835 87.3387 29.3619 87.3291Z" fill="#7C7C7C"/>
</g>
<path d="M29.3619 87.3291C24.8423 87.3444 20.4765 88.9719 17.0498 91.9188C13.6231 94.8658 11.3604 98.9389 10.6689 103.405C9.9773 107.872 10.9022 112.438 13.2772 116.284C15.6522 120.129 19.3214 123.001 23.6247 124.382L28.6926 134.685C28.7527 134.812 28.8475 134.919 28.966 134.993C29.0845 135.068 29.2218 135.108 29.3619 135.108C29.5021 135.108 29.6393 135.068 29.7578 134.993C29.8763 134.919 29.9711 134.812 30.0313 134.685L35.123 124.382C39.4283 123 43.0987 120.126 45.4735 116.278C47.8484 112.431 48.7715 107.861 48.0768 103.394C47.3821 98.9256 45.1152 94.8524 41.6842 91.9073C38.2532 88.9622 33.8835 87.3387 29.3619 87.3291ZM33.0433 121.752L29.5292 129.115C29.5168 129.146 29.4954 129.173 29.4677 129.192C29.44 129.21 29.4073 129.22 29.3739 129.22C29.3404 129.22 29.3077 129.21 29.28 129.192C29.2523 129.173 29.2309 129.146 29.2185 129.115L25.7044 121.776C22.7973 121.089 20.1427 119.596 18.0448 117.47C15.9469 115.343 14.4907 112.668 13.8431 109.752C13.1955 106.836 13.3827 103.796 14.3832 100.981C15.3838 98.1667 17.1572 95.6909 19.5002 93.8377C21.8431 91.9845 24.6609 90.829 27.6304 90.5036C30.5999 90.1782 33.601 90.6961 36.2896 91.998C38.9783 93.2998 41.2458 95.3329 42.8321 97.8641C44.4185 100.395 45.2595 103.322 45.2588 106.31C45.2454 109.88 44.0343 113.342 41.8195 116.142C39.6047 118.942 36.5143 120.917 33.0433 121.752Z" fill="#F7F8FA"/>
<path d="M39.3687 104.261C39.161 104.053 38.9146 103.888 38.6433 103.776C38.372 103.664 38.0813 103.606 37.7877 103.606H29.525V99.2213H30.4636C30.5436 99.223 30.623 99.2085 30.6972 99.1787C30.7714 99.1489 30.8388 99.1043 30.8953 99.0478C30.9518 98.9913 30.9964 98.9239 31.0262 98.8497C31.056 98.7755 31.0705 98.6961 31.0688 98.6161V96.2941C31.0688 96.2152 31.0531 96.1371 31.0225 96.0644C30.992 95.9916 30.9472 95.9257 30.8908 95.8705C30.8345 95.8153 30.7676 95.7719 30.6943 95.7428C30.6209 95.7138 30.5425 95.6997 30.4636 95.7013H22.1514C22.0723 95.7005 21.9939 95.7166 21.9215 95.7486C21.849 95.7805 21.7843 95.8276 21.7315 95.8866C21.6765 95.9418 21.6329 96.0073 21.6032 96.0793C21.5736 96.1514 21.5584 96.2286 21.5586 96.3065V98.6532C21.5586 98.8116 21.6206 98.9637 21.7315 99.0768C21.8423 99.19 21.9931 99.2551 22.1514 99.2584H23.2136V107.632C23.2078 107.69 23.2078 107.748 23.2136 107.805C23.2078 107.863 23.2078 107.921 23.2136 107.978V111.98C23.2175 112.62 23.4538 113.238 23.8786 113.717C24.3034 114.196 24.8879 114.505 25.5232 114.586V117.352C25.5231 117.43 25.5382 117.508 25.5679 117.58C25.5976 117.652 25.6412 117.717 25.6962 117.772C25.8123 117.886 25.9664 117.952 26.1284 117.958H32.798C32.8769 117.958 32.955 117.942 33.0277 117.911C33.1005 117.881 33.1664 117.836 33.2216 117.78C33.2768 117.723 33.3202 117.657 33.3493 117.583C33.3783 117.51 33.3924 117.431 33.3908 117.352V114.574C34.8336 114.532 36.2032 113.929 37.2087 112.894C38.2142 111.858 38.7764 110.471 38.7758 109.028V108.151H39.4551C39.534 108.151 39.6121 108.135 39.6849 108.105C39.7576 108.074 39.8235 108.029 39.8787 107.973C39.934 107.917 39.9774 107.85 40.0064 107.777C40.0355 107.703 40.0496 107.625 40.048 107.546V105.854C40.0471 105.556 39.9865 105.262 39.8698 104.988C39.7532 104.715 39.5827 104.467 39.3687 104.261ZM22.7072 96.9364H29.809V98.0356H28.8827H23.7571H22.7072V96.9364ZM28.2899 99.2213V104.261V106.99H24.3746V99.2213H28.2899ZM26.7583 116.747V114.611H32.2298V116.735L26.7583 116.747ZM37.5654 108.2V109.028C37.5687 109.594 37.4604 110.155 37.2468 110.679C37.0331 111.204 36.7184 111.681 36.3204 112.083C35.9224 112.486 35.4491 112.806 34.9273 113.026C34.4056 113.245 33.8457 113.36 33.2796 113.363H25.8691C25.4829 113.358 25.1127 113.208 24.8316 112.943C24.6927 112.809 24.5828 112.647 24.5085 112.469C24.4341 112.291 24.397 112.099 24.3993 111.906V108.2H28.9198H36.1574H37.5654ZM37.8248 106.867H29.5497V104.853H37.8001C37.9406 104.847 38.0809 104.871 38.211 104.924C38.3412 104.978 38.4581 105.059 38.5535 105.162C38.6516 105.259 38.7294 105.374 38.7825 105.502C38.8355 105.629 38.8626 105.765 38.8623 105.903V106.867H37.8248Z" fill="white"/>
<g clip-path="url(#clip0_8303_161239)">
<g filter="url(#filter3_d_8303_161239)">
<path d="M245.883 74.0723C241.364 74.0875 236.998 75.715 233.571 78.662C230.145 81.609 227.882 85.682 227.19 90.1484C226.499 94.6148 227.424 99.1814 229.799 103.027C232.174 106.872 235.843 109.744 240.146 111.125L245.214 121.428C245.274 121.555 245.369 121.662 245.487 121.737C245.606 121.811 245.743 121.851 245.883 121.851C246.024 121.851 246.161 121.811 246.279 121.737C246.398 121.662 246.493 121.555 246.553 121.428L251.645 111.125C255.95 109.743 259.62 106.869 261.995 103.022C264.37 99.1738 265.293 94.6046 264.598 90.1367C263.904 85.6687 261.637 81.5955 258.206 78.6505C254.775 75.7054 250.405 74.0819 245.883 74.0723Z" fill="#5286E9"/>
</g>
<path d="M245.883 74.0723C241.364 74.0875 236.998 75.715 233.571 78.662C230.145 81.609 227.882 85.682 227.19 90.1484C226.499 94.6148 227.424 99.1814 229.799 103.027C232.174 106.872 235.843 109.744 240.146 111.125L245.214 121.428C245.274 121.555 245.369 121.662 245.487 121.737C245.606 121.811 245.743 121.851 245.883 121.851C246.024 121.851 246.161 121.811 246.279 121.737C246.398 121.662 246.493 121.555 246.553 121.428L251.645 111.125C255.95 109.743 259.62 106.869 261.995 103.022C264.37 99.1738 265.293 94.6046 264.598 90.1367C263.904 85.6687 261.637 81.5955 258.206 78.6505C254.775 75.7054 250.405 74.0819 245.883 74.0723ZM249.565 108.496L246.051 115.858C246.038 115.889 246.017 115.916 245.989 115.935C245.961 115.953 245.929 115.964 245.895 115.964C245.862 115.964 245.829 115.953 245.802 115.935C245.774 115.916 245.752 115.889 245.74 115.858L242.226 108.519C239.319 107.832 236.664 106.34 234.566 104.213C232.468 102.086 231.012 99.4115 230.365 96.4953C229.717 93.5791 229.904 90.5394 230.905 87.7246C231.905 84.9099 233.679 82.434 236.022 80.5809C238.365 78.7277 241.182 77.5722 244.152 77.2468C247.121 76.9214 250.122 77.4393 252.811 78.7411C255.5 80.043 257.767 82.076 259.354 84.6073C260.94 87.1386 261.781 90.0656 261.78 93.0529C261.767 96.6229 260.556 100.085 258.341 102.885C256.126 105.685 253.036 107.661 249.565 108.496Z" fill="#F7F8FA"/>
<path d="M253.867 95.0159C253.622 93.7206 253.059 92.5376 252.5 91.4638C250.818 88.1847 248.795 85.2089 246.803 82.4546L246.555 82.0694C246.213 81.6023 245.806 81.3535 245.34 81.3535C244.656 81.3535 244.221 81.9026 244.097 82.0694C244.097 82.0694 244.097 82.0694 244.097 82.0967L243.662 82.7034C242.885 83.8045 242.074 84.9632 241.294 86.119C240.079 87.936 238.553 90.3627 237.434 92.9502C237.061 93.8056 236.719 94.6579 236.688 95.5953C236.564 98.0189 237.558 100.057 239.615 101.656C241.203 102.894 243.227 103.585 245.312 103.585C248.363 103.585 251.135 102.208 252.72 99.8663C253.774 98.3223 254.178 96.6661 253.867 95.0159ZM251.72 99.3415C250.349 101.38 247.953 102.563 245.306 102.563C243.503 102.563 241.726 101.984 240.358 100.91C238.581 99.5326 237.711 97.7429 237.807 95.6468C237.835 94.8764 238.118 94.1332 238.491 93.3324C239.581 90.7995 241.076 88.4274 242.257 86.6377C243.006 85.5093 243.814 84.3505 244.622 83.2494L245.026 82.67C245.026 82.6427 245.057 82.6427 245.057 82.6154C245.119 82.5335 245.243 82.394 245.306 82.3667C245.306 82.3667 245.399 82.394 245.554 82.6154L245.803 82.9733C247.733 85.6731 249.759 88.6215 251.406 91.846C251.934 92.8925 252.462 93.9936 252.68 95.1524C252.997 96.5841 252.655 97.9886 251.72 99.3415ZM245.868 99.9451C245.868 100.221 245.619 100.443 245.306 100.443C242.474 100.443 240.203 98.4042 240.203 95.9229C240.203 95.6468 240.451 95.4284 240.762 95.4284C241.076 95.4284 241.325 95.6468 241.325 95.9229C241.356 97.8521 243.13 99.4234 245.306 99.4234C245.619 99.4234 245.868 99.6721 245.868 99.9451Z" fill="white" stroke="white" stroke-width="0.20787"/>
</g>
<defs>
<filter id="filter0_d_8303_161239" x="60.9344" y="24.6551" width="41.8574" height="51.7793" filterUnits="userSpaceOnUse" color-interpolation-filters="sRGB">
<feFlood flood-opacity="0" result="BackgroundImageFix"/>
<feColorMatrix in="SourceAlpha" type="matrix" values="0 0 0 0 0 0 0 0 0 0 0 0 0 0 0 0 0 0 127 0" result="hardAlpha"/>
<feOffset dx="0.2" dy="1.2"/>
<feGaussianBlur stdDeviation="1"/>
<feComposite in2="hardAlpha" operator="out"/>
<feColorMatrix type="matrix" values="0 0 0 0 0 0 0 0 0 0 0 0 0 0 0 0 0 0 0.62 0"/>
<feBlend mode="normal" in2="BackgroundImageFix" result="effect1_dropShadow_8303_161239"/>
<feBlend mode="normal" in="SourceGraphic" in2="effect1_dropShadow_8303_161239" result="shape"/>
</filter>
<filter id="filter1_d_8303_161239" x="148.575" y="19.5115" width="41.8574" height="51.7793" filterUnits="userSpaceOnUse" color-interpolation-filters="sRGB">
<feFlood flood-opacity="0" result="BackgroundImageFix"/>
<feColorMatrix in="SourceAlpha" type="matrix" values="0 0 0 0 0 0 0 0 0 0 0 0 0 0 0 0 0 0 127 0" result="hardAlpha"/>
<feOffset dx="0.2" dy="1.2"/>
<feGaussianBlur stdDeviation="1"/>
<feComposite in2="hardAlpha" operator="out"/>
<feColorMatrix type="matrix" values="0 0 0 0 0 0 0 0 0 0 0 0 0 0 0 0 0 0 0.62 0"/>
<feBlend mode="normal" in2="BackgroundImageFix" result="effect1_dropShadow_8303_161239"/>
<feBlend mode="normal" in="SourceGraphic" in2="effect1_dropShadow_8303_161239" result="shape"/>
</filter>
<filter id="filter2_d_8303_161239" x="8.64531" y="86.5291" width="41.8574" height="51.7793" filterUnits="userSpaceOnUse" color-interpolation-filters="sRGB">
<feFlood flood-opacity="0" result="BackgroundImageFix"/>
<feColorMatrix in="SourceAlpha" type="matrix" values="0 0 0 0 0 0 0 0 0 0 0 0 0 0 0 0 0 0 127 0" result="hardAlpha"/>
<feOffset dx="0.2" dy="1.2"/>
<feGaussianBlur stdDeviation="1"/>
<feComposite in2="hardAlpha" operator="out"/>
<feColorMatrix type="matrix" values="0 0 0 0 0 0 0 0 0 0 0 0 0 0 0 0 0 0 0.62 0"/>
<feBlend mode="normal" in2="BackgroundImageFix" result="effect1_dropShadow_8303_161239"/>
<feBlend mode="normal" in="SourceGraphic" in2="effect1_dropShadow_8303_161239" result="shape"/>
</filter>
<filter id="filter3_d_8303_161239" x="225.167" y="73.2723" width="41.8574" height="51.7793" filterUnits="userSpaceOnUse" color-interpolation-filters="sRGB">
<feFlood flood-opacity="0" result="BackgroundImageFix"/>
<feColorMatrix in="SourceAlpha" type="matrix" values="0 0 0 0 0 0 0 0 0 0 0 0 0 0 0 0 0 0 127 0" result="hardAlpha"/>
<feOffset dx="0.2" dy="1.2"/>
<feGaussianBlur stdDeviation="1"/>
<feComposite in2="hardAlpha" operator="out"/>
<feColorMatrix type="matrix" values="0 0 0 0 0 0 0 0 0 0 0 0 0 0 0 0 0 0 0.62 0"/>
<feBlend mode="normal" in2="BackgroundImageFix" result="effect1_dropShadow_8303_161239"/>
<feBlend mode="normal" in="SourceGraphic" in2="effect1_dropShadow_8303_161239" result="shape"/>
</filter>
<clipPath id="clip0_8303_161239">
<rect width="57.3721" height="57.3721" fill="white" transform="translate(217.197 68.502)"/>
</clipPath>
</defs>
</svg>
