<svg width="69" height="70" viewBox="0 0 69 70" fill="none" xmlns="http://www.w3.org/2000/svg">
<g filter="url(#filter0_d_568_38826)">
<path d="M34.5005 7.19922C29.0649 7.21756 23.8142 9.17492 19.693 12.7192C15.5718 16.2635 12.8506 21.162 12.0189 26.5336C11.1871 31.9053 12.2995 37.3974 15.1558 42.0221C18.0122 46.6467 22.425 50.1004 27.6005 51.7617L33.6955 64.153C33.7679 64.3052 33.8819 64.4338 34.0244 64.5239C34.1669 64.6139 34.332 64.6617 34.5005 64.6617C34.6691 64.6617 34.8342 64.6139 34.9767 64.5239C35.1192 64.4338 35.2332 64.3052 35.3055 64.153L41.4293 51.7617C46.6071 50.0996 51.0215 46.6436 53.8776 42.0159C56.7337 37.3883 57.844 31.893 57.0085 26.5195C56.173 21.146 53.4466 16.2473 49.3203 12.7053C45.1939 9.16331 39.9386 7.21078 34.5005 7.19922Z" fill="white"/>
</g>
<path d="M34.5005 7.19922C29.0649 7.21756 23.8142 9.17492 19.693 12.7192C15.5718 16.2635 12.8506 21.162 12.0189 26.5336C11.1871 31.9053 12.2995 37.3974 15.1558 42.0221C18.0122 46.6467 22.425 50.1004 27.6005 51.7617L33.6955 64.153C33.7679 64.3052 33.8819 64.4338 34.0244 64.5239C34.1669 64.6139 34.332 64.6617 34.5005 64.6617C34.6691 64.6617 34.8342 64.6139 34.9767 64.5239C35.1192 64.4338 35.2332 64.3052 35.3055 64.153L41.4293 51.7617C46.6071 50.0996 51.0215 46.6436 53.8776 42.0159C56.7337 37.3883 57.844 31.893 57.0085 26.5195C56.173 21.146 53.4466 16.2473 49.3203 12.7053C45.1939 9.16331 39.9386 7.21078 34.5005 7.19922ZM38.928 48.5992L34.7018 57.4542C34.6868 57.4916 34.6611 57.5236 34.6277 57.5462C34.5944 57.5687 34.5551 57.5808 34.5149 57.5808C34.4747 57.5808 34.4354 57.5687 34.4021 57.5462C34.3687 57.5236 34.343 57.4916 34.328 57.4542L30.1018 48.628C26.6054 47.8014 23.4128 46.0064 20.8897 43.4487C18.3666 40.891 16.6153 37.6741 15.8364 34.1668C15.0576 30.6596 15.2827 27.0038 16.4861 23.6186C17.6894 20.2334 19.8222 17.2557 22.64 15.0269C25.4579 12.7982 28.8467 11.4085 32.418 11.0171C35.9894 10.6258 39.5987 11.2487 42.8323 12.8143C46.0659 14.38 48.793 16.8251 50.7008 19.8694C52.6087 22.9137 53.6201 26.434 53.6193 30.0267C53.6032 34.3203 52.1466 38.4842 49.4829 41.8516C46.8192 45.219 43.1025 47.5951 38.928 48.5992Z" fill="#9E9E9E"/>
<path d="M44.5349 26.5626C44.2852 26.313 43.9888 26.115 43.6626 25.9799C43.3364 25.8448 42.9867 25.7753 42.6336 25.7754H32.6962V20.5021H33.8251C33.9212 20.5042 34.0168 20.4867 34.106 20.4509C34.1952 20.415 34.2763 20.3615 34.3443 20.2935C34.4123 20.2255 34.4658 20.1444 34.5017 20.0552C34.5375 19.966 34.555 19.8704 34.5529 19.7743V16.9817C34.553 16.8868 34.534 16.7929 34.4973 16.7054C34.4605 16.6179 34.4067 16.5386 34.3389 16.4722C34.2711 16.4058 34.1907 16.3536 34.1025 16.3187C34.0143 16.2837 33.92 16.2667 33.8251 16.2687H23.8282C23.733 16.2677 23.6387 16.2871 23.5516 16.3255C23.4645 16.364 23.3867 16.4206 23.3232 16.4915C23.257 16.5579 23.2046 16.6367 23.1689 16.7233C23.1333 16.81 23.115 16.9028 23.1152 16.9966V19.8189C23.1152 20.0093 23.1898 20.1923 23.3231 20.3283C23.4564 20.4644 23.6378 20.5428 23.8282 20.5467H25.1057V30.6178C25.0987 30.687 25.0987 30.7566 25.1057 30.8258C25.0987 30.8949 25.0987 30.9646 25.1057 31.0337V35.8465C25.1103 36.6168 25.3945 37.3592 25.9055 37.9357C26.4164 38.5122 27.1193 38.8836 27.8834 38.9807V42.3081C27.8832 42.4018 27.9014 42.4946 27.9371 42.5813C27.9728 42.6679 28.0252 42.7467 28.0914 42.8131C28.2311 42.9492 28.4164 43.0286 28.6113 43.0359H36.6325C36.7274 43.0359 36.8214 43.017 36.9089 42.9803C36.9963 42.9435 37.0756 42.8896 37.142 42.8219C37.2084 42.7541 37.2606 42.6737 37.2956 42.5855C37.3305 42.4973 37.3475 42.4029 37.3455 42.3081V38.9659C39.0807 38.9156 40.7279 38.1908 41.9372 36.9454C43.1466 35.7001 43.8227 34.0323 43.8219 32.2964V31.2417H44.6389C44.7338 31.2417 44.8278 31.2228 44.9153 31.1861C45.0027 31.1493 45.082 31.0954 45.1484 31.0277C45.2148 30.9599 45.267 30.8795 45.302 30.7913C45.3369 30.703 45.3539 30.6087 45.3519 30.5139V28.4788C45.3509 28.121 45.2781 27.7671 45.1377 27.4379C44.9974 27.1088 44.7924 26.8111 44.5349 26.5626ZM24.4967 17.7541H33.0378V19.0761H31.9238H25.7593H24.4967V17.7541ZM31.2108 20.5021V26.5626V29.8454H26.502V20.5021H31.2108ZM29.3688 41.5802V39.0104H35.9492V41.5654L29.3688 41.5802ZM42.3662 31.3011V32.2964C42.3702 32.9771 42.2399 33.652 41.983 34.2825C41.7261 34.913 41.3475 35.4866 40.8689 35.9708C40.3903 36.4549 39.8209 36.8401 39.1935 37.1042C38.566 37.3683 37.8926 37.5063 37.2118 37.5102H28.2993C27.8349 37.5038 27.3897 37.3236 27.0516 37.0051C26.8846 36.8435 26.7524 36.6494 26.663 36.4349C26.5736 36.2203 26.5289 35.9898 26.5317 35.7574V31.3011H31.9683H40.6729H42.3662ZM42.6782 29.6969H32.7259V27.2756H42.6485C42.8175 27.2676 42.9861 27.2967 43.1427 27.3609C43.2992 27.425 43.4398 27.5227 43.5546 27.647C43.6726 27.7634 43.7662 27.9022 43.83 28.0553C43.8937 28.2083 43.9263 28.3725 43.9259 28.5383V29.6969H42.6782Z" fill="#2D3748"/>
<defs>
<filter id="filter0_d_568_38826" x="9.95" y="6.39922" width="49.5293" height="61.4629" filterUnits="userSpaceOnUse" color-interpolation-filters="sRGB">
<feFlood flood-opacity="0" result="BackgroundImageFix"/>
<feColorMatrix in="SourceAlpha" type="matrix" values="0 0 0 0 0 0 0 0 0 0 0 0 0 0 0 0 0 0 127 0" result="hardAlpha"/>
<feOffset dx="0.2" dy="1.2"/>
<feGaussianBlur stdDeviation="1"/>
<feComposite in2="hardAlpha" operator="out"/>
<feColorMatrix type="matrix" values="0 0 0 0 0 0 0 0 0 0 0 0 0 0 0 0 0 0 0.62 0"/>
<feBlend mode="normal" in2="BackgroundImageFix" result="effect1_dropShadow_568_38826"/>
<feBlend mode="normal" in="SourceGraphic" in2="effect1_dropShadow_568_38826" result="shape"/>
</filter>
</defs>
</svg>
