<svg width="48" height="48" viewBox="0 0 48 48" fill="none" xmlns="http://www.w3.org/2000/svg">
<path d="M42.1133 14.3613C42.1318 14.7837 42.1318 15.1869 42.1318 15.6093C42.1503 28.4158 32.7414 43.1998 15.5349 43.1998C10.46 43.1998 5.47769 41.683 1.19922 38.8414C1.94008 38.9374 2.68094 38.9758 3.4218 38.9758C7.62619 38.9758 11.7194 37.5166 15.0348 34.8094C11.0341 34.7326 7.51506 32.0254 6.29264 28.0702C7.70027 28.3582 9.14495 28.3006 10.5155 27.8974C6.16299 27.0142 3.03285 23.0397 3.01433 18.4125C3.01433 18.3741 3.01433 18.3357 3.01433 18.2973C4.31084 19.0461 5.77404 19.4685 7.25576 19.5069C3.1625 16.6653 1.88452 11.0013 4.3664 6.56609C9.12643 12.6333 16.1276 16.3005 23.6473 16.7037C22.8879 13.3437 23.9251 9.8109 26.3515 7.43009C30.1113 3.76288 36.0382 3.95488 39.5943 7.85249C41.6873 7.43009 43.7061 6.62369 45.5398 5.49088C44.8359 7.73729 43.3727 9.6381 41.428 10.8477C43.2801 10.6173 45.0952 10.0989 46.7992 9.3309C45.5398 11.2893 43.9469 12.9789 42.1133 14.3613Z" fill="#1D9BF0"/>
</svg>
