<svg width="24" height="24" viewBox="0 0 24 24" fill="none" xmlns="http://www.w3.org/2000/svg">
<g clip-path="url(#clip0_8873_129737)">
<path d="M9.59938 1.93989C11.1718 1.57541 12.8063 1.57139 14.3805 1.92813C15.9546 2.28488 17.4277 2.99314 18.6894 3.99989C17.4144 2.91282 15.8974 2.14727 14.2655 1.76746C12.6337 1.38764 10.9345 1.40462 9.31059 1.81697C7.68664 2.22933 6.18523 3.02503 4.93225 4.13737C3.67928 5.24971 2.71126 6.64625 2.10938 8.20989C2.76283 6.64029 3.7846 5.25109 5.0883 4.15975C6.39199 3.0684 7.93929 2.30699 9.59938 1.93989Z" fill="#2D3748"/>
<path d="M22.3797 11.9999C22.3849 10.4781 22.0573 8.97356 21.4199 7.59165C20.7825 6.20973 19.8506 4.98388 18.6897 3.99995C17.428 2.9932 15.9549 2.28493 14.3808 1.92819C12.8066 1.57144 11.1721 1.57546 9.59966 1.93995C7.93958 2.30705 6.39228 3.06846 5.08858 4.1598C3.78489 5.25115 2.76312 6.64034 2.10966 8.20995C1.58371 9.56871 1.34658 11.0221 1.41337 12.4776C1.48017 13.9331 1.84944 15.3587 2.49764 16.6635C3.14584 17.9684 4.05877 19.1239 5.17823 20.0565C6.2977 20.989 7.59915 21.6782 8.99966 22.0799C9.09357 22.0642 9.17935 22.0171 9.24295 21.9462C9.30654 21.8754 9.34417 21.785 9.34966 21.6899C9.34966 21.0699 9.34966 20.4499 9.34966 19.8399L8.39966 19.9199C7.82735 19.986 7.24949 19.8571 6.75953 19.554C6.26957 19.251 5.89615 18.7915 5.69966 18.2499C5.47067 17.6672 5.06505 17.1706 4.53966 16.8299C4.39999 16.7136 4.2696 16.5865 4.14966 16.4499V16.2999C4.36867 16.2704 4.59065 16.2704 4.80966 16.2999C5.1218 16.3706 5.41566 16.5059 5.6723 16.697C5.92894 16.8882 6.14265 17.1311 6.29966 17.4099C6.57186 17.8856 7.0125 18.2419 7.53458 18.4085C8.05667 18.5752 8.62225 18.54 9.11966 18.3099C9.1863 18.2821 9.24595 18.2399 9.29435 18.1863C9.34276 18.1327 9.37872 18.0691 9.39966 17.9999C9.57966 17.6099 9.73966 17.1999 9.90966 16.7699C9.80816 16.7641 9.70759 16.7473 9.60966 16.7199C8.82179 16.5416 8.04935 16.3008 7.29966 15.9999C4.99966 14.8299 4.54966 10.7599 6.07966 9.04995C6.1506 8.97749 6.19881 8.88588 6.21835 8.78639C6.2379 8.68689 6.22792 8.58385 6.18966 8.48995C6.01957 7.80075 6.04031 7.07825 6.24966 6.39995C6.33966 6.02995 6.54966 5.88995 6.87966 6.01995C7.60966 6.29995 8.31966 6.62995 9.04966 6.90995C9.23001 6.99633 9.4308 7.03095 9.62966 7.00995C11.1773 6.66492 12.782 6.66492 14.3297 7.00995C14.5383 7.03093 14.7487 6.99643 14.9397 6.90995C15.6697 6.61995 16.3897 6.29995 17.1197 6.01995C17.4097 5.90995 17.5997 6.01995 17.6897 6.36995C17.9145 7.0761 17.9387 7.83083 17.7597 8.54995C17.7413 8.61712 17.7371 8.6874 17.7474 8.75628C17.7577 8.82517 17.7824 8.89113 17.8197 8.94995C18.1974 9.43146 18.4737 9.98452 18.6318 10.5758C18.79 11.167 18.8266 11.7841 18.7397 12.3899C18.7277 13.3959 18.3627 14.3656 17.7083 15.1297C17.0539 15.8937 16.1518 16.4035 15.1597 16.5699L13.9997 16.7899C14.4911 17.4153 14.7141 18.2102 14.6197 18.9999C14.6197 19.7799 14.6197 20.5599 14.6197 21.3399C14.6197 21.7399 14.7397 21.9599 14.9597 22.0399C17.108 21.3808 18.9882 20.0497 20.3239 18.2425C21.6595 16.4352 22.3801 14.2472 22.3797 11.9999Z" fill="#2D3748"/>
</g>
<defs>
<clipPath id="clip0_8873_129737">
<rect width="24" height="24" fill="white"/>
</clipPath>
</defs>
</svg>
