<svg width="24" height="24" viewBox="0 0 24 24" fill="none" xmlns="http://www.w3.org/2000/svg">
<path d="M17.2203 8.76003C17.9106 8.76003 18.5853 8.55535 19.1593 8.17186C19.7332 7.78837 20.1805 7.24331 20.4447 6.6056C20.7088 5.96788 20.7779 5.26616 20.6433 4.58917C20.5086 3.91217 20.1762 3.29031 19.6881 2.80223C19.2001 2.31414 18.5782 1.98175 17.9012 1.84709C17.2242 1.71243 16.5225 1.78154 15.8848 2.04569C15.2471 2.30984 14.702 2.75716 14.3185 3.33109C13.935 3.90502 13.7303 4.57977 13.7303 5.27003C13.7319 5.76749 13.8411 6.25872 14.0503 6.71003L9.38034 9.71003C8.91512 9.17089 8.29611 8.78696 7.60639 8.60978C6.91668 8.4326 6.18927 8.47065 5.5218 8.71882C4.85433 8.96698 4.27875 9.41339 3.87232 9.99812C3.46588 10.5829 3.24805 11.2779 3.24805 11.99C3.24805 12.7021 3.46588 13.3972 3.87232 13.9819C4.27875 14.5667 4.85433 15.0131 5.5218 15.2612C6.18927 15.5094 6.91668 15.5475 7.60639 15.3703C8.29611 15.1931 8.91512 14.8092 9.38034 14.27L14.0503 17.27C13.8411 17.7213 13.7319 18.2126 13.7303 18.71C13.7303 19.4003 13.935 20.075 14.3185 20.649C14.702 21.2229 15.2471 21.6702 15.8848 21.9344C16.5225 22.1985 17.2242 22.2676 17.9012 22.133C18.5782 21.9983 19.2001 21.6659 19.6881 21.1778C20.1762 20.6897 20.5086 20.0679 20.6433 19.3909C20.7779 18.7139 20.7088 18.0122 20.4447 17.3745C20.1805 16.7368 19.7332 16.1917 19.1593 15.8082C18.5853 15.4247 17.9106 15.22 17.2203 15.22C16.7222 15.2206 16.23 15.329 15.7777 15.5379C15.3255 15.7468 14.9238 16.0511 14.6003 16.43L9.92034 13.43C10.1311 12.9792 10.2403 12.4877 10.2403 11.99C10.2403 11.4924 10.1311 11.0008 9.92034 10.55L14.6003 7.55003C14.9238 7.92892 15.3255 8.23327 15.7777 8.44214C16.23 8.65102 16.7222 8.75947 17.2203 8.76003ZM17.2203 16.24C17.7128 16.24 18.1942 16.3861 18.6037 16.6597C19.0132 16.9333 19.3323 17.3222 19.5208 17.7771C19.7093 18.2321 19.7586 18.7328 19.6625 19.2158C19.5664 19.6988 19.3293 20.1425 18.981 20.4907C18.6328 20.839 18.1891 21.0761 17.7061 21.1722C17.2231 21.2683 16.7224 21.219 16.2675 21.0305C15.8125 20.842 15.4236 20.5229 15.15 20.1134C14.8764 19.7039 14.7303 19.2225 14.7303 18.73C14.7303 18.403 14.7947 18.0793 14.9199 17.7771C15.045 17.475 15.2284 17.2006 15.4596 16.9693C15.6909 16.7381 15.9654 16.5547 16.2675 16.4296C16.5696 16.3044 16.8933 16.24 17.2203 16.24ZM6.75034 14.49C6.25786 14.49 5.77645 14.344 5.36697 14.0704C4.95749 13.7968 4.63834 13.4079 4.44988 12.9529C4.26142 12.4979 4.21211 11.9973 4.30818 11.5143C4.40426 11.0312 4.64141 10.5876 4.98964 10.2393C5.33787 9.8911 5.78155 9.65395 6.26456 9.55788C6.74758 9.4618 7.24823 9.51111 7.70322 9.69957C8.15821 9.88803 8.54709 10.2072 8.8207 10.6167C9.0943 11.0261 9.24034 11.5076 9.24034 12C9.2377 12.6596 8.97452 13.2914 8.50812 13.7578C8.04173 14.2242 7.40992 14.4874 6.75034 14.49ZM17.2203 2.78003C17.7128 2.78003 18.1942 2.92607 18.6037 3.19967C19.0132 3.47328 19.3323 3.86216 19.5208 4.31715C19.7093 4.77214 19.7586 5.27279 19.6625 5.75581C19.5664 6.23882 19.3293 6.68249 18.981 7.03073C18.6328 7.37896 18.1891 7.61611 17.7061 7.71219C17.2231 7.80826 16.7224 7.75895 16.2675 7.57049C15.8125 7.38203 15.4236 7.06288 15.15 6.6534C14.8764 6.24392 14.7303 5.76251 14.7303 5.27003C14.7303 4.60964 14.9927 3.9763 15.4596 3.50933C15.9266 3.04237 16.5599 2.78003 17.2203 2.78003Z" fill="#2D3748"/>
</svg>
