<svg width="62" height="63" viewBox="0 0 62 63" fill="none" xmlns="http://www.w3.org/2000/svg">
<rect x="0.5" y="0.700012" width="61" height="61" rx="9.5" fill="#9E9E9E" stroke="#E0E0E0"/>
<path d="M27.9024 15.3903H18.1463V32.4635H27.9024V15.3903Z" stroke="#FAFAFA" stroke-width="2" stroke-linecap="round" stroke-linejoin="round"/>
<path d="M47.9023 32.4634H27.9023V26.122H44.7559C46.4925 26.122 47.9023 27.5317 47.9023 29.2683V32.4634Z" stroke="#FAFAFA" stroke-width="2" stroke-linecap="round" stroke-linejoin="round"/>
<path d="M35.2193 44.6586H22.5364V51H35.2193V44.6586Z" stroke="#FAFAFA" stroke-width="2" stroke-linecap="round" stroke-linejoin="round"/>
<path d="M30.8049 11H15V15.3902H30.8049V11Z" stroke="#FAFAFA" stroke-width="2" stroke-linecap="round" stroke-linejoin="round"/>
<path d="M36.1024 44.6585H22.078C19.9073 44.6585 18.1463 42.8976 18.1463 40.7268V33.1171C18.1463 32.7561 18.439 32.4634 18.8 32.4634H44.8048C45.1658 32.4634 45.4585 32.7561 45.4585 33.1171V35.2976C45.4634 40.4683 41.2731 44.6585 36.1024 44.6585Z" stroke="#FAFAFA" stroke-width="2" stroke-linecap="round" stroke-linejoin="round"/>
</svg>
