<svg width="93" height="93" viewBox="0 0 93 93" fill="none" xmlns="http://www.w3.org/2000/svg">
<!-- <g filter="url(#filter0_d_4185_1616)"> -->
<g>
<circle cx="46.5" cy="42.5" r="38.5" fill="#5286E9" stroke="#FFFFFF" stroke-width="8"/>
<path d="M60.5688 47.2471C60.1679 45.0432 59.2494 43.0302 58.336 41.203C55.5907 35.6235 52.2872 30.5602 49.0344 25.8736L48.6285 25.2181C48.0703 24.4232 47.4055 24 46.6443 24C45.5279 24 44.8175 24.9342 44.6145 25.2181C44.6145 25.2181 44.6145 25.2181 44.6145 25.2645L43.9041 26.2968C42.6355 28.1704 41.311 30.1421 40.0373 32.1086C38.0532 35.2003 35.5616 39.3294 33.7348 43.7321C33.1259 45.1877 32.5677 46.638 32.5169 48.2329C32.314 52.3569 33.9378 55.8254 37.2971 58.5455C39.8902 60.6513 43.1937 61.8281 46.5987 61.8281C51.5818 61.8281 56.1083 59.4848 58.6963 55.5002C60.4165 52.873 61.0762 50.0549 60.5688 47.2471ZM57.0623 54.6073C54.8244 58.0758 50.912 60.0887 46.5885 60.0887C43.6453 60.0887 40.7427 59.1029 38.5099 57.2757C35.6073 54.9325 34.1864 51.8872 34.3438 48.3207C34.3894 47.0097 34.8512 45.7451 35.4601 44.3825C37.2413 40.0727 39.6821 36.0365 41.6104 32.9912C42.8334 31.0712 44.1528 29.0995 45.4721 27.2259L46.1318 26.2401C46.1318 26.1936 46.1826 26.1936 46.1826 26.1472C46.2841 26.0078 46.487 25.7704 46.5885 25.7239C46.5885 25.7239 46.7408 25.7704 46.9945 26.1472L47.4004 26.7562C50.5517 31.3499 53.8603 36.3668 56.5498 41.8534C57.4124 43.6341 58.2751 45.5077 58.6303 47.4793C59.1479 49.9155 58.5897 52.3053 57.0623 54.6073ZM47.507 55.6344C47.507 56.1041 47.101 56.4809 46.5885 56.4809C41.9657 56.4809 38.2562 53.0124 38.2562 48.7903C38.2562 48.3207 38.6621 47.949 39.1696 47.949C39.6821 47.949 40.0881 48.3207 40.0881 48.7903C40.1388 52.073 43.0364 54.7466 46.5885 54.7466C47.101 54.7466 47.507 55.1699 47.507 55.6344Z" fill="#FAFAFA" stroke="#FAFAFA" stroke-width="0.538463"/>
</g>
<defs>
<!-- <filter id="filter0_d_4185_1616" x="0" y="0" width="93" height="93" filterUnits="userSpaceOnUse" color-interpolation-filters="sRGB"> -->
<!-- <filter id="filter0_d_4185_1616"> -->
<!-- <feFlood flood-opacity="0"/> -->
<!-- <feOffset dy="4"/> -->
<!-- <feGaussianBlur stdDeviation="2"/> -->
<!-- <feComposite in2="hardAlpha" operator="out"/> -->
<!-- <feColorMatrix type="matrix" values="0 0 0 0 0 0 0 0 0 0 0 0 0 0 0 0 0 0 0.25 0"/> -->
<!-- <feBlend mode="normal" in="SourceGraphic" in2="effect1_dropShadow_4185_1616"/> -->
<!-- </filter> -->
</defs>
</svg>