<svg width="62" height="62" viewBox="0 0 62 62" fill="none" xmlns="http://www.w3.org/2000/svg">
<rect x="0.5" y="0.5" width="61" height="61" rx="9.5" fill="#5286E9" stroke="#E0E0E0"/>
<path d="M43.8285 35.3428C43.4563 33.2963 42.6034 31.4272 41.7552 29.7305C39.206 24.5496 36.1385 19.8479 33.1181 15.4961L32.7411 14.8874C32.2228 14.1493 31.6055 13.7563 30.8987 13.7563C29.8621 13.7563 29.2024 14.6238 29.0139 14.8874C29.0139 14.8874 29.0139 14.8874 29.0139 14.9305L28.3542 15.8891C27.1762 17.6288 25.9464 19.4597 24.7637 21.2857C22.9213 24.1566 20.6076 27.9908 18.9113 32.079C18.3459 33.4305 17.8276 34.7773 17.7804 36.2582C17.5919 40.0876 19.0998 43.3084 22.2192 45.8342C24.627 47.7896 27.6945 48.8823 30.8563 48.8823C35.4835 48.8823 39.6866 46.7064 42.0898 43.0064C43.6872 40.5669 44.2997 37.9501 43.8285 35.3428ZM40.5725 42.1773C38.4945 45.398 34.8615 47.2672 30.8469 47.2672C28.1139 47.2672 25.4186 46.3518 23.3453 44.6551C20.6501 42.4792 19.3307 39.6515 19.4768 36.3397C19.5192 35.1224 19.948 33.9481 20.5134 32.6829C22.1673 28.6809 24.4338 24.933 26.2244 22.1053C27.36 20.3224 28.5851 18.4915 29.8102 16.7518L30.4228 15.8364C30.4228 15.7932 30.4699 15.7932 30.4699 15.7501C30.5642 15.6207 30.7526 15.4002 30.8469 15.3571C30.8469 15.3571 30.9882 15.4002 31.2238 15.7501L31.6008 16.3156C34.527 20.5812 37.5992 25.2397 40.0966 30.3344C40.8976 31.9879 41.6987 33.7277 42.0285 35.5585C42.5091 37.8207 41.9908 40.0397 40.5725 42.1773ZM31.6998 43.131C31.6998 43.5672 31.3228 43.9171 30.8469 43.9171C26.5542 43.9171 23.1097 40.6963 23.1097 36.7759C23.1097 36.3397 23.4867 35.9946 23.9579 35.9946C24.4338 35.9946 24.8108 36.3397 24.8108 36.7759C24.8579 39.8241 27.5485 42.3067 30.8469 42.3067C31.3228 42.3067 31.6998 42.6997 31.6998 43.131Z" fill="#FAFAFA" stroke="#FAFAFA" stroke-width="0.5"/>
</svg>
