<svg width="364" height="307" viewBox="0 0 364 307" fill="none" xmlns="http://www.w3.org/2000/svg">
<path d="M33.0605 254.024V210.935H34.485V208.798H43.7438H43.8625H43.9812V210.935H45.4056V235.269H52.053M57.9881 235.269H52.053M52.053 235.269V202.507H54.427V189.45H58.5816M64.9916 249.276H52.4091M64.9916 249.276V217.582M64.9916 249.276H74.9626M58.5816 189.45H62.3801V202.507H64.8729H64.9916V217.582M58.5816 189.45V180.31M333.379 249.276H74.9626M64.9916 217.582H74.9626V249.276" stroke="#2D3748" stroke-width="1.5"/>
<path d="M74.9629 217.582V196.928H89.8007V234.082M89.9194 217.226L96.6855 211.291M96.6855 211.291V249.276M96.6855 211.291V178.885H120.545V202.388M120.545 249.276V202.388M120.545 202.388H137.163M137.163 202.388V249.276M137.163 202.388V161.317V161.08H139.062M160.429 249.276V161.08H158.648M139.062 161.08V129.505L140.526 126.419M139.062 161.08H153.544M158.648 161.08V129.505L157.461 126.971M158.648 161.08H153.544M140.526 126.419V121.196L143.929 114.548M140.526 126.419L143.929 119.243M143.929 114.548V110.631L148.915 98.4047L153.9 110.631V114.548M143.929 114.548V119.243M153.9 114.548L157.461 121.196V126.971M153.9 114.548V119.372M157.461 126.971L153.9 119.372M143.929 119.243L148.915 108.732L153.9 119.372M144.285 127.724L148.915 117.872L153.544 127.724V161.08" stroke="#2D3748" stroke-width="1.5"/>
<path d="M144.285 161.08V140.307M144.285 140.307V127.724L149 118M144.285 140.307H153.544M160.429 203.694H164.702L173.842 191.468M173.842 191.468V249.276M173.842 191.468V141.85L174.5 140.5" stroke="#2D3748" stroke-width="1.5"/>
<path d="M173.842 141.85L175.828 137.577M197.345 249.276V141.85L195.208 137.253M175.828 137.577L185.593 116.566L195.208 137.253M175.828 137.577V129.386L185.593 108.732L195.208 129.386V137.253" stroke="#2D3748" stroke-width="1.5"/>
<path d="M193.904 126.419V121.077V120.958L190.224 114.192M190.224 118.584V110.394L185.594 98.9982M185.594 98.9982L180.609 110.394V114.192M185.594 98.9982V79.1748M180.609 119.178V114.192M180.609 114.192L177.285 121.077V126.3M197.346 176.748H198.652L204.112 184.464V205.118H213.371M213.371 205.118V160.605H235.45V249.276M213.371 205.118V249.276" stroke="#2D3748" stroke-width="1.5"/>
<path d="M216.694 160.605V155.145M232.244 160.605V155.145M232.244 155.145V154.195L224.529 145.886L216.694 154.195V155.145M232.244 155.145H216.694M235.449 229.096H246.014M252.305 229.096H246.014M246.014 229.096V188.025H255.51M255.51 188.025V249.276M255.51 188.025V120.127H262.039M262.039 120.127L259.427 249.276L265.006 134.728H270.942L274.74 209.036L273.79 120.127M262.039 120.127L262.751 105.052H273.197L273.79 120.127M273.79 120.127H280.319V209.036" stroke="#2D3748" stroke-width="1.5"/>
<path d="M266.549 249.276V210.104H300.973M300.973 210.104V228.147H297.174V249.276M300.973 210.104V184.702H302.278V182.684H311.656V184.702H313.318V233.251H315.81V192.655H321.746M340.145 259.366V237.287H328.156V192.655H321.746M321.746 192.655V181.615" stroke="#2D3748" stroke-width="1.5"/>
<path d="M137.163 184.583H160.548M137.163 208.442H160.429M137.163 231.945H160.429M173.842 161.08H180.727M197.345 161.08H190.342M180.727 161.08V136.983L185.475 127.012L190.342 136.983V161.08M180.727 161.08H190.342" stroke="#2D3748" stroke-width="1.5"/>
<path d="M180.846 153.245L183.161 148.913M185.475 144.58V127.249M185.475 144.58L187.909 148.913M185.475 144.58L183.161 148.913M190.342 153.245L187.909 148.913M187.909 148.913V131.998M183.161 148.913V131.998M220.018 155.145V160.605M224.528 155.145V160.605M229.039 155.145V160.605M104.52 186.482V182.921M100.365 186.482V182.921M108.675 186.482V182.921M112.829 186.482V182.921M116.984 186.482V182.921M96.6855 190.637H120.545M100.365 196.572H116.984M100.365 202.388H116.984M100.365 208.205H116.984M100.365 214.021H116.984M100.365 219.838H116.984M100.365 225.654H116.984M100.365 231.47H116.984M100.365 237.406H116.984" stroke="#2D3748" stroke-width="1.5"/>
<path d="M144.285 161.08V249.276H153.544V161.08M216.813 168.202V180.784M220.611 168.202V180.784M224.41 168.202V180.784M228.445 168.202V180.784M232.363 168.202V180.784" stroke="#2D3748" stroke-width="1.5"/>
<path d="M216.812 188.737V201.32M220.611 188.737V201.32M224.409 188.737V201.32M228.445 188.737V201.32M232.363 188.737V201.32M216.812 230.521V243.103M220.611 230.521V243.103M224.409 230.521V243.103M228.445 230.521V243.103M232.363 230.521V243.103" stroke="#2D3748" stroke-width="1.5"/>
<path d="M216.812 209.867V222.449M220.611 209.867V222.449M224.409 209.867V222.449M228.445 209.867V222.449M232.363 209.867V222.449" stroke="#2D3748" stroke-width="1.5"/>
<path d="M272.246 216.514H300.972V223.28H272.246M272.246 230.165H297.174M272.246 236.931H297.174M272.246 243.816H297.174" stroke="#2D3748" stroke-width="1.5"/>
<rect x="107.01" y="22.7404" width="5.05945" height="5.05945" rx="0.843241" transform="rotate(-25 107.01 22.7404)" fill="#F15447"/>
<rect x="26.8906" y="26.7196" width="2.52972" height="2.52972" rx="0.843241" transform="rotate(-25 26.8906 26.7196)" fill="#10B6FF"/>
<rect x="158" y="69.9935" width="7.08322" height="7.08322" rx="0.843241" transform="rotate(-25 158 69.9935)" fill="#EFC715"/>
<rect x="262.672" y="83.2279" width="5.05945" height="5.05945" rx="0.843241" transform="rotate(-25 262.672 83.2279)" fill="#398673"/>
<rect x="22" y="259.746" width="2.52972" height="2.52972" rx="0.843241" transform="rotate(-25 22 259.746)" fill="#10B6FF"/>
<rect x="144.438" y="266.73" width="7.08322" height="7.08322" rx="0.843241" transform="rotate(-25 144.438 266.73)" fill="#5DA694"/>
<path d="M41.1611 294.65C40.9642 294.228 41.1468 293.726 41.5689 293.529L43.7088 292.531C44.1309 292.334 44.6326 292.517 44.8294 292.939L45.8272 295.079C46.024 295.501 45.8414 296.003 45.4194 296.2L43.2795 297.197C42.8574 297.394 42.3557 297.212 42.1589 296.79L41.1611 294.65Z" fill="#10B6FF"/>
<rect x="348.504" y="259.758" width="4.04756" height="4.04756" rx="0.843241" transform="rotate(-25 348.504 259.758)" fill="#9E9E9E"/>
<rect x="268.058" y="272.127" width="7.08322" height="7.08322" rx="0.843241" transform="rotate(-25 268.058 272.127)" fill="#E1473A"/>
<path d="M88.4215 271.237L89.436 276.991L83.9462 274.992L88.4215 271.237Z" fill="#F2853A"/>
<path d="M124.515 300.095L130.268 301.11L126.513 305.585L124.515 300.095Z" fill="#EFC715"/>
<circle cx="332.988" cy="56.3445" r="4.21621" fill="#EFC715"/>
<g filter="url(#filter0_d_8036_119144)">
<path d="M105.501 33.699C100.065 33.7173 94.8142 35.6747 90.693 39.2189C86.5718 42.7632 83.8506 47.6618 83.0189 53.0334C82.1871 58.405 83.2995 63.8971 86.1558 68.5218C89.0122 73.1465 93.425 76.6001 98.6005 78.2615L104.696 90.6527C104.768 90.805 104.882 90.9336 105.024 91.0236C105.167 91.1137 105.332 91.1615 105.501 91.1615C105.669 91.1615 105.834 91.1137 105.977 91.0236C106.119 90.9336 106.233 90.805 106.306 90.6527L112.429 78.2615C117.607 76.5993 122.021 73.1433 124.878 68.5157C127.734 63.888 128.844 58.3928 128.008 53.0193C127.173 47.6458 124.447 42.747 120.32 39.205C116.194 35.6631 110.939 33.7105 105.501 33.699Z" fill="#FF9A55"/>
</g>
<path d="M105.501 33.699C100.065 33.7173 94.8142 35.6747 90.693 39.2189C86.5718 42.7632 83.8506 47.6618 83.0189 53.0334C82.1871 58.405 83.2995 63.8971 86.1558 68.5218C89.0122 73.1465 93.425 76.6001 98.6005 78.2615L104.696 90.6527C104.768 90.805 104.882 90.9336 105.024 91.0236C105.167 91.1137 105.332 91.1615 105.501 91.1615C105.669 91.1615 105.834 91.1137 105.977 91.0236C106.119 90.9336 106.233 90.805 106.306 90.6527L112.429 78.2615C117.607 76.5993 122.021 73.1433 124.878 68.5157C127.734 63.888 128.844 58.3928 128.008 53.0193C127.173 47.6458 124.447 42.747 120.32 39.205C116.194 35.6631 110.939 33.7105 105.501 33.699ZM109.928 75.099L105.702 83.954C105.687 83.9913 105.661 84.0234 105.628 84.0459C105.594 84.0685 105.555 84.0805 105.515 84.0805C105.475 84.0805 105.435 84.0685 105.402 84.0459C105.369 84.0234 105.343 83.9913 105.328 83.954L101.102 75.1277C97.6054 74.3011 94.4128 72.5061 91.8897 69.9484C89.3666 67.3907 87.6153 64.1739 86.8364 60.6666C86.0576 57.1593 86.2827 53.5035 87.4861 50.1183C88.6894 46.7331 90.8222 43.7555 93.64 41.5267C96.4579 39.2979 99.8467 37.9082 103.418 37.5169C106.989 37.1255 110.599 37.7484 113.832 39.3141C117.066 40.8798 119.793 43.3249 121.701 46.3692C123.609 49.4135 124.62 52.9338 124.619 56.5265C124.603 60.82 123.147 64.9839 120.483 68.3513C117.819 71.7188 114.103 74.0948 109.928 75.099Z" fill="white"/>
<path d="M116.173 53.6265C116.083 53.3742 115.918 53.1553 115.701 52.9988C115.483 52.8422 115.223 52.7555 114.955 52.7501H114.391C114.283 51.9741 114.13 51.2053 113.93 50.4477C113.666 49.5243 113.521 48.5708 113.5 47.6106C113.5 47.061 113.5 46.6153 113.5 46.2588C113.669 46.21 113.82 46.1119 113.934 45.977C114.048 45.8422 114.119 45.6766 114.138 45.5013L114.213 44.7437C114.233 44.5056 114.159 44.2689 114.006 44.0853C113.853 43.9017 113.634 43.786 113.396 43.7633L109.504 43.3771H109.415C109.196 43.3797 108.985 43.4629 108.823 43.6109C108.662 43.7588 108.56 43.9612 108.538 44.1793L108.464 44.9517C108.444 45.118 108.472 45.2866 108.546 45.437C108.62 45.5874 108.736 45.713 108.88 45.7984C108.88 46.14 108.731 46.5559 108.642 47.0758C108.56 47.5144 108.446 47.9464 108.301 48.3681L108.212 47.9077L107.484 43.8228C107.471 43.7365 107.441 43.6538 107.395 43.5797C107.349 43.5056 107.288 43.4417 107.216 43.392C106.773 43.0925 106.272 42.8878 105.745 42.7906C105.219 42.6935 104.678 42.7061 104.156 42.8275C102.652 43.1907 101.206 43.7659 99.8635 44.5358C99.3503 44.8261 98.8195 45.0841 98.2741 45.3082C97.1485 45.6943 95.9501 45.8213 94.7685 45.6795C94.6637 45.6657 94.557 45.6759 94.4566 45.7094C94.3563 45.7428 94.2648 45.7987 94.1892 45.8726C94.1139 45.9469 94.0581 46.0387 94.027 46.1398C93.9959 46.2409 93.9904 46.3482 94.011 46.452L95.1102 52.7501H94.8874C94.6159 52.7554 94.352 52.8398 94.1277 52.9928C93.9035 53.1458 93.7287 53.3609 93.6248 53.6117L91.4561 58.3353C91.3599 58.5353 91.3176 58.757 91.3332 58.9784C91.3489 59.1998 91.4219 59.4133 91.5452 59.5979C91.6402 59.7538 91.7731 59.8833 91.9315 59.9741C92.0899 60.065 92.2687 60.1144 92.4513 60.1178H94.4269V66.8764C94.3985 67.4178 94.5858 67.9484 94.9477 68.3521C95.3096 68.7557 95.8167 68.9996 96.3579 69.0303H114.064C114.605 68.9996 115.112 68.7557 115.474 68.3521C115.836 67.9484 116.024 67.4178 115.995 66.8764V60.1178H117.169C117.344 60.1154 117.516 60.0693 117.669 59.9837C117.822 59.8981 117.951 59.7757 118.045 59.6276C118.172 59.4427 118.251 59.2298 118.277 59.0072C118.303 58.7847 118.274 58.5592 118.194 58.3501L116.173 53.6265ZM108.925 50.2843C109.386 49.3408 109.725 48.3425 109.935 47.3135C110.024 46.7787 110.113 46.3628 110.172 46.0212L112.133 46.2143C112.133 46.5708 112.133 47.0313 112.133 47.6997C112.153 48.7608 112.313 49.8146 112.608 50.8339C112.757 51.443 112.905 52.0668 113.024 52.8244H107.989C108.179 52.1547 108.418 51.4994 108.702 50.8636L108.925 50.2843ZM95.9123 54.087H110.276L108.167 58.7958H92.7781L94.9022 54.1018L95.9123 54.087ZM98.7643 46.5559C99.3605 46.3098 99.941 46.0271 100.502 45.7092C101.731 44.9926 103.057 44.4573 104.439 44.1198C105.031 43.9833 105.652 44.0623 106.191 44.3427L106.652 46.9124C106.081 46.7709 105.485 46.7709 104.914 46.9124C103.417 47.2989 101.982 47.8939 100.651 48.6801C100.144 48.9732 99.6181 49.2313 99.0762 49.4525C98.0643 49.8197 96.9856 49.9666 95.9123 49.8833L95.4815 47.0758C96.5994 47.1219 97.7153 46.9452 98.7643 46.5559ZM96.2094 51.2201C97.3471 51.2734 98.4838 51.0966 99.5516 50.7002C100.15 50.4699 100.731 50.1969 101.29 49.8833C102.525 49.1697 103.855 48.6346 105.241 48.2939C105.796 48.1357 106.388 48.1724 106.919 48.3978L107.305 50.5963C107.029 51.2828 106.801 51.9876 106.622 52.7056H96.4768L96.2094 51.2201ZM110.766 67.7083H96.3282C96.0014 67.7083 95.7341 67.3369 95.7341 66.8913V60.1178H108.167C108.437 60.1134 108.699 60.0293 108.921 59.8759C109.143 59.7226 109.315 59.507 109.415 59.2562L110.752 56.2854L110.766 67.7083ZM114.673 66.8913C114.673 67.3369 114.406 67.7083 114.079 67.7083H112.088V55.9289L113.47 59.2414C113.515 59.3726 113.586 59.4937 113.678 59.5979L113.767 59.687C113.824 59.7586 113.889 59.8234 113.96 59.8801H114.079C114.142 59.9264 114.212 59.9616 114.287 59.9841H114.435H114.658L114.673 66.8913ZM116.01 58.7958H114.718L112.772 54.1613H114.094H114.955L116.886 58.7958H116.01ZM116.931 58.9146H117.065L117.481 58.7363L116.931 58.9146Z" fill="white"/>
<g filter="url(#filter1_d_8036_119144)">
<path d="M224.501 26.7142C219.065 26.7326 213.814 28.6899 209.693 32.2342C205.572 35.7785 202.851 40.677 202.019 46.0486C201.187 51.4203 202.299 56.9124 205.156 61.5371C208.012 66.1617 212.425 69.6154 217.601 71.2767L223.696 83.668C223.768 83.8202 223.882 83.9488 224.024 84.0389C224.167 84.1289 224.332 84.1767 224.501 84.1767C224.669 84.1767 224.834 84.1289 224.977 84.0389C225.119 83.9488 225.233 83.8202 225.306 83.668L231.429 71.2767C236.607 69.6146 241.021 66.1586 243.878 61.5309C246.734 56.9033 247.844 51.408 247.008 46.0345C246.173 40.661 243.447 35.7623 239.32 32.2203C235.194 28.6783 229.939 26.7258 224.501 26.7142Z" fill="#5DA694"/>
</g>
<path d="M224.501 26.7142C219.065 26.7326 213.814 28.6899 209.693 32.2342C205.572 35.7785 202.851 40.677 202.019 46.0486C201.187 51.4203 202.299 56.9124 205.156 61.5371C208.012 66.1617 212.425 69.6154 217.601 71.2767L223.696 83.668C223.768 83.8202 223.882 83.9488 224.024 84.0389C224.167 84.1289 224.332 84.1767 224.501 84.1767C224.669 84.1767 224.834 84.1289 224.977 84.0389C225.119 83.9488 225.233 83.8202 225.306 83.668L231.429 71.2767C236.607 69.6146 241.021 66.1586 243.878 61.5309C246.734 56.9033 247.844 51.408 247.008 46.0345C246.173 40.661 243.447 35.7623 239.32 32.2203C235.194 28.6783 229.939 26.7258 224.501 26.7142ZM228.928 68.1142L224.702 76.9692C224.687 77.0066 224.661 77.0386 224.628 77.0612C224.594 77.0837 224.555 77.0958 224.515 77.0958C224.475 77.0958 224.435 77.0837 224.402 77.0612C224.369 77.0386 224.343 77.0066 224.328 76.9692L220.102 68.143C216.605 67.3164 213.413 65.5214 210.89 62.9637C208.367 60.406 206.615 57.1891 205.836 53.6818C205.058 50.1746 205.283 46.5188 206.486 43.1336C207.689 39.7484 209.822 36.7707 212.64 34.542C215.458 32.3132 218.847 30.9235 222.418 30.5321C225.989 30.1408 229.599 30.7637 232.832 32.3294C236.066 33.895 238.793 36.3402 240.701 39.3845C242.609 42.4288 243.62 45.949 243.619 49.5417C243.603 53.8353 242.147 57.9992 239.483 61.3666C236.819 64.734 233.103 67.1101 228.928 68.1142Z" fill="#F7F8FA"/>
<path d="M233.737 44.6218C233.821 43.9944 233.771 43.3564 233.589 42.7502C233.187 41.6246 232.428 40.6612 231.428 40.0069C230.427 39.3526 229.241 39.0432 228.048 39.1258C227.776 38.2646 227.26 37.5009 226.563 36.9273C224.29 35.0409 220.577 35.7241 218.289 38.4425C217.833 38.9735 217.457 39.5692 217.175 40.2101C216.325 40.5618 215.586 41.1342 215.032 41.8682C214.478 42.6021 214.131 43.4708 214.026 44.3841C213.982 45.1337 214.119 45.8827 214.427 46.5677C213.93 46.9482 213.526 47.4354 213.243 47.9934C212.96 48.5513 212.806 49.1657 212.793 49.791C212.84 50.4593 213.028 51.1101 213.344 51.7006C213.661 52.2912 214.098 52.8082 214.629 53.2177C215.159 53.6273 215.77 53.9201 216.421 54.0771C217.072 54.2341 217.749 54.2516 218.408 54.1285C218.955 54.7008 219.667 55.0874 220.445 55.234C221.223 55.3805 222.028 55.2796 222.745 54.9454C223.222 55.1266 223.722 55.2367 224.231 55.2722V60.5158H220.77C220.573 60.5158 220.384 60.594 220.244 60.7333C220.105 60.8726 220.027 61.0615 220.027 61.2585C220.031 61.4543 220.11 61.641 220.249 61.7794C220.387 61.9179 220.574 61.9974 220.77 62.0012H229.415C229.612 62.0012 229.801 61.9229 229.94 61.7836C230.079 61.6444 230.157 61.4554 230.157 61.2585C230.157 61.0615 230.079 60.8726 229.94 60.7333C229.801 60.594 229.612 60.5158 229.415 60.5158H225.776V55.2128C226.34 55.1074 226.883 54.9065 227.38 54.6187C228.859 55.1444 230.468 55.1809 231.97 54.7226C235.401 53.7125 237.51 50.5783 236.678 47.7412C236.454 47.0339 236.073 46.3863 235.563 45.8463C235.054 45.3063 234.43 44.8878 233.737 44.6218ZM231.554 53.2966C230.254 53.7023 228.852 53.6285 227.603 53.0887L227.187 52.9104L226.815 53.1926C226.507 53.4238 226.152 53.5859 225.776 53.668V47.355H226.058C226.829 47.3728 227.584 47.1265 228.197 46.6568C228.993 45.9506 229.492 44.9686 229.593 43.9088C229.61 43.714 229.549 43.5206 229.424 43.3704C229.298 43.2203 229.119 43.1255 228.925 43.1067C228.728 43.0942 228.535 43.1585 228.385 43.286C228.236 43.4135 228.141 43.5942 228.122 43.79C228.053 44.4454 227.747 45.0528 227.261 45.4982C227.048 45.6499 226.807 45.7582 226.552 45.8168C226.297 45.8755 226.033 45.8833 225.776 45.8398V43.8494C225.776 43.6524 225.697 43.4635 225.558 43.3242C225.419 43.1849 225.23 43.1067 225.033 43.1067C224.836 43.1067 224.647 43.1849 224.508 43.3242C224.368 43.4635 224.29 43.6524 224.29 43.8494V49.6722C223.425 49.7641 222.557 49.5312 221.854 49.0186C221.017 48.24 220.489 47.1849 220.369 46.0478C220.363 45.9508 220.338 45.8559 220.295 45.7687C220.252 45.6815 220.192 45.6038 220.119 45.5401C220.046 45.4765 219.96 45.4281 219.868 45.3979C219.776 45.3678 219.678 45.3564 219.581 45.3645C219.484 45.372 219.388 45.3987 219.301 45.4432C219.214 45.4876 219.136 45.5489 219.073 45.6234C219.009 45.698 218.961 45.7843 218.931 45.8776C218.901 45.9708 218.89 46.069 218.898 46.1666C219.028 47.7207 219.765 49.1612 220.948 50.1773C221.826 50.8588 222.912 51.2157 224.023 51.1873H224.29V53.8017C223.862 53.7744 223.443 53.6634 223.057 53.4749L222.671 53.2966L222.314 53.5492C221.841 53.8475 221.272 53.9566 220.722 53.8548C220.171 53.7529 219.679 53.4476 219.344 52.9995L219.076 52.5539L218.556 52.6579C218.087 52.8058 217.592 52.8478 217.104 52.7811C216.617 52.7144 216.151 52.5406 215.739 52.2722C215.327 52.0037 214.98 51.6473 214.722 51.2285C214.464 50.8098 214.303 50.3392 214.249 49.8505C214.27 49.3637 214.418 48.8909 214.679 48.4792C214.939 48.0675 215.303 47.7311 215.734 47.5035L216.358 47.1321L215.912 46.434C215.553 45.8464 215.392 45.1592 215.452 44.4733C215.563 43.7974 215.855 43.1642 216.297 42.641C216.739 42.1179 217.314 41.7244 217.962 41.5024L218.304 41.4133L218.423 41.1311C218.664 40.527 219 39.9654 219.418 39.4674C221.186 37.3433 223.963 36.7342 225.612 38.1008C226.196 38.6063 226.585 39.2998 226.711 40.0616L226.83 40.73H227.513C228.465 40.5213 229.46 40.652 230.325 41.0997C231.191 41.5473 231.872 42.2836 232.252 43.1809C232.415 43.7437 232.415 44.3413 232.252 44.904L232.059 45.617L232.757 45.825C233.328 45.9806 233.852 46.2749 234.282 46.6817C234.713 47.0886 235.036 47.5954 235.223 48.1571C235.847 50.207 234.198 52.5094 231.554 53.2966Z" fill="white"/>
<g filter="url(#filter2_d_8036_119144)">
<path d="M34.5005 117.714C29.0649 117.733 23.8142 119.69 19.693 123.234C15.5718 126.778 12.8506 131.677 12.0189 137.049C11.1871 142.42 12.2995 147.912 15.1558 152.537C18.0122 157.162 22.425 160.615 27.6005 162.277L33.6955 174.668C33.7679 174.82 33.8819 174.949 34.0244 175.039C34.1669 175.129 34.332 175.177 34.5005 175.177C34.6691 175.177 34.8342 175.129 34.9767 175.039C35.1192 174.949 35.2332 174.82 35.3055 174.668L41.4293 162.277C46.6071 160.615 51.0215 157.159 53.8776 152.531C56.7337 147.903 57.844 142.408 57.0085 137.035C56.173 131.661 53.4466 126.762 49.3203 123.22C45.1939 119.678 39.9386 117.726 34.5005 117.714Z" fill="#7C7C7C"/>
</g>
<path d="M34.5005 117.714C29.0649 117.733 23.8142 119.69 19.693 123.234C15.5718 126.778 12.8506 131.677 12.0189 137.049C11.1871 142.42 12.2995 147.912 15.1558 152.537C18.0122 157.162 22.425 160.615 27.6005 162.277L33.6955 174.668C33.7679 174.82 33.8819 174.949 34.0244 175.039C34.1669 175.129 34.332 175.177 34.5005 175.177C34.6691 175.177 34.8342 175.129 34.9767 175.039C35.1192 174.949 35.2332 174.82 35.3055 174.668L41.4293 162.277C46.6071 160.615 51.0215 157.159 53.8776 152.531C56.7337 147.903 57.844 142.408 57.0085 137.035C56.173 131.661 53.4466 126.762 49.3203 123.22C45.1939 119.678 39.9386 117.726 34.5005 117.714ZM38.928 159.114L34.7018 167.969C34.6868 168.007 34.6611 168.039 34.6277 168.061C34.5944 168.084 34.5551 168.096 34.5149 168.096C34.4747 168.096 34.4354 168.084 34.4021 168.061C34.3687 168.039 34.343 168.007 34.328 167.969L30.1018 159.143C26.6054 158.316 23.4128 156.521 20.8897 153.964C18.3666 151.406 16.6153 148.189 15.8364 144.682C15.0576 141.175 15.2827 137.519 16.4861 134.134C17.6894 130.748 19.8222 127.771 22.64 125.542C25.4579 123.313 28.8467 121.923 32.418 121.532C35.9894 121.141 39.5987 121.764 42.8323 123.329C46.0659 124.895 48.793 127.34 50.7008 130.384C52.6087 133.429 53.6201 136.949 53.6193 140.542C53.6032 144.835 52.1466 148.999 49.4829 152.367C46.8192 155.734 43.1025 158.11 38.928 159.114Z" fill="#F7F8FA"/>
<path d="M46.5349 138.078C46.2852 137.828 45.9888 137.63 45.6626 137.495C45.3364 137.36 44.9867 137.29 44.6336 137.29H34.6962V132.017H35.8251C35.9212 132.019 36.0168 132.002 36.106 131.966C36.1952 131.93 36.2763 131.876 36.3443 131.808C36.4123 131.74 36.4658 131.659 36.5017 131.57C36.5375 131.481 36.555 131.385 36.5529 131.289V128.497C36.553 128.402 36.534 128.308 36.4973 128.22C36.4605 128.133 36.4067 128.054 36.3389 127.987C36.2711 127.921 36.1907 127.868 36.1025 127.834C36.0143 127.799 35.92 127.782 35.8251 127.784H25.8282C25.733 127.783 25.6387 127.802 25.5516 127.84C25.4645 127.879 25.3867 127.935 25.3232 128.006C25.257 128.073 25.2046 128.152 25.1689 128.238C25.1333 128.325 25.115 128.418 25.1152 128.511V131.334C25.1152 131.524 25.1898 131.707 25.3231 131.843C25.4564 131.979 25.6378 132.058 25.8282 132.062H27.1057V142.133C27.0987 142.202 27.0987 142.272 27.1057 142.341C27.0987 142.41 27.0987 142.479 27.1057 142.549V147.361C27.1103 148.132 27.3945 148.874 27.9055 149.451C28.4164 150.027 29.1193 150.398 29.8834 150.496V153.823C29.8832 153.917 29.9014 154.01 29.9371 154.096C29.9728 154.183 30.0252 154.262 30.0914 154.328C30.2311 154.464 30.4164 154.544 30.6113 154.551H38.6325C38.7274 154.551 38.8214 154.532 38.9089 154.495C38.9963 154.458 39.0756 154.405 39.142 154.337C39.2084 154.269 39.2606 154.189 39.2956 154.1C39.3305 154.012 39.3475 153.918 39.3455 153.823V150.481C41.0807 150.431 42.7279 149.706 43.9372 148.46C45.1466 147.215 45.8227 145.547 45.8219 143.811V142.757H46.6389C46.7338 142.757 46.8278 142.738 46.9153 142.701C47.0027 142.664 47.082 142.61 47.1484 142.543C47.2148 142.475 47.267 142.394 47.302 142.306C47.3369 142.218 47.3539 142.124 47.3519 142.029V139.994C47.3509 139.636 47.2781 139.282 47.1377 138.953C46.9974 138.624 46.7924 138.326 46.5349 138.078ZM26.4967 129.269H35.0378V130.591H33.9238H27.7593H26.4967V129.269ZM33.2108 132.017V138.078V141.36H28.502V132.017H33.2108ZM31.3688 153.095V150.525H37.9492V153.08L31.3688 153.095ZM44.3662 142.816V143.811C44.3702 144.492 44.2399 145.167 43.983 145.797C43.7261 146.428 43.3475 147.002 42.8689 147.486C42.3903 147.97 41.8209 148.355 41.1935 148.619C40.566 148.883 39.8926 149.021 39.2118 149.025H30.2993C29.8349 149.019 29.3897 148.839 29.0516 148.52C28.8846 148.358 28.7524 148.164 28.663 147.95C28.5736 147.735 28.5289 147.505 28.5317 147.272V142.816H33.9683H42.6729H44.3662ZM44.6782 141.212H34.7259V138.791H44.6485C44.8175 138.783 44.9861 138.812 45.1427 138.876C45.2992 138.94 45.4398 139.038 45.5546 139.162C45.6726 139.278 45.7662 139.417 45.83 139.57C45.8937 139.723 45.9263 139.887 45.9259 140.053V141.212H44.6782Z" fill="white"/>
<g filter="url(#filter3_d_8036_119144)">
<path d="M328.501 99.7142C323.065 99.7326 317.814 101.69 313.693 105.234C309.572 108.778 306.851 113.677 306.019 119.049C305.187 124.42 306.299 129.912 309.156 134.537C312.012 139.162 316.425 142.615 321.601 144.277L327.696 156.668C327.768 156.82 327.882 156.949 328.024 157.039C328.167 157.129 328.332 157.177 328.501 157.177C328.669 157.177 328.834 157.129 328.977 157.039C329.119 156.949 329.233 156.82 329.306 156.668L335.429 144.277C340.607 142.615 345.021 139.159 347.878 134.531C350.734 129.903 351.844 124.408 351.008 119.035C350.173 113.661 347.447 108.762 343.32 105.22C339.194 101.678 333.939 99.7258 328.501 99.7142Z" fill="#5286E9"/>
</g>
<path d="M328.501 99.7142C323.065 99.7326 317.814 101.69 313.693 105.234C309.572 108.778 306.851 113.677 306.019 119.049C305.187 124.42 306.299 129.912 309.156 134.537C312.012 139.162 316.425 142.615 321.601 144.277L327.696 156.668C327.768 156.82 327.882 156.949 328.024 157.039C328.167 157.129 328.332 157.177 328.501 157.177C328.669 157.177 328.834 157.129 328.977 157.039C329.119 156.949 329.233 156.82 329.306 156.668L335.429 144.277C340.607 142.615 345.021 139.159 347.878 134.531C350.734 129.903 351.844 124.408 351.008 119.035C350.173 113.661 347.447 108.762 343.32 105.22C339.194 101.678 333.939 99.7258 328.501 99.7142ZM332.928 141.114L328.702 149.969C328.687 150.007 328.661 150.039 328.628 150.061C328.594 150.084 328.555 150.096 328.515 150.096C328.475 150.096 328.435 150.084 328.402 150.061C328.369 150.039 328.343 150.007 328.328 149.969L324.102 141.143C320.605 140.316 317.413 138.521 314.89 135.964C312.367 133.406 310.615 130.189 309.836 126.682C309.058 123.175 309.283 119.519 310.486 116.134C311.689 112.748 313.822 109.771 316.64 107.542C319.458 105.313 322.847 103.923 326.418 103.532C329.989 103.141 333.599 103.764 336.832 105.329C340.066 106.895 342.793 109.34 344.701 112.384C346.609 115.429 347.62 118.949 347.619 122.542C347.603 126.835 346.147 130.999 343.483 134.367C340.819 137.734 337.103 140.11 332.928 141.114Z" fill="#F7F8FA"/>
<path d="M338.1 124.903C337.805 123.345 337.128 121.922 336.455 120.631C334.433 116.687 332 113.108 329.605 109.796L329.306 109.333C328.895 108.771 328.405 108.472 327.844 108.472C327.022 108.472 326.499 109.132 326.349 109.333C326.349 109.333 326.349 109.333 326.349 109.365L325.826 110.095C324.892 111.419 323.916 112.813 322.978 114.203C321.517 116.388 319.682 119.307 318.336 122.419C317.888 123.447 317.477 124.472 317.439 125.6C317.29 128.515 318.486 130.966 320.96 132.889C322.87 134.377 325.303 135.209 327.811 135.209C331.481 135.209 334.815 133.553 336.721 130.736C337.988 128.879 338.474 126.888 338.1 124.903ZM335.517 130.105C333.869 132.557 330.988 133.98 327.803 133.98C325.635 133.98 323.498 133.283 321.853 131.991C319.715 130.335 318.669 128.183 318.785 125.662C318.818 124.735 319.158 123.841 319.607 122.878C320.919 119.832 322.717 116.979 324.137 114.827C325.037 113.47 326.009 112.076 326.981 110.752L327.467 110.055C327.467 110.022 327.504 110.022 327.504 109.989C327.579 109.891 327.728 109.723 327.803 109.69C327.803 109.69 327.915 109.723 328.102 109.989L328.401 110.42C330.722 113.667 333.159 117.213 335.14 121.091C335.775 122.349 336.411 123.674 336.672 125.067C337.053 126.789 336.642 128.478 335.517 130.105ZM328.48 130.831C328.48 131.163 328.181 131.43 327.803 131.43C324.398 131.43 321.666 128.978 321.666 125.994C321.666 125.662 321.965 125.399 322.339 125.399C322.717 125.399 323.016 125.662 323.016 125.994C323.053 128.314 325.187 130.204 327.803 130.204C328.181 130.204 328.48 130.503 328.48 130.831Z" fill="white" stroke="white" stroke-width="0.25"/>
<defs>
<filter id="filter0_d_8036_119144" x="80.95" y="32.899" width="49.5293" height="61.4625" filterUnits="userSpaceOnUse" color-interpolation-filters="sRGB">
<feFlood flood-opacity="0" result="BackgroundImageFix"/>
<feColorMatrix in="SourceAlpha" type="matrix" values="0 0 0 0 0 0 0 0 0 0 0 0 0 0 0 0 0 0 127 0" result="hardAlpha"/>
<feOffset dx="0.2" dy="1.2"/>
<feGaussianBlur stdDeviation="1"/>
<feComposite in2="hardAlpha" operator="out"/>
<feColorMatrix type="matrix" values="0 0 0 0 0 0 0 0 0 0 0 0 0 0 0 0 0 0 0.62 0"/>
<feBlend mode="normal" in2="BackgroundImageFix" result="effect1_dropShadow_8036_119144"/>
<feBlend mode="normal" in="SourceGraphic" in2="effect1_dropShadow_8036_119144" result="shape"/>
</filter>
<filter id="filter1_d_8036_119144" x="199.95" y="25.9142" width="49.5293" height="61.4625" filterUnits="userSpaceOnUse" color-interpolation-filters="sRGB">
<feFlood flood-opacity="0" result="BackgroundImageFix"/>
<feColorMatrix in="SourceAlpha" type="matrix" values="0 0 0 0 0 0 0 0 0 0 0 0 0 0 0 0 0 0 127 0" result="hardAlpha"/>
<feOffset dx="0.2" dy="1.2"/>
<feGaussianBlur stdDeviation="1"/>
<feComposite in2="hardAlpha" operator="out"/>
<feColorMatrix type="matrix" values="0 0 0 0 0 0 0 0 0 0 0 0 0 0 0 0 0 0 0.62 0"/>
<feBlend mode="normal" in2="BackgroundImageFix" result="effect1_dropShadow_8036_119144"/>
<feBlend mode="normal" in="SourceGraphic" in2="effect1_dropShadow_8036_119144" result="shape"/>
</filter>
<filter id="filter2_d_8036_119144" x="9.95" y="116.914" width="49.5293" height="61.4625" filterUnits="userSpaceOnUse" color-interpolation-filters="sRGB">
<feFlood flood-opacity="0" result="BackgroundImageFix"/>
<feColorMatrix in="SourceAlpha" type="matrix" values="0 0 0 0 0 0 0 0 0 0 0 0 0 0 0 0 0 0 127 0" result="hardAlpha"/>
<feOffset dx="0.2" dy="1.2"/>
<feGaussianBlur stdDeviation="1"/>
<feComposite in2="hardAlpha" operator="out"/>
<feColorMatrix type="matrix" values="0 0 0 0 0 0 0 0 0 0 0 0 0 0 0 0 0 0 0.62 0"/>
<feBlend mode="normal" in2="BackgroundImageFix" result="effect1_dropShadow_8036_119144"/>
<feBlend mode="normal" in="SourceGraphic" in2="effect1_dropShadow_8036_119144" result="shape"/>
</filter>
<filter id="filter3_d_8036_119144" x="303.95" y="98.9142" width="49.5293" height="61.4625" filterUnits="userSpaceOnUse" color-interpolation-filters="sRGB">
<feFlood flood-opacity="0" result="BackgroundImageFix"/>
<feColorMatrix in="SourceAlpha" type="matrix" values="0 0 0 0 0 0 0 0 0 0 0 0 0 0 0 0 0 0 127 0" result="hardAlpha"/>
<feOffset dx="0.2" dy="1.2"/>
<feGaussianBlur stdDeviation="1"/>
<feComposite in2="hardAlpha" operator="out"/>
<feColorMatrix type="matrix" values="0 0 0 0 0 0 0 0 0 0 0 0 0 0 0 0 0 0 0.62 0"/>
<feBlend mode="normal" in2="BackgroundImageFix" result="effect1_dropShadow_8036_119144"/>
<feBlend mode="normal" in="SourceGraphic" in2="effect1_dropShadow_8036_119144" result="shape"/>
</filter>
</defs>
</svg>
