<svg width="245" height="64" viewBox="0 0 245 64" fill="none" xmlns="http://www.w3.org/2000/svg">
<g filter="url(#filter0_d_8303_156379)">
<rect x="2" width="241" height="60" rx="30" fill="#7C7C7C" shape-rendering="crispEdges"/>
<path d="M71.5891 27.3262L71.5891 27.3262L71.5947 27.3317C71.877 27.6041 72.1017 27.9304 72.2556 28.2913C72.4094 28.652 72.4892 29.0398 72.4904 29.4319C72.4904 29.4321 72.4904 29.4323 72.4904 29.4325L72.4904 32H72.4903L72.4905 32.0092C72.4918 32.07 72.4809 32.1304 72.4586 32.1868C72.4362 32.2433 72.4028 32.2948 72.3603 32.3382L72.6771 32.6486L72.3603 32.3382C72.3177 32.3816 72.267 32.416 72.211 32.4396C72.155 32.4631 72.0948 32.4752 72.0341 32.4752H72.034H71.0027H70.5592V32.9187V34.25V34.2502C70.5601 36.3259 69.7516 38.3202 68.3055 39.8094C66.8595 41.2986 64.8898 42.1653 62.8149 42.2254L62.3842 42.2379V42.6687V46.8875H62.3841L62.3843 46.8967C62.3856 46.9575 62.3747 47.0179 62.3523 47.0743C62.3299 47.1308 62.2965 47.1823 62.254 47.2257C62.2115 47.2691 62.1607 47.3035 62.1047 47.3271C62.0487 47.3506 61.9886 47.3627 61.9278 47.3627H61.9277H51.8122C51.6797 47.356 51.5541 47.3017 51.4584 47.2097C51.4171 47.1676 51.3844 47.118 51.3619 47.0635L50.9518 47.2324L51.3619 47.0635C51.3391 47.008 51.3274 46.9486 51.3275 46.8886V46.8875V42.6875V42.2968L50.9399 42.2475C50.082 42.1384 49.2928 41.7215 48.7192 41.0742C48.1459 40.4273 47.8268 39.5943 47.8213 38.7299V32.6562V32.634L47.8191 32.6119C47.8133 32.5541 47.8133 32.4959 47.8191 32.4381L47.8235 32.3937L47.8191 32.3494C47.8133 32.2916 47.8133 32.2334 47.8191 32.1756L47.8213 32.1535V32.1312V19.4188V18.9752H47.3777H45.7705C45.6476 18.9717 45.5307 18.9207 45.4445 18.8327C45.3575 18.7439 45.3088 18.6245 45.3088 18.5001V18.5V14.9375H45.3088L45.3088 14.9364C45.3086 14.8764 45.3203 14.817 45.3432 14.7615C45.366 14.706 45.3996 14.6556 45.4419 14.6131L45.4504 14.6046L45.4584 14.5957C45.4964 14.5532 45.543 14.5193 45.5951 14.4963C45.6473 14.4733 45.7037 14.4617 45.7607 14.4623L45.7607 14.4623H45.7652H58.384V14.4624L58.3932 14.4622C58.454 14.4609 58.5143 14.4718 58.5708 14.4942C58.6273 14.5165 58.6788 14.55 58.7222 14.5925C58.7656 14.635 58.8 14.6857 58.8236 14.7418C58.8471 14.7978 58.8592 14.8579 58.8592 14.9187V14.9188V18.4438H58.8591L58.8593 18.4531C58.8606 18.5146 58.8494 18.5758 58.8265 18.6329L59.238 18.7983L58.8265 18.6329C58.8035 18.69 58.7692 18.7419 58.7257 18.7855C58.6822 18.829 58.6303 18.8633 58.5732 18.8862C58.516 18.9092 58.4549 18.9203 58.3933 18.919L58.3933 18.919H58.384H56.959H56.5154V19.3625V26.0187V26.4623H56.959H69.5027H69.5028C69.8903 26.4622 70.2739 26.5385 70.6319 26.6867C70.9899 26.8349 71.3151 27.0522 71.5891 27.3262ZM50.884 42.6875V46.8875V42.6875ZM46.609 15.4502H46.1654V15.8938V17.5625V18.006H46.609H48.2027H55.984H57.3902H57.8338V17.5625V15.8938V15.4502H57.3902H46.609ZM55.5275 19.3625V18.919H55.084H49.1402H48.6967V19.3625V31.1562V31.5998H49.1402H55.084H55.5275V31.1562V27.0125V19.3625ZM52.3154 45.9688V46.4133L52.76 46.4123L61.0662 46.3935L61.5088 46.3925V45.95V42.725V42.2815H61.0652H52.759H52.3154V42.725V45.9688ZM69.6088 32.9937V32.5502H69.1652H67.0277H56.0402H49.1777H48.7342V32.9937V38.6162C48.7303 38.969 48.7983 39.3189 48.934 39.6445C49.0701 39.971 49.2713 40.2664 49.5255 40.5124L49.5254 40.5124L49.5299 40.5166C50.0374 40.9947 50.7057 41.2652 51.4029 41.2748L51.4029 41.2748H51.409L62.659 41.2748L62.6615 41.2748C63.5791 41.2695 64.4867 41.0836 65.3324 40.7276C66.1781 40.3716 66.9455 39.8525 67.5906 39.2C68.2357 38.5474 68.746 37.7742 69.0923 36.9244C69.4384 36.0751 69.6139 35.1659 69.6088 34.2488V32.9937ZM56.5529 30.9688V31.4123H56.9965H69.559H71.134H71.5775V30.9688L71.5775 29.5073L71.134 29.5063H71.5775V29.5065C71.5781 29.2386 71.5253 28.9733 71.4223 28.726C71.3204 28.4816 71.1715 28.2596 70.9841 28.0728C70.7966 27.8719 70.5678 27.7139 70.3135 27.6097C70.0595 27.5056 69.7859 27.4576 69.5117 27.469H56.9965H56.5529V27.9125V30.9688Z" fill="white" stroke="white" stroke-width="0.887097"/>
<path d="M85.5483 19.836H88.3203L97.7283 34.592V19.836H101.2V40.5H98.4283L89.0203 25.744V40.5H85.5483V19.836ZM111.372 40.64C109.71 40.64 108.404 40.416 107.452 39.968C106.518 39.5013 105.837 38.7267 105.408 37.644C104.997 36.5427 104.792 34.9933 104.792 32.996C104.792 30.9613 104.988 29.3933 105.38 28.292C105.79 27.1907 106.453 26.416 107.368 25.968C108.301 25.52 109.608 25.296 111.288 25.296C112.762 25.296 113.929 25.4453 114.788 25.744C115.646 26.0427 116.272 26.5653 116.664 27.312C117.056 28.04 117.252 29.0667 117.252 30.392C117.252 31.7733 116.85 32.7627 116.048 33.36C115.264 33.9573 114.116 34.256 112.604 34.256H108.208C108.245 35.2267 108.376 35.9827 108.6 36.524C108.824 37.0467 109.216 37.4293 109.776 37.672C110.354 37.9147 111.185 38.036 112.268 38.036H116.804V40.08C115.796 40.2667 114.89 40.4067 114.088 40.5C113.304 40.5933 112.398 40.64 111.372 40.64ZM112.268 32.156C112.94 32.156 113.425 32.0253 113.724 31.764C114.022 31.5027 114.172 31.0453 114.172 30.392C114.172 29.4213 113.957 28.7493 113.528 28.376C113.098 28.0027 112.352 27.816 111.288 27.816C110.485 27.816 109.86 27.9467 109.412 28.208C108.982 28.4507 108.665 28.88 108.46 29.496C108.273 30.112 108.18 30.9987 108.18 32.156H112.268ZM124.001 40.668C122.863 40.668 121.939 40.332 121.229 39.66C120.539 38.9693 120.193 38.0453 120.193 36.888V35.628C120.193 34.4333 120.595 33.4813 121.397 32.772C122.219 32.0627 123.432 31.708 125.037 31.708H129.321V30.392C129.321 29.832 129.228 29.384 129.041 29.048C128.855 28.712 128.509 28.46 128.005 28.292C127.501 28.1053 126.773 28.012 125.821 28.012H121.285V25.996C122.984 25.5293 124.944 25.296 127.165 25.296C129.069 25.296 130.479 25.6693 131.393 26.416C132.327 27.1627 132.793 28.4133 132.793 30.168V40.5H130.077L129.489 38.876C129.303 39.044 128.92 39.2773 128.341 39.576C127.763 39.856 127.081 40.108 126.297 40.332C125.532 40.556 124.767 40.668 124.001 40.668ZM125.681 38.232C126.204 38.232 126.895 38.1013 127.753 37.84C128.631 37.56 129.153 37.3733 129.321 37.28V33.36L126.073 33.528C124.449 33.6587 123.637 34.3773 123.637 35.684V36.3C123.637 36.972 123.824 37.4573 124.197 37.756C124.589 38.0547 125.084 38.2133 125.681 38.232ZM136.793 25.492H139.481L140.265 27.9C140.919 27.0787 141.609 26.444 142.337 25.996C143.084 25.5293 143.924 25.296 144.857 25.296C145.305 25.296 145.725 25.352 146.117 25.464V28.992C145.408 28.9173 144.839 28.88 144.409 28.88C143.532 28.88 142.776 29.0293 142.141 29.328C141.507 29.608 140.881 30.0653 140.265 30.7V40.5H136.793V25.492ZM174.752 40.5L173.016 25.716L168.928 40.5H165.68L161.564 25.8L159.912 40.5H156.58L158.96 19.836H162.32L167.332 36.384L172.316 19.836H175.676L178.112 40.5H174.752ZM187.644 40.64C185.983 40.64 184.676 40.416 183.724 39.968C182.791 39.5013 182.11 38.7267 181.68 37.644C181.27 36.5427 181.064 34.9933 181.064 32.996C181.064 30.9613 181.26 29.3933 181.652 28.292C182.063 27.1907 182.726 26.416 183.64 25.968C184.574 25.52 185.88 25.296 187.56 25.296C189.035 25.296 190.202 25.4453 191.06 25.744C191.919 26.0427 192.544 26.5653 192.936 27.312C193.328 28.04 193.524 29.0667 193.524 30.392C193.524 31.7733 193.123 32.7627 192.32 33.36C191.536 33.9573 190.388 34.256 188.876 34.256H184.48C184.518 35.2267 184.648 35.9827 184.872 36.524C185.096 37.0467 185.488 37.4293 186.048 37.672C186.627 37.9147 187.458 38.036 188.54 38.036H193.076V40.08C192.068 40.2667 191.163 40.4067 190.36 40.5C189.576 40.5933 188.671 40.64 187.644 40.64ZM188.54 32.156C189.212 32.156 189.698 32.0253 189.996 31.764C190.295 31.5027 190.444 31.0453 190.444 30.392C190.444 29.4213 190.23 28.7493 189.8 28.376C189.371 28.0027 188.624 27.816 187.56 27.816C186.758 27.816 186.132 27.9467 185.684 28.208C185.255 28.4507 184.938 28.88 184.732 29.496C184.546 30.112 184.452 30.9987 184.452 32.156H188.54Z" fill="white"/>
</g>
<defs>
<filter id="filter0_d_8303_156379" x="0" y="0" width="245" height="64" filterUnits="userSpaceOnUse" color-interpolation-filters="sRGB">
<feFlood flood-opacity="0" result="BackgroundImageFix"/>
<feColorMatrix in="SourceAlpha" type="matrix" values="0 0 0 0 0 0 0 0 0 0 0 0 0 0 0 0 0 0 127 0" result="hardAlpha"/>
<feOffset dy="2"/>
<feGaussianBlur stdDeviation="1"/>
<feComposite in2="hardAlpha" operator="out"/>
<feColorMatrix type="matrix" values="0 0 0 0 0 0 0 0 0 0 0 0 0 0 0 0 0 0 0.25 0"/>
<feBlend mode="normal" in2="BackgroundImageFix" result="effect1_dropShadow_8303_156379"/>
<feBlend mode="normal" in="SourceGraphic" in2="effect1_dropShadow_8303_156379" result="shape"/>
</filter>
</defs>
</svg>
