<svg width="245" height="64" viewBox="0 0 245 64" fill="none" xmlns="http://www.w3.org/2000/svg">
<g filter="url(#filter0_d_8303_156174)">
<rect x="2" width="241" height="60" rx="30" fill="#FF9A55" shape-rendering="crispEdges"/>
<path d="M72.7086 27.7247C72.5947 27.4062 72.3866 27.1298 72.112 26.9322C71.8375 26.7347 71.5093 26.6252 71.1711 26.6184H70.4586C70.3231 25.6389 70.129 24.6684 69.8774 23.7122C69.5439 22.5465 69.3612 21.343 69.3336 20.1309C69.3336 19.4372 69.3336 18.8747 69.3336 18.4247C69.5476 18.3629 69.7384 18.2391 69.8819 18.0689C70.0254 17.8987 70.1152 17.6897 70.1399 17.4684L70.2336 16.5122C70.2597 16.2116 70.166 15.9128 69.9728 15.6811C69.7797 15.4493 69.5027 15.3032 69.2024 15.2747L64.2899 14.7872H64.1774C63.9008 14.7904 63.635 14.8954 63.4309 15.0822C63.2269 15.269 63.0988 15.5244 63.0711 15.7997L62.9774 16.7747C62.9515 16.9845 62.9874 17.1974 63.0806 17.3873C63.1739 17.5771 63.3204 17.7356 63.5024 17.8434C63.5024 18.2747 63.3149 18.7997 63.2024 19.4559C63.0991 20.0095 62.9549 20.5548 62.7711 21.0872L62.6586 20.5059L61.7399 15.3497C61.7237 15.2408 61.6854 15.1364 61.6274 15.0429C61.5693 14.9493 61.4928 14.8687 61.4024 14.8059C60.8422 14.4278 60.21 14.1694 59.5454 14.0468C58.8808 13.9242 58.1981 13.9401 57.5399 14.0934C55.6406 14.5519 53.8161 15.2779 52.1211 16.2497C51.4734 16.6162 50.8033 16.9418 50.1149 17.2247C48.694 17.7121 47.1814 17.8723 45.6899 17.6934C45.5575 17.676 45.4229 17.6889 45.2962 17.7311C45.1695 17.7733 45.0541 17.8438 44.9586 17.9372C44.8635 18.0309 44.7931 18.1468 44.7539 18.2744C44.7146 18.402 44.7076 18.5374 44.7336 18.6684L46.1211 26.6184H45.8399C45.4973 26.6251 45.164 26.7316 44.881 26.9247C44.5979 27.1178 44.3773 27.3893 44.2461 27.7059L41.5086 33.6684C41.3873 33.9209 41.3339 34.2007 41.3536 34.4802C41.3733 34.7597 41.4655 35.0292 41.6211 35.2621C41.7411 35.459 41.9088 35.6224 42.1088 35.7371C42.3087 35.8518 42.5344 35.9142 42.7649 35.9184H45.2586V44.4497C45.2228 45.133 45.4592 45.8028 45.916 46.3123C46.3728 46.8218 47.0129 47.1297 47.6961 47.1684H70.0461C70.7294 47.1297 71.3694 46.8218 71.8263 46.3123C72.2831 45.8028 72.5194 45.133 72.4836 44.4497V35.9184H73.9649C74.1862 35.9153 74.4032 35.8572 74.5964 35.7491C74.7895 35.6411 74.9527 35.4866 75.0711 35.2997C75.2308 35.0662 75.3313 34.7975 75.364 34.5166C75.3966 34.2356 75.3605 33.951 75.2586 33.6872L72.7086 27.7247ZM63.5586 23.5059C64.1407 22.3149 64.5691 21.0548 64.8336 19.7559C64.9461 19.0809 65.0586 18.5559 65.1336 18.1247L67.6086 18.3684C67.6086 18.8184 67.6086 19.3997 67.6086 20.2434C67.6341 21.5828 67.8359 22.9129 68.2086 24.1997C68.3961 24.9684 68.5836 25.7559 68.7336 26.7122H62.3774C62.618 25.8668 62.9188 25.0397 63.2774 24.2372L63.5586 23.5059ZM47.1336 28.3059H65.2649L62.6024 34.2497H43.1774L45.8586 28.3247L47.1336 28.3059ZM50.7336 18.7997C51.4862 18.489 52.2189 18.1321 52.9274 17.7309C54.4783 16.8263 56.1519 16.1506 57.8961 15.7247C58.6436 15.5523 59.4281 15.652 60.1086 16.0059L60.6899 19.2497C59.9695 19.071 59.2165 19.071 58.4961 19.2497C56.6066 19.7374 54.7952 20.4886 53.1149 21.4809C52.4754 21.8509 51.8114 22.1767 51.1274 22.4559C49.85 22.9194 48.4884 23.1048 47.1336 22.9997L46.5899 19.4559C48.001 19.5141 49.4096 19.291 50.7336 18.7997ZM47.5086 24.6872C48.9447 24.7544 50.3796 24.5312 51.7274 24.0309C52.4824 23.7402 53.2155 23.3955 53.9211 22.9997C55.4807 22.099 57.1598 21.4235 58.9086 20.9934C59.6091 20.7938 60.3569 20.8401 61.0274 21.1247L61.5149 23.8997C61.1664 24.7662 60.8782 25.6559 60.6524 26.5622H47.8461L47.5086 24.6872ZM65.8836 45.4997H47.6586C47.2461 45.4997 46.9086 45.0309 46.9086 44.4684V35.9184H62.6024C62.9429 35.9129 63.2743 35.8067 63.5545 35.6131C63.8348 35.4196 64.0515 35.1474 64.1774 34.8309L65.8649 31.0809L65.8836 45.4997ZM70.8149 44.4684C70.8149 45.0309 70.4774 45.4997 70.0649 45.4997H67.5524V30.6309L69.2961 34.8122C69.3536 34.9778 69.4427 35.1306 69.5586 35.2621L69.6711 35.3747C69.7427 35.465 69.8245 35.5468 69.9149 35.6184H70.0649C70.1442 35.6768 70.233 35.7212 70.3274 35.7497H70.5149H70.7961L70.8149 44.4684ZM72.5024 34.2497H70.8711L68.4149 28.3997H70.0836H71.1711L73.6086 34.2497H72.5024ZM73.6649 34.3997H73.8336L74.3586 34.1747L73.6649 34.3997Z" fill="white"/>
<path d="M85.5483 19.836H88.3203L97.7283 34.592V19.836H101.2V40.5H98.4283L89.0203 25.744V40.5H85.5483V19.836ZM111.372 40.64C109.71 40.64 108.404 40.416 107.452 39.968C106.518 39.5013 105.837 38.7267 105.408 37.644C104.997 36.5427 104.792 34.9933 104.792 32.996C104.792 30.9613 104.988 29.3933 105.38 28.292C105.79 27.1907 106.453 26.416 107.368 25.968C108.301 25.52 109.608 25.296 111.288 25.296C112.762 25.296 113.929 25.4453 114.788 25.744C115.646 26.0427 116.272 26.5653 116.664 27.312C117.056 28.04 117.252 29.0667 117.252 30.392C117.252 31.7733 116.85 32.7627 116.048 33.36C115.264 33.9573 114.116 34.256 112.604 34.256H108.208C108.245 35.2267 108.376 35.9827 108.6 36.524C108.824 37.0467 109.216 37.4293 109.776 37.672C110.354 37.9147 111.185 38.036 112.268 38.036H116.804V40.08C115.796 40.2667 114.89 40.4067 114.088 40.5C113.304 40.5933 112.398 40.64 111.372 40.64ZM112.268 32.156C112.94 32.156 113.425 32.0253 113.724 31.764C114.022 31.5027 114.172 31.0453 114.172 30.392C114.172 29.4213 113.957 28.7493 113.528 28.376C113.098 28.0027 112.352 27.816 111.288 27.816C110.485 27.816 109.86 27.9467 109.412 28.208C108.982 28.4507 108.665 28.88 108.46 29.496C108.273 30.112 108.18 30.9987 108.18 32.156H112.268ZM124.001 40.668C122.863 40.668 121.939 40.332 121.229 39.66C120.539 38.9693 120.193 38.0453 120.193 36.888V35.628C120.193 34.4333 120.595 33.4813 121.397 32.772C122.219 32.0627 123.432 31.708 125.037 31.708H129.321V30.392C129.321 29.832 129.228 29.384 129.041 29.048C128.855 28.712 128.509 28.46 128.005 28.292C127.501 28.1053 126.773 28.012 125.821 28.012H121.285V25.996C122.984 25.5293 124.944 25.296 127.165 25.296C129.069 25.296 130.479 25.6693 131.393 26.416C132.327 27.1627 132.793 28.4133 132.793 30.168V40.5H130.077L129.489 38.876C129.303 39.044 128.92 39.2773 128.341 39.576C127.763 39.856 127.081 40.108 126.297 40.332C125.532 40.556 124.767 40.668 124.001 40.668ZM125.681 38.232C126.204 38.232 126.895 38.1013 127.753 37.84C128.631 37.56 129.153 37.3733 129.321 37.28V33.36L126.073 33.528C124.449 33.6587 123.637 34.3773 123.637 35.684V36.3C123.637 36.972 123.824 37.4573 124.197 37.756C124.589 38.0547 125.084 38.2133 125.681 38.232ZM136.793 25.492H139.481L140.265 27.9C140.919 27.0787 141.609 26.444 142.337 25.996C143.084 25.5293 143.924 25.296 144.857 25.296C145.305 25.296 145.725 25.352 146.117 25.464V28.992C145.408 28.9173 144.839 28.88 144.409 28.88C143.532 28.88 142.776 29.0293 142.141 29.328C141.507 29.608 140.881 30.0653 140.265 30.7V40.5H136.793V25.492ZM174.752 40.5L173.016 25.716L168.928 40.5H165.68L161.564 25.8L159.912 40.5H156.58L158.96 19.836H162.32L167.332 36.384L172.316 19.836H175.676L178.112 40.5H174.752ZM187.644 40.64C185.983 40.64 184.676 40.416 183.724 39.968C182.791 39.5013 182.11 38.7267 181.68 37.644C181.27 36.5427 181.064 34.9933 181.064 32.996C181.064 30.9613 181.26 29.3933 181.652 28.292C182.063 27.1907 182.726 26.416 183.64 25.968C184.574 25.52 185.88 25.296 187.56 25.296C189.035 25.296 190.202 25.4453 191.06 25.744C191.919 26.0427 192.544 26.5653 192.936 27.312C193.328 28.04 193.524 29.0667 193.524 30.392C193.524 31.7733 193.123 32.7627 192.32 33.36C191.536 33.9573 190.388 34.256 188.876 34.256H184.48C184.518 35.2267 184.648 35.9827 184.872 36.524C185.096 37.0467 185.488 37.4293 186.048 37.672C186.627 37.9147 187.458 38.036 188.54 38.036H193.076V40.08C192.068 40.2667 191.163 40.4067 190.36 40.5C189.576 40.5933 188.671 40.64 187.644 40.64ZM188.54 32.156C189.212 32.156 189.698 32.0253 189.996 31.764C190.295 31.5027 190.444 31.0453 190.444 30.392C190.444 29.4213 190.23 28.7493 189.8 28.376C189.371 28.0027 188.624 27.816 187.56 27.816C186.758 27.816 186.132 27.9467 185.684 28.208C185.255 28.4507 184.938 28.88 184.732 29.496C184.546 30.112 184.452 30.9987 184.452 32.156H188.54Z" fill="white"/>
</g>
<defs>
<filter id="filter0_d_8303_156174" x="0" y="0" width="245" height="64" filterUnits="userSpaceOnUse" color-interpolation-filters="sRGB">
<feFlood flood-opacity="0" result="BackgroundImageFix"/>
<feColorMatrix in="SourceAlpha" type="matrix" values="0 0 0 0 0 0 0 0 0 0 0 0 0 0 0 0 0 0 127 0" result="hardAlpha"/>
<feOffset dy="2"/>
<feGaussianBlur stdDeviation="1"/>
<feComposite in2="hardAlpha" operator="out"/>
<feColorMatrix type="matrix" values="0 0 0 0 0 0 0 0 0 0 0 0 0 0 0 0 0 0 0.25 0"/>
<feBlend mode="normal" in2="BackgroundImageFix" result="effect1_dropShadow_8303_156174"/>
<feBlend mode="normal" in="SourceGraphic" in2="effect1_dropShadow_8303_156174" result="shape"/>
</filter>
</defs>
</svg>
