<svg width="245" height="64" viewBox="0 0 245 64" fill="none" xmlns="http://www.w3.org/2000/svg">
<g filter="url(#filter0_d_8303_156276)">
<rect x="2" width="241" height="60" rx="30" fill="#5DA694" shape-rendering="crispEdges"/>
<mask id="path-2-inside-1_8303_156276" fill="white">
<path d="M69.6328 26.1752C69.7388 25.3833 69.6749 24.578 69.4453 23.8127C68.9378 22.3919 67.9798 21.1759 66.7172 20.35C65.4546 19.524 63.9567 19.1335 62.4516 19.2377C62.1084 18.1507 61.457 17.1867 60.5766 16.4627C57.7078 14.0815 53.0203 14.944 50.1328 18.3752C49.5566 19.0456 49.0827 19.7974 48.7266 20.6065C47.6543 21.0504 46.7203 21.773 46.0214 22.6994C45.3225 23.6258 44.884 24.7223 44.7516 25.8752C44.696 26.8213 44.8697 27.7669 45.2578 28.6315C44.6311 29.1118 44.1204 29.7268 43.7634 30.4311C43.4064 31.1353 43.2123 31.9108 43.1953 32.7002C43.2549 33.5438 43.4922 34.3652 43.8915 35.1106C44.2908 35.8561 44.8432 36.5087 45.5124 37.0256C46.1817 37.5426 46.9526 37.9123 47.7747 38.1104C48.5968 38.3085 49.4516 38.3306 50.2828 38.1752C50.9732 38.8977 51.8726 39.3857 52.8546 39.5707C53.8366 39.7557 54.8519 39.6283 55.7578 39.2065C56.3592 39.4351 56.991 39.5741 57.6328 39.619V46.2377H53.2641C53.0154 46.2377 52.777 46.3365 52.6011 46.5123C52.4253 46.6881 52.3266 46.9266 52.3266 47.1752C52.3314 47.4224 52.4317 47.658 52.6065 47.8328C52.7812 48.0076 53.0169 48.1079 53.2641 48.1127H64.1766C64.4252 48.1127 64.6637 48.014 64.8395 47.8381C65.0153 47.6623 65.1141 47.4239 65.1141 47.1752C65.1141 46.9266 65.0153 46.6881 64.8395 46.5123C64.6637 46.3365 64.4252 46.2377 64.1766 46.2377H59.5828V39.544C60.2955 39.4109 60.9804 39.1573 61.6078 38.794C63.4751 39.4576 65.5062 39.5036 67.4016 38.9252C71.7328 37.6502 74.3953 33.694 73.3453 30.1127C73.0615 29.2199 72.5805 28.4025 71.9378 27.7209C71.2952 27.0392 70.5074 26.511 69.6328 26.1752ZM66.8766 37.1252C65.2362 37.6373 63.4666 37.5441 61.8891 36.8627L61.3641 36.6377L60.8953 36.994C60.5059 37.2858 60.0583 37.4904 59.5828 37.594V29.6252H59.9391C60.9132 29.6478 61.8658 29.3368 62.6391 28.744C63.6446 27.8526 64.2745 26.6129 64.4016 25.2752C64.4224 25.0294 64.3456 24.7852 64.1876 24.5957C64.0297 24.4061 63.8034 24.2865 63.5578 24.2627C63.3101 24.247 63.066 24.3282 62.877 24.4891C62.6881 24.6501 62.5691 24.8782 62.5453 25.1252C62.4578 25.9525 62.071 26.7193 61.4578 27.2815C61.1889 27.473 60.8849 27.6097 60.5632 27.6837C60.2415 27.7577 59.9083 27.7675 59.5828 27.7127V25.2002C59.5828 24.9516 59.484 24.7131 59.3082 24.5373C59.1324 24.3615 58.894 24.2627 58.6453 24.2627C58.3967 24.2627 58.1582 24.3615 57.9824 24.5373C57.8066 24.7131 57.7078 24.9516 57.7078 25.2002V32.5502C56.616 32.6663 55.52 32.3722 54.6328 31.7252C53.5758 30.7424 52.9099 29.4105 52.7578 27.9752C52.7507 27.8528 52.7192 27.733 52.6651 27.623C52.611 27.5129 52.5354 27.4148 52.4428 27.3344C52.3502 27.254 52.2424 27.193 52.1259 27.1549C52.0093 27.1169 51.8863 27.1025 51.7641 27.1127C51.6408 27.1222 51.5206 27.1559 51.4105 27.212C51.3003 27.2681 51.2023 27.3454 51.1222 27.4395C51.042 27.5336 50.9812 27.6427 50.9434 27.7603C50.9055 27.878 50.8913 28.002 50.9016 28.1252C51.0662 30.0869 51.9956 31.9052 53.4891 33.1877C54.5968 34.048 55.9682 34.4985 57.3703 34.4627H57.7078V37.7627C57.1671 37.7283 56.6384 37.5881 56.1516 37.3502L55.6641 37.1252L55.2141 37.444C54.6161 37.8206 53.8984 37.9583 53.2035 37.8298C52.5087 37.7012 51.8877 37.3158 51.4641 36.7502L51.1266 36.1877L50.4703 36.319C49.8784 36.5056 49.2525 36.5587 48.6376 36.4745C48.0227 36.3903 47.4341 36.1709 46.9141 35.8321C46.3942 35.4932 45.9558 35.0433 45.6305 34.5147C45.3052 33.9862 45.1011 33.3921 45.0328 32.7752C45.0597 32.1608 45.247 31.564 45.5759 31.0443C45.9048 30.5246 46.364 30.1 46.9078 29.8127L47.6953 29.344L47.1328 28.4627C46.6797 27.721 46.476 26.8536 46.5516 25.9877C46.6914 25.1346 47.0599 24.3353 47.6179 23.675C48.1759 23.0146 48.9024 22.5179 49.7203 22.2377L50.1516 22.1252L50.3016 21.769C50.6058 21.0065 51.0299 20.2976 51.5578 19.669C53.7891 16.9877 57.2953 16.219 59.3766 17.944C60.1134 18.582 60.6042 19.4575 60.7641 20.419L60.9141 21.2627H61.7766C62.9779 20.9992 64.2335 21.1643 65.3259 21.7293C66.4183 22.2944 67.2787 23.2238 67.7578 24.3565C67.9641 25.0668 67.9641 25.8211 67.7578 26.5315L67.5141 27.4315L68.3953 27.694C69.1164 27.8904 69.7779 28.2618 70.3208 28.7754C70.8638 29.2889 71.2716 29.9287 71.5078 30.6377C72.2953 33.2252 70.2141 36.1315 66.8766 37.1252Z"/>
</mask>
<path d="M69.6328 26.1752C69.7388 25.3833 69.6749 24.578 69.4453 23.8127C68.9378 22.3919 67.9798 21.1759 66.7172 20.35C65.4546 19.524 63.9567 19.1335 62.4516 19.2377C62.1084 18.1507 61.457 17.1867 60.5766 16.4627C57.7078 14.0815 53.0203 14.944 50.1328 18.3752C49.5566 19.0456 49.0827 19.7974 48.7266 20.6065C47.6543 21.0504 46.7203 21.773 46.0214 22.6994C45.3225 23.6258 44.884 24.7223 44.7516 25.8752C44.696 26.8213 44.8697 27.7669 45.2578 28.6315C44.6311 29.1118 44.1204 29.7268 43.7634 30.4311C43.4064 31.1353 43.2123 31.9108 43.1953 32.7002C43.2549 33.5438 43.4922 34.3652 43.8915 35.1106C44.2908 35.8561 44.8432 36.5087 45.5124 37.0256C46.1817 37.5426 46.9526 37.9123 47.7747 38.1104C48.5968 38.3085 49.4516 38.3306 50.2828 38.1752C50.9732 38.8977 51.8726 39.3857 52.8546 39.5707C53.8366 39.7557 54.8519 39.6283 55.7578 39.2065C56.3592 39.4351 56.991 39.5741 57.6328 39.619V46.2377H53.2641C53.0154 46.2377 52.777 46.3365 52.6011 46.5123C52.4253 46.6881 52.3266 46.9266 52.3266 47.1752C52.3314 47.4224 52.4317 47.658 52.6065 47.8328C52.7812 48.0076 53.0169 48.1079 53.2641 48.1127H64.1766C64.4252 48.1127 64.6637 48.014 64.8395 47.8381C65.0153 47.6623 65.1141 47.4239 65.1141 47.1752C65.1141 46.9266 65.0153 46.6881 64.8395 46.5123C64.6637 46.3365 64.4252 46.2377 64.1766 46.2377H59.5828V39.544C60.2955 39.4109 60.9804 39.1573 61.6078 38.794C63.4751 39.4576 65.5062 39.5036 67.4016 38.9252C71.7328 37.6502 74.3953 33.694 73.3453 30.1127C73.0615 29.2199 72.5805 28.4025 71.9378 27.7209C71.2952 27.0392 70.5074 26.511 69.6328 26.1752ZM66.8766 37.1252C65.2362 37.6373 63.4666 37.5441 61.8891 36.8627L61.3641 36.6377L60.8953 36.994C60.5059 37.2858 60.0583 37.4904 59.5828 37.594V29.6252H59.9391C60.9132 29.6478 61.8658 29.3368 62.6391 28.744C63.6446 27.8526 64.2745 26.6129 64.4016 25.2752C64.4224 25.0294 64.3456 24.7852 64.1876 24.5957C64.0297 24.4061 63.8034 24.2865 63.5578 24.2627C63.3101 24.247 63.066 24.3282 62.877 24.4891C62.6881 24.6501 62.5691 24.8782 62.5453 25.1252C62.4578 25.9525 62.071 26.7193 61.4578 27.2815C61.1889 27.473 60.8849 27.6097 60.5632 27.6837C60.2415 27.7577 59.9083 27.7675 59.5828 27.7127V25.2002C59.5828 24.9516 59.484 24.7131 59.3082 24.5373C59.1324 24.3615 58.894 24.2627 58.6453 24.2627C58.3967 24.2627 58.1582 24.3615 57.9824 24.5373C57.8066 24.7131 57.7078 24.9516 57.7078 25.2002V32.5502C56.616 32.6663 55.52 32.3722 54.6328 31.7252C53.5758 30.7424 52.9099 29.4105 52.7578 27.9752C52.7507 27.8528 52.7192 27.733 52.6651 27.623C52.611 27.5129 52.5354 27.4148 52.4428 27.3344C52.3502 27.254 52.2424 27.193 52.1259 27.1549C52.0093 27.1169 51.8863 27.1025 51.7641 27.1127C51.6408 27.1222 51.5206 27.1559 51.4105 27.212C51.3003 27.2681 51.2023 27.3454 51.1222 27.4395C51.042 27.5336 50.9812 27.6427 50.9434 27.7603C50.9055 27.878 50.8913 28.002 50.9016 28.1252C51.0662 30.0869 51.9956 31.9052 53.4891 33.1877C54.5968 34.048 55.9682 34.4985 57.3703 34.4627H57.7078V37.7627C57.1671 37.7283 56.6384 37.5881 56.1516 37.3502L55.6641 37.1252L55.2141 37.444C54.6161 37.8206 53.8984 37.9583 53.2035 37.8298C52.5087 37.7012 51.8877 37.3158 51.4641 36.7502L51.1266 36.1877L50.4703 36.319C49.8784 36.5056 49.2525 36.5587 48.6376 36.4745C48.0227 36.3903 47.4341 36.1709 46.9141 35.8321C46.3942 35.4932 45.9558 35.0433 45.6305 34.5147C45.3052 33.9862 45.1011 33.3921 45.0328 32.7752C45.0597 32.1608 45.247 31.564 45.5759 31.0443C45.9048 30.5246 46.364 30.1 46.9078 29.8127L47.6953 29.344L47.1328 28.4627C46.6797 27.721 46.476 26.8536 46.5516 25.9877C46.6914 25.1346 47.0599 24.3353 47.6179 23.675C48.1759 23.0146 48.9024 22.5179 49.7203 22.2377L50.1516 22.1252L50.3016 21.769C50.6058 21.0065 51.0299 20.2976 51.5578 19.669C53.7891 16.9877 57.2953 16.219 59.3766 17.944C60.1134 18.582 60.6042 19.4575 60.7641 20.419L60.9141 21.2627H61.7766C62.9779 20.9992 64.2335 21.1643 65.3259 21.7293C66.4183 22.2944 67.2787 23.2238 67.7578 24.3565C67.9641 25.0668 67.9641 25.8211 67.7578 26.5315L67.5141 27.4315L68.3953 27.694C69.1164 27.8904 69.7779 28.2618 70.3208 28.7754C70.8638 29.2889 71.2716 29.9287 71.5078 30.6377C72.2953 33.2252 70.2141 36.1315 66.8766 37.1252Z" fill="white" stroke="white" stroke-width="1.77419" mask="url(#path-2-inside-1_8303_156276)"/>
<path d="M85.5483 19.836H88.3203L97.7283 34.592V19.836H101.2V40.5H98.4283L89.0203 25.744V40.5H85.5483V19.836ZM111.372 40.64C109.71 40.64 108.404 40.416 107.452 39.968C106.518 39.5013 105.837 38.7267 105.408 37.644C104.997 36.5427 104.792 34.9933 104.792 32.996C104.792 30.9613 104.988 29.3933 105.38 28.292C105.79 27.1907 106.453 26.416 107.368 25.968C108.301 25.52 109.608 25.296 111.288 25.296C112.762 25.296 113.929 25.4453 114.788 25.744C115.646 26.0427 116.272 26.5653 116.664 27.312C117.056 28.04 117.252 29.0667 117.252 30.392C117.252 31.7733 116.85 32.7627 116.048 33.36C115.264 33.9573 114.116 34.256 112.604 34.256H108.208C108.245 35.2267 108.376 35.9827 108.6 36.524C108.824 37.0467 109.216 37.4293 109.776 37.672C110.354 37.9147 111.185 38.036 112.268 38.036H116.804V40.08C115.796 40.2667 114.89 40.4067 114.088 40.5C113.304 40.5933 112.398 40.64 111.372 40.64ZM112.268 32.156C112.94 32.156 113.425 32.0253 113.724 31.764C114.022 31.5027 114.172 31.0453 114.172 30.392C114.172 29.4213 113.957 28.7493 113.528 28.376C113.098 28.0027 112.352 27.816 111.288 27.816C110.485 27.816 109.86 27.9467 109.412 28.208C108.982 28.4507 108.665 28.88 108.46 29.496C108.273 30.112 108.18 30.9987 108.18 32.156H112.268ZM124.001 40.668C122.863 40.668 121.939 40.332 121.229 39.66C120.539 38.9693 120.193 38.0453 120.193 36.888V35.628C120.193 34.4333 120.595 33.4813 121.397 32.772C122.219 32.0627 123.432 31.708 125.037 31.708H129.321V30.392C129.321 29.832 129.228 29.384 129.041 29.048C128.855 28.712 128.509 28.46 128.005 28.292C127.501 28.1053 126.773 28.012 125.821 28.012H121.285V25.996C122.984 25.5293 124.944 25.296 127.165 25.296C129.069 25.296 130.479 25.6693 131.393 26.416C132.327 27.1627 132.793 28.4133 132.793 30.168V40.5H130.077L129.489 38.876C129.303 39.044 128.92 39.2773 128.341 39.576C127.763 39.856 127.081 40.108 126.297 40.332C125.532 40.556 124.767 40.668 124.001 40.668ZM125.681 38.232C126.204 38.232 126.895 38.1013 127.753 37.84C128.631 37.56 129.153 37.3733 129.321 37.28V33.36L126.073 33.528C124.449 33.6587 123.637 34.3773 123.637 35.684V36.3C123.637 36.972 123.824 37.4573 124.197 37.756C124.589 38.0547 125.084 38.2133 125.681 38.232ZM136.793 25.492H139.481L140.265 27.9C140.919 27.0787 141.609 26.444 142.337 25.996C143.084 25.5293 143.924 25.296 144.857 25.296C145.305 25.296 145.725 25.352 146.117 25.464V28.992C145.408 28.9173 144.839 28.88 144.409 28.88C143.532 28.88 142.776 29.0293 142.141 29.328C141.507 29.608 140.881 30.0653 140.265 30.7V40.5H136.793V25.492ZM174.752 40.5L173.016 25.716L168.928 40.5H165.68L161.564 25.8L159.912 40.5H156.58L158.96 19.836H162.32L167.332 36.384L172.316 19.836H175.676L178.112 40.5H174.752ZM187.644 40.64C185.983 40.64 184.676 40.416 183.724 39.968C182.791 39.5013 182.11 38.7267 181.68 37.644C181.27 36.5427 181.064 34.9933 181.064 32.996C181.064 30.9613 181.26 29.3933 181.652 28.292C182.063 27.1907 182.726 26.416 183.64 25.968C184.574 25.52 185.88 25.296 187.56 25.296C189.035 25.296 190.202 25.4453 191.06 25.744C191.919 26.0427 192.544 26.5653 192.936 27.312C193.328 28.04 193.524 29.0667 193.524 30.392C193.524 31.7733 193.123 32.7627 192.32 33.36C191.536 33.9573 190.388 34.256 188.876 34.256H184.48C184.518 35.2267 184.648 35.9827 184.872 36.524C185.096 37.0467 185.488 37.4293 186.048 37.672C186.627 37.9147 187.458 38.036 188.54 38.036H193.076V40.08C192.068 40.2667 191.163 40.4067 190.36 40.5C189.576 40.5933 188.671 40.64 187.644 40.64ZM188.54 32.156C189.212 32.156 189.698 32.0253 189.996 31.764C190.295 31.5027 190.444 31.0453 190.444 30.392C190.444 29.4213 190.23 28.7493 189.8 28.376C189.371 28.0027 188.624 27.816 187.56 27.816C186.758 27.816 186.132 27.9467 185.684 28.208C185.255 28.4507 184.938 28.88 184.732 29.496C184.546 30.112 184.452 30.9987 184.452 32.156H188.54Z" fill="white"/>
</g>
<defs>
<filter id="filter0_d_8303_156276" x="0" y="0" width="245" height="64" filterUnits="userSpaceOnUse" color-interpolation-filters="sRGB">
<feFlood flood-opacity="0" result="BackgroundImageFix"/>
<feColorMatrix in="SourceAlpha" type="matrix" values="0 0 0 0 0 0 0 0 0 0 0 0 0 0 0 0 0 0 127 0" result="hardAlpha"/>
<feOffset dy="2"/>
<feGaussianBlur stdDeviation="1"/>
<feComposite in2="hardAlpha" operator="out"/>
<feColorMatrix type="matrix" values="0 0 0 0 0 0 0 0 0 0 0 0 0 0 0 0 0 0 0.25 0"/>
<feBlend mode="normal" in2="BackgroundImageFix" result="effect1_dropShadow_8303_156276"/>
<feBlend mode="normal" in="SourceGraphic" in2="effect1_dropShadow_8303_156276" result="shape"/>
</filter>
</defs>
</svg>
