<svg width="245" height="64" viewBox="0 0 245 64" fill="none" xmlns="http://www.w3.org/2000/svg">
<g filter="url(#filter0_d_8303_147055)">
<rect x="2" width="241" height="60" rx="30" fill="#5286E9" shape-rendering="crispEdges"/>
<path d="M72.9516 34.333C72.5507 32.1291 71.6322 30.1161 70.7188 28.289C67.9735 22.7095 64.67 17.6461 61.4172 12.9595L61.0113 12.304C60.4531 11.5092 59.7883 11.0859 59.0272 11.0859C57.9108 11.0859 57.2003 12.0202 56.9974 12.304C56.9974 12.304 56.9974 12.304 56.9974 12.3505L56.2869 13.3828C55.0183 15.2564 53.6939 17.228 52.4202 19.1945C50.436 22.2862 47.9444 26.4154 46.1176 30.8181C45.5087 32.2736 44.9505 33.724 44.8997 35.3189C44.6968 39.4428 46.3206 42.9113 49.6799 45.6314C52.273 47.7373 55.5765 48.9141 58.9815 48.9141C63.9646 48.9141 68.4911 46.5708 71.0791 42.5861C72.7993 39.959 73.459 37.1408 72.9516 34.333ZM69.4451 41.6932C67.2072 45.1617 63.2948 47.1747 58.9713 47.1747C56.0281 47.1747 53.1255 46.1888 50.8927 44.3617C47.9901 42.0184 46.5693 38.9731 46.7266 35.4066C46.7722 34.0956 47.234 32.831 47.843 31.4684C49.6241 27.1586 52.0649 23.1224 53.9932 20.0771C55.2162 18.1571 56.5356 16.1854 57.8549 14.3118L58.5146 13.326C58.5146 13.2795 58.5654 13.2795 58.5654 13.2331C58.6669 13.0937 58.8698 12.8563 58.9713 12.8099C58.9713 12.8099 59.1236 12.8563 59.3773 13.2331L59.7833 13.8421C62.9345 18.4358 66.2431 23.4527 68.9326 28.9393C69.7952 30.72 70.6579 32.5936 71.0131 34.5653C71.5307 37.0015 70.9725 39.3912 69.4451 41.6932ZM59.8898 42.7203C59.8898 43.19 59.4839 43.5668 58.9713 43.5668C54.3485 43.5668 50.639 40.0983 50.639 35.8763C50.639 35.4066 51.045 35.035 51.5524 35.035C52.0649 35.035 52.4709 35.4066 52.4709 35.8763C52.5216 39.159 55.4192 41.8326 58.9713 41.8326C59.4839 41.8326 59.8898 42.2558 59.8898 42.7203Z" fill="#FAFAFA" stroke="#FAFAFA" stroke-width="0.538463"/>
<path d="M85.5483 19.836H88.3203L97.7283 34.592V19.836H101.2V40.5H98.4283L89.0203 25.744V40.5H85.5483V19.836ZM111.372 40.64C109.71 40.64 108.404 40.416 107.452 39.968C106.518 39.5013 105.837 38.7267 105.408 37.644C104.997 36.5427 104.792 34.9933 104.792 32.996C104.792 30.9613 104.988 29.3933 105.38 28.292C105.79 27.1907 106.453 26.416 107.368 25.968C108.301 25.52 109.608 25.296 111.288 25.296C112.762 25.296 113.929 25.4453 114.788 25.744C115.646 26.0427 116.272 26.5653 116.664 27.312C117.056 28.04 117.252 29.0667 117.252 30.392C117.252 31.7733 116.85 32.7627 116.048 33.36C115.264 33.9573 114.116 34.256 112.604 34.256H108.208C108.245 35.2267 108.376 35.9827 108.6 36.524C108.824 37.0467 109.216 37.4293 109.776 37.672C110.354 37.9147 111.185 38.036 112.268 38.036H116.804V40.08C115.796 40.2667 114.89 40.4067 114.088 40.5C113.304 40.5933 112.398 40.64 111.372 40.64ZM112.268 32.156C112.94 32.156 113.425 32.0253 113.724 31.764C114.022 31.5027 114.172 31.0453 114.172 30.392C114.172 29.4213 113.957 28.7493 113.528 28.376C113.098 28.0027 112.352 27.816 111.288 27.816C110.485 27.816 109.86 27.9467 109.412 28.208C108.982 28.4507 108.665 28.88 108.46 29.496C108.273 30.112 108.18 30.9987 108.18 32.156H112.268ZM124.001 40.668C122.863 40.668 121.939 40.332 121.229 39.66C120.539 38.9693 120.193 38.0453 120.193 36.888V35.628C120.193 34.4333 120.595 33.4813 121.397 32.772C122.219 32.0627 123.432 31.708 125.037 31.708H129.321V30.392C129.321 29.832 129.228 29.384 129.041 29.048C128.855 28.712 128.509 28.46 128.005 28.292C127.501 28.1053 126.773 28.012 125.821 28.012H121.285V25.996C122.984 25.5293 124.944 25.296 127.165 25.296C129.069 25.296 130.479 25.6693 131.393 26.416C132.327 27.1627 132.793 28.4133 132.793 30.168V40.5H130.077L129.489 38.876C129.303 39.044 128.92 39.2773 128.341 39.576C127.763 39.856 127.081 40.108 126.297 40.332C125.532 40.556 124.767 40.668 124.001 40.668ZM125.681 38.232C126.204 38.232 126.895 38.1013 127.753 37.84C128.631 37.56 129.153 37.3733 129.321 37.28V33.36L126.073 33.528C124.449 33.6587 123.637 34.3773 123.637 35.684V36.3C123.637 36.972 123.824 37.4573 124.197 37.756C124.589 38.0547 125.084 38.2133 125.681 38.232ZM136.793 25.492H139.481L140.265 27.9C140.919 27.0787 141.609 26.444 142.337 25.996C143.084 25.5293 143.924 25.296 144.857 25.296C145.305 25.296 145.725 25.352 146.117 25.464V28.992C145.408 28.9173 144.839 28.88 144.409 28.88C143.532 28.88 142.776 29.0293 142.141 29.328C141.507 29.608 140.881 30.0653 140.265 30.7V40.5H136.793V25.492ZM174.752 40.5L173.016 25.716L168.928 40.5H165.68L161.564 25.8L159.912 40.5H156.58L158.96 19.836H162.32L167.332 36.384L172.316 19.836H175.676L178.112 40.5H174.752ZM187.644 40.64C185.983 40.64 184.676 40.416 183.724 39.968C182.791 39.5013 182.11 38.7267 181.68 37.644C181.27 36.5427 181.064 34.9933 181.064 32.996C181.064 30.9613 181.26 29.3933 181.652 28.292C182.063 27.1907 182.726 26.416 183.64 25.968C184.574 25.52 185.88 25.296 187.56 25.296C189.035 25.296 190.202 25.4453 191.06 25.744C191.919 26.0427 192.544 26.5653 192.936 27.312C193.328 28.04 193.524 29.0667 193.524 30.392C193.524 31.7733 193.123 32.7627 192.32 33.36C191.536 33.9573 190.388 34.256 188.876 34.256H184.48C184.518 35.2267 184.648 35.9827 184.872 36.524C185.096 37.0467 185.488 37.4293 186.048 37.672C186.627 37.9147 187.458 38.036 188.54 38.036H193.076V40.08C192.068 40.2667 191.163 40.4067 190.36 40.5C189.576 40.5933 188.671 40.64 187.644 40.64ZM188.54 32.156C189.212 32.156 189.698 32.0253 189.996 31.764C190.295 31.5027 190.444 31.0453 190.444 30.392C190.444 29.4213 190.23 28.7493 189.8 28.376C189.371 28.0027 188.624 27.816 187.56 27.816C186.758 27.816 186.132 27.9467 185.684 28.208C185.255 28.4507 184.938 28.88 184.732 29.496C184.546 30.112 184.452 30.9987 184.452 32.156H188.54Z" fill="white"/>
</g>
<defs>
<filter id="filter0_d_8303_147055" x="0" y="0" width="245" height="64" filterUnits="userSpaceOnUse" color-interpolation-filters="sRGB">
<feFlood flood-opacity="0" result="BackgroundImageFix"/>
<feColorMatrix in="SourceAlpha" type="matrix" values="0 0 0 0 0 0 0 0 0 0 0 0 0 0 0 0 0 0 127 0" result="hardAlpha"/>
<feOffset dy="2"/>
<feGaussianBlur stdDeviation="1"/>
<feComposite in2="hardAlpha" operator="out"/>
<feColorMatrix type="matrix" values="0 0 0 0 0 0 0 0 0 0 0 0 0 0 0 0 0 0 0.25 0"/>
<feBlend mode="normal" in2="BackgroundImageFix" result="effect1_dropShadow_8303_147055"/>
<feBlend mode="normal" in="SourceGraphic" in2="effect1_dropShadow_8303_147055" result="shape"/>
</filter>
</defs>
</svg>
