<svg width="29" height="35" viewBox="0 0 29 35" fill="none" xmlns="http://www.w3.org/2000/svg">
<path d="M27.2053 13.8271L27.2053 13.8272L27.2109 13.8326C27.4932 14.1051 27.7179 14.4314 27.8718 14.7923C28.0256 15.1529 28.1054 15.5408 28.1067 15.9329C28.1067 15.9331 28.1067 15.9333 28.1067 15.9335L28.1067 18.501H28.1066L28.1067 18.5102C28.108 18.571 28.0971 18.6313 28.0748 18.6878C28.0524 18.7443 28.019 18.7957 27.9765 18.8391L28.2933 19.1495L27.9765 18.8391C27.9339 18.8825 27.8832 18.917 27.8272 18.9405C27.7712 18.9641 27.711 18.9762 27.6503 18.9762H27.6502H26.6189H26.1754V19.4197V20.751V20.7512C26.1763 22.8269 25.3678 24.8212 23.9217 26.3104C22.4757 27.7996 20.506 28.6663 18.4311 28.7264L18.0004 28.7388V29.1697V33.3885H18.0003L18.0005 33.3977C18.0018 33.4585 17.9909 33.5188 17.9685 33.5753C17.9461 33.6318 17.9127 33.6832 17.8702 33.7266C17.8277 33.77 17.777 33.8045 17.7209 33.828C17.6649 33.8516 17.6048 33.8637 17.544 33.8637H17.5439H7.42843C7.29595 33.857 7.17029 33.8027 7.07465 33.7106C7.03335 33.6686 7.00057 33.619 6.97812 33.5645L6.56798 33.7334L6.97812 33.5645C6.95528 33.509 6.9436 33.4496 6.94375 33.3896V33.3885V29.1885V28.7978L6.55615 28.7485C5.6982 28.6394 4.90905 28.2224 4.33542 27.5752C3.76208 26.9283 3.44302 26.0952 3.4375 25.2309V19.1572V19.135L3.43527 19.1129C3.42947 19.0551 3.42947 18.9969 3.43527 18.9391L3.43973 18.8947L3.43527 18.8504C3.42947 18.7926 3.42947 18.7344 3.43527 18.6766L3.4375 18.6545V18.6322V5.91973V5.47618H2.99395H1.38672C1.26376 5.47269 1.14688 5.42165 1.06073 5.3337C0.973703 5.24486 0.92497 5.12544 0.924996 5.00107V5.00098V1.43848H0.924998L0.924995 1.43739C0.924848 1.37739 0.936531 1.31795 0.959375 1.26248C0.98222 1.207 1.01578 1.15657 1.05813 1.11407L1.06658 1.10558L1.07457 1.09665C1.11256 1.05417 1.1592 1.02029 1.21134 0.997282C1.26349 0.974275 1.31995 0.962673 1.37694 0.963252L1.37694 0.963275H1.38145H14.0002V0.963371L14.0094 0.963179C14.0702 0.961913 14.1306 0.972785 14.187 0.995156C14.2435 1.01753 14.295 1.05095 14.3384 1.09346C14.3818 1.13598 14.4162 1.18672 14.4398 1.24273C14.4633 1.29874 14.4754 1.35888 14.4754 1.41963V1.41973V4.94473H14.4753L14.4755 4.95407C14.4768 5.01561 14.4656 5.07679 14.4427 5.1339L14.8542 5.29932L14.4427 5.13391C14.4197 5.19102 14.3854 5.24291 14.3419 5.28644C14.2984 5.32997 14.2465 5.36424 14.1894 5.3872C14.1323 5.41016 14.0711 5.42132 14.0095 5.42003L14.0095 5.41993H14.0002H12.5752H12.1316V5.86348V12.5197V12.9633H12.5752H25.1189H25.119C25.5065 12.9632 25.8901 13.0395 26.2481 13.1877C26.6061 13.3359 26.9313 13.5532 27.2053 13.8271ZM6.5002 29.1885V33.3885V29.1885ZM2.2252 1.95118H1.78165V2.39473V4.06348V4.50702H2.2252H3.81895H11.6002H13.0064H13.45V4.06348V2.39473V1.95118H13.0064H2.2252ZM11.1437 5.86348V5.41993H10.7002H4.75645H4.3129V5.86348V17.6572V18.1008H4.75645H10.7002H11.1437V17.6572V13.5135V5.86348ZM7.93165 32.4697V32.9143L8.3762 32.9133L16.6825 32.8945L17.125 32.8935V32.451V29.226V28.7824H16.6814H8.3752H7.93165V29.226V32.4697ZM25.225 19.4947V19.0512H24.7814H22.6439H11.6564H4.79395H4.3504V19.4947V25.1172C4.34655 25.47 4.41454 25.8198 4.55023 26.1455C4.68628 26.472 4.88754 26.7673 5.14167 27.0134L5.14164 27.0134L5.14607 27.0176C5.65362 27.4957 6.32193 27.7662 7.01913 27.7757L7.01913 27.7758H7.0252L18.2752 27.7758L18.2777 27.7758C19.1953 27.7705 20.1029 27.5846 20.9486 27.2286C21.7944 26.8726 22.5617 26.3535 23.2068 25.701C23.8519 25.0484 24.3622 24.2752 24.7085 23.4254C25.0546 22.5761 25.2301 21.6669 25.225 20.7498V19.4947ZM12.1692 17.4697V17.9133H12.6127H25.1752H26.7502H27.1937V17.4697L27.1937 16.0083L26.7502 16.0072H27.1937V16.0075C27.1943 15.7396 27.1415 15.4743 27.0385 15.227C26.9366 14.9825 26.7877 14.7606 26.6003 14.5737C26.4128 14.3729 26.1841 14.2149 25.9297 14.1107C25.6757 14.0065 25.4021 13.9585 25.1279 13.9699H12.6127H12.1692V14.4135V17.4697Z" fill="white" stroke="white" stroke-width="0.887097"/>
</svg>
