<svg width="85" height="85" viewBox="0 0 85 85" fill="none" xmlns="http://www.w3.org/2000/svg">
<circle cx="42.5" cy="42.5" r="38.5" fill="#F2853A" stroke="white" stroke-width="8"/>
<mask id="path-2-inside-1_5269_45626" fill="white">
<path d="M60.313 46.1668H60.1255L61.0005 45.7501L60.4172 46.0001L60.313 46.1668Z"/>
</mask>
<path d="M60.313 46.1668H60.1255L61.0005 45.7501L60.4172 46.0001L60.313 46.1668Z" fill="white"/>
<path d="M60.313 46.1668V47.0539H60.8047L61.0652 46.6369L60.313 46.1668ZM60.1255 46.1668L59.7441 45.3658L60.1255 47.0539V46.1668ZM61.0005 45.7501L61.3819 46.551L60.651 44.9347L61.0005 45.7501ZM60.4172 46.0001L60.0677 45.1847L59.8122 45.2942L59.6649 45.5299L60.4172 46.0001ZM60.313 45.2797H60.1255V47.0539H60.313V45.2797ZM60.5069 46.9677L61.3819 46.551L60.6191 44.9492L59.7441 45.3658L60.5069 46.9677ZM60.651 44.9347L60.0677 45.1847L60.7666 46.8155L61.3499 46.5655L60.651 44.9347ZM59.6649 45.5299L59.5607 45.6966L61.0652 46.6369L61.1694 46.4703L59.6649 45.5299Z" fill="white" mask="url(#path-2-inside-1_5269_45626)"/>
<path d="M58.9164 38.9166C58.7897 38.5627 58.5586 38.2556 58.2535 38.0361C57.9484 37.8166 57.5838 37.695 57.208 37.6874H56.4164C56.2657 36.5991 56.0501 35.5208 55.7705 34.4582C55.4 33.1631 55.197 31.8258 55.1664 30.4791C55.1664 29.7082 55.1664 29.0832 55.1664 28.5832C55.4041 28.5146 55.6161 28.3771 55.7755 28.1879C55.935 27.9988 56.0348 27.7666 56.0622 27.5207L56.1664 26.4582C56.1953 26.1242 56.0912 25.7923 55.8766 25.5348C55.6619 25.2772 55.3543 25.1149 55.0205 25.0832L49.5622 24.5416H49.4372C49.1298 24.5451 48.8346 24.6618 48.6078 24.8694C48.3811 25.0769 48.2387 25.3607 48.208 25.6666L48.1039 26.7499C48.0751 26.9831 48.1149 27.2197 48.2186 27.4306C48.3222 27.6415 48.485 27.8176 48.6872 27.9374C48.6872 28.4166 48.4789 28.9999 48.3539 29.7291C48.239 30.3442 48.0789 30.95 47.8747 31.5416L47.7497 30.8957L46.7289 25.1666C46.7109 25.0456 46.6684 24.9296 46.6039 24.8257C46.5394 24.7218 46.4543 24.6322 46.3539 24.5624C45.7314 24.1423 45.029 23.8552 44.2906 23.719C43.5521 23.5828 42.7935 23.6004 42.0622 23.7707C39.9519 24.2801 37.9247 25.0868 36.0414 26.1666C35.3216 26.5738 34.5771 26.9356 33.8122 27.2499C32.2334 27.7915 30.5527 27.9695 28.8955 27.7707C28.7484 27.7514 28.5988 27.7657 28.4581 27.8126C28.3173 27.8595 28.1891 27.9378 28.083 28.0416C27.9773 28.1457 27.8991 28.2744 27.8555 28.4163C27.8119 28.5581 27.8041 28.7085 27.833 28.8541L29.3747 37.6874H29.0622C28.6815 37.6948 28.3113 37.8131 27.9967 38.0277C27.6822 38.2423 27.4371 38.544 27.2914 38.8957L24.2497 45.5207C24.1149 45.8013 24.0555 46.1122 24.0774 46.4227C24.0994 46.7332 24.2018 47.0327 24.3747 47.2916C24.508 47.5103 24.6943 47.6918 24.9165 47.8193C25.1387 47.9467 25.3894 48.016 25.6455 48.0207H28.4164V57.4999C28.3766 58.2592 28.6392 59.0034 29.1468 59.5695C29.6544 60.1357 30.3655 60.4777 31.1247 60.5207H55.958C56.7172 60.4777 57.4284 60.1357 57.9359 59.5695C58.4435 59.0034 58.7061 58.2592 58.6664 57.4999V48.0207H60.3122C60.5581 48.0173 60.7992 47.9527 61.0138 47.8326C61.2285 47.7126 61.4098 47.541 61.5414 47.3332C61.7188 47.0739 61.8304 46.7752 61.8667 46.4631C61.903 46.151 61.8629 45.8347 61.7497 45.5416L58.9164 38.9166ZM48.7497 34.2291C49.3964 32.9057 49.8724 31.5056 50.1664 30.0624C50.2914 29.3124 50.4164 28.7291 50.4997 28.2499L53.2497 28.5207C53.2497 29.0207 53.2497 29.6666 53.2497 30.6041C53.278 32.0922 53.5022 33.5702 53.9164 34.9999C54.1247 35.8541 54.333 36.7291 54.4997 37.7916H47.4372C47.7046 36.8522 48.0388 35.9332 48.4372 35.0416L48.7497 34.2291ZM30.4997 39.5624H50.6455L47.6872 46.1666H26.1039L29.083 39.5832L30.4997 39.5624ZM34.4997 28.9999C35.3359 28.6547 36.15 28.2581 36.9372 27.8124C38.6605 26.8073 40.52 26.0565 42.458 25.5832C43.2886 25.3917 44.1602 25.5025 44.9164 25.8957L45.5622 29.4999C44.7618 29.3014 43.9251 29.3014 43.1247 29.4999C41.0253 30.0419 39.0125 30.8764 37.1455 31.9791C36.435 32.3902 35.6972 32.7521 34.9372 33.0624C33.5179 33.5774 32.005 33.7834 30.4997 33.6666L29.8955 29.7291C31.4634 29.7937 33.0285 29.5458 34.4997 28.9999ZM30.9164 35.5416C32.512 35.6162 34.1063 35.3682 35.6039 34.8124C36.4428 34.4894 37.2574 34.1064 38.0414 33.6666C39.7742 32.6658 41.6399 31.9153 43.583 31.4374C44.3614 31.2156 45.1922 31.2671 45.9372 31.5832L46.4789 34.6666C46.0917 35.6294 45.7715 36.6179 45.5205 37.6249H31.2914L30.9164 35.5416ZM51.333 58.6666H31.083C30.6247 58.6666 30.2497 58.1457 30.2497 57.5207V48.0207H47.6872C48.0656 48.0146 48.4337 47.8966 48.7451 47.6815C49.0566 47.4665 49.2974 47.1641 49.4372 46.8124L51.3122 42.6457L51.333 58.6666ZM56.8122 57.5207C56.8122 58.1457 56.4372 58.6666 55.9789 58.6666H53.1872V42.1457L55.1247 46.7916C55.1885 46.9756 55.2876 47.1454 55.4164 47.2916L55.5414 47.4166C55.6209 47.5169 55.7118 47.6078 55.8122 47.6874H55.9789C56.067 47.7523 56.1657 47.8016 56.2705 47.8332H56.4789H56.7914L56.8122 57.5207ZM58.6872 46.1666H56.8747L54.1455 39.6666H55.9997H57.208L59.9164 46.1666H58.6872ZM59.9789 46.3332H60.1664L60.7497 46.0832L59.9789 46.3332Z" fill="white"/>
</svg>
