<svg width="32" height="32" viewBox="0 0 32 32" fill="none" xmlns="http://www.w3.org/2000/svg">
<path d="M18.5 21.4992L5 21.4992" stroke="#2D3748" stroke-width="2" stroke-linecap="round" stroke-linejoin="round"/>
<path d="M27 21.4992L23.5 21.4992" stroke="#2D3748" stroke-width="2" stroke-linecap="round" stroke-linejoin="round"/>
<path d="M21 23.9992C22.3807 23.9992 23.5 22.8799 23.5 21.4992C23.5 20.1185 22.3807 18.9992 21 18.9992C19.6193 18.9992 18.5 20.1185 18.5 21.4992C18.5 22.8799 19.6193 23.9992 21 23.9992Z" stroke="#2D3748" stroke-width="2" stroke-linecap="round" stroke-linejoin="round"/>
<path d="M10.5 10.4992L5 10.4991" stroke="#2D3748" stroke-width="2" stroke-linecap="round" stroke-linejoin="round"/>
<path d="M27 10.4991L15.5 10.4992" stroke="#2D3748" stroke-width="2" stroke-linecap="round" stroke-linejoin="round"/>
<path d="M13 12.9992C14.3807 12.9992 15.5 11.8799 15.5 10.4992C15.5 9.11846 14.3807 7.99918 13 7.99918C11.6193 7.99918 10.5 9.11846 10.5 10.4992C10.5 11.8799 11.6193 12.9992 13 12.9992Z" stroke="#2D3748" stroke-width="2" stroke-linecap="round" stroke-linejoin="round"/>
</svg>
