<svg width="62" height="63" viewBox="0 0 62 63" fill="none" xmlns="http://www.w3.org/2000/svg">
<rect x="0.5" y="0.899994" width="61" height="61" rx="9.5" fill="#FF9A55" stroke="#E0E0E0"/>
<path d="M30.1685 18.1723C32.8978 17.1695 33.4437 17.8423 33.5071 17.8931L31.3872 12.2694C31.3872 12.2694 30.1558 12.4345 29.318 12.7137C28.4802 12.993 25.1923 14.2371 23.7959 15.0241C22.1965 15.9127 19.848 17.8804 17.3599 18.4897C14.8591 19.0863 13.5897 19.0736 13.5897 19.0736L15.5954 24.2656C18.3247 23.9991 19.7084 23.4151 21.8029 22.3488C23.9356 21.2698 27.2488 19.2387 30.1685 18.1723Z" stroke="#FAFAFA" stroke-width="2" stroke-miterlimit="10" stroke-linejoin="round"/>
<path d="M37.6455 28.8483L33.1263 16.8394" stroke="#FAFAFA" stroke-width="2" stroke-miterlimit="10" stroke-linejoin="round"/>
<path d="M48.7531 17.9184C49.0324 17.271 48.7277 16.5221 48.0803 16.2428L44.1832 14.5671C43.5357 14.2878 42.7868 14.5925 42.5075 15.2399C42.2282 15.8873 42.5329 16.6363 43.1803 16.9156L47.0775 18.5912C47.7249 18.8705 48.4739 18.5785 48.7531 17.9184Z" stroke="#FAFAFA" stroke-width="2" stroke-miterlimit="10" stroke-linejoin="round"/>
<path d="M47.0774 18.5912L43.1802 16.9156C42.5328 16.6363 42.2282 15.8873 42.5074 15.2399C42.7867 14.5925 43.5357 14.2878 44.1831 14.5671L48.0803 16.2428C48.7277 16.5221 49.0323 17.271 48.7531 17.9184C48.4738 18.5785 47.7248 18.8705 47.0774 18.5912Z" stroke="#FAFAFA" stroke-width="2" stroke-miterlimit="10" stroke-linejoin="round"/>
<path d="M46.43 35.589H45.4779C45.2621 35.589 45.059 35.4621 44.9575 35.2717L41.7331 28.861H45.1225H44.4243H46.0619C46.3792 28.861 46.6585 29.0387 46.7982 29.318L49.6798 35.0305C49.8067 35.2844 49.6163 35.589 49.337 35.589H46.43Z" stroke="#FAFAFA" stroke-width="2" stroke-miterlimit="10" stroke-linejoin="round"/>
<path d="M37.7344 35.589H15.278V47.052C15.278 48.0803 16.1158 48.9181 17.1441 48.9181H41.7331" stroke="#FAFAFA" stroke-width="2" stroke-miterlimit="10" stroke-linejoin="round"/>
<path d="M36.2618 25.1669C36.9473 24.0879 37.9248 22.8439 39.8544 21.2444C41.7331 19.683 43.1803 16.9156 43.1803 16.9156L47.0775 18.5912C47.0775 18.5912 46.4935 20.3304 46.265 21.7268C45.7953 24.5449 46.1 26.6395 45.1225 28.8483L41.7331 29.0133V48.9181H44.564C45.5922 48.9181 46.43 48.0803 46.43 47.0521V35.589H45.478C45.2622 35.589 45.059 35.4621 44.9575 35.2717L41.7331 28.861H41.4665" stroke="#FAFAFA" stroke-width="2" stroke-miterlimit="10" stroke-linejoin="round"/>
<path d="M27.1346 24.8877C27.1346 25.0527 27.1473 25.2304 27.1727 25.4462C27.1346 25.2304 27.1346 25.0527 27.1346 24.8877ZM27.1346 24.8877C27.1346 24.8877 26.7283 25.205 25.9032 25.205C26.7283 25.205 27.1346 24.8877 27.1346 24.8877ZM27.1346 24.8877C27.1346 24.7988 27.1346 24.7099 27.1473 24.6338C27.0965 24.456 26.9442 24.2149 26.4491 23.9356C25.5224 23.4278 24.4307 24.126 24.4307 24.126C24.4307 24.126 24.8496 25.1923 25.9032 25.1923C24.8496 25.1923 24.4307 24.126 24.4307 24.126C24.4307 24.126 25.5224 23.4151 26.4491 23.9356C26.9442 24.2022 27.1092 24.456 27.1473 24.6338C27.198 24.1514 27.3758 23.9356 27.3758 23.9356C27.3758 23.9356 27.198 24.1514 27.1473 24.6338" stroke="#FAFAFA" stroke-width="2" stroke-miterlimit="10" stroke-linejoin="round"/>
<path d="M17.5249 28.8483H25.3446H16.0524C15.5954 28.8483 15.1764 29.1022 14.9733 29.5084L12.3329 34.7639C12.1425 35.132 12.4218 35.5763 12.8407 35.5763H15.278H15.5446H38.0009C38.2167 35.5763 38.4199 35.4494 38.5087 35.259L41.7458 28.8356H25.662H25.5731H25.3446C25.2685 28.6071 25.2304 28.3659 25.2177 28.112C25.1415 26.7664 25.9286 26.0809 27.1726 25.5097C27.5915 25.3193 27.9978 24.3926 29.191 24.4434C29.5211 24.456 29.8258 24.5068 30.105 24.5957C31.4887 25.0019 32.2377 26.2206 32.3266 27.7185C32.3519 28.112 32.2885 28.4929 32.1742 28.8483H29.6861H25.5731" stroke="#FAFAFA" stroke-width="2" stroke-miterlimit="10" stroke-linejoin="round"/>
<path d="M15.5953 24.2783L17.5249 28.8483" stroke="#FAFAFA" stroke-width="2" stroke-miterlimit="10" stroke-linejoin="round"/>
</svg>
