<svg width="45" height="45" viewBox="0 0 35 35" fill="none" xmlns="http://www.w3.org/2000/svg">
<path d="M32.3244 14.7249C32.2104 14.4064 32.0023 14.1301 31.7278 13.9325C31.4532 13.7349 31.1251 13.6255 30.7869 13.6186H30.0744C29.9388 12.6392 29.7447 11.6687 29.4931 10.7124C29.1596 9.54677 28.9769 8.34322 28.9494 7.13115C28.9494 6.4374 28.9494 5.8749 28.9494 5.4249C29.1633 5.36318 29.3541 5.23937 29.4976 5.06915C29.6411 4.89892 29.7309 4.68993 29.7556 4.46865L29.8494 3.5124C29.8754 3.21181 29.7817 2.91309 29.5885 2.6813C29.3954 2.44952 29.1185 2.30344 28.8181 2.2749L23.9056 1.7874H23.7931C23.5165 1.79062 23.2507 1.89566 23.0467 2.08244C22.8426 2.26922 22.7145 2.52464 22.6869 2.7999L22.5931 3.7749C22.5672 3.98479 22.6031 4.19769 22.6963 4.38751C22.7896 4.57733 22.9362 4.73585 23.1181 4.84365C23.1181 5.2749 22.9306 5.7999 22.8181 6.45615C22.7148 7.00979 22.5706 7.55503 22.3869 8.0874L22.2744 7.50615L21.3556 2.3499C21.3394 2.24103 21.3012 2.13662 21.2431 2.0431C21.1851 1.94959 21.1085 1.86894 21.0181 1.80615C20.4579 1.42809 19.8258 1.16968 19.1612 1.04708C18.4966 0.924486 17.8138 0.940337 17.1556 1.09365C15.2563 1.55211 13.4319 2.27811 11.7369 3.2499C11.0891 3.6164 10.419 3.94204 9.7306 4.2249C8.30971 4.71234 6.79708 4.87258 5.3056 4.69365C5.17321 4.67622 5.03859 4.68911 4.91191 4.73133C4.78523 4.77356 4.66981 4.84402 4.57435 4.9374C4.47922 5.03112 4.40886 5.147 4.36959 5.27463C4.33032 5.40227 4.32336 5.53766 4.34935 5.66865L5.73685 13.6186H5.4556C5.11299 13.6254 4.77976 13.7318 4.4967 13.9249C4.21364 14.1181 3.99302 14.3896 3.86185 14.7061L1.12435 20.6686C1.00303 20.9212 0.949608 21.201 0.969335 21.4804C0.989062 21.7599 1.08126 22.0294 1.23685 22.2624C1.35681 22.4592 1.52454 22.6226 1.72449 22.7373C1.92444 22.8521 2.15012 22.9144 2.3806 22.9186H4.87435V31.4499C4.83854 32.1333 5.07491 32.803 5.53173 33.3126C5.98855 33.8221 6.62862 34.1299 7.31185 34.1686H29.6619C30.3451 34.1299 30.9852 33.8221 31.442 33.3126C31.8988 32.803 32.1352 32.1333 32.0994 31.4499V22.9186H33.5806C33.8019 22.9156 34.0189 22.8574 34.2121 22.7494C34.4053 22.6413 34.5684 22.4869 34.6869 22.2999C34.8465 22.0665 34.947 21.7977 34.9797 21.5168C35.0124 21.2359 34.9762 20.9512 34.8744 20.6874L32.3244 14.7249ZM23.1744 10.5061C23.7564 9.31516 24.1848 8.05508 24.4494 6.75615C24.5619 6.08115 24.6744 5.55615 24.7494 5.1249L27.2244 5.36865C27.2244 5.81865 27.2244 6.3999 27.2244 7.24365C27.2499 8.58301 27.4516 9.91319 27.8244 11.1999C28.0119 11.9686 28.1994 12.7561 28.3494 13.7124H21.9931C22.2338 12.867 22.5345 12.0399 22.8931 11.2374L23.1744 10.5061ZM6.74935 15.3061H24.8806L22.2181 21.2499H2.7931L5.47435 15.3249L6.74935 15.3061ZM10.3494 5.7999C11.102 5.48926 11.8346 5.13233 12.5431 4.73115C14.0941 3.82655 15.7676 3.15082 17.5119 2.7249C18.2593 2.55253 19.0438 2.65225 19.7244 3.00615L20.3056 6.2499C19.5853 6.07123 18.8322 6.07123 18.1119 6.2499C16.2224 6.73769 14.4109 7.48879 12.7306 8.48115C12.0911 8.85114 11.4271 9.1769 10.7431 9.45615C9.46574 9.91965 8.10413 10.105 6.74935 9.9999L6.2056 6.45615C7.6167 6.51431 9.02528 6.29123 10.3494 5.7999ZM7.12435 11.6874C8.56043 11.7546 9.9953 11.5314 11.3431 11.0311C12.0981 10.7404 12.8313 10.3958 13.5369 9.9999C15.0964 9.09921 16.7755 8.42376 18.5244 7.99365C19.2249 7.79403 19.9726 7.84035 20.6431 8.1249L21.1306 10.8999C20.7822 11.7665 20.494 12.6561 20.2681 13.5624H7.46185L7.12435 11.6874ZM25.4994 32.4999H7.27435C6.86185 32.4999 6.52435 32.0311 6.52435 31.4686V22.9186H22.2181C22.5587 22.9131 22.89 22.8069 23.1703 22.6134C23.4506 22.4198 23.6673 22.1477 23.7931 21.8311L25.4806 18.0811L25.4994 32.4999ZM30.4306 31.4686C30.4306 32.0311 30.0931 32.4999 29.6806 32.4999H27.1681V17.6311L28.9119 21.8124C28.9693 21.978 29.0585 22.1309 29.1744 22.2624L29.2869 22.3749C29.3585 22.4652 29.4403 22.547 29.5306 22.6186H29.6806C29.76 22.6771 29.8488 22.7215 29.9431 22.7499H30.1306H30.4119L30.4306 31.4686ZM32.1181 21.2499H30.4869L28.0306 15.3999H29.6994H30.7869L33.2244 21.2499H32.1181ZM33.2806 21.3999H33.4494L33.9744 21.1749L33.2806 21.3999Z" fill="white"/>
</svg>
