<svg width="62" height="63" viewBox="0 0 62 63" fill="none" xmlns="http://www.w3.org/2000/svg">
<rect x="0.5" y="1.3" width="61" height="61" rx="9.5" fill="#5DA694" stroke="#E0E0E0"/>
<path d="M22.7775 52.0001H38.6738" stroke="#FAFAFA" stroke-width="2" stroke-linecap="round" stroke-linejoin="round"/>
<path d="M47.229 28.8142C46.6215 26.7533 44.8957 25.2659 42.6929 24.6073C42.9768 23.5684 42.9995 22.484 42.6872 21.4337C41.7789 18.351 38.3725 16.5513 34.6028 16.8976C34.3474 15.4954 33.6831 14.2407 32.5931 13.3323C29.6863 10.9138 24.8891 11.879 21.8801 15.4897C21.1591 16.3526 20.6141 17.295 20.2281 18.2545C17.8039 19.2423 16.0723 21.1839 15.8339 23.5684C15.709 24.8287 16.0212 26.0437 16.6627 27.1337C15.0561 28.1102 14.0001 29.7225 14.0001 31.5449C14.0001 34.5255 16.7933 36.9383 20.2451 36.9383C20.7504 36.9383 21.2386 36.8815 21.7098 36.785C22.3627 37.8864 23.6855 38.6415 25.2184 38.6415C26.1154 38.6415 26.9442 38.3803 27.6085 37.9432C28.443 38.3803 29.482 38.6415 30.6117 38.6415C32.1219 38.6415 33.4731 38.1759 34.3814 37.4492C36.2606 38.3122 38.6337 38.4995 41.0068 37.8012C45.5145 36.4614 48.302 32.4419 47.229 28.8142Z" stroke="#FAFAFA" stroke-width="2" stroke-miterlimit="10"/>
<path d="M31.0264 22.7451V51.4152" stroke="#FAFAFA" stroke-width="2" stroke-miterlimit="10" stroke-linecap="round"/>
<path d="M23.0781 26.1515C23.0781 26.1515 23.6458 33.5319 31.0262 32.3965" stroke="#FAFAFA" stroke-width="2" stroke-miterlimit="10" stroke-linecap="round"/>
<path d="M36.7034 22.7451C36.7034 22.7451 36.3401 27.4913 31.5939 26.759" stroke="#FAFAFA" stroke-width="2" stroke-miterlimit="10" stroke-linecap="round"/>
</svg>
