<svg width="45" height="45" viewBox="0 0 32 34" fill="none" xmlns="http://www.w3.org/2000/svg">
<mask id="path-1-inside-1_6731_2994" fill="white">
<path d="M27.25 11.1752C27.356 10.3833 27.2921 9.57794 27.0625 8.8127C26.555 7.39187 25.597 6.17587 24.3344 5.34994C23.0718 4.52401 21.5739 4.13343 20.0688 4.2377C19.7256 3.15069 19.0742 2.18668 18.1938 1.4627C15.325 -0.918553 10.6375 -0.0560529 7.75 3.3752C7.17378 4.04553 6.6999 4.79742 6.34375 5.60645C5.27151 6.05035 4.33751 6.77296 3.63858 7.69938C2.93965 8.62579 2.50122 9.72229 2.36875 10.8752C2.3132 11.8213 2.48687 12.7668 2.875 13.6314C2.24831 14.1118 1.73759 14.7268 1.38059 15.431C1.02359 16.1353 0.829442 16.9108 0.8125 17.7002C0.872098 18.5437 1.10934 19.3652 1.50866 20.1106C1.90799 20.856 2.46038 21.5086 3.12961 22.0256C3.79884 22.5426 4.56979 22.9122 5.39191 23.1104C6.21403 23.3085 7.06874 23.3306 7.9 23.1752C8.59037 23.8977 9.48975 24.3857 10.4718 24.5707C11.4538 24.7556 12.4691 24.6283 13.375 24.2064C13.9764 24.4351 14.6082 24.5741 15.25 24.6189V31.2377H10.8813C10.6326 31.2377 10.3942 31.3365 10.2183 31.5123C10.0425 31.6881 9.94375 31.9266 9.94375 32.1752C9.94855 32.4223 10.0489 32.658 10.2236 32.8328C10.3984 33.0076 10.6341 33.1079 10.8813 33.1127H21.7937C22.0424 33.1127 22.2808 33.0139 22.4567 32.8381C22.6325 32.6623 22.7312 32.4238 22.7312 32.1752C22.7312 31.9266 22.6325 31.6881 22.4567 31.5123C22.2808 31.3365 22.0424 31.2377 21.7937 31.2377H17.2V24.5439C17.9127 24.4109 18.5976 24.1573 19.225 23.7939C21.0923 24.4576 23.1234 24.5036 25.0187 23.9252C29.35 22.6502 32.0125 18.6939 30.9625 15.1127C30.6787 14.2199 30.1977 13.4024 29.555 12.7208C28.9124 12.0392 28.1246 11.511 27.25 11.1752ZM24.4937 22.1252C22.8534 22.6372 21.0838 22.5441 19.5062 21.8627L18.9813 21.6377L18.5125 21.9939C18.1231 22.2857 17.6755 22.4904 17.2 22.5939V14.6252H17.5562C18.5304 14.6477 19.483 14.3368 20.2563 13.7439C21.2618 12.8526 21.8916 11.6129 22.0187 10.2752C22.0396 10.0294 21.9628 9.78519 21.8048 9.59565C21.6469 9.40612 21.4206 9.28648 21.175 9.2627C20.9273 9.24695 20.6832 9.32813 20.4942 9.48908C20.3053 9.65003 20.1863 9.87814 20.1625 10.1252C20.0749 10.9525 19.6882 11.7193 19.075 12.2814C18.8061 12.473 18.5021 12.6097 18.1804 12.6837C17.8587 12.7576 17.5255 12.7675 17.2 12.7127V10.2002C17.2 9.95156 17.1012 9.7131 16.9254 9.53728C16.7496 9.36147 16.5111 9.2627 16.2625 9.2627C16.0139 9.2627 15.7754 9.36147 15.5996 9.53728C15.4238 9.7131 15.325 9.95156 15.325 10.2002V17.5502C14.2331 17.6662 13.1371 17.3722 12.25 16.7252C11.193 15.7424 10.5271 14.4105 10.375 12.9752C10.3679 12.8528 10.3364 12.733 10.2823 12.6229C10.2282 12.5129 10.1526 12.4148 10.06 12.3344C9.96738 12.254 9.85961 12.193 9.74304 12.1549C9.62647 12.1168 9.50346 12.1025 9.38125 12.1127C9.25799 12.1222 9.13783 12.1559 9.02766 12.212C8.9175 12.2681 8.81952 12.3454 8.73935 12.4395C8.65919 12.5336 8.59843 12.6426 8.56057 12.7603C8.52271 12.878 8.5085 13.002 8.51875 13.1252C8.68343 15.0869 9.61278 16.9052 11.1062 18.1877C12.214 19.048 13.5854 19.4985 14.9875 19.4627H15.325V22.7627C14.7843 22.7283 14.2555 22.5881 13.7688 22.3502L13.2812 22.1252L12.8313 22.4439C12.2333 22.8205 11.5156 22.9583 10.8207 22.8297C10.1259 22.7012 9.50487 22.3158 9.08125 21.7502L8.74375 21.1877L8.0875 21.3189C7.49559 21.5056 6.86967 21.5587 6.25477 21.4745C5.63987 21.3903 5.05127 21.1709 4.53131 20.832C4.01135 20.4932 3.57296 20.0433 3.24766 19.5147C2.92236 18.9861 2.71825 18.3921 2.65 17.7752C2.67692 17.1607 2.86414 16.564 3.19307 16.0443C3.52199 15.5246 3.98118 15.1 4.525 14.8127L5.3125 14.3439L4.75 13.4627C4.29686 12.721 4.09316 11.8536 4.16875 10.9877C4.30855 10.1345 4.67706 9.33527 5.23505 8.67492C5.79304 8.01458 6.51964 7.51788 7.3375 7.2377L7.76875 7.1252L7.91875 6.76895C8.22298 6.0065 8.64707 5.29757 9.175 4.66895C11.4062 1.9877 14.9125 1.21895 16.9937 2.94395C17.7306 3.58201 18.2214 4.45744 18.3813 5.41895L18.5312 6.2627H19.3937C20.5951 5.9992 21.8507 6.16427 22.9431 6.72931C24.0355 7.29435 24.8958 8.22374 25.375 9.35644C25.5813 10.0668 25.5813 10.8211 25.375 11.5314L25.1313 12.4314L26.0125 12.6939C26.7336 12.8903 27.395 13.2618 27.938 13.7754C28.481 14.2889 28.8888 14.9286 29.125 15.6377C29.9125 18.2252 27.8313 21.1314 24.4937 22.1252Z"/>
</mask>
<path d="M27.25 11.1752C27.356 10.3833 27.2921 9.57794 27.0625 8.8127C26.555 7.39187 25.597 6.17587 24.3344 5.34994C23.0718 4.52401 21.5739 4.13343 20.0688 4.2377C19.7256 3.15069 19.0742 2.18668 18.1938 1.4627C15.325 -0.918553 10.6375 -0.0560529 7.75 3.3752C7.17378 4.04553 6.6999 4.79742 6.34375 5.60645C5.27151 6.05035 4.33751 6.77296 3.63858 7.69938C2.93965 8.62579 2.50122 9.72229 2.36875 10.8752C2.3132 11.8213 2.48687 12.7668 2.875 13.6314C2.24831 14.1118 1.73759 14.7268 1.38059 15.431C1.02359 16.1353 0.829442 16.9108 0.8125 17.7002C0.872098 18.5437 1.10934 19.3652 1.50866 20.1106C1.90799 20.856 2.46038 21.5086 3.12961 22.0256C3.79884 22.5426 4.56979 22.9122 5.39191 23.1104C6.21403 23.3085 7.06874 23.3306 7.9 23.1752C8.59037 23.8977 9.48975 24.3857 10.4718 24.5707C11.4538 24.7556 12.4691 24.6283 13.375 24.2064C13.9764 24.4351 14.6082 24.5741 15.25 24.6189V31.2377H10.8813C10.6326 31.2377 10.3942 31.3365 10.2183 31.5123C10.0425 31.6881 9.94375 31.9266 9.94375 32.1752C9.94855 32.4223 10.0489 32.658 10.2236 32.8328C10.3984 33.0076 10.6341 33.1079 10.8813 33.1127H21.7937C22.0424 33.1127 22.2808 33.0139 22.4567 32.8381C22.6325 32.6623 22.7312 32.4238 22.7312 32.1752C22.7312 31.9266 22.6325 31.6881 22.4567 31.5123C22.2808 31.3365 22.0424 31.2377 21.7937 31.2377H17.2V24.5439C17.9127 24.4109 18.5976 24.1573 19.225 23.7939C21.0923 24.4576 23.1234 24.5036 25.0187 23.9252C29.35 22.6502 32.0125 18.6939 30.9625 15.1127C30.6787 14.2199 30.1977 13.4024 29.555 12.7208C28.9124 12.0392 28.1246 11.511 27.25 11.1752ZM24.4937 22.1252C22.8534 22.6372 21.0838 22.5441 19.5062 21.8627L18.9813 21.6377L18.5125 21.9939C18.1231 22.2857 17.6755 22.4904 17.2 22.5939V14.6252H17.5562C18.5304 14.6477 19.483 14.3368 20.2563 13.7439C21.2618 12.8526 21.8916 11.6129 22.0187 10.2752C22.0396 10.0294 21.9628 9.78519 21.8048 9.59565C21.6469 9.40612 21.4206 9.28648 21.175 9.2627C20.9273 9.24695 20.6832 9.32813 20.4942 9.48908C20.3053 9.65003 20.1863 9.87814 20.1625 10.1252C20.0749 10.9525 19.6882 11.7193 19.075 12.2814C18.8061 12.473 18.5021 12.6097 18.1804 12.6837C17.8587 12.7576 17.5255 12.7675 17.2 12.7127V10.2002C17.2 9.95156 17.1012 9.7131 16.9254 9.53728C16.7496 9.36147 16.5111 9.2627 16.2625 9.2627C16.0139 9.2627 15.7754 9.36147 15.5996 9.53728C15.4238 9.7131 15.325 9.95156 15.325 10.2002V17.5502C14.2331 17.6662 13.1371 17.3722 12.25 16.7252C11.193 15.7424 10.5271 14.4105 10.375 12.9752C10.3679 12.8528 10.3364 12.733 10.2823 12.6229C10.2282 12.5129 10.1526 12.4148 10.06 12.3344C9.96738 12.254 9.85961 12.193 9.74304 12.1549C9.62647 12.1168 9.50346 12.1025 9.38125 12.1127C9.25799 12.1222 9.13783 12.1559 9.02766 12.212C8.9175 12.2681 8.81952 12.3454 8.73935 12.4395C8.65919 12.5336 8.59843 12.6426 8.56057 12.7603C8.52271 12.878 8.5085 13.002 8.51875 13.1252C8.68343 15.0869 9.61278 16.9052 11.1062 18.1877C12.214 19.048 13.5854 19.4985 14.9875 19.4627H15.325V22.7627C14.7843 22.7283 14.2555 22.5881 13.7688 22.3502L13.2812 22.1252L12.8313 22.4439C12.2333 22.8205 11.5156 22.9583 10.8207 22.8297C10.1259 22.7012 9.50487 22.3158 9.08125 21.7502L8.74375 21.1877L8.0875 21.3189C7.49559 21.5056 6.86967 21.5587 6.25477 21.4745C5.63987 21.3903 5.05127 21.1709 4.53131 20.832C4.01135 20.4932 3.57296 20.0433 3.24766 19.5147C2.92236 18.9861 2.71825 18.3921 2.65 17.7752C2.67692 17.1607 2.86414 16.564 3.19307 16.0443C3.52199 15.5246 3.98118 15.1 4.525 14.8127L5.3125 14.3439L4.75 13.4627C4.29686 12.721 4.09316 11.8536 4.16875 10.9877C4.30855 10.1345 4.67706 9.33527 5.23505 8.67492C5.79304 8.01458 6.51964 7.51788 7.3375 7.2377L7.76875 7.1252L7.91875 6.76895C8.22298 6.0065 8.64707 5.29757 9.175 4.66895C11.4062 1.9877 14.9125 1.21895 16.9937 2.94395C17.7306 3.58201 18.2214 4.45744 18.3813 5.41895L18.5312 6.2627H19.3937C20.5951 5.9992 21.8507 6.16427 22.9431 6.72931C24.0355 7.29435 24.8958 8.22374 25.375 9.35644C25.5813 10.0668 25.5813 10.8211 25.375 11.5314L25.1313 12.4314L26.0125 12.6939C26.7336 12.8903 27.395 13.2618 27.938 13.7754C28.481 14.2889 28.8888 14.9286 29.125 15.6377C29.9125 18.2252 27.8313 21.1314 24.4937 22.1252Z" fill="white" stroke="white" stroke-width="1.77419" mask="url(#path-1-inside-1_6731_2994)"/>
</svg>
