<svg width="24" height="24" viewBox="0 0 24 24" fill="none" xmlns="http://www.w3.org/2000/svg">
<path d="M18.4201 11.5H5.58008C5.44747 11.5 5.32029 11.5527 5.22652 11.6464C5.13276 11.7402 5.08008 11.8674 5.08008 12C5.08008 12.1326 5.13276 12.2598 5.22652 12.3536C5.32029 12.4473 5.44747 12.5 5.58008 12.5H18.4201C18.5527 12.5 18.6799 12.4473 18.7736 12.3536C18.8674 12.2598 18.9201 12.1326 18.9201 12C18.9201 11.8674 18.8674 11.7402 18.7736 11.6464C18.6799 11.5527 18.5527 11.5 18.4201 11.5Z" fill="#2D3748"/>
<path d="M18.4201 5.52002H5.58008C5.44747 5.52002 5.32029 5.5727 5.22652 5.66647C5.13276 5.76023 5.08008 5.88741 5.08008 6.02002C5.08008 6.15263 5.13276 6.2798 5.22652 6.37357C5.32029 6.46734 5.44747 6.52002 5.58008 6.52002H18.4201C18.5527 6.52002 18.6799 6.46734 18.7736 6.37357C18.8674 6.2798 18.9201 6.15263 18.9201 6.02002C18.9201 5.88741 18.8674 5.76023 18.7736 5.66647C18.6799 5.5727 18.5527 5.52002 18.4201 5.52002Z" fill="#2D3748"/>
<path d="M18.2901 17.48H5.58008C5.44747 17.48 5.32029 17.5327 5.22652 17.6264C5.13276 17.7202 5.08008 17.8474 5.08008 17.98C5.08008 18.1126 5.13276 18.2398 5.22652 18.3335C5.32029 18.4273 5.44747 18.48 5.58008 18.48H18.2901C18.4227 18.48 18.5499 18.4273 18.6436 18.3335C18.7374 18.2398 18.7901 18.1126 18.7901 17.98C18.7901 17.8474 18.7374 17.7202 18.6436 17.6264C18.5499 17.5327 18.4227 17.48 18.2901 17.48Z" fill="#2D3748"/>
</svg>
