<svg width="30" height="31" viewBox="0 0 30 31" fill="none" xmlns="http://www.w3.org/2000/svg">
<path d="M22.0469 4.28833L26.2212 8.46267L7.51697 27.1669C7.42522 27.2587 7.28761 27.2587 7.19587 27.1669L3.34263 23.3137C3.25089 23.2219 3.25089 23.0843 3.34263 22.9926L22.0469 4.28833Z" stroke="#2D3848" stroke-width="1.62181" stroke-linecap="round" stroke-linejoin="round"/>
<path d="M27.4236 2.158L28.3525 3.0869C29.247 3.9814 29.247 5.4493 28.3525 6.3438L26.231 8.46537L22.0566 4.29104L24.1782 2.16947C25.0727 1.27497 26.5406 1.27496 27.4351 2.16946L27.4236 2.158Z" stroke="#2D3848" stroke-width="1.62181" stroke-linecap="round" stroke-linejoin="round"/>
<path d="M9.63478 14.1022L1.7041 6.17153L6.63442 1.24121L14.0299 8.63668L12.0026 10.6477" stroke="#2D3848" stroke-width="1.62181" stroke-linecap="round" stroke-linejoin="round"/>
<path d="M18.8635 19.2596L21.7503 16.3728L29.1295 23.7358L24.1992 28.6662L16.2686 20.7355" stroke="#2D3848" stroke-width="1.62181" stroke-linecap="round" stroke-linejoin="round"/>
<path d="M7.12109 5.76569L9.13215 3.75464" stroke="#2D3848" stroke-width="1.62181" stroke-linecap="round" stroke-linejoin="round"/>
<path d="M8.67871 9.05846L11.5655 6.17163" stroke="#2D3848" stroke-width="1.62181" stroke-linecap="round" stroke-linejoin="round"/>
<path d="M22.1221 20.768L24.1331 18.7407" stroke="#2D3848" stroke-width="1.62181" stroke-linecap="round" stroke-linejoin="round"/>
<path d="M23.8584 24.2391L26.7452 21.3523" stroke="#2D3848" stroke-width="1.62181" stroke-linecap="round" stroke-linejoin="round"/>
<path d="M7.42915 27.3198L1.16895 29.347L3.18 23.1355" stroke="#2D3848" stroke-width="1.62181" stroke-linecap="round" stroke-linejoin="round"/>
</svg>
