<svg width="23" height="28" viewBox="0 0 23 28" fill="none" xmlns="http://www.w3.org/2000/svg">
<path fill-rule="evenodd" clip-rule="evenodd" d="M5.63281 2C3.97596 2 2.63281 3.34315 2.63281 5V22.0667C2.63281 23.7235 3.97596 25.0667 5.63281 25.0667H17.3661C19.023 25.0667 20.3661 23.7235 20.3661 22.0667V8.26669H18.8329C16.0715 8.26669 13.8329 6.02812 13.8329 3.26669L13.8329 2H5.63281ZM22.3661 22.0667V7.27717V7.25666V6.84009L22.0584 6.54487L15.5252 0.278318L15.235 0H14.8329H5.63281C2.87139 0 0.632812 2.23858 0.632812 5V22.0667C0.632812 24.8281 2.87139 27.0667 5.63281 27.0667H17.3661C20.1276 27.0667 22.3661 24.8281 22.3661 22.0667ZM18.879 6.26669L15.834 3.34596C15.876 4.96617 17.2026 6.26669 18.8329 6.26669H18.879ZM14.0005 9.03928C14.1324 8.503 13.8047 7.96127 13.2684 7.82932C12.7321 7.69736 12.1904 8.02514 12.0584 8.56142L9.30625 19.7464C9.1743 20.2827 9.50207 20.8244 10.0384 20.9564C10.5746 21.0883 11.1164 20.7606 11.2483 20.2243L14.0005 9.03928ZM15.3846 11.3078C14.8987 11.0453 14.292 11.2263 14.0295 11.7122C13.7669 12.1981 13.948 12.8048 14.4339 13.0674L17.2389 14.583L14.4071 16.2272C13.9295 16.5046 13.7672 17.1166 14.0445 17.5942C14.3218 18.0718 14.9338 18.2341 15.4114 17.9568L18.2432 16.3125C19.5945 15.5279 19.5644 13.5662 18.1896 12.8234L15.3846 11.3078ZM8.56505 13.0674C9.05095 12.8048 9.23201 12.1981 8.96948 11.7122C8.70694 11.2263 8.10022 11.0453 7.61432 11.3078L4.80931 12.8234C3.43458 13.5662 3.40447 15.5279 4.75577 16.3125L7.58755 17.9568C8.06516 18.2341 8.67715 18.0718 8.95448 17.5942C9.2318 17.1166 9.06944 16.5046 8.59183 16.2272L5.76004 14.583L8.56505 13.0674Z" fill="black"/>
</svg>
