<svg width="29" height="28" viewBox="0 0 29 28" fill="none" xmlns="http://www.w3.org/2000/svg">
<g clip-path="url(#clip0_10641_4269)">
<path d="M6.56024 15.5077L1.05078 19.9577V2.12526C1.05078 1.83185 1.16488 1.53845 1.37678 1.34285C1.58869 1.13095 1.86579 1.01685 2.15919 1.01685H19.9916C20.285 1.01685 20.5784 1.13095 20.774 1.34285C20.9859 1.55475 21.1 1.83185 21.1 2.12526V14.383C21.1 14.6764 20.9859 14.9698 20.774 15.1654C20.5621 15.3773 20.285 15.4914 19.9916 15.4914H6.56024V15.5077Z" stroke="#2D3848" stroke-width="1.63002" stroke-linecap="round" stroke-linejoin="round"/>
<path d="M7.73242 15.5085V21.0832C7.73242 21.3766 7.84652 21.67 8.05843 21.8656C8.27033 22.0775 8.54743 22.1916 8.84083 22.1916H22.2722L27.7816 26.6416V8.82545C27.7816 8.53205 27.6675 8.23865 27.4556 8.04304C27.2437 7.83114 26.9666 7.71704 26.6732 7.71704H21.0986" stroke="#2D3848" stroke-width="1.63002" stroke-linecap="round" stroke-linejoin="round"/>
<path d="M4.4082 6.8365L6.55983 4.78268C6.77173 4.57077 7.11403 4.58707 7.30964 4.81528L8.82555 6.4779C9.02116 6.6898 9.33086 6.7061 9.54276 6.5268L11.7433 4.71748C11.9552 4.55447 12.2486 4.55447 12.4442 4.75008L14.2698 6.5105C14.4654 6.7061 14.7751 6.7061 14.987 6.5268L17.3994 4.42407" stroke="#2D3848" stroke-width="1.63002" stroke-linecap="round" stroke-linejoin="round"/>
<path d="M4.4082 11.7755L6.55983 9.72164C6.77173 9.50974 7.11403 9.52604 7.30964 9.75424L8.82555 11.4169C9.02116 11.6288 9.33086 11.6451 9.54276 11.4658L11.7433 9.65644C11.9552 9.49344 12.2486 9.49344 12.4442 9.68904L14.2698 11.4495C14.4654 11.6451 14.7751 11.6451 14.987 11.4658L17.3994 9.36304" stroke="#2D3848" stroke-width="1.63002" stroke-linecap="round" stroke-linejoin="round"/>
<path d="M11.5625 18.9803L13.7141 16.9265C13.926 16.7146 14.2683 16.7309 14.4639 16.9591L15.9798 18.6217C16.1755 18.8336 16.4852 18.8499 16.6971 18.6706L18.8976 16.8613C19.1095 16.6983 19.4029 16.6983 19.5985 16.8939L21.4241 18.6543C21.6197 18.8499 21.9294 18.8499 22.1413 18.6706L24.5537 16.5679" stroke="#2D3848" stroke-width="1.63002" stroke-linecap="round" stroke-linejoin="round"/>
<path d="M21.1006 12.9338L21.4266 13.2598C21.6222 13.4554 21.9319 13.4554 22.1438 13.2761L24.5562 11.1733" stroke="#2D3848" stroke-width="1.63002" stroke-linecap="round" stroke-linejoin="round"/>
</g>
<defs>
<clipPath id="clip0_10641_4269">
<rect width="28.3786" height="27.2539" fill="white" transform="translate(0.236328 0.202393)"/>
</clipPath>
</defs>
</svg>
