<svg width="25" height="24" viewBox="0 0 25 24" fill="none" xmlns="http://www.w3.org/2000/svg">
<path fill-rule="evenodd" clip-rule="evenodd" d="M7.36252 2.38135C7.36252 1.03551 8.48046 0 9.78991 0C11.0994 0 12.2173 1.03551 12.2173 2.38135C12.2173 2.5803 12.1929 2.77246 12.147 2.95551L15.016 5.7319C15.3299 5.58811 15.6783 5.50848 16.0414 5.50848C16.3052 5.50848 16.5612 5.55051 16.8019 5.62864L19.0167 3.17744C18.9451 2.95307 18.9064 2.71327 18.9064 2.46271C18.9064 1.11687 20.0243 0.0813599 21.3338 0.0813599C21.5827 0.0813599 21.8247 0.118781 22.0534 0.188641C22.3288 0.157213 22.6158 0.239759 22.8376 0.440174C22.9613 0.551917 23.0506 0.687533 23.1047 0.833698C23.5094 1.25511 23.7612 1.82396 23.7612 2.46271C23.7612 3.80854 22.6432 4.84406 21.3338 4.84406C20.998 4.84406 20.6748 4.77596 20.3798 4.65199L18.2833 6.97233C18.4025 7.25278 18.4688 7.56211 18.4688 7.88983C18.4688 9.23567 17.3508 10.2712 16.0414 10.2712C14.7319 10.2712 13.614 9.23567 13.614 7.88983C13.614 7.66501 13.6452 7.44884 13.7033 7.24472L10.8772 4.50987C10.5475 4.67217 10.1771 4.7627 9.78991 4.7627C9.52228 4.7627 9.26264 4.71944 9.01892 4.63911L5.30793 9.42036C5.45531 9.72642 5.53838 10.0702 5.53838 10.4371C5.53838 11.7829 4.42044 12.8185 3.11099 12.8185C1.80154 12.8185 0.683594 11.7829 0.683594 10.4371C0.683594 9.09127 1.80154 8.05576 3.11099 8.05576C3.33678 8.05576 3.55688 8.08654 3.76653 8.1444L7.54079 3.28165C7.42613 3.00577 7.36252 2.70239 7.36252 2.38135ZM2.69505 10.5219C2.71978 10.6141 2.78379 10.7028 2.88009 10.7588C2.80522 10.6882 2.74341 10.6081 2.69505 10.5219ZM24.3158 20.1783C24.3158 21.9284 22.897 23.3473 21.1468 23.3473C19.3966 23.3473 17.9778 21.9284 17.9778 20.1783V12.7936C17.9778 11.0434 19.3966 9.62462 21.1468 9.62462C22.897 9.62462 24.3158 11.0434 24.3158 12.7936V20.1783ZM21.1468 11.6246C20.5012 11.6246 19.9778 12.148 19.9778 12.7936V20.1783C19.9778 20.8239 20.5012 21.3473 21.1468 21.3473C21.7924 21.3473 22.3158 20.8239 22.3158 20.1783V12.7936C22.3158 12.148 21.7924 11.6246 21.1468 11.6246ZM13.3865 23.3473C15.1367 23.3473 16.5555 21.9284 16.5555 20.1783V14.9934C16.5555 13.2432 15.1367 11.8244 13.3865 11.8244C11.6363 11.8244 10.2175 13.2432 10.2175 14.9934V20.1783C10.2175 21.9284 11.6363 23.3473 13.3865 23.3473ZM12.2175 14.9934C12.2175 14.3478 12.7409 13.8244 13.3865 13.8244C14.0321 13.8244 14.5555 14.3478 14.5555 14.9934V20.1783C14.5555 20.8239 14.0321 21.3473 13.3865 21.3473C12.7409 21.3473 12.2175 20.8239 12.2175 20.1783V14.9934ZM5.82419 23.3473C7.57438 23.3473 8.99318 21.9284 8.99318 20.1783V20.0115C8.99318 18.2613 7.57437 16.8425 5.82419 16.8425C4.074 16.8425 2.65519 18.2614 2.65519 20.0115V20.1783C2.65519 21.9285 4.074 23.3473 5.82419 23.3473ZM4.65519 20.0115C4.65519 19.3659 5.17857 18.8425 5.82419 18.8425C6.46981 18.8425 6.99318 19.3659 6.99318 20.0115V20.1783C6.99318 20.8239 6.4698 21.3473 5.82419 21.3473C5.17857 21.3473 4.65519 20.8239 4.65519 20.1783V20.0115Z" fill="black"/>
</svg>
