<svg width="27" height="25" viewBox="0 0 27 25" fill="none" xmlns="http://www.w3.org/2000/svg">
<path fill-rule="evenodd" clip-rule="evenodd" d="M2.59375 6.65854C2.59375 4.0857 4.67945 2 7.25229 2H13.9842C16.557 2 18.6427 4.0857 18.6427 6.65854C18.6427 9.23138 16.557 11.3171 13.9842 11.3171H11.7562C11.2032 11.3171 10.6748 11.5461 10.2967 11.9497L8.37544 14.0004L8.37544 12.4402C8.37544 11.8199 7.87259 11.3171 7.25229 11.3171C5.32671 11.3171 3.67401 10.1488 2.96431 8.48239C3.35658 8.84484 3.96855 8.83556 4.34956 8.45455L5.95051 6.8536L7.31287 8.21596C8.09391 8.99701 9.36024 8.99701 10.1413 8.21596L11.5037 6.8536L12.866 8.21596C13.6471 8.99701 14.9134 8.99701 15.6944 8.21596L17.7639 6.1465C18.1544 5.75597 18.1544 5.12281 17.7639 4.73228C17.3734 4.34176 16.7402 4.34176 16.3497 4.73228L14.2802 6.80175L12.9179 5.43939C12.1368 4.65834 10.8705 4.65834 10.0894 5.43939L8.72708 6.80175L7.36472 5.43939C6.58367 4.65834 5.31734 4.65834 4.53629 5.43939L2.93535 7.04033C2.80123 7.17445 2.71317 7.33718 2.67118 7.50888C2.62033 7.23317 2.59375 6.94896 2.59375 6.65854ZM7.25229 0C3.57488 0 0.59375 2.98113 0.59375 6.65854C0.59375 10.0387 3.11244 12.8306 6.37544 13.2599V14.0004C6.37544 14.0989 6.38198 14.1946 6.39456 14.2874C6.3693 14.3753 6.35577 14.4681 6.35577 14.5641C6.35577 18.2127 9.23274 21.2227 12.8451 21.2227H15.2418L17.446 23.5754C18.6369 24.8465 20.623 23.9096 20.623 22.289V21.1837C23.8963 20.8211 26.4047 17.971 26.4047 14.5641C26.4047 11.1218 23.8439 8.24797 20.5207 7.93401C20.6008 7.5212 20.6427 7.09477 20.6427 6.65854C20.6427 2.98113 17.6616 0 13.9842 0H7.25229ZM19.8023 9.89924C18.6641 11.9382 16.4852 13.3171 13.9842 13.3171H11.7562L11.443 13.6514C11.7768 13.562 12.1478 13.6483 12.4097 13.9102L14.0107 15.5111L15.373 14.1487C16.1541 13.3677 17.4204 13.3677 18.2015 14.1487L19.5638 15.5111L21.6333 13.4416C22.0238 13.0511 22.657 13.0511 23.0475 13.4416C23.438 13.8322 23.438 14.4653 23.0475 14.8558L20.978 16.9253C20.197 17.7064 18.9307 17.7064 18.1496 16.9253L16.7873 15.563L15.4249 16.9253C14.6439 17.7064 13.3775 17.7064 12.5965 16.9253L10.9955 15.3244C10.7501 15.0789 10.6589 14.7377 10.722 14.421L9.83498 15.3678C9.47113 15.7562 9.02287 15.955 8.5711 15.9963C9.15645 17.882 10.8663 19.2227 12.8451 19.2227H15.318C15.8278 19.2227 16.309 19.4365 16.6532 19.8039L18.623 21.9064V20.5241C18.623 19.8342 19.1732 19.2227 19.9154 19.2227C22.3664 19.2227 24.4047 17.1658 24.4047 14.5641C24.4047 11.9624 22.3664 9.90558 19.9154 9.90558C19.8772 9.90558 19.8394 9.90343 19.8023 9.89924Z" fill="black"/>
</svg>
