<svg width="17" height="25" viewBox="0 0 17 25" fill="none" xmlns="http://www.w3.org/2000/svg">
<path d="M4.33293 25C6.63288 25 8.49984 23.133 8.49984 20.833V16.666H4.33293C2.03298 16.666 0.166016 18.533 0.166016 20.833C0.166016 23.133 2.03298 25 4.33293 25Z" fill="black"/>
<path d="M0.166016 12.5C0.166016 10.2 2.03298 8.33299 4.33293 8.33299H8.49984V16.666H4.33293C2.03298 16.667 0.166016 14.8 0.166016 12.5Z" fill="black"/>
<path d="M0.166016 4.167C0.166016 1.867 2.03298 0 4.33293 0H8.49984V8.33299H4.33293C2.03298 8.33299 0.166016 6.467 0.166016 4.167Z" fill="black"/>
<path d="M8.49984 0H12.6658C14.9658 0 16.8328 1.867 16.8328 4.167C16.8328 6.467 14.9658 8.33299 12.6658 8.33299L8.49984 8.33299V0Z" fill="black"/>
<path d="M16.8328 12.5C16.8328 14.8 14.9658 16.667 12.6658 16.667C10.3659 16.667 8.49892 14.8 8.49892 12.5C8.49892 10.2 10.3659 8.33299 12.6658 8.33299C14.9658 8.33299 16.8328 10.2 16.8328 12.5Z" fill="black"/>
</svg>
