<svg width="27" height="25" viewBox="0 0 27 25" fill="none" xmlns="http://www.w3.org/2000/svg">
<path fill-rule="evenodd" clip-rule="evenodd" d="M5.4497 3.24556C5.80114 2.50897 6.5528 2 7.42334 2C8.26521 2 8.9959 2.476 9.36097 3.17354C9.35503 3.19747 9.34929 3.22147 9.34376 3.24556H5.4497ZM7.42334 0C8.59982 0 9.66294 0.485396 10.4233 1.26685C11.1837 0.485398 12.2469 0 13.4233 0C14.5998 0 15.6629 0.485396 16.4233 1.26685C17.1837 0.485398 18.2469 0 19.4233 0C21.4209 0 23.0916 1.39928 23.5087 3.2711C24.9797 3.4637 26.1154 4.722 26.1154 6.24556V21.0345C26.1154 22.6914 24.7723 24.0345 23.1154 24.0345H3.88281C2.22596 24.0345 0.882812 22.6914 0.882812 21.0345V6.24556C0.882812 4.77667 1.93849 3.55435 3.33253 3.29592C3.74038 1.41166 5.41701 0 7.42334 0ZM21.397 3.24556C21.0455 2.50897 20.2939 2 19.4233 2C18.5815 2 17.8508 2.47599 17.4857 3.17353C17.4917 3.19746 17.4974 3.22147 17.5029 3.24556H21.397ZM15.3732 5.24556C15.8426 7.0439 17.478 8.37109 19.4233 8.37109C19.9756 8.37109 20.4233 7.92338 20.4233 7.37109C20.4233 6.81881 19.9756 6.37109 19.4233 6.37109C18.6009 6.37109 17.8846 5.91684 17.5116 5.24556H23.1154C23.6677 5.24556 24.1154 5.69328 24.1154 6.24556V21.0345C24.1154 21.5868 23.6677 22.0345 23.1154 22.0345H3.88281C3.33053 22.0345 2.88281 21.5868 2.88281 21.0345V6.24556C2.88281 5.86569 3.09462 5.5353 3.40657 5.36603C3.91618 7.10285 5.52165 8.37109 7.42334 8.37109C7.97562 8.37109 8.42334 7.92338 8.42334 7.37109C8.42334 6.81881 7.97562 6.37109 7.42334 6.37109C6.60093 6.37109 5.88461 5.91684 5.51161 5.24556H9.37319C9.84255 7.0439 11.478 8.37109 13.4233 8.37109C13.9756 8.37109 14.4233 7.92338 14.4233 7.37109C14.4233 6.81881 13.9756 6.37109 13.4233 6.37109C12.6009 6.37109 11.8846 5.91684 11.5116 5.24556H15.3732ZM15.361 3.17354C15.355 3.19746 15.3493 3.22147 15.3438 3.24556H11.5029C11.4974 3.22147 11.4917 3.19746 11.4857 3.17354C11.8508 2.47599 12.5815 2 13.4233 2C14.2652 2 14.9959 2.476 15.361 3.17354ZM4.86023 10.7449C4.86023 10.1926 5.30794 9.7449 5.86023 9.7449H13.7626C14.3148 9.7449 14.7626 10.1926 14.7626 10.7449C14.7626 11.2972 14.3148 11.7449 13.7626 11.7449H5.86023C5.30794 11.7449 4.86023 11.2972 4.86023 10.7449ZM17.5039 10.7449C17.5039 10.1926 17.9517 9.7449 18.5039 9.7449H21.1381C21.6903 9.7449 22.1381 10.1926 22.1381 10.7449C22.1381 11.2972 21.6903 11.7449 21.1381 11.7449H18.5039C17.9517 11.7449 17.5039 11.2972 17.5039 10.7449ZM4.86023 14.6924C4.86023 14.1401 5.30794 13.6924 5.86023 13.6924H13.7626C14.3148 13.6924 14.7626 14.1401 14.7626 14.6924C14.7626 15.2447 14.3148 15.6924 13.7626 15.6924H5.86023C5.30794 15.6924 4.86023 15.2447 4.86023 14.6924ZM17.5039 14.6924C17.5039 14.1401 17.9517 13.6924 18.5039 13.6924H21.1381C21.6903 13.6924 22.1381 14.1401 22.1381 14.6924C22.1381 15.2447 21.6903 15.6924 21.1381 15.6924H18.5039C17.9517 15.6924 17.5039 15.2447 17.5039 14.6924ZM4.86023 18.4217C4.86023 17.8694 5.30794 17.4217 5.86023 17.4217H13.7626C14.3148 17.4217 14.7626 17.8694 14.7626 18.4217C14.7626 18.974 14.3148 19.4217 13.7626 19.4217H5.86023C5.30794 19.4217 4.86023 18.974 4.86023 18.4217ZM17.5039 18.4217C17.5039 17.8694 17.9517 17.4217 18.5039 17.4217H21.1381C21.6903 17.4217 22.1381 17.8694 22.1381 18.4217C22.1381 18.974 21.6903 19.4217 21.1381 19.4217H18.5039C17.9517 19.4217 17.5039 18.974 17.5039 18.4217Z" fill="black"/>
</svg>
