<svg width="24" height="24" viewBox="0 0 24 24" fill="none" xmlns="http://www.w3.org/2000/svg">
<path d="M14.2402 11H18.0002C18.1328 11 18.26 10.9473 18.3538 10.8536C18.4476 10.7598 18.5002 10.6326 18.5002 10.5C18.5002 10.3674 18.4476 10.2402 18.3538 10.1464C18.26 10.0527 18.1328 10 18.0002 10H14.2402C14.1084 10.0026 13.9827 10.0561 13.8895 10.1493C13.7963 10.2425 13.7428 10.3682 13.7402 10.5C13.7402 10.6326 13.7929 10.7598 13.8867 10.8536C13.9804 10.9473 14.1076 11 14.2402 11Z" fill="#2D3748"/>
<path d="M14.2402 14H18.0002C18.1328 14 18.26 13.9473 18.3538 13.8536C18.4476 13.7598 18.5002 13.6326 18.5002 13.5C18.5002 13.3674 18.4476 13.2402 18.3538 13.1464C18.26 13.0527 18.1328 13 18.0002 13H14.2402C14.1076 13 13.9804 13.0527 13.8867 13.1464C13.7929 13.2402 13.7402 13.3674 13.7402 13.5C13.7428 13.6318 13.7963 13.7575 13.8895 13.8507C13.9827 13.9439 14.1084 13.9974 14.2402 14Z" fill="#2D3748"/>
<path d="M5.6201 16.2199C5.68379 16.2364 5.75012 16.2402 5.81529 16.2311C5.88045 16.2219 5.94317 16.2 5.99984 16.1666C6.05651 16.1331 6.10602 16.0888 6.14553 16.0362C6.18505 15.9836 6.21378 15.9237 6.2301 15.8599C6.36821 15.3261 6.68165 14.8542 7.1201 14.5199C7.56059 14.1912 8.09549 14.0137 8.6451 14.0137C9.19471 14.0137 9.72961 14.1912 10.1701 14.5199C10.6057 14.8568 10.9185 15.3277 11.0601 15.8599C11.0867 15.9675 11.1483 16.0632 11.2351 16.132C11.322 16.2007 11.4293 16.2387 11.5401 16.2399H11.6701C11.7974 16.2047 11.9061 16.1214 11.9733 16.0076C12.0404 15.8938 12.0608 15.7584 12.0301 15.6299C11.8291 14.8839 11.3902 14.2239 10.7801 13.7499C10.6303 13.6315 10.4696 13.5277 10.3001 13.4399C10.638 13.1879 10.9125 12.8605 11.1018 12.4838C11.291 12.1071 11.3897 11.6915 11.3901 11.2699C11.3999 10.7983 11.2882 10.3322 11.0658 9.91625C10.8434 9.5003 10.5178 9.14855 10.1202 8.89479C9.72259 8.64103 9.26642 8.4938 8.7955 8.46725C8.32458 8.4407 7.85474 8.53572 7.43115 8.74317C7.00755 8.95063 6.64443 9.26355 6.37669 9.65186C6.10895 10.0402 5.94559 10.4908 5.9023 10.9605C5.85901 11.4302 5.93725 11.9031 6.1295 12.3338C6.32176 12.7645 6.62156 13.1385 7.0001 13.4199C6.83527 13.5103 6.67808 13.614 6.5301 13.7299C5.91996 14.2039 5.48109 14.8639 5.2801 15.6099C5.24597 15.7359 5.26243 15.8701 5.32596 15.9841C5.38948 16.0981 5.49504 16.1827 5.6201 16.2199ZM6.9001 11.2199C6.90602 10.8747 7.01392 10.539 7.21022 10.255C7.40652 9.97094 7.68245 9.75133 8.00327 9.62377C8.32409 9.49621 8.67548 9.4664 9.01321 9.53808C9.35094 9.60977 9.65992 9.77976 9.90126 10.0266C10.1426 10.2735 10.3055 10.5863 10.3695 10.9256C10.4335 11.2648 10.3957 11.6155 10.2609 11.9333C10.1261 12.2511 9.90026 12.522 9.61186 12.7118C9.32345 12.9016 8.98535 13.0018 8.6401 12.9999C8.41076 12.9999 8.18367 12.9546 7.97191 12.8665C7.76015 12.7784 7.56789 12.6494 7.40618 12.4868C7.24448 12.3241 7.11652 12.1311 7.02967 11.9189C6.94281 11.7066 6.89878 11.4793 6.9001 11.2499V11.2199Z" fill="#2D3748"/>
<path d="M3.77015 20H20.2301C20.3938 20 20.5559 19.9676 20.707 19.9047C20.8581 19.8417 20.9952 19.7495 21.1105 19.6333C21.2258 19.5171 21.3169 19.3792 21.3786 19.2276C21.4404 19.076 21.4715 18.9137 21.4701 18.75V5.27C21.4741 5.10465 21.445 4.94018 21.3845 4.78625C21.324 4.63233 21.2333 4.49207 21.1177 4.37373C21.0022 4.25539 20.8641 4.16136 20.7117 4.09718C20.5593 4.03299 20.3955 3.99995 20.2301 4H3.77015C3.60475 3.99995 3.44102 4.03299 3.28859 4.09718C3.13615 4.16136 2.9981 4.25539 2.88256 4.37373C2.76701 4.49207 2.67631 4.63233 2.61579 4.78625C2.55526 4.94018 2.52615 5.10465 2.53015 5.27V18.73C2.52615 18.8953 2.55526 19.0598 2.61579 19.2137C2.67631 19.3677 2.76701 19.5079 2.88256 19.6263C2.9981 19.7446 3.13615 19.8386 3.28859 19.9028C3.44102 19.967 3.60475 20 3.77015 20ZM3.53015 5.27C3.52742 5.23635 3.53154 5.2025 3.54226 5.17049C3.55297 5.13848 3.57005 5.10897 3.59248 5.08374C3.61491 5.05851 3.64221 5.03808 3.67275 5.02369C3.70328 5.0093 3.73641 5.00124 3.77015 5H20.2301C20.2947 5.00258 20.3558 5.03006 20.4005 5.07667C20.4452 5.12327 20.4702 5.18539 20.4701 5.25V18.73C20.4702 18.7946 20.4452 18.8567 20.4005 18.9033C20.3558 18.9499 20.2947 18.9774 20.2301 18.98H3.77015C3.70559 18.9774 3.64454 18.9499 3.5998 18.9033C3.55506 18.8567 3.5301 18.7946 3.53015 18.73V5.27Z" fill="#2D3748"/>
</svg>
