<svg width="275" height="227" viewBox="0 0 275 227" fill="none" xmlns="http://www.w3.org/2000/svg">
<path d="M25.0234 187.895V156.161H26.0725V154.588H32.8913H32.9787H33.0661V156.161H34.1152V174.083H39.0108M43.3818 174.083H39.0108M39.0108 174.083V149.955H40.7592V140.338H43.8189M48.5396 184.398H39.273M48.5396 184.398V161.057M48.5396 184.398H55.8829M43.8189 140.338H46.6164V149.955H48.4522H48.5396V161.057M43.8189 140.338V133.607M246.198 184.398H55.8829M48.5396 161.057H55.8829V184.398" stroke="#2D3748" stroke-width="1.1047"/>
<path d="M55.8828 161.057V145.845H66.8104V173.208M66.8978 160.794L71.8808 156.423M71.8808 156.423V184.398M71.8808 156.423V132.557H89.4524V149.867M89.4524 184.398V149.867M89.4524 149.867H101.691M101.691 149.867V184.398M101.691 149.867V119.619V119.444H103.09M118.826 184.398V119.444H117.514M103.09 119.444V96.1904L104.168 93.9174M103.09 119.444H113.755M117.514 119.444V96.1904L116.64 94.3247M117.514 119.444H113.755M104.168 93.9174V90.0709L106.674 85.1753M104.168 93.9174L106.674 88.6332M106.674 85.1753V82.2905L110.346 73.2861L114.018 82.2905V85.1753M106.674 85.1753V88.6332M114.018 85.1753L116.64 90.0709V94.3247M114.018 85.1753V88.7276M116.64 94.3247L114.018 88.7276M106.674 88.6332L110.346 80.8917L114.018 88.7276M106.936 94.879L110.346 87.6231L113.755 94.879V119.444" stroke="#2D3748" stroke-width="1.1047"/>
<path d="M106.938 119.445V104.146M106.938 104.146V94.8793L110.41 87.7178M106.938 104.146H113.756M118.827 150.829H121.974L128.705 141.824M128.705 141.824V184.398M128.705 141.824V105.282L129.19 104.288" stroke="#2D3748" stroke-width="1.1047"/>
<path d="M128.705 105.282L130.168 102.135M146.014 184.398V105.282L144.441 101.897M130.168 102.135L137.36 86.6619L144.441 101.897M130.168 102.135V96.1033L137.36 80.8921L144.441 96.1033V101.897" stroke="#2D3748" stroke-width="1.1047"/>
<path d="M143.479 93.9175V89.9835V89.8961L140.769 84.9131M140.769 88.1477V82.1157L137.36 73.7233M137.36 73.7233L133.688 82.1157V84.9131M137.36 73.7233V59.124M133.688 88.5848V84.9131M133.688 84.9131L131.24 89.9835V93.83M146.014 130.984H146.976L150.997 136.666V151.877H157.816M157.816 151.877V119.095H174.076V184.398M157.816 151.877V184.398" stroke="#2D3748" stroke-width="1.1047"/>
<path d="M160.264 119.095V115.074M171.716 119.095V115.074M171.716 115.074V114.374L166.033 108.255L160.264 114.374V115.074M171.716 115.074H160.264M174.076 169.537H181.857M186.49 169.537H181.857M181.857 169.537V139.289H188.85M188.85 139.289V184.398M188.85 139.289V89.2846H193.658M193.658 89.2846L191.735 184.398L195.844 100.037H200.215L203.012 154.763L202.313 89.2846M193.658 89.2846L194.183 78.1821H201.876L202.313 89.2846M202.313 89.2846H207.121V154.763" stroke="#2D3748" stroke-width="1.1047"/>
<path d="M196.98 184.398V155.549H222.332M222.332 155.549V168.837H219.535V184.398M222.332 155.549V136.841H223.294V135.355H230.2V136.841H231.424V172.596H233.26V142.698H237.631M251.181 191.829V175.569H242.352V142.698H237.631M237.631 142.698V134.568" stroke="#2D3748" stroke-width="1.1047"/>
<path d="M101.691 136.754H118.913M101.691 154.326H118.826M101.691 171.635H118.826M128.704 119.445H133.775M146.014 119.445H140.856M133.775 119.445V101.698L137.272 94.355L140.856 101.698V119.445M133.775 119.445H140.856" stroke="#2D3748" stroke-width="1.1047"/>
<path d="M133.862 113.675L135.567 110.484M137.272 107.293V94.5298M137.272 107.293L139.064 110.484M137.272 107.293L135.567 110.484M140.856 113.675L139.064 110.484M139.064 110.484V98.0266M135.567 110.484V98.0266M162.711 115.074V119.095M166.033 115.074V119.095M169.355 115.074V119.095M77.6506 138.153V135.53M74.5909 138.153V135.53M80.7104 138.153V135.53M83.7701 138.153V135.53M86.8298 138.153V135.53M71.8809 141.212H89.4524M74.5909 145.583H86.8298M74.5909 149.867H86.8298M74.5909 154.151H86.8298M74.5909 158.434H86.8298M74.5909 162.718H86.8298M74.5909 167.002H86.8298M74.5909 171.285H86.8298M74.5909 175.656H86.8298" stroke="#2D3748" stroke-width="1.1047"/>
<path d="M106.938 119.444V184.398H113.756V119.444M160.352 124.69V133.956M163.149 124.69V133.956M165.946 124.69V133.956M168.919 124.69V133.956M171.804 124.69V133.956" stroke="#2D3748" stroke-width="1.1047"/>
<path d="M160.352 139.814V149.081M163.149 139.814V149.081M165.946 139.814V149.081M168.919 139.814V149.081M171.804 139.814V149.081M160.352 170.586V179.853M163.149 170.586V179.853M165.946 170.586V179.853M168.919 170.586V179.853M171.804 170.586V179.853" stroke="#2D3748" stroke-width="1.1047"/>
<path d="M160.352 155.375V164.641M163.149 155.375V164.641M165.946 155.375V164.641M168.919 155.375V164.641M171.804 155.375V164.641" stroke="#2D3748" stroke-width="1.1047"/>
<path d="M201.176 160.27H222.332V165.253H201.176M201.176 170.323H219.534M201.176 175.306H219.534M201.176 180.377H219.534" stroke="#2D3748" stroke-width="1.1047"/>
<rect x="79.4863" y="17.563" width="3.72612" height="3.72612" rx="0.621019" transform="rotate(-25 79.4863 17.563)" fill="#F15447"/>
<rect x="20.4805" y="20.4932" width="1.86306" height="1.86306" rx="0.621019" transform="rotate(-25 20.4805 20.4932)" fill="#10B6FF"/>
<rect x="117.037" y="52.3628" width="5.21656" height="5.21656" rx="0.621019" transform="rotate(-25 117.037 52.3628)" fill="#EFC715"/>
<rect x="194.125" y="62.1099" width="3.72612" height="3.72612" rx="0.621019" transform="rotate(-25 194.125 62.1099)" fill="#398673"/>
<rect x="16.8789" y="192.109" width="1.86306" height="1.86306" rx="0.621019" transform="rotate(-25 16.8789 192.109)" fill="#10B6FF"/>
<rect x="107.051" y="197.253" width="5.21656" height="5.21656" rx="0.621019" transform="rotate(-25 107.051 197.253)" fill="#5DA694"/>
<path d="M30.989 217.815C30.8441 217.504 30.9786 217.134 31.2894 216.989L32.8653 216.255C33.1762 216.11 33.5457 216.244 33.6906 216.555L34.4255 218.131C34.5704 218.442 34.436 218.811 34.1251 218.956L32.5492 219.691C32.2383 219.836 31.8688 219.702 31.7239 219.391L30.989 217.815Z" fill="#10B6FF"/>
<rect x="257.338" y="192.119" width="2.98089" height="2.98089" rx="0.621019" transform="rotate(-25 257.338 192.119)" fill="#9E9E9E"/>
<rect x="198.092" y="201.227" width="5.21656" height="5.21656" rx="0.621019" transform="rotate(-25 198.092 201.227)" fill="#E1473A"/>
<path d="M65.7952 200.572L66.5423 204.809L62.4993 203.338L65.7952 200.572Z" fill="#F2853A"/>
<path d="M92.376 221.826L96.6132 222.573L93.8476 225.869L92.376 221.826Z" fill="#EFC715"/>
<circle cx="245.91" cy="42.3107" r="3.1051" fill="#EFC715"/>
<g filter="url(#filter0_d_8303_148631)">
<path d="M81.651 26.2695C77.1314 26.2848 72.7655 27.9123 69.3389 30.8593C65.9122 33.8063 63.6495 37.8793 62.9579 42.3457C62.2664 46.8121 63.1913 51.3787 65.5662 55.224C67.9412 59.0693 71.6104 61.941 75.9138 63.3223L80.9816 73.6254C81.0418 73.752 81.1366 73.8589 81.2551 73.9338C81.3735 74.0087 81.5108 74.0484 81.651 74.0484C81.7911 74.0484 81.9284 74.0087 82.0469 73.9338C82.1654 73.8589 82.2602 73.752 82.3203 73.6254L87.4121 63.3223C91.7173 61.9403 95.3878 59.0667 97.7626 55.2189C100.137 51.3711 101.061 46.8019 100.366 42.334C99.6712 37.866 97.4043 33.7928 93.9733 30.8477C90.5423 27.9026 86.1726 26.2791 81.651 26.2695Z" fill="#FF9A55"/>
</g>
<path d="M81.651 26.2695C77.1314 26.2848 72.7655 27.9123 69.3389 30.8593C65.9122 33.8063 63.6495 37.8793 62.9579 42.3457C62.2664 46.8121 63.1913 51.3787 65.5662 55.224C67.9412 59.0693 71.6104 61.941 75.9138 63.3223L80.9816 73.6254C81.0418 73.752 81.1366 73.8589 81.2551 73.9338C81.3735 74.0087 81.5108 74.0484 81.651 74.0484C81.7911 74.0484 81.9284 74.0087 82.0469 73.9338C82.1654 73.8589 82.2602 73.752 82.3203 73.6254L87.4121 63.3223C91.7173 61.9403 95.3878 59.0667 97.7626 55.2189C100.137 51.3711 101.061 46.8019 100.366 42.334C99.6712 37.866 97.4043 33.7928 93.9733 30.8477C90.5423 27.9026 86.1726 26.2791 81.651 26.2695ZM85.3324 60.6928L81.8183 68.0555C81.8059 68.0866 81.7845 68.1132 81.7568 68.132C81.7291 68.1507 81.6964 68.1608 81.6629 68.1608C81.6295 68.1608 81.5968 68.1507 81.5691 68.132C81.5414 68.1132 81.52 68.0866 81.5075 68.0555L77.9935 60.7167C75.0864 60.0294 72.4317 58.5369 70.3338 56.4102C68.236 54.2835 66.7798 51.6088 66.1322 48.6926C65.4846 45.7763 65.6718 42.7366 66.6723 39.9219C67.6729 37.1072 69.4462 34.6313 71.7892 32.7781C74.1322 30.9249 76.9499 29.7694 79.9194 29.444C82.8889 29.1187 85.89 29.6366 88.5787 30.9384C91.2674 32.2402 93.5349 34.2733 95.1212 36.8046C96.7075 39.3358 97.5485 42.2629 97.5478 45.2501C97.5344 48.8201 96.3234 52.2823 94.1086 55.0823C91.8937 57.8822 88.8034 59.8578 85.3324 60.6928Z" fill="white"/>
<path d="M90.5259 42.8389C90.4508 42.6291 90.3137 42.4471 90.1329 42.3169C89.952 42.1868 89.7359 42.1147 89.5131 42.1102H89.0437C88.9544 41.465 88.8266 40.8257 88.6609 40.1958C88.4412 39.428 88.3208 38.6352 88.3027 37.8368C88.3027 37.3798 88.3027 37.0092 88.3027 36.7128C88.4436 36.6722 88.5693 36.5906 88.6638 36.4785C88.7584 36.3663 88.8175 36.2287 88.8338 36.0829L88.8955 35.453C88.9127 35.255 88.851 35.0583 88.7237 34.9056C88.5965 34.7529 88.4141 34.6567 88.2162 34.6379L84.9803 34.3167H84.9062C84.724 34.3189 84.5489 34.3881 84.4145 34.5111C84.2801 34.6341 84.1957 34.8024 84.1775 34.9837L84.1157 35.6259C84.0987 35.7642 84.1223 35.9044 84.1837 36.0295C84.2451 36.1545 84.3417 36.2589 84.4615 36.3299C84.4615 36.614 84.338 36.9598 84.2639 37.3921C84.1959 37.7568 84.1009 38.116 83.9799 38.4667L83.9058 38.0838L83.3006 34.6873C83.2899 34.6156 83.2647 34.5468 83.2265 34.4852C83.1882 34.4236 83.1378 34.3705 83.0782 34.3291C82.7092 34.0801 82.2928 33.9098 81.855 33.8291C81.4173 33.7483 80.9675 33.7588 80.5339 33.8598C79.2829 34.1617 78.081 34.64 76.9645 35.2801C76.5378 35.5215 76.0964 35.736 75.643 35.9224C74.707 36.2434 73.7106 36.349 72.7281 36.2311C72.6409 36.2197 72.5523 36.2281 72.4688 36.256C72.3854 36.2838 72.3093 36.3302 72.2465 36.3917C72.1838 36.4534 72.1375 36.5298 72.1116 36.6138C72.0857 36.6979 72.0811 36.7871 72.0983 36.8734L73.0122 42.1102H72.827C72.6013 42.1146 72.3818 42.1847 72.1953 42.3119C72.0089 42.4392 71.8635 42.618 71.7771 42.8265L69.9739 46.7541C69.894 46.9205 69.8588 47.1048 69.8718 47.2889C69.8848 47.473 69.9455 47.6505 70.048 47.804C70.127 47.9336 70.2375 48.0412 70.3692 48.1168C70.5009 48.1924 70.6496 48.2335 70.8014 48.2362H72.4441V53.8559C72.4205 54.3061 72.5762 54.7473 72.8771 55.0829C73.178 55.4185 73.5996 55.6213 74.0497 55.6468H88.772C89.2221 55.6213 89.6437 55.4185 89.9446 55.0829C90.2455 54.7473 90.4012 54.3061 90.3776 53.8559V48.2362H91.3534C91.4991 48.2342 91.6421 48.1959 91.7693 48.1247C91.8966 48.0536 92.0041 47.9518 92.0821 47.8287C92.1873 47.6749 92.2535 47.4979 92.275 47.3128C92.2965 47.1278 92.2727 46.9403 92.2056 46.7665L90.5259 42.8389ZM84.4986 40.0599C84.882 39.2754 85.1642 38.4454 85.3385 37.5897C85.4126 37.1451 85.4867 36.7993 85.5361 36.5152L87.1664 36.6758C87.1664 36.9722 87.1664 37.3551 87.1664 37.9109C87.1832 38.7931 87.3161 39.6693 87.5616 40.5169C87.6851 41.0233 87.8086 41.542 87.9075 42.1719H83.7205C83.879 41.6151 84.0771 41.0702 84.3133 40.5416L84.4986 40.0599ZM73.6792 43.2218H85.6225L83.8687 47.137H71.0731L72.8393 43.2341L73.6792 43.2218ZM76.0506 36.9598C76.5463 36.7552 77.0289 36.5201 77.4956 36.2558C78.5173 35.66 79.6196 35.2148 80.7686 34.9343C81.261 34.8207 81.7777 34.8864 82.226 35.1195L82.6089 37.2563C82.1344 37.1386 81.6383 37.1386 81.1638 37.2563C79.9192 37.5776 78.7259 38.0723 77.6191 38.726C77.1979 38.9697 76.7605 39.1843 76.3099 39.3683C75.4685 39.6736 74.5716 39.7957 73.6792 39.7264L73.321 37.3921C74.2505 37.4304 75.1784 37.2835 76.0506 36.9598ZM73.9262 40.838C74.8722 40.8823 75.8173 40.7353 76.7052 40.4058C77.2025 40.2143 77.6854 39.9872 78.1502 39.7264C79.1775 39.1331 80.2836 38.6882 81.4356 38.4049C81.897 38.2734 82.3895 38.3039 82.8312 38.4914L83.1523 40.3193C82.9228 40.8901 82.733 41.4761 82.5842 42.0731H74.1485L73.9262 40.838ZM86.0301 54.5476H74.025C73.7533 54.5476 73.531 54.2388 73.531 53.8683V48.2362H83.8687C84.093 48.2326 84.3113 48.1626 84.4959 48.0352C84.6805 47.9077 84.8233 47.7284 84.9062 47.5199L86.0178 45.0497L86.0301 54.5476ZM89.2784 53.8683C89.2784 54.2388 89.0561 54.5476 88.7844 54.5476H87.1293V44.7533L88.278 47.5075C88.3158 47.6166 88.3746 47.7173 88.4509 47.804L88.525 47.8781C88.5722 47.9376 88.6261 47.9915 88.6856 48.0386H88.7844C88.8366 48.0771 88.8951 48.1064 88.9573 48.1251H89.0808H89.2661L89.2784 53.8683ZM90.39 47.137H89.3155L87.6975 43.2835H88.7967H89.5131L91.1187 47.137H90.39ZM91.1558 47.2358H91.2669L91.6127 47.0876L91.1558 47.2358Z" fill="white"/>
<g clip-path="url(#clip0_8303_148631)">
<g filter="url(#filter1_d_8303_148631)">
<path d="M169.292 21.126C164.772 21.1412 160.406 22.7687 156.979 25.7157C153.553 28.6627 151.29 32.7358 150.599 37.2022C149.907 41.6686 150.832 46.2351 153.207 50.0805C155.582 53.9258 159.251 56.7974 163.554 58.1788L168.622 68.4819C168.682 68.6085 168.777 68.7154 168.896 68.7903C169.014 68.8651 169.151 68.9049 169.292 68.9049C169.432 68.9049 169.569 68.8651 169.688 68.7903C169.806 68.7154 169.901 68.6085 169.961 68.4819L175.053 58.1788C179.358 56.7967 183.028 53.9231 185.403 50.0753C187.778 46.2276 188.701 41.6584 188.007 37.1904C187.312 32.7224 185.045 28.6493 181.614 25.7042C178.183 22.7591 173.813 21.1356 169.292 21.126Z" fill="#5DA694"/>
</g>
<path d="M169.292 21.126C164.772 21.1412 160.406 22.7687 156.979 25.7157C153.553 28.6627 151.29 32.7358 150.599 37.2022C149.907 41.6686 150.832 46.2351 153.207 50.0805C155.582 53.9258 159.251 56.7974 163.554 58.1788L168.622 68.4819C168.682 68.6085 168.777 68.7154 168.896 68.7903C169.014 68.8651 169.151 68.9049 169.292 68.9049C169.432 68.9049 169.569 68.8651 169.688 68.7903C169.806 68.7154 169.901 68.6085 169.961 68.4819L175.053 58.1788C179.358 56.7967 183.028 53.9231 185.403 50.0753C187.778 46.2276 188.701 41.6584 188.007 37.1904C187.312 32.7224 185.045 28.6493 181.614 25.7042C178.183 22.7591 173.813 21.1356 169.292 21.126ZM172.973 55.5492L169.459 62.912C169.447 62.9431 169.425 62.9697 169.397 62.9884C169.37 63.0072 169.337 63.0172 169.304 63.0172C169.27 63.0172 169.237 63.0072 169.21 62.9884C169.182 62.9697 169.161 62.9431 169.148 62.912L165.634 55.5731C162.727 54.8858 160.072 53.3933 157.974 51.2667C155.877 49.14 154.42 46.4652 153.773 43.549C153.125 40.6328 153.312 37.5931 154.313 34.7783C155.313 31.9636 157.087 29.4878 159.43 27.6346C161.773 25.7814 164.591 24.6259 167.56 24.3005C170.53 23.9751 173.531 24.493 176.219 25.7948C178.908 27.0967 181.175 29.1297 182.762 31.661C184.348 34.1923 185.189 37.1193 185.188 40.1066C185.175 43.6766 183.964 47.1388 181.749 49.9387C179.534 52.7387 176.444 54.7143 172.973 55.5492Z" fill="#F7F8FA"/>
<path d="M176.971 36.0152C177.041 35.4936 176.999 34.9631 176.848 34.459C176.514 33.5231 175.883 32.7221 175.051 32.178C174.219 31.634 173.233 31.3767 172.241 31.4454C172.015 30.7294 171.586 30.0943 171.006 29.6174C169.116 28.0489 166.029 28.617 164.126 30.8772C163.747 31.3188 163.435 31.8141 163.2 32.347C162.494 32.6394 161.879 33.1154 161.418 33.7256C160.958 34.3359 160.669 35.0582 160.582 35.8176C160.545 36.4408 160.66 37.0637 160.915 37.6332C160.502 37.9496 160.166 38.3547 159.931 38.8186C159.696 39.2825 159.568 39.7934 159.557 40.3134C159.596 40.869 159.752 41.4101 160.015 41.9011C160.278 42.3922 160.642 42.822 161.083 43.1626C161.524 43.5031 162.032 43.7466 162.573 43.8771C163.115 44.0076 163.678 44.0222 164.225 43.9198C164.68 44.3957 165.272 44.7172 165.919 44.839C166.566 44.9609 167.235 44.877 167.832 44.5991C168.228 44.7498 168.644 44.8413 169.067 44.8709V49.2307H166.189C166.025 49.2307 165.868 49.2958 165.752 49.4116C165.637 49.5274 165.572 49.6845 165.572 49.8483C165.575 50.0111 165.641 50.1663 165.756 50.2815C165.871 50.3966 166.026 50.4627 166.189 50.4658H173.377C173.541 50.4658 173.698 50.4008 173.814 50.285C173.93 50.1691 173.995 50.0121 173.995 49.8483C173.995 49.6845 173.93 49.5274 173.814 49.4116C173.698 49.2958 173.541 49.2307 173.377 49.2307H170.351V44.8214C170.821 44.7338 171.272 44.5667 171.685 44.3274C172.915 44.7646 174.253 44.7949 175.502 44.4139C178.355 43.574 180.109 40.968 179.417 38.6089C179.23 38.0208 178.913 37.4823 178.49 37.0334C178.066 36.5844 177.548 36.2364 176.971 36.0152ZM175.156 43.2282C174.075 43.5655 172.91 43.5041 171.871 43.0553L171.525 42.9071L171.216 43.1417C170.959 43.3339 170.665 43.4687 170.351 43.537V38.2878H170.586C171.228 38.3026 171.855 38.0978 172.365 37.7073C173.027 37.1201 173.442 36.3036 173.526 35.4224C173.539 35.2604 173.489 35.0996 173.385 34.9748C173.281 34.8499 173.132 34.7711 172.97 34.7554C172.807 34.7451 172.646 34.7985 172.521 34.9046C172.397 35.0106 172.319 35.1608 172.303 35.3236C172.245 35.8685 171.99 36.3736 171.586 36.7439C171.409 36.8701 171.209 36.9601 170.997 37.0089C170.785 37.0576 170.566 37.0641 170.351 37.028V35.373C170.351 35.2092 170.286 35.0521 170.17 34.9363C170.055 34.8205 169.898 34.7554 169.734 34.7554C169.57 34.7554 169.413 34.8205 169.297 34.9363C169.181 35.0521 169.116 35.2092 169.116 35.373V40.2145C168.397 40.291 167.675 40.0973 167.091 39.6711C166.394 39.0237 165.956 38.1464 165.856 37.2009C165.851 37.1203 165.83 37.0414 165.795 36.9689C165.759 36.8964 165.709 36.8318 165.648 36.7788C165.587 36.7259 165.516 36.6857 165.439 36.6606C165.363 36.6355 165.282 36.626 165.201 36.6328C165.12 36.639 165.041 36.6612 164.968 36.6982C164.896 36.7351 164.831 36.7861 164.778 36.8481C164.725 36.91 164.685 36.9819 164.66 37.0594C164.635 37.1369 164.626 37.2186 164.633 37.2997C164.741 38.5919 165.354 39.7897 166.337 40.6345C167.067 41.2012 167.97 41.4979 168.894 41.4743H169.116V43.6481C168.76 43.6254 168.412 43.5331 168.091 43.3764L167.77 43.2282L167.474 43.4381C167.08 43.6862 166.607 43.7769 166.149 43.6923C165.692 43.6076 165.282 43.3537 165.003 42.9812L164.781 42.6106L164.349 42.6971C163.959 42.82 163.547 42.855 163.142 42.7996C162.737 42.7441 162.349 42.5996 162.006 42.3763C161.664 42.1531 161.375 41.8568 161.161 41.5086C160.946 41.1604 160.812 40.7691 160.767 40.3628C160.785 39.958 160.908 39.5649 161.125 39.2226C161.341 38.8803 161.644 38.6006 162.002 38.4113L162.521 38.1025L162.15 37.522C161.852 37.0334 161.718 36.4621 161.767 35.8917C161.86 35.3297 162.102 34.8032 162.47 34.3683C162.837 33.9333 163.316 33.6061 163.855 33.4215L164.139 33.3474L164.238 33.1128C164.438 32.6105 164.717 32.1435 165.065 31.7295C166.535 29.9633 168.845 29.4569 170.216 30.5932C170.701 31.0135 171.024 31.5901 171.129 32.2235L171.228 32.7793H171.796C172.588 32.6057 173.415 32.7145 174.134 33.0866C174.854 33.4588 175.421 34.0711 175.736 34.8172C175.872 35.2851 175.872 35.782 175.736 36.2499L175.576 36.8427L176.156 37.0157C176.631 37.145 177.067 37.3897 177.425 37.728C177.782 38.0663 178.051 38.4877 178.207 38.9548C178.725 40.6592 177.354 42.5736 175.156 43.2282Z" fill="white"/>
</g>
<g clip-path="url(#clip1_8303_148631)">
<g filter="url(#filter2_d_8303_148631)">
<path d="M29.3619 88.144C24.8423 88.1593 20.4765 89.7868 17.0498 92.7338C13.6231 95.6808 11.3604 99.7538 10.6689 104.22C9.9773 108.687 10.9022 113.253 13.2772 117.099C15.6522 120.944 19.3214 123.815 23.6247 125.197L28.6926 135.5C28.7527 135.627 28.8475 135.733 28.966 135.808C29.0845 135.883 29.2218 135.923 29.3619 135.923C29.5021 135.923 29.6393 135.883 29.7578 135.808C29.8763 135.733 29.9711 135.627 30.0313 135.5L35.123 125.197C39.4283 123.815 43.0987 120.941 45.4735 117.093C47.8484 113.246 48.7715 108.676 48.0768 104.208C47.3821 99.7405 45.1152 95.6673 41.6842 92.7222C38.2532 89.7771 33.8835 88.1537 29.3619 88.144Z" fill="#7C7C7C"/>
</g>
<path d="M29.3619 88.144C24.8423 88.1593 20.4765 89.7868 17.0498 92.7338C13.6231 95.6808 11.3604 99.7538 10.6689 104.22C9.9773 108.687 10.9022 113.253 13.2772 117.099C15.6522 120.944 19.3214 123.815 23.6247 125.197L28.6926 135.5C28.7527 135.627 28.8475 135.733 28.966 135.808C29.0845 135.883 29.2218 135.923 29.3619 135.923C29.5021 135.923 29.6393 135.883 29.7578 135.808C29.8763 135.733 29.9711 135.627 30.0313 135.5L35.123 125.197C39.4283 123.815 43.0987 120.941 45.4735 117.093C47.8484 113.246 48.7715 108.676 48.0768 104.208C47.3821 99.7405 45.1152 95.6673 41.6842 92.7222C38.2532 89.7771 33.8835 88.1537 29.3619 88.144ZM33.0433 122.567L29.5292 129.93C29.5168 129.961 29.4954 129.988 29.4677 130.007C29.44 130.025 29.4073 130.035 29.3739 130.035C29.3404 130.035 29.3077 130.025 29.28 130.007C29.2523 129.988 29.2309 129.961 29.2185 129.93L25.7044 122.591C22.7973 121.904 20.1427 120.411 18.0448 118.285C15.9469 116.158 14.4907 113.483 13.8431 110.567C13.1955 107.651 13.3827 104.611 14.3832 101.796C15.3838 98.9817 17.1572 96.5058 19.5002 94.6526C21.8431 92.7995 24.6609 91.6439 27.6304 91.3186C30.5999 90.9932 33.601 91.5111 36.2896 92.8129C38.9783 94.1147 41.2458 96.1478 42.8321 98.6791C44.4185 101.21 45.2595 104.137 45.2588 107.125C45.2454 110.695 44.0343 114.157 41.8195 116.957C39.6047 119.757 36.5143 121.732 33.0433 122.567Z" fill="#F7F8FA"/>
<path d="M39.3687 105.075C39.161 104.868 38.9146 104.703 38.6433 104.591C38.372 104.479 38.0813 104.421 37.7877 104.421H29.525V100.036H30.4636C30.5436 100.038 30.623 100.023 30.6972 99.9936C30.7714 99.9638 30.8388 99.9193 30.8953 99.8628C30.9518 99.8062 30.9964 99.7388 31.0262 99.6646C31.056 99.5905 31.0705 99.511 31.0688 99.4311V97.1091C31.0688 97.0302 31.0531 96.9521 31.0225 96.8793C30.992 96.8066 30.9472 96.7407 30.8908 96.6855C30.8345 96.6302 30.7676 96.5868 30.6943 96.5578C30.6209 96.5287 30.5425 96.5146 30.4636 96.5162H22.1514C22.0723 96.5154 21.9939 96.5316 21.9215 96.5635C21.849 96.5955 21.7843 96.6425 21.7315 96.7015C21.6765 96.7567 21.6329 96.8222 21.6032 96.8943C21.5736 96.9663 21.5584 97.0435 21.5586 97.1214V99.4681C21.5586 99.6265 21.6206 99.7786 21.7315 99.8917C21.8423 100.005 21.9931 100.07 22.1514 100.073H23.2136V108.447C23.2078 108.505 23.2078 108.563 23.2136 108.62C23.2078 108.678 23.2078 108.736 23.2136 108.793V112.795C23.2175 113.435 23.4538 114.053 23.8786 114.532C24.3034 115.011 24.8879 115.32 25.5232 115.401V118.167C25.5231 118.245 25.5382 118.323 25.5679 118.395C25.5976 118.467 25.6412 118.532 25.6962 118.587C25.8123 118.701 25.9664 118.767 26.1284 118.773H32.798C32.8769 118.773 32.955 118.757 33.0277 118.726C33.1005 118.696 33.1664 118.651 33.2216 118.595C33.2768 118.538 33.3202 118.471 33.3493 118.398C33.3783 118.325 33.3924 118.246 33.3908 118.167V115.388C34.8336 115.347 36.2032 114.744 37.2087 113.709C38.2142 112.673 38.7764 111.286 38.7758 109.843V108.966H39.4551C39.534 108.966 39.6121 108.95 39.6849 108.92C39.7576 108.889 39.8235 108.844 39.8787 108.788C39.934 108.732 39.9774 108.665 40.0064 108.591C40.0355 108.518 40.0496 108.44 40.048 108.361V106.669C40.0471 106.371 39.9865 106.077 39.8698 105.803C39.7532 105.53 39.5827 105.282 39.3687 105.075ZM22.7072 97.7513H29.809V98.8506H28.8827H23.7571H22.7072V97.7513ZM28.2899 100.036V105.075V107.805H24.3746V100.036H28.2899ZM26.7583 117.562V115.426H32.2298V117.55L26.7583 117.562ZM37.5654 109.015V109.843C37.5687 110.409 37.4604 110.97 37.2468 111.494C37.0331 112.019 36.7184 112.496 36.3204 112.898C35.9224 113.301 35.4491 113.621 34.9273 113.841C34.4056 114.06 33.8457 114.175 33.2796 114.178H25.8691C25.4829 114.173 25.1127 114.023 24.8316 113.758C24.6927 113.624 24.5828 113.462 24.5085 113.284C24.4341 113.106 24.397 112.914 24.3993 112.721V109.015H28.9198H36.1574H37.5654ZM37.8248 107.681H29.5497V105.668H37.8001C37.9406 105.662 38.0809 105.686 38.211 105.739C38.3412 105.793 38.4581 105.874 38.5535 105.977C38.6516 106.074 38.7294 106.189 38.7825 106.317C38.8355 106.444 38.8626 106.58 38.8623 106.718V107.681H37.8248Z" fill="white"/>
</g>
<g filter="url(#filter3_d_8303_148631)">
<path d="M245.883 74.8877C241.364 74.9029 236.998 76.5304 233.571 79.4774C230.145 82.4244 227.882 86.4975 227.19 90.9639C226.499 95.4303 227.424 99.9969 229.799 103.842C232.174 107.687 235.843 110.559 240.146 111.941L245.214 122.244C245.274 122.37 245.369 122.477 245.487 122.552C245.606 122.627 245.743 122.667 245.883 122.667C246.024 122.667 246.161 122.627 246.279 122.552C246.398 122.477 246.493 122.37 246.553 122.244L251.645 111.941C255.95 110.558 259.62 107.685 261.995 103.837C264.37 99.9893 265.293 95.4201 264.598 90.9521C263.904 86.4842 261.637 82.411 258.206 79.4659C254.775 76.5208 250.405 74.8973 245.883 74.8877Z" fill="#5286E9"/>
</g>
<path d="M245.883 74.8877C241.364 74.9029 236.998 76.5304 233.571 79.4774C230.145 82.4244 227.882 86.4975 227.19 90.9639C226.499 95.4303 227.424 99.9969 229.799 103.842C232.174 107.687 235.843 110.559 240.146 111.941L245.214 122.244C245.274 122.37 245.369 122.477 245.487 122.552C245.606 122.627 245.743 122.667 245.883 122.667C246.024 122.667 246.161 122.627 246.279 122.552C246.398 122.477 246.493 122.37 246.553 122.244L251.645 111.941C255.95 110.558 259.62 107.685 261.995 103.837C264.37 99.9893 265.293 95.4201 264.598 90.9521C263.904 86.4842 261.637 82.411 258.206 79.4659C254.775 76.5208 250.405 74.8973 245.883 74.8877ZM249.565 109.311L246.051 116.674C246.038 116.705 246.017 116.731 245.989 116.75C245.961 116.769 245.929 116.779 245.895 116.779C245.862 116.779 245.829 116.769 245.802 116.75C245.774 116.731 245.752 116.705 245.74 116.674L242.226 109.335C239.319 108.648 236.664 107.155 234.566 105.028C232.468 102.902 231.012 100.227 230.365 97.3107C229.717 94.3945 229.904 91.3548 230.905 88.5401C231.905 85.7253 233.679 83.2495 236.022 81.3963C238.365 79.5431 241.182 78.3876 244.152 78.0622C247.121 77.7368 250.122 78.2547 252.811 79.5566C255.5 80.8584 257.767 82.8915 259.354 85.4227C260.94 87.954 261.781 90.881 261.78 93.8683C261.767 97.4383 260.556 100.901 258.341 103.7C256.126 106.5 253.036 108.476 249.565 109.311Z" fill="#F7F8FA"/>
<path d="M253.867 95.8313C253.622 94.5361 253.059 93.353 252.5 92.2792C250.818 89.0001 248.795 86.0244 246.803 83.2701L246.555 82.8848C246.213 82.4177 245.806 82.1689 245.34 82.1689C244.656 82.1689 244.221 82.718 244.097 82.8848C244.097 82.8848 244.097 82.8848 244.097 82.9121L243.662 83.5188C242.885 84.6199 242.074 85.7787 241.294 86.9344C240.079 88.7514 238.553 91.1781 237.434 93.7656C237.061 94.621 236.719 95.4734 236.688 96.4107C236.564 98.8344 237.558 100.873 239.615 102.471C241.203 103.709 243.227 104.401 245.312 104.401C248.363 104.401 251.135 103.023 252.72 100.682C253.774 99.1377 254.178 97.4815 253.867 95.8313ZM251.72 100.157C250.349 102.195 247.953 103.378 245.306 103.378C243.503 103.378 241.726 102.799 240.358 101.725C238.581 100.348 237.711 98.5583 237.807 96.4623C237.835 95.6918 238.118 94.9486 238.491 94.1478C239.581 91.6149 241.076 89.2428 242.257 87.4531C243.006 86.3247 243.814 85.1659 244.622 84.0648L245.026 83.4854C245.026 83.4581 245.057 83.4581 245.057 83.4308C245.119 83.3489 245.243 83.2094 245.306 83.1821C245.306 83.1821 245.399 83.2094 245.554 83.4308L245.803 83.7888C247.733 86.4885 249.759 89.4369 251.406 92.6614C251.934 93.7079 252.462 94.8091 252.68 95.9678C252.997 97.3996 252.655 98.804 251.72 100.157ZM245.868 100.761C245.868 101.037 245.619 101.258 245.306 101.258C242.474 101.258 240.203 99.2196 240.203 96.7383C240.203 96.4623 240.451 96.2439 240.762 96.2439C241.076 96.2439 241.325 96.4623 241.325 96.7383C241.356 98.6675 243.13 100.239 245.306 100.239C245.619 100.239 245.868 100.488 245.868 100.761Z" fill="white" stroke="white" stroke-width="0.20787"/>
<defs>
<filter id="filter0_d_8303_148631" x="60.9344" y="25.4695" width="41.8574" height="51.7788" filterUnits="userSpaceOnUse" color-interpolation-filters="sRGB">
<feFlood flood-opacity="0" result="BackgroundImageFix"/>
<feColorMatrix in="SourceAlpha" type="matrix" values="0 0 0 0 0 0 0 0 0 0 0 0 0 0 0 0 0 0 127 0" result="hardAlpha"/>
<feOffset dx="0.2" dy="1.2"/>
<feGaussianBlur stdDeviation="1"/>
<feComposite in2="hardAlpha" operator="out"/>
<feColorMatrix type="matrix" values="0 0 0 0 0 0 0 0 0 0 0 0 0 0 0 0 0 0 0.62 0"/>
<feBlend mode="normal" in2="BackgroundImageFix" result="effect1_dropShadow_8303_148631"/>
<feBlend mode="normal" in="SourceGraphic" in2="effect1_dropShadow_8303_148631" result="shape"/>
</filter>
<filter id="filter1_d_8303_148631" x="148.575" y="20.326" width="41.8574" height="51.7788" filterUnits="userSpaceOnUse" color-interpolation-filters="sRGB">
<feFlood flood-opacity="0" result="BackgroundImageFix"/>
<feColorMatrix in="SourceAlpha" type="matrix" values="0 0 0 0 0 0 0 0 0 0 0 0 0 0 0 0 0 0 127 0" result="hardAlpha"/>
<feOffset dx="0.2" dy="1.2"/>
<feGaussianBlur stdDeviation="1"/>
<feComposite in2="hardAlpha" operator="out"/>
<feColorMatrix type="matrix" values="0 0 0 0 0 0 0 0 0 0 0 0 0 0 0 0 0 0 0.62 0"/>
<feBlend mode="normal" in2="BackgroundImageFix" result="effect1_dropShadow_8303_148631"/>
<feBlend mode="normal" in="SourceGraphic" in2="effect1_dropShadow_8303_148631" result="shape"/>
</filter>
<filter id="filter2_d_8303_148631" x="8.64531" y="87.344" width="41.8574" height="51.7788" filterUnits="userSpaceOnUse" color-interpolation-filters="sRGB">
<feFlood flood-opacity="0" result="BackgroundImageFix"/>
<feColorMatrix in="SourceAlpha" type="matrix" values="0 0 0 0 0 0 0 0 0 0 0 0 0 0 0 0 0 0 127 0" result="hardAlpha"/>
<feOffset dx="0.2" dy="1.2"/>
<feGaussianBlur stdDeviation="1"/>
<feComposite in2="hardAlpha" operator="out"/>
<feColorMatrix type="matrix" values="0 0 0 0 0 0 0 0 0 0 0 0 0 0 0 0 0 0 0.62 0"/>
<feBlend mode="normal" in2="BackgroundImageFix" result="effect1_dropShadow_8303_148631"/>
<feBlend mode="normal" in="SourceGraphic" in2="effect1_dropShadow_8303_148631" result="shape"/>
</filter>
<filter id="filter3_d_8303_148631" x="225.167" y="74.0877" width="41.8574" height="51.7788" filterUnits="userSpaceOnUse" color-interpolation-filters="sRGB">
<feFlood flood-opacity="0" result="BackgroundImageFix"/>
<feColorMatrix in="SourceAlpha" type="matrix" values="0 0 0 0 0 0 0 0 0 0 0 0 0 0 0 0 0 0 127 0" result="hardAlpha"/>
<feOffset dx="0.2" dy="1.2"/>
<feGaussianBlur stdDeviation="1"/>
<feComposite in2="hardAlpha" operator="out"/>
<feColorMatrix type="matrix" values="0 0 0 0 0 0 0 0 0 0 0 0 0 0 0 0 0 0 0.62 0"/>
<feBlend mode="normal" in2="BackgroundImageFix" result="effect1_dropShadow_8303_148631"/>
<feBlend mode="normal" in="SourceGraphic" in2="effect1_dropShadow_8303_148631" result="shape"/>
</filter>
<clipPath id="clip0_8303_148631">
<rect width="57.3721" height="57.3721" fill="white" transform="translate(140.605 15.5557)"/>
</clipPath>
<clipPath id="clip1_8303_148631">
<rect width="57.3721" height="57.3721" fill="white" transform="translate(0.675781 82.5742)"/>
</clipPath>
</defs>
</svg>
