<svg width="188" height="64" viewBox="0 0 188 64" fill="none" xmlns="http://www.w3.org/2000/svg">
<g filter="url(#filter0_d_6451_77653)">
<rect x="2" width="184" height="60" rx="30" fill="#5286E9" shape-rendering="crispEdges"/>
<path d="M50.0688 34.333C49.6679 32.1291 48.7494 30.1161 47.836 28.289C45.0907 22.7095 41.7872 17.6461 38.5344 12.9595L38.1285 12.304C37.5703 11.5092 36.9055 11.0859 36.1443 11.0859C35.0279 11.0859 34.3175 12.0202 34.1145 12.304C34.1145 12.304 34.1145 12.304 34.1145 12.3505L33.4041 13.3828C32.1355 15.2564 30.811 17.228 29.5373 19.1945C27.5532 22.2862 25.0616 26.4154 23.2348 30.8181C22.6259 32.2736 22.0677 33.724 22.0169 35.3189C21.814 39.4428 23.4378 42.9113 26.7971 45.6314C29.3902 47.7373 32.6937 48.9141 36.0987 48.9141C41.0818 48.9141 45.6083 46.5708 48.1963 42.5861C49.9165 39.959 50.5762 37.1408 50.0688 34.333ZM46.5623 41.6932C44.3244 45.1617 40.412 47.1747 36.0885 47.1747C33.1453 47.1747 30.2427 46.1888 28.0099 44.3617C25.1073 42.0184 23.6864 38.9731 23.8438 35.4066C23.8894 34.0956 24.3512 32.831 24.9601 31.4684C26.7413 27.1586 29.1821 23.1224 31.1104 20.0771C32.3334 18.1571 33.6528 16.1854 34.9721 14.3118L35.6318 13.326C35.6318 13.2795 35.6826 13.2795 35.6826 13.2331C35.7841 13.0937 35.987 12.8563 36.0885 12.8099C36.0885 12.8099 36.2408 12.8563 36.4945 13.2331L36.9004 13.8421C40.0517 18.4358 43.3603 23.4527 46.0498 28.9393C46.9124 30.72 47.7751 32.5936 48.1303 34.5653C48.6479 37.0015 48.0897 39.3912 46.5623 41.6932ZM37.007 42.7203C37.007 43.19 36.601 43.5668 36.0885 43.5668C31.4657 43.5668 27.7562 40.0983 27.7562 35.8763C27.7562 35.4066 28.1621 35.035 28.6696 35.035C29.1821 35.035 29.5881 35.4066 29.5881 35.8763C29.6388 39.159 32.5364 41.8326 36.0885 41.8326C36.601 41.8326 37.007 42.2558 37.007 42.7203Z" fill="#FAFAFA" stroke="#FAFAFA" stroke-width="0.538463"/>
<path d="M62.3767 40.5V19.836H70.9167C71.5701 19.836 72.2327 19.92 72.9047 20.088C73.5767 20.2373 74.1927 20.5453 74.7527 21.012C75.3314 21.4787 75.7887 22.1693 76.1247 23.084C76.4794 23.9987 76.6567 25.2213 76.6567 26.752C76.6567 28.2827 76.4794 29.5147 76.1247 30.448C75.7701 31.3813 75.3034 32.1 74.7247 32.604C74.1647 33.0893 73.5487 33.4253 72.8767 33.612C72.2234 33.78 71.5887 33.864 70.9727 33.864C70.6554 33.864 70.2541 33.8547 69.7687 33.836C69.3021 33.7987 68.8074 33.7613 68.2847 33.724C67.7807 33.668 67.3047 33.6213 66.8567 33.584C66.4274 33.528 66.0821 33.4813 65.8207 33.444V40.5H62.3767ZM65.8207 30.728H70.4687C71.0101 30.728 71.4861 30.6067 71.8967 30.364C72.3074 30.1027 72.6247 29.692 72.8487 29.132C73.0727 28.5533 73.1847 27.7693 73.1847 26.78C73.1847 25.8093 73.0634 25.044 72.8207 24.484C72.5967 23.924 72.2887 23.532 71.8967 23.308C71.5234 23.0653 71.0847 22.944 70.5807 22.944H65.8207V30.728ZM80.1633 40.5V19.836H83.6073V28.768H92.3153V19.836H95.7873V40.5H92.3153V31.876H83.6073V40.5H80.1633ZM104.839 40.5C103.869 40.5 103.029 40.3507 102.319 40.052C101.629 39.7533 101.106 39.268 100.751 38.596C100.397 37.9053 100.219 37 100.219 35.88V19.836H103.663V35.32C103.663 35.8427 103.757 36.2627 103.943 36.58C104.13 36.8787 104.373 37.084 104.671 37.196C104.989 37.308 105.334 37.364 105.707 37.364H112.567V40.5H104.839ZM114.448 40.5L121.168 19.836H125.536L132.256 40.5H128.644L127.048 35.6H119.572L118.004 40.5H114.448ZM120.384 32.492H126.208L123.296 22.804L120.384 32.492ZM141.459 40.668C140.955 40.668 140.414 40.6493 139.835 40.612C139.275 40.5933 138.696 40.556 138.099 40.5C137.52 40.4253 136.97 40.36 136.447 40.304C135.924 40.2293 135.458 40.1453 135.047 40.052V37.336C135.57 37.3733 136.176 37.4107 136.867 37.448C137.576 37.4853 138.314 37.5133 139.079 37.532C139.844 37.5507 140.582 37.56 141.291 37.56C142.038 37.56 142.7 37.4947 143.279 37.364C143.858 37.2147 144.306 36.9627 144.623 36.608C144.94 36.2533 145.099 35.7493 145.099 35.096V34.116C145.099 33.388 144.894 32.828 144.483 32.436C144.072 32.044 143.466 31.848 142.663 31.848H140.731C138.846 31.848 137.39 31.4373 136.363 30.616C135.355 29.7947 134.851 28.3853 134.851 26.388V25.324C134.851 23.3267 135.402 21.8893 136.503 21.012C137.623 20.116 139.219 19.668 141.291 19.668C142 19.668 142.728 19.7053 143.475 19.78C144.24 19.836 144.968 19.9107 145.659 20.004C146.35 20.0973 146.938 20.2 147.423 20.312V23.028C146.602 22.972 145.659 22.916 144.595 22.86C143.55 22.804 142.579 22.776 141.683 22.776C140.974 22.776 140.348 22.8507 139.807 23C139.266 23.1493 138.855 23.42 138.575 23.812C138.295 24.1853 138.155 24.7453 138.155 25.492V26.164C138.155 27.0413 138.388 27.6573 138.855 28.012C139.34 28.3667 140.031 28.544 140.927 28.544H143.083C144.296 28.544 145.295 28.768 146.079 29.216C146.863 29.664 147.442 30.28 147.815 31.064C148.207 31.8293 148.403 32.7067 148.403 33.696V35.012C148.403 36.5427 148.104 37.7187 147.507 38.54C146.91 39.3613 146.088 39.9213 145.043 40.22C143.998 40.5187 142.803 40.668 141.459 40.668ZM152.294 40.5V19.836H155.738V28.656H158.79L163.55 19.836H167.246L161.562 30.196L167.386 40.5H163.69L158.79 31.792H155.738V40.5H152.294Z" fill="white"/>
</g>
<defs>
<filter id="filter0_d_6451_77653" x="0" y="0" width="188" height="64" filterUnits="userSpaceOnUse" color-interpolation-filters="sRGB">
<feFlood flood-opacity="0" result="BackgroundImageFix"/>
<feColorMatrix in="SourceAlpha" type="matrix" values="0 0 0 0 0 0 0 0 0 0 0 0 0 0 0 0 0 0 127 0" result="hardAlpha"/>
<feOffset dy="2"/>
<feGaussianBlur stdDeviation="1"/>
<feComposite in2="hardAlpha" operator="out"/>
<feColorMatrix type="matrix" values="0 0 0 0 0 0 0 0 0 0 0 0 0 0 0 0 0 0 0.25 0"/>
<feBlend mode="normal" in2="BackgroundImageFix" result="effect1_dropShadow_6451_77653"/>
<feBlend mode="normal" in="SourceGraphic" in2="effect1_dropShadow_6451_77653" result="shape"/>
</filter>
</defs>
</svg>