<svg width="114" height="24" viewBox="0 0 114 24" fill="none" xmlns="http://www.w3.org/2000/svg">
<path d="M0.937188 23V0.859999H10.0872C10.7872 0.859999 11.4972 0.949999 12.2172 1.13C12.9372 1.29 13.5972 1.62 14.1972 2.12C14.8172 2.62 15.3072 3.36 15.6672 4.34C16.0472 5.32 16.2372 6.63 16.2372 8.27C16.2372 9.91 16.0472 11.23 15.6672 12.23C15.2872 13.23 14.7872 14 14.1672 14.54C13.5672 15.06 12.9072 15.42 12.1872 15.62C11.4872 15.8 10.8072 15.89 10.1472 15.89C9.80719 15.89 9.37719 15.88 8.85719 15.86C8.35719 15.82 7.82719 15.78 7.26719 15.74C6.72719 15.68 6.21719 15.63 5.73719 15.59C5.27719 15.53 4.90719 15.48 4.62719 15.44V23H0.937188ZM4.62719 12.53H9.60719C10.1872 12.53 10.6972 12.4 11.1372 12.14C11.5772 11.86 11.9172 11.42 12.1572 10.82C12.3972 10.2 12.5172 9.36 12.5172 8.3C12.5172 7.26 12.3872 6.44 12.1272 5.84C11.8872 5.24 11.5572 4.82 11.1372 4.58C10.7372 4.32 10.2672 4.19 9.72719 4.19H4.62719V12.53ZM19.9942 23V0.859999H23.6842V10.43H33.0142V0.859999H36.7342V23H33.0142V13.76H23.6842V23H19.9942ZM46.4329 23C45.3929 23 44.4929 22.84 43.7329 22.52C42.9929 22.2 42.4329 21.68 42.0529 20.96C41.6729 20.22 41.4829 19.25 41.4829 18.05V0.859999H45.1729V17.45C45.1729 18.01 45.2729 18.46 45.4729 18.8C45.6729 19.12 45.9329 19.34 46.2529 19.46C46.5929 19.58 46.9629 19.64 47.3629 19.64H54.7129V23H46.4329Z" fill="#00A7EE"/>
<path d="M56.7283 23L63.9283 0.859999H68.6083L75.8083 23H71.9383L70.2283 17.75H62.2183L60.5383 23H56.7283ZM63.0883 14.42H69.3283L66.2083 4.04L63.0883 14.42ZM85.6682 23.18C85.1282 23.18 84.5482 23.16 83.9282 23.12C83.3282 23.1 82.7082 23.06 82.0682 23C81.4482 22.92 80.8582 22.85 80.2982 22.79C79.7382 22.71 79.2382 22.62 78.7982 22.52V19.61C79.3582 19.65 80.0082 19.69 80.7482 19.73C81.5082 19.77 82.2982 19.8 83.1182 19.82C83.9382 19.84 84.7282 19.85 85.4882 19.85C86.2882 19.85 86.9982 19.78 87.6182 19.64C88.2382 19.48 88.7182 19.21 89.0582 18.83C89.3982 18.45 89.5682 17.91 89.5682 17.21V16.16C89.5682 15.38 89.3482 14.78 88.9082 14.36C88.4682 13.94 87.8182 13.73 86.9582 13.73H84.8882C82.8682 13.73 81.3082 13.29 80.2082 12.41C79.1282 11.53 78.5882 10.02 78.5882 7.88V6.74C78.5882 4.6 79.1782 3.06 80.3582 2.12C81.5582 1.16 83.2682 0.679999 85.4882 0.679999C86.2482 0.679999 87.0282 0.72 87.8282 0.8C88.6482 0.859999 89.4282 0.939999 90.1682 1.04C90.9082 1.14 91.5382 1.25 92.0582 1.37V4.28C91.1782 4.22 90.1682 4.16 89.0282 4.1C87.9082 4.04 86.8682 4.01 85.9082 4.01C85.1482 4.01 84.4782 4.09 83.8982 4.25C83.3182 4.41 82.8782 4.7 82.5782 5.12C82.2782 5.52 82.1282 6.12 82.1282 6.92V7.64C82.1282 8.58 82.3782 9.24 82.8782 9.62C83.3982 10 84.1382 10.19 85.0982 10.19H87.4082C88.7082 10.19 89.7782 10.43 90.6182 10.91C91.4582 11.39 92.0782 12.05 92.4782 12.89C92.8982 13.71 93.1082 14.65 93.1082 15.71V17.12C93.1082 18.76 92.7882 20.02 92.1482 20.9C91.5082 21.78 90.6282 22.38 89.5082 22.7C88.3882 23.02 87.1082 23.18 85.6682 23.18ZM97.277 23V0.859999H100.967V10.31H104.237L109.337 0.859999H113.297L107.207 11.96L113.447 23H109.487L104.237 13.67H100.967V23H97.277Z" fill="#FAFAFA"/>
<path d="M0.937188 23H0.249688C0.249688 23.3797 0.557492 23.6875 0.937188 23.6875V23ZM0.937188 0.859999V0.172499C0.557492 0.172499 0.249688 0.480303 0.249688 0.859999H0.937188ZM12.2172 1.13L12.0504 1.79697C12.0563 1.79843 12.0622 1.79982 12.068 1.80113L12.2172 1.13ZM14.1972 2.12L13.757 2.64822L13.7656 2.65516L14.1972 2.12ZM15.6672 4.34L15.0217 4.5771L15.0262 4.58855L15.6672 4.34ZM15.6672 12.23L15.0245 11.9858L15.0245 11.9858L15.6672 12.23ZM14.1672 14.54L14.6175 15.0595L14.6187 15.0584L14.1672 14.54ZM12.1872 15.62L12.3584 16.286L12.3712 16.2824L12.1872 15.62ZM8.85719 15.86L8.80236 16.5453C8.81182 16.5461 8.82129 16.5466 8.83077 16.547L8.85719 15.86ZM7.26719 15.74L7.19127 16.4233C7.20023 16.4243 7.20921 16.4251 7.21821 16.4258L7.26719 15.74ZM5.73719 15.59L5.64827 16.2717C5.65885 16.2731 5.66946 16.2742 5.68009 16.2751L5.73719 15.59ZM4.62719 15.44L4.72441 14.7594C4.52712 14.7312 4.3273 14.79 4.17674 14.9206C4.02617 15.0512 3.93969 15.2407 3.93969 15.44H4.62719ZM4.62719 23V23.6875C5.00688 23.6875 5.31469 23.3797 5.31469 23H4.62719ZM4.62719 12.53H3.93969C3.93969 12.9097 4.24749 13.2175 4.62719 13.2175V12.53ZM11.1372 12.14L11.4869 12.7319C11.4935 12.728 11.4999 12.7241 11.5063 12.72L11.1372 12.14ZM12.1572 10.82L12.7956 11.0753L12.7983 11.0682L12.1572 10.82ZM12.1272 5.84L11.4889 6.09533C11.4913 6.10137 11.4938 6.10738 11.4964 6.11335L12.1272 5.84ZM11.1372 4.58L10.7625 5.15643C10.7735 5.16358 10.7847 5.17041 10.7961 5.17692L11.1372 4.58ZM4.62719 4.19V3.5025C4.24749 3.5025 3.93969 3.8103 3.93969 4.19H4.62719ZM1.62469 23V0.859999H0.249688V23H1.62469ZM0.937188 1.5475H10.0872V0.172499H0.937188V1.5475ZM10.0872 1.5475C10.7277 1.5475 11.3817 1.62979 12.0504 1.79697L12.3839 0.463026C11.6127 0.270211 10.8467 0.172499 10.0872 0.172499V1.5475ZM12.068 1.80113C12.6747 1.93595 13.2362 2.21407 13.7571 2.64815L14.6373 1.59185C13.9582 1.02592 13.1996 0.644051 12.3663 0.45887L12.068 1.80113ZM13.7656 2.65516C14.263 3.05627 14.6918 3.6785 15.0219 4.57706L16.3125 4.10294C15.9226 3.04149 15.3714 2.18373 14.6288 1.58484L13.7656 2.65516ZM15.0262 4.58855C15.3632 5.45761 15.5497 6.67269 15.5497 8.27H16.9247C16.9247 6.58731 16.7312 5.18239 16.3082 4.09145L15.0262 4.58855ZM15.5497 8.27C15.5497 9.86631 15.3634 11.0939 15.0245 11.9858L16.3099 12.4742C16.7309 11.3661 16.9247 9.95369 16.9247 8.27H15.5497ZM15.0245 11.9858C14.673 12.9109 14.2285 13.5749 13.7157 14.0216L14.6187 15.0584C15.3459 14.4251 15.9014 13.5491 16.3099 12.4742L15.0245 11.9858ZM13.7169 14.0205C13.1891 14.4779 12.6188 14.7866 12.0032 14.9576L12.3712 16.2824C13.1955 16.0534 13.9453 15.6421 14.6175 15.0595L13.7169 14.0205ZM12.016 14.9542C11.3667 15.1211 10.7442 15.2025 10.1472 15.2025V16.5775C10.8701 16.5775 11.6077 16.4789 12.3584 16.2858L12.016 14.9542ZM10.1472 15.2025C9.81931 15.2025 9.39889 15.1928 8.88361 15.173L8.83077 16.547C9.35549 16.5672 9.79507 16.5775 10.1472 16.5775V15.2025ZM8.91201 15.1747C8.40985 15.1345 7.87789 15.0944 7.31617 15.0542L7.21821 16.4258C7.77648 16.4656 8.30452 16.5055 8.80236 16.5453L8.91201 15.1747ZM7.34311 15.0567C6.79762 14.9961 6.2813 14.9455 5.79428 14.9049L5.68009 16.2751C6.15308 16.3145 6.65676 16.3639 7.19127 16.4233L7.34311 15.0567ZM5.82611 14.9083C5.36737 14.8484 5.00047 14.7988 4.72441 14.7594L4.52996 16.1206C4.81391 16.1612 5.187 16.2116 5.64827 16.2717L5.82611 14.9083ZM3.93969 15.44V23H5.31469V15.44H3.93969ZM4.62719 22.3125H0.937188V23.6875H4.62719V22.3125ZM4.62719 13.2175H9.60719V11.8425H4.62719V13.2175ZM9.60719 13.2175C10.2933 13.2175 10.9273 13.0626 11.4869 12.7319L10.7874 11.5481C10.467 11.7374 10.0811 11.8425 9.60719 11.8425V13.2175ZM11.5063 12.72C12.0943 12.3458 12.515 11.7767 12.7955 11.0753L11.5189 10.5647C11.3194 11.0633 11.0601 11.3742 10.7681 11.56L11.5063 12.72ZM12.7983 11.0682C13.0817 10.3361 13.2047 9.40044 13.2047 8.3H11.8297C11.8297 9.31956 11.7127 10.0639 11.516 10.5718L12.7983 11.0682ZM13.2047 8.3C13.2047 7.21519 13.071 6.28886 12.758 5.56664L11.4964 6.11335C11.7034 6.59114 11.8297 7.30481 11.8297 8.3H13.2047ZM12.7655 5.58467C12.4872 4.8889 12.0723 4.32251 11.4783 3.98308L10.7961 5.17692C11.0421 5.31749 11.2872 5.5911 11.4889 6.09533L12.7655 5.58467ZM11.5119 4.00357C10.9861 3.66182 10.3821 3.5025 9.72719 3.5025V4.8775C10.1523 4.8775 10.4883 4.97818 10.7625 5.15643L11.5119 4.00357ZM9.72719 3.5025H4.62719V4.8775H9.72719V3.5025ZM3.93969 4.19V12.53H5.31469V4.19H3.93969ZM19.9942 23H19.3067C19.3067 23.3797 19.6145 23.6875 19.9942 23.6875V23ZM19.9942 0.859999V0.172499C19.6145 0.172499 19.3067 0.480303 19.3067 0.859999H19.9942ZM23.6842 0.859999H24.3717C24.3717 0.480303 24.0639 0.172499 23.6842 0.172499V0.859999ZM23.6842 10.43H22.9967C22.9967 10.8097 23.3045 11.1175 23.6842 11.1175V10.43ZM33.0142 10.43V11.1175C33.3939 11.1175 33.7017 10.8097 33.7017 10.43H33.0142ZM33.0142 0.859999V0.172499C32.6345 0.172499 32.3267 0.480303 32.3267 0.859999H33.0142ZM36.7342 0.859999H37.4217C37.4217 0.480303 37.1139 0.172499 36.7342 0.172499V0.859999ZM36.7342 23V23.6875C37.1139 23.6875 37.4217 23.3797 37.4217 23H36.7342ZM33.0142 23H32.3267C32.3267 23.3797 32.6345 23.6875 33.0142 23.6875V23ZM33.0142 13.76H33.7017C33.7017 13.3803 33.3939 13.0725 33.0142 13.0725V13.76ZM23.6842 13.76V13.0725C23.3045 13.0725 22.9967 13.3803 22.9967 13.76H23.6842ZM23.6842 23V23.6875C24.0639 23.6875 24.3717 23.3797 24.3717 23H23.6842ZM20.6817 23V0.859999H19.3067V23H20.6817ZM19.9942 1.5475H23.6842V0.172499H19.9942V1.5475ZM22.9967 0.859999V10.43H24.3717V0.859999H22.9967ZM23.6842 11.1175H33.0142V9.7425H23.6842V11.1175ZM33.7017 10.43V0.859999H32.3267V10.43H33.7017ZM33.0142 1.5475H36.7342V0.172499H33.0142V1.5475ZM36.0467 0.859999V23H37.4217V0.859999H36.0467ZM36.7342 22.3125H33.0142V23.6875H36.7342V22.3125ZM33.7017 23V13.76H32.3267V23H33.7017ZM33.0142 13.0725H23.6842V14.4475H33.0142V13.0725ZM22.9967 13.76V23H24.3717V13.76H22.9967ZM23.6842 22.3125H19.9942V23.6875H23.6842V22.3125ZM43.7329 22.52L43.46 23.1511L43.4661 23.1536L43.7329 22.52ZM42.0529 20.96L41.4413 21.2741L41.4449 21.2809L42.0529 20.96ZM41.4829 0.859999V0.172499C41.1032 0.172499 40.7954 0.480303 40.7954 0.859999H41.4829ZM45.1729 0.859999H45.8604C45.8604 0.480303 45.5526 0.172499 45.1729 0.172499V0.859999ZM45.4729 18.8L44.8803 19.1486C44.8834 19.1539 44.8866 19.1592 44.8899 19.1644L45.4729 18.8ZM46.2529 19.46L46.0114 20.1038L46.0241 20.1083L46.2529 19.46ZM54.7129 19.64H55.4004C55.4004 19.2603 55.0926 18.9525 54.7129 18.9525V19.64ZM54.7129 23V23.6875C55.0926 23.6875 55.4004 23.3797 55.4004 23H54.7129ZM46.4329 22.3125C45.4615 22.3125 44.6563 22.1628 43.9997 21.8864L43.4661 23.1536C44.3295 23.5172 45.3243 23.6875 46.4329 23.6875V22.3125ZM44.0058 21.889C43.4111 21.6318 42.9686 21.222 42.6609 20.6391L41.4449 21.2809C41.8972 22.138 42.5747 22.7682 43.46 23.151L44.0058 21.889ZM42.6645 20.6459C42.3515 20.0365 42.1704 19.1858 42.1704 18.05H40.7954C40.7954 19.3142 40.9943 20.4035 41.4413 21.2741L42.6645 20.6459ZM42.1704 18.05V0.859999H40.7954V18.05H42.1704ZM41.4829 1.5475H45.1729V0.172499H41.4829V1.5475ZM44.4854 0.859999V17.45H45.8604V0.859999H44.4854ZM44.4854 17.45C44.4854 18.0839 44.5974 18.6676 44.8803 19.1486L46.0655 18.4514C45.9484 18.2524 45.8604 17.9361 45.8604 17.45H44.4854ZM44.8899 19.1644C45.1612 19.5984 45.5352 19.9251 46.0115 20.1037L46.4943 18.8163C46.3306 18.7549 46.1846 18.6416 46.0559 18.4356L44.8899 19.1644ZM46.0241 20.1083C46.4452 20.2569 46.8934 20.3275 47.3629 20.3275V18.9525C47.0324 18.9525 46.7406 18.9031 46.4817 18.8117L46.0241 20.1083ZM47.3629 20.3275H54.7129V18.9525H47.3629V20.3275ZM54.0254 19.64V23H55.4004V19.64H54.0254ZM54.7129 22.3125H46.4329V23.6875H54.7129V22.3125ZM56.7283 23L56.0745 22.7874C56.0064 22.9967 56.0427 23.2259 56.172 23.404C56.3014 23.5821 56.5082 23.6875 56.7283 23.6875V23ZM63.9283 0.859999V0.172499C63.6305 0.172499 63.3666 0.364202 63.2745 0.647382L63.9283 0.859999ZM68.6083 0.859999L69.2621 0.647382C69.17 0.364202 68.9061 0.172499 68.6083 0.172499V0.859999ZM75.8083 23V23.6875C76.0284 23.6875 76.2352 23.5821 76.3645 23.404C76.4939 23.2259 76.5302 22.9967 76.4621 22.7874L75.8083 23ZM71.9383 23L71.2846 23.2129C71.3768 23.4959 71.6406 23.6875 71.9383 23.6875V23ZM70.2283 17.75L70.882 17.5371C70.7898 17.2541 70.5259 17.0625 70.2283 17.0625V17.75ZM62.2183 17.75V17.0625C61.9193 17.0625 61.6546 17.2557 61.5635 17.5405L62.2183 17.75ZM60.5383 23V23.6875C60.8373 23.6875 61.102 23.4943 61.1931 23.2095L60.5383 23ZM63.0883 14.42L62.4299 14.2221C62.3673 14.4303 62.4069 14.6558 62.5366 14.8302C62.6663 15.0047 62.8709 15.1075 63.0883 15.1075V14.42ZM69.3283 14.42V15.1075C69.5457 15.1075 69.7503 15.0047 69.88 14.8302C70.0097 14.6558 70.0493 14.4303 69.9867 14.2221L69.3283 14.42ZM66.2083 4.04L66.8667 3.8421C66.7793 3.55147 66.5118 3.3525 66.2083 3.3525C65.9048 3.3525 65.6372 3.55147 65.5499 3.8421L66.2083 4.04ZM57.3821 23.2126L64.5821 1.07262L63.2745 0.647382L56.0745 22.7874L57.3821 23.2126ZM63.9283 1.5475H68.6083V0.172499H63.9283V1.5475ZM67.9545 1.07262L75.1545 23.2126L76.4621 22.7874L69.2621 0.647382L67.9545 1.07262ZM75.8083 22.3125H71.9383V23.6875H75.8083V22.3125ZM72.592 22.7871L70.882 17.5371L69.5746 17.9629L71.2846 23.2129L72.592 22.7871ZM70.2283 17.0625H62.2183V18.4375H70.2283V17.0625ZM61.5635 17.5405L59.8835 22.7905L61.1931 23.2095L62.8731 17.9595L61.5635 17.5405ZM60.5383 22.3125H56.7283V23.6875H60.5383V22.3125ZM63.0883 15.1075H69.3283V13.7325H63.0883V15.1075ZM69.9867 14.2221L66.8667 3.8421L65.5499 4.2379L68.6699 14.6179L69.9867 14.2221ZM65.5499 3.8421L62.4299 14.2221L63.7467 14.6179L66.8667 4.2379L65.5499 3.8421ZM83.9282 23.12L83.9725 22.4339C83.9654 22.4335 83.9582 22.4331 83.9511 22.4329L83.9282 23.12ZM82.0682 23L81.9802 23.6818C81.9881 23.6829 81.9961 23.6838 82.004 23.6845L82.0682 23ZM80.2982 22.79L80.201 23.4706C80.209 23.4717 80.217 23.4727 80.225 23.4736L80.2982 22.79ZM78.7982 22.52H78.1107C78.1107 22.841 78.3328 23.1193 78.6458 23.1904L78.7982 22.52ZM78.7982 19.61L78.8472 18.9242C78.6568 18.9106 78.4694 18.9768 78.3297 19.1068C78.19 19.2369 78.1107 19.4192 78.1107 19.61H78.7982ZM80.7482 19.73L80.7111 20.4165L80.7121 20.4165L80.7482 19.73ZM83.1182 19.82L83.1014 20.5073L83.1182 19.82ZM87.6182 19.64L87.7696 20.3106C87.7764 20.3091 87.7832 20.3074 87.79 20.3057L87.6182 19.64ZM89.0582 18.83L88.5459 18.3716L88.5459 18.3716L89.0582 18.83ZM88.9082 14.36L88.4335 14.8573L88.4335 14.8573L88.9082 14.36ZM80.2082 12.41L79.7739 12.943L79.7787 12.9468L80.2082 12.41ZM80.3582 2.12L80.7866 2.65774L80.7877 2.65685L80.3582 2.12ZM87.8282 0.8L87.7598 1.48409C87.7659 1.4847 87.7719 1.48522 87.778 1.48567L87.8282 0.8ZM90.1682 1.04L90.0761 1.72131L90.0761 1.72131L90.1682 1.04ZM92.0582 1.37H92.7457C92.7457 1.04986 92.5247 0.772093 92.2128 0.700106L92.0582 1.37ZM92.0582 4.28L92.0114 4.96591C92.2015 4.97886 92.3883 4.91241 92.5275 4.7824C92.6667 4.65238 92.7457 4.47046 92.7457 4.28H92.0582ZM89.0282 4.1L88.9914 4.78651L88.9921 4.78655L89.0282 4.1ZM83.8982 4.25L84.081 4.91275L84.081 4.91274L83.8982 4.25ZM82.5782 5.12L83.1282 5.5325C83.1314 5.52824 83.1345 5.52394 83.1376 5.5196L82.5782 5.12ZM82.8782 9.62L82.4621 10.1675L82.4726 10.1751L82.8782 9.62ZM90.6182 10.91L90.9593 10.3131L90.9593 10.3131L90.6182 10.91ZM92.4782 12.89L91.8575 13.1856C91.8603 13.1916 91.8633 13.1975 91.8663 13.2034L92.4782 12.89ZM92.1482 20.9L92.7042 21.3044L92.7042 21.3044L92.1482 20.9ZM89.5082 22.7L89.3193 22.039L89.3193 22.039L89.5082 22.7ZM85.6682 22.4925C85.145 22.4925 84.5799 22.4731 83.9725 22.4339L83.8839 23.8061C84.5165 23.8469 85.1114 23.8675 85.6682 23.8675V22.4925ZM83.9511 22.4329C83.3658 22.4134 82.7596 22.3743 82.1324 22.3155L82.004 23.6845C82.6568 23.7457 83.2906 23.7866 83.9053 23.8071L83.9511 22.4329ZM82.1562 22.3182C81.5318 22.2376 80.9369 22.167 80.3714 22.1064L80.225 23.4736C80.7795 23.533 81.3646 23.6024 81.9802 23.6818L82.1562 22.3182ZM80.3954 22.1094C79.8495 22.0314 79.3685 21.9446 78.9506 21.8496L78.6458 23.1904C79.108 23.2954 79.6269 23.3886 80.201 23.4706L80.3954 22.1094ZM79.4857 22.52V19.61H78.1107V22.52H79.4857ZM78.7492 20.2958C79.3142 20.3361 79.9683 20.3763 80.7111 20.4165L80.7853 19.0435C80.0481 19.0037 79.4022 18.9639 78.8472 18.9242L78.7492 20.2958ZM80.7121 20.4165C81.479 20.4569 82.2755 20.4871 83.1014 20.5073L83.135 19.1327C82.3209 19.1128 81.5374 19.0831 80.7843 19.0435L80.7121 20.4165ZM83.1014 20.5073C83.9266 20.5274 84.7222 20.5375 85.4882 20.5375V19.1625C84.7342 19.1625 83.9498 19.1526 83.135 19.1327L83.1014 20.5073ZM85.4882 20.5375C86.3267 20.5375 87.0891 20.4643 87.7696 20.3106L87.4668 18.9694C86.9073 19.0957 86.2497 19.1625 85.4882 19.1625V20.5375ZM87.79 20.3057C88.5079 20.1204 89.1193 19.7927 89.5706 19.2884L88.5459 18.3716C88.3171 18.6273 87.9686 18.8396 87.4464 18.9743L87.79 20.3057ZM89.5706 19.2884C90.0595 18.742 90.2557 18.0157 90.2557 17.21H88.8807C88.8807 17.8043 88.7369 18.158 88.5459 18.3716L89.5706 19.2884ZM90.2557 17.21V16.16H88.8807V17.21H90.2557ZM90.2557 16.16C90.2557 15.2481 89.9946 14.4466 89.3829 13.8627L88.4335 14.8573C88.7018 15.1134 88.8807 15.5119 88.8807 16.16H90.2557ZM89.3829 13.8627C88.7703 13.2779 87.9215 13.0425 86.9582 13.0425V14.4175C87.7149 14.4175 88.1662 14.6021 88.4335 14.8573L89.3829 13.8627ZM86.9582 13.0425H84.8882V14.4175H86.9582V13.0425ZM84.8882 13.0425C82.9583 13.0425 81.5726 12.6211 80.6377 11.8732L79.7787 12.9468C81.0438 13.9589 82.7781 14.4175 84.8882 14.4175V13.0425ZM80.6425 11.877C79.793 11.1849 79.2757 9.92542 79.2757 7.88H77.9007C77.9007 10.1146 78.4634 11.8751 79.7739 12.943L80.6425 11.877ZM79.2757 7.88V6.74H77.9007V7.88H79.2757ZM79.2757 6.74C79.2757 4.71749 79.8307 3.41916 80.7866 2.65773L79.9298 1.58226C78.5257 2.70084 77.9007 4.48251 77.9007 6.74H79.2757ZM80.7877 2.65685C81.8219 1.8295 83.3568 1.3675 85.4882 1.3675V-0.00750053C83.1796 -0.00750053 81.2945 0.490503 79.9287 1.58315L80.7877 2.65685ZM85.4882 1.3675C86.2241 1.3675 86.9812 1.40623 87.7598 1.48409L87.8966 0.115912C87.0752 0.0337682 86.2723 -0.00750053 85.4882 -0.00750053V1.3675ZM87.778 1.48567C88.5854 1.54474 89.3514 1.62336 90.0761 1.72131L90.2603 0.358691C89.505 0.256634 88.711 0.175256 87.8784 0.114333L87.778 1.48567ZM90.0761 1.72131C90.8027 1.81949 91.4106 1.92612 91.9036 2.03989L92.2128 0.700106C91.6658 0.573882 91.0137 0.460505 90.2603 0.358691L90.0761 1.72131ZM91.3707 1.37V4.28H92.7457V1.37H91.3707ZM92.105 3.59409C91.2206 3.53379 90.2069 3.47358 89.0643 3.41345L88.9921 4.78655C90.1295 4.84641 91.1358 4.90621 92.0114 4.96591L92.105 3.59409ZM89.065 3.41348C87.9347 3.35293 86.8823 3.3225 85.9082 3.3225V4.6975C86.8541 4.6975 87.8817 4.72706 88.9914 4.78651L89.065 3.41348ZM85.9082 3.3225C85.1018 3.3225 84.3682 3.40718 83.7154 3.58726L84.081 4.91274C84.5883 4.77282 85.1946 4.6975 85.9082 4.6975V3.3225ZM83.7154 3.58725C83.0098 3.7819 82.4252 4.15145 82.0188 4.7204L83.1376 5.5196C83.3313 5.24855 83.6266 5.03809 84.081 4.91275L83.7154 3.58725ZM82.0282 4.7075C81.5996 5.27896 81.4407 6.05389 81.4407 6.92H82.8157C82.8157 6.18611 82.9568 5.76104 83.1282 5.5325L82.0282 4.7075ZM81.4407 6.92V7.64H82.8157V6.92H81.4407ZM81.4407 7.64C81.4407 8.68438 81.7191 9.60258 82.4622 10.1674L83.2942 9.07264C83.0373 8.87742 82.8157 8.47562 82.8157 7.64H81.4407ZM82.4726 10.1751C83.1554 10.674 84.0603 10.8775 85.0982 10.8775V9.5025C84.2161 9.5025 83.6411 9.32596 83.2838 9.06492L82.4726 10.1751ZM85.0982 10.8775H87.4082V9.5025H85.0982V10.8775ZM87.4082 10.8775C88.6282 10.8775 89.5707 11.1032 90.2771 11.5069L90.9593 10.3131C89.9857 9.75675 88.7882 9.5025 87.4082 9.5025V10.8775ZM90.2771 11.5069C91.0005 11.9203 91.5203 12.4775 91.8575 13.1856L93.0989 12.5944C92.6361 11.6225 91.9159 10.8597 90.9593 10.3131L90.2771 11.5069ZM91.8663 13.2034C92.2296 13.9127 92.4207 14.7425 92.4207 15.71H93.7957C93.7957 14.5575 93.5668 13.5073 93.0901 12.5766L91.8663 13.2034ZM92.4207 15.71V17.12H93.7957V15.71H92.4207ZM92.4207 17.12C92.4207 18.6844 92.1133 19.7791 91.5922 20.4956L92.7042 21.3044C93.4631 20.2609 93.7957 18.8356 93.7957 17.12H92.4207ZM91.5922 20.4956C91.0491 21.2424 90.3029 21.7579 89.3193 22.039L89.6971 23.361C90.9536 23.0021 91.9673 22.3176 92.7042 21.3044L91.5922 20.4956ZM89.3193 22.039C88.2732 22.3378 87.0587 22.4925 85.6682 22.4925V23.8675C87.1577 23.8675 88.5032 23.7022 89.6971 23.361L89.3193 22.039ZM97.277 23H96.5895C96.5895 23.3797 96.8973 23.6875 97.277 23.6875V23ZM97.277 0.859999V0.172499C96.8973 0.172499 96.5895 0.480303 96.5895 0.859999H97.277ZM100.967 0.859999H101.655C101.655 0.480303 101.347 0.172499 100.967 0.172499V0.859999ZM100.967 10.31H100.28C100.28 10.6897 100.587 10.9975 100.967 10.9975V10.31ZM104.237 10.31V10.9975C104.49 10.9975 104.722 10.8589 104.842 10.6365L104.237 10.31ZM109.337 0.859999V0.172499C109.084 0.172499 108.852 0.311114 108.732 0.533483L109.337 0.859999ZM113.297 0.859999L113.9 1.19069C114.017 0.977698 114.012 0.718843 113.889 0.509782C113.765 0.300721 113.54 0.172499 113.297 0.172499V0.859999ZM107.207 11.96L106.604 11.6293C106.49 11.838 106.491 12.0911 106.609 12.2983L107.207 11.96ZM113.447 23V23.6875C113.692 23.6875 113.918 23.5576 114.041 23.3465C114.164 23.1353 114.166 22.8746 114.046 22.6617L113.447 23ZM109.487 23L108.888 23.3371C109.01 23.5536 109.239 23.6875 109.487 23.6875V23ZM104.237 13.67L104.836 13.3329C104.714 13.1164 104.485 12.9825 104.237 12.9825V13.67ZM100.967 13.67V12.9825C100.587 12.9825 100.28 13.2903 100.28 13.67H100.967ZM100.967 23V23.6875C101.347 23.6875 101.655 23.3797 101.655 23H100.967ZM97.9645 23V0.859999H96.5895V23H97.9645ZM97.277 1.5475H100.967V0.172499H97.277V1.5475ZM100.28 0.859999V10.31H101.655V0.859999H100.28ZM100.967 10.9975H104.237V9.6225H100.967V10.9975ZM104.842 10.6365L109.942 1.18652L108.732 0.533483L103.632 9.98348L104.842 10.6365ZM109.337 1.5475H113.297V0.172499H109.337V1.5475ZM112.694 0.529305L106.604 11.6293L107.81 12.2907L113.9 1.19069L112.694 0.529305ZM106.609 12.2983L112.849 23.3383L114.046 22.6617L107.806 11.6217L106.609 12.2983ZM113.447 22.3125H109.487V23.6875H113.447V22.3125ZM110.086 22.6629L104.836 13.3329L103.638 14.0071L108.888 23.3371L110.086 22.6629ZM104.237 12.9825H100.967V14.3575H104.237V12.9825ZM100.28 13.67V23H101.655V13.67H100.28ZM100.967 22.3125H97.277V23.6875H100.967V22.3125Z" fill="#00A7EE"/>
</svg>
