<svg width="189" height="64" viewBox="0 0 189 64" fill="none" xmlns="http://www.w3.org/2000/svg">
<g filter="url(#filter0_d_8105_140430)">
<rect x="2" width="185" height="60" rx="30" fill="#5286E9" shape-rendering="crispEdges"/>
<path d="M50.0688 34.333C49.6679 32.1291 48.7494 30.1161 47.836 28.289C45.0907 22.7095 41.7872 17.6461 38.5344 12.9595L38.1285 12.304C37.5703 11.5092 36.9055 11.0859 36.1443 11.0859C35.0279 11.0859 34.3175 12.0202 34.1145 12.304C34.1145 12.304 34.1145 12.304 34.1145 12.3505L33.4041 13.3828C32.1355 15.2564 30.811 17.228 29.5373 19.1945C27.5532 22.2862 25.0616 26.4154 23.2348 30.8181C22.6259 32.2736 22.0677 33.724 22.0169 35.3189C21.814 39.4428 23.4378 42.9113 26.7971 45.6314C29.3902 47.7373 32.6937 48.9141 36.0987 48.9141C41.0818 48.9141 45.6083 46.5708 48.1963 42.5861C49.9165 39.959 50.5762 37.1408 50.0688 34.333ZM46.5623 41.6932C44.3244 45.1617 40.412 47.1747 36.0885 47.1747C33.1453 47.1747 30.2427 46.1888 28.0099 44.3617C25.1073 42.0184 23.6864 38.9731 23.8438 35.4066C23.8894 34.0956 24.3512 32.831 24.9601 31.4684C26.7413 27.1586 29.1821 23.1224 31.1104 20.0771C32.3334 18.1571 33.6528 16.1854 34.9721 14.3118L35.6318 13.326C35.6318 13.2795 35.6826 13.2795 35.6826 13.2331C35.7841 13.0937 35.987 12.8563 36.0885 12.8099C36.0885 12.8099 36.2408 12.8563 36.4945 13.2331L36.9004 13.8421C40.0517 18.4358 43.3603 23.4527 46.0498 28.9393C46.9124 30.72 47.7751 32.5936 48.1303 34.5653C48.6479 37.0015 48.0897 39.3912 46.5623 41.6932ZM37.007 42.7203C37.007 43.19 36.601 43.5668 36.0885 43.5668C31.4657 43.5668 27.7562 40.0983 27.7562 35.8763C27.7562 35.4066 28.1621 35.035 28.6696 35.035C29.1821 35.035 29.5881 35.4066 29.5881 35.8763C29.6388 39.159 32.5364 41.8326 36.0885 41.8326C36.601 41.8326 37.007 42.2558 37.007 42.7203Z" fill="#FAFAFA" stroke="#FAFAFA" stroke-width="0.538463"/>
<path d="M62.6664 19.836H65.4384L74.8464 34.592V19.836H78.3184V40.5H75.5464L66.1384 25.744V40.5H62.6664V19.836ZM88.4899 40.64C86.8285 40.64 85.5219 40.416 84.5699 39.968C83.6365 39.5013 82.9552 38.7267 82.5259 37.644C82.1152 36.5427 81.9099 34.9933 81.9099 32.996C81.9099 30.9613 82.1059 29.3933 82.4979 28.292C82.9085 27.1907 83.5712 26.416 84.4859 25.968C85.4192 25.52 86.7259 25.296 88.4059 25.296C89.8805 25.296 91.0472 25.4453 91.9059 25.744C92.7645 26.0427 93.3899 26.5653 93.7819 27.312C94.1739 28.04 94.3699 29.0667 94.3699 30.392C94.3699 31.7733 93.9685 32.7627 93.1659 33.36C92.3819 33.9573 91.2339 34.256 89.7219 34.256H85.3259C85.3632 35.2267 85.4939 35.9827 85.7179 36.524C85.9419 37.0467 86.3339 37.4293 86.8939 37.672C87.4725 37.9147 88.3032 38.036 89.3859 38.036H93.9219V40.08C92.9139 40.2667 92.0085 40.4067 91.2059 40.5C90.4219 40.5933 89.5165 40.64 88.4899 40.64ZM89.3859 32.156C90.0579 32.156 90.5432 32.0253 90.8419 31.764C91.1405 31.5027 91.2899 31.0453 91.2899 30.392C91.2899 29.4213 91.0752 28.7493 90.6459 28.376C90.2165 28.0027 89.4699 27.816 88.4059 27.816C87.6032 27.816 86.9779 27.9467 86.5299 28.208C86.1005 28.4507 85.7832 28.88 85.5779 29.496C85.3912 30.112 85.2979 30.9987 85.2979 32.156H89.3859ZM101.12 40.668C99.9809 40.668 99.0569 40.332 98.3476 39.66C97.6569 38.9693 97.3116 38.0453 97.3116 36.888V35.628C97.3116 34.4333 97.7129 33.4813 98.5156 32.772C99.3369 32.0627 100.55 31.708 102.156 31.708H106.44V30.392C106.44 29.832 106.346 29.384 106.16 29.048C105.973 28.712 105.628 28.46 105.124 28.292C104.62 28.1053 103.892 28.012 102.94 28.012H98.4036V25.996C100.102 25.5293 102.062 25.296 104.284 25.296C106.188 25.296 107.597 25.6693 108.512 26.416C109.445 27.1627 109.912 28.4133 109.912 30.168V40.5H107.196L106.608 38.876C106.421 39.044 106.038 39.2773 105.46 39.576C104.881 39.856 104.2 40.108 103.416 40.332C102.65 40.556 101.885 40.668 101.12 40.668ZM102.8 38.232C103.322 38.232 104.013 38.1013 104.872 37.84C105.749 37.56 106.272 37.3733 106.44 37.28V33.36L103.192 33.528C101.568 33.6587 100.756 34.3773 100.756 35.684V36.3C100.756 36.972 100.942 37.4573 101.316 37.756C101.708 38.0547 102.202 38.2133 102.8 38.232ZM113.911 25.492H116.599L117.383 27.9C118.037 27.0787 118.727 26.444 119.455 25.996C120.202 25.5293 121.042 25.296 121.975 25.296C122.423 25.296 122.843 25.352 123.235 25.464V28.992C122.526 28.9173 121.957 28.88 121.527 28.88C120.65 28.88 119.894 29.0293 119.259 29.328C118.625 29.608 117.999 30.0653 117.383 30.7V40.5H113.911V25.492ZM151.87 40.5L150.134 25.716L146.046 40.5H142.798L138.682 25.8L137.03 40.5H133.698L136.078 19.836H139.438L144.45 36.384L149.434 19.836H152.794L155.23 40.5H151.87ZM164.763 40.64C163.101 40.64 161.795 40.416 160.843 39.968C159.909 39.5013 159.228 38.7267 158.799 37.644C158.388 36.5427 158.183 34.9933 158.183 32.996C158.183 30.9613 158.379 29.3933 158.771 28.292C159.181 27.1907 159.844 26.416 160.759 25.968C161.692 25.52 162.999 25.296 164.679 25.296C166.153 25.296 167.32 25.4453 168.179 25.744C169.037 26.0427 169.663 26.5653 170.055 27.312C170.447 28.04 170.643 29.0667 170.643 30.392C170.643 31.7733 170.241 32.7627 169.439 33.36C168.655 33.9573 167.507 34.256 165.995 34.256H161.599C161.636 35.2267 161.767 35.9827 161.991 36.524C162.215 37.0467 162.607 37.4293 163.167 37.672C163.745 37.9147 164.576 38.036 165.659 38.036H170.195V40.08C169.187 40.2667 168.281 40.4067 167.479 40.5C166.695 40.5933 165.789 40.64 164.763 40.64ZM165.659 32.156C166.331 32.156 166.816 32.0253 167.115 31.764C167.413 31.5027 167.563 31.0453 167.563 30.392C167.563 29.4213 167.348 28.7493 166.919 28.376C166.489 28.0027 165.743 27.816 164.679 27.816C163.876 27.816 163.251 27.9467 162.803 28.208C162.373 28.4507 162.056 28.88 161.851 29.496C161.664 30.112 161.571 30.9987 161.571 32.156H165.659Z" fill="white"/>
</g>
<defs>
<filter id="filter0_d_8105_140430" x="0" y="0" width="189" height="64" filterUnits="userSpaceOnUse" color-interpolation-filters="sRGB">
<feFlood flood-opacity="0" result="BackgroundImageFix"/>
<feColorMatrix in="SourceAlpha" type="matrix" values="0 0 0 0 0 0 0 0 0 0 0 0 0 0 0 0 0 0 127 0" result="hardAlpha"/>
<feOffset dy="2"/>
<feGaussianBlur stdDeviation="1"/>
<feComposite in2="hardAlpha" operator="out"/>
<feColorMatrix type="matrix" values="0 0 0 0 0 0 0 0 0 0 0 0 0 0 0 0 0 0 0.25 0"/>
<feBlend mode="normal" in2="BackgroundImageFix" result="effect1_dropShadow_8105_140430"/>
<feBlend mode="normal" in="SourceGraphic" in2="effect1_dropShadow_8105_140430" result="shape"/>
</filter>
</defs>
</svg>
