<svg width="154" height="39" viewBox="0 0 154 39" fill="none" xmlns="http://www.w3.org/2000/svg">
<path d="M23.2362 30.1318C22.9886 28.8318 22.4409 27.6479 21.8975 26.5739C20.2634 23.2938 18.3078 20.3224 16.3841 17.5733L16.1436 17.1885C15.8135 16.7222 15.4239 16.4763 14.9808 16.4812C14.331 16.4883 13.9235 17.045 13.8071 17.214C13.8071 17.214 13.8071 17.214 13.8074 17.2415L13.4006 17.8561C12.6742 18.9715 11.916 20.1452 11.1873 21.3155C10.0524 23.1554 8.62871 25.6116 7.59379 28.2253C7.24873 29.0894 6.93318 29.9501 6.91395 30.893C6.82243 33.3317 7.79005 35.3712 9.76304 36.9574C11.286 38.1855 13.2166 38.86 15.1986 38.8383C18.0992 38.8065 20.7188 37.3928 22.1995 35.0214C23.1839 33.4577 23.5497 31.788 23.2362 30.1318ZM21.2426 34.5041C19.9624 36.5682 17.698 37.7828 15.1814 37.8103C13.4682 37.8291 11.7723 37.2649 10.4608 36.1993C8.75609 34.8329 7.90935 33.0421 7.97788 30.9333C7.996 30.1582 8.25662 29.4079 8.60228 28.5987C9.61122 26.0402 11.0059 23.6392 12.1087 21.8271C12.8082 20.6846 13.5634 19.5109 14.3193 18.3952L14.6969 17.8083C14.6966 17.7809 14.7262 17.7806 14.7259 17.7531C14.784 17.6701 14.9007 17.5285 14.9594 17.5004C14.9594 17.5004 15.0483 17.5269 15.1985 17.7479L15.4387 18.1053C17.3027 20.8002 19.261 23.7441 20.8619 26.9696C21.3756 28.0165 21.8898 29.1184 22.1093 30.2814C22.4263 31.7179 22.1169 33.1338 21.2426 34.5041ZM15.6873 35.1719C15.6903 35.4495 15.4564 35.6748 15.1581 35.6781C12.4672 35.7075 10.2856 33.6812 10.2583 31.1859C10.2553 30.9084 10.4892 30.6861 10.7845 30.6829C11.0829 30.6796 11.3216 30.8967 11.3246 31.1743C11.3754 33.114 13.0792 34.6757 15.1469 34.6531C15.4452 34.6499 15.6843 34.8974 15.6873 35.1719Z" fill="#10B6FF"/>
<path d="M16.1532 3.4504C15.7279 3.45505 15.3784 3.10193 15.3736 2.66267C15.3688 2.2234 15.7105 1.86272 16.1358 1.85806L20.8076 1.4378C21.3807 1.43153 21.8531 1.94805 21.8601 2.5917C21.8671 3.23535 21.4062 3.76208 20.8331 3.76835L16.1532 3.4504Z" fill="#10B6FF"/>
<path d="M13.4716 1.88722C13.8969 1.88256 14.2464 2.23569 14.2512 2.67495C14.256 3.11422 13.9143 3.4749 13.489 3.47956L8.81716 3.89982C8.24413 3.90609 7.77172 3.38956 7.76469 2.74592C7.75765 2.10227 8.2157 1.57557 8.79169 1.56927L13.4716 1.88722Z" fill="#10B6FF"/>
<path d="M16.6525 2.64862C16.6616 3.4814 16.0161 4.16269 15.2098 4.17151L14.4477 4.17985C13.6413 4.18867 12.9811 3.52166 12.972 2.68889C12.9629 1.85611 13.6084 1.17482 14.4147 1.166L15.1768 1.15766C15.9832 1.14884 16.6434 1.81585 16.6525 2.64862Z" fill="#10B6FF"/>
<path d="M17.0875 7.04015C17.0962 7.83632 16.1048 8.49089 14.876 8.50433C13.6473 8.51778 12.6418 7.882 12.6331 7.08888L12.6227 6.13104C12.614 5.33487 13.6053 4.6803 14.8341 4.66686C16.0629 4.65341 17.0683 5.28919 17.077 6.08231L17.0875 7.04015Z" fill="#10B6FF"/>
<path d="M26.2436 11.4796C26.2171 9.06055 24.2964 6.85446 21.9541 6.88009L7.87923 7.03408C5.53982 7.05967 3.6649 9.31033 3.6913 11.7263C1.77724 11.7472 0.132825 13.4645 0.155763 15.5632L0.183602 18.1104L0.225144 21.9112L3.687 21.8734C5.5981 21.8525 7.13024 20.1333 7.10731 18.0346L7.10531 17.8516C7.08553 16.0427 8.49027 14.5599 10.2419 14.5407L12.5665 14.5153C12.5665 14.5153 13.3797 13.2403 14.9246 13.2234C16.4694 13.2065 17.3103 14.4634 17.3103 14.4634L19.6202 14.4381C21.3718 14.4189 22.8086 15.8707 22.8284 17.6796L22.8481 17.8624C22.871 19.9611 24.4404 21.6463 26.3515 21.6254L29.8133 21.5875L29.7718 17.7897L29.744 15.2426C29.7269 13.1408 28.1576 11.4586 26.2436 11.4796Z" fill="#10B6FF"/>
<path d="M40.4372 30.5V8.36H49.5872C50.2872 8.36 50.9972 8.45 51.7172 8.63C52.4372 8.79 53.0972 9.12 53.6972 9.62C54.3172 10.12 54.8072 10.86 55.1672 11.84C55.5472 12.82 55.7372 14.13 55.7372 15.77C55.7372 17.41 55.5472 18.73 55.1672 19.73C54.7872 20.73 54.2872 21.5 53.6672 22.04C53.0672 22.56 52.4072 22.92 51.6872 23.12C50.9872 23.3 50.3072 23.39 49.6472 23.39C49.3072 23.39 48.8772 23.38 48.3572 23.36C47.8572 23.32 47.3272 23.28 46.7672 23.24C46.2272 23.18 45.7172 23.13 45.2372 23.09C44.7772 23.03 44.4072 22.98 44.1272 22.94V30.5H40.4372ZM44.1272 20.03H49.1072C49.6872 20.03 50.1972 19.9 50.6372 19.64C51.0772 19.36 51.4172 18.92 51.6572 18.32C51.8972 17.7 52.0172 16.86 52.0172 15.8C52.0172 14.76 51.8872 13.94 51.6272 13.34C51.3872 12.74 51.0572 12.32 50.6372 12.08C50.2372 11.82 49.7672 11.69 49.2272 11.69H44.1272V20.03ZM59.4942 30.5V8.36H63.1842V17.93H72.5142V8.36H76.2342V30.5H72.5142V21.26H63.1842V30.5H59.4942ZM85.9329 30.5C84.8929 30.5 83.9929 30.34 83.2329 30.02C82.4929 29.7 81.9329 29.18 81.5529 28.46C81.1729 27.72 80.9829 26.75 80.9829 25.55V8.36H84.6729V24.95C84.6729 25.51 84.7729 25.96 84.9729 26.3C85.1729 26.62 85.4329 26.84 85.7529 26.96C86.0929 27.08 86.4629 27.14 86.8629 27.14H94.2129V30.5H85.9329Z" fill="#10B6FF"/>
<path d="M96.2283 30.5L103.428 8.36H108.108L115.308 30.5H111.438L109.728 25.25H101.718L100.038 30.5H96.2283ZM102.588 21.92H108.828L105.708 11.54L102.588 21.92ZM125.168 30.68C124.628 30.68 124.048 30.66 123.428 30.62C122.828 30.6 122.208 30.56 121.568 30.5C120.948 30.42 120.358 30.35 119.798 30.29C119.238 30.21 118.738 30.12 118.298 30.02V27.11C118.858 27.15 119.508 27.19 120.248 27.23C121.008 27.27 121.798 27.3 122.618 27.32C123.438 27.34 124.228 27.35 124.988 27.35C125.788 27.35 126.498 27.28 127.118 27.14C127.738 26.98 128.218 26.71 128.558 26.33C128.898 25.95 129.068 25.41 129.068 24.71V23.66C129.068 22.88 128.848 22.28 128.408 21.86C127.968 21.44 127.318 21.23 126.458 21.23H124.388C122.368 21.23 120.808 20.79 119.708 19.91C118.628 19.03 118.088 17.52 118.088 15.38V14.24C118.088 12.1 118.678 10.56 119.858 9.62C121.058 8.66 122.768 8.18 124.988 8.18C125.748 8.18 126.528 8.22 127.328 8.3C128.148 8.36 128.928 8.44 129.668 8.54C130.408 8.64 131.038 8.75 131.558 8.87V11.78C130.678 11.72 129.668 11.66 128.528 11.6C127.408 11.54 126.368 11.51 125.408 11.51C124.648 11.51 123.978 11.59 123.398 11.75C122.818 11.91 122.378 12.2 122.078 12.62C121.778 13.02 121.628 13.62 121.628 14.42V15.14C121.628 16.08 121.878 16.74 122.378 17.12C122.898 17.5 123.638 17.69 124.598 17.69H126.908C128.208 17.69 129.278 17.93 130.118 18.41C130.958 18.89 131.578 19.55 131.978 20.39C132.398 21.21 132.608 22.15 132.608 23.21V24.62C132.608 26.26 132.288 27.52 131.648 28.4C131.008 29.28 130.128 29.88 129.008 30.2C127.888 30.52 126.608 30.68 125.168 30.68ZM136.777 30.5V8.36H140.467V17.81H143.737L148.837 8.36H152.797L146.707 19.46L152.947 30.5H148.987L143.737 21.17H140.467V30.5H136.777Z" fill="#FAFAFA"/>
<path d="M40.4372 30.5H39.7497C39.7497 30.8797 40.0575 31.1875 40.4372 31.1875V30.5ZM40.4372 8.36V7.6725C40.0575 7.6725 39.7497 7.9803 39.7497 8.36H40.4372ZM51.7172 8.63L51.5504 9.29697C51.5563 9.29843 51.5622 9.29982 51.568 9.30113L51.7172 8.63ZM53.6972 9.62L53.257 10.1482L53.2656 10.1552L53.6972 9.62ZM55.1672 11.84L54.5217 12.0771L54.5262 12.0885L55.1672 11.84ZM55.1672 19.73L54.5245 19.4858V19.4858L55.1672 19.73ZM53.6672 22.04L54.1175 22.5595L54.1187 22.5584L53.6672 22.04ZM51.6872 23.12L51.8584 23.786L51.8712 23.7824L51.6872 23.12ZM48.3572 23.36L48.3024 24.0453C48.3118 24.0461 48.3213 24.0466 48.3308 24.047L48.3572 23.36ZM46.7672 23.24L46.6913 23.9233C46.7002 23.9243 46.7092 23.9251 46.7182 23.9258L46.7672 23.24ZM45.2372 23.09L45.1483 23.7717C45.1588 23.7731 45.1695 23.7742 45.1801 23.7751L45.2372 23.09ZM44.1272 22.94L44.2244 22.2594C44.0271 22.2312 43.8273 22.29 43.6767 22.4206C43.5262 22.5512 43.4397 22.7407 43.4397 22.94H44.1272ZM44.1272 30.5V31.1875C44.5069 31.1875 44.8147 30.8797 44.8147 30.5H44.1272ZM44.1272 20.03H43.4397C43.4397 20.4097 43.7475 20.7175 44.1272 20.7175V20.03ZM50.6372 19.64L50.9869 20.2319C50.9935 20.228 50.9999 20.2241 51.0063 20.22L50.6372 19.64ZM51.6572 18.32L52.2956 18.5753L52.2983 18.5682L51.6572 18.32ZM51.6272 13.34L50.9889 13.5953C50.9913 13.6014 50.9938 13.6074 50.9964 13.6134L51.6272 13.34ZM50.6372 12.08L50.2625 12.6564C50.2735 12.6636 50.2847 12.6704 50.2961 12.6769L50.6372 12.08ZM44.1272 11.69V11.0025C43.7475 11.0025 43.4397 11.3103 43.4397 11.69H44.1272ZM41.1247 30.5V8.36H39.7497V30.5H41.1247ZM40.4372 9.0475H49.5872V7.6725H40.4372V9.0475ZM49.5872 9.0475C50.2277 9.0475 50.8817 9.12979 51.5504 9.29697L51.8839 7.96303C51.1127 7.77021 50.3467 7.6725 49.5872 7.6725V9.0475ZM51.568 9.30113C52.1747 9.43595 52.7362 9.71407 53.2571 10.1482L54.1373 9.09185C53.4582 8.52592 52.6996 8.14405 51.8663 7.95887L51.568 9.30113ZM53.2656 10.1552C53.763 10.5563 54.1918 11.1785 54.5219 12.0771L55.8125 11.6029C55.4226 10.5415 54.8714 9.68373 54.1288 9.08484L53.2656 10.1552ZM54.5262 12.0885C54.8632 12.9576 55.0497 14.1727 55.0497 15.77H56.4247C56.4247 14.0873 56.2312 12.6824 55.8082 11.5914L54.5262 12.0885ZM55.0497 15.77C55.0497 17.3663 54.8634 18.5939 54.5245 19.4858L55.8099 19.9742C56.2309 18.8661 56.4247 17.4537 56.4247 15.77H55.0497ZM54.5245 19.4858C54.173 20.4109 53.7285 21.0749 53.2157 21.5216L54.1187 22.5584C54.8459 21.9251 55.4014 21.0491 55.8099 19.9742L54.5245 19.4858ZM53.2169 21.5205C52.6891 21.9779 52.1188 22.2866 51.5032 22.4576L51.8712 23.7824C52.6955 23.5534 53.4453 23.1421 54.1175 22.5595L53.2169 21.5205ZM51.516 22.4542C50.8667 22.6211 50.2442 22.7025 49.6472 22.7025V24.0775C50.3701 24.0775 51.1077 23.9789 51.8584 23.7858L51.516 22.4542ZM49.6472 22.7025C49.3193 22.7025 48.8989 22.6928 48.3836 22.673L48.3308 24.047C48.8555 24.0672 49.2951 24.0775 49.6472 24.0775V22.7025ZM48.412 22.6747C47.9099 22.6345 47.3779 22.5944 46.8162 22.5542L46.7182 23.9258C47.2765 23.9656 47.8045 24.0055 48.3024 24.0453L48.412 22.6747ZM46.8431 22.5567C46.2976 22.4961 45.7813 22.4455 45.2943 22.4049L45.1801 23.7751C45.6531 23.8145 46.1568 23.8639 46.6913 23.9233L46.8431 22.5567ZM45.3261 22.4083C44.8674 22.3484 44.5005 22.2988 44.2244 22.2594L44.03 23.6206C44.3139 23.6612 44.687 23.7116 45.1483 23.7717L45.3261 22.4083ZM43.4397 22.94V30.5H44.8147V22.94H43.4397ZM44.1272 29.8125H40.4372V31.1875H44.1272V29.8125ZM44.1272 20.7175H49.1072V19.3425H44.1272V20.7175ZM49.1072 20.7175C49.7933 20.7175 50.4273 20.5626 50.9869 20.2319L50.2874 19.0481C49.967 19.2374 49.5811 19.3425 49.1072 19.3425V20.7175ZM51.0063 20.22C51.5943 19.8458 52.015 19.2767 52.2955 18.5753L51.0189 18.0647C50.8194 18.5633 50.5601 18.8742 50.2681 19.06L51.0063 20.22ZM52.2983 18.5682C52.5817 17.8361 52.7047 16.9004 52.7047 15.8H51.3297C51.3297 16.8196 51.2127 17.5639 51.016 18.0718L52.2983 18.5682ZM52.7047 15.8C52.7047 14.7152 52.571 13.7889 52.258 13.0666L50.9964 13.6134C51.2034 14.0911 51.3297 14.8048 51.3297 15.8H52.7047ZM52.2655 13.0847C51.9872 12.3889 51.5723 11.8225 50.9783 11.4831L50.2961 12.6769C50.5421 12.8175 50.7872 13.0911 50.9889 13.5953L52.2655 13.0847ZM51.0119 11.5036C50.4861 11.1618 49.8821 11.0025 49.2272 11.0025V12.3775C49.6523 12.3775 49.9883 12.4782 50.2625 12.6564L51.0119 11.5036ZM49.2272 11.0025H44.1272V12.3775H49.2272V11.0025ZM43.4397 11.69V20.03H44.8147V11.69H43.4397ZM59.4942 30.5H58.8067C58.8067 30.8797 59.1145 31.1875 59.4942 31.1875V30.5ZM59.4942 8.36V7.6725C59.1145 7.6725 58.8067 7.9803 58.8067 8.36H59.4942ZM63.1842 8.36H63.8717C63.8717 7.9803 63.5639 7.6725 63.1842 7.6725V8.36ZM63.1842 17.93H62.4967C62.4967 18.3097 62.8045 18.6175 63.1842 18.6175V17.93ZM72.5142 17.93V18.6175C72.8939 18.6175 73.2017 18.3097 73.2017 17.93H72.5142ZM72.5142 8.36V7.6725C72.1345 7.6725 71.8267 7.9803 71.8267 8.36H72.5142ZM76.2342 8.36H76.9217C76.9217 7.9803 76.6139 7.6725 76.2342 7.6725V8.36ZM76.2342 30.5V31.1875C76.6139 31.1875 76.9217 30.8797 76.9217 30.5H76.2342ZM72.5142 30.5H71.8267C71.8267 30.8797 72.1345 31.1875 72.5142 31.1875V30.5ZM72.5142 21.26H73.2017C73.2017 20.8803 72.8939 20.5725 72.5142 20.5725V21.26ZM63.1842 21.26V20.5725C62.8045 20.5725 62.4967 20.8803 62.4967 21.26H63.1842ZM63.1842 30.5V31.1875C63.5639 31.1875 63.8717 30.8797 63.8717 30.5H63.1842ZM60.1817 30.5V8.36H58.8067V30.5H60.1817ZM59.4942 9.0475H63.1842V7.6725H59.4942V9.0475ZM62.4967 8.36V17.93H63.8717V8.36H62.4967ZM63.1842 18.6175H72.5142V17.2425H63.1842V18.6175ZM73.2017 17.93V8.36H71.8267V17.93H73.2017ZM72.5142 9.0475H76.2342V7.6725H72.5142V9.0475ZM75.5467 8.36V30.5H76.9217V8.36H75.5467ZM76.2342 29.8125H72.5142V31.1875H76.2342V29.8125ZM73.2017 30.5V21.26H71.8267V30.5H73.2017ZM72.5142 20.5725H63.1842V21.9475H72.5142V20.5725ZM62.4967 21.26V30.5H63.8717V21.26H62.4967ZM63.1842 29.8125H59.4942V31.1875H63.1842V29.8125ZM83.2329 30.02L82.96 30.6511L82.9661 30.6536L83.2329 30.02ZM81.5529 28.46L80.9413 28.7741L80.9449 28.7809L81.5529 28.46ZM80.9829 8.36V7.6725C80.6032 7.6725 80.2954 7.9803 80.2954 8.36H80.9829ZM84.6729 8.36H85.3604C85.3604 7.9803 85.0526 7.6725 84.6729 7.6725V8.36ZM84.9729 26.3L84.3803 26.6486C84.3834 26.6539 84.3866 26.6592 84.3899 26.6644L84.9729 26.3ZM85.7529 26.96L85.5114 27.6038L85.5241 27.6083L85.7529 26.96ZM94.2129 27.14H94.9004C94.9004 26.7603 94.5926 26.4525 94.2129 26.4525V27.14ZM94.2129 30.5V31.1875C94.5926 31.1875 94.9004 30.8797 94.9004 30.5H94.2129ZM85.9329 29.8125C84.9615 29.8125 84.1563 29.6628 83.4997 29.3864L82.9661 30.6536C83.8295 31.0172 84.8243 31.1875 85.9329 31.1875V29.8125ZM83.5058 29.389C82.9111 29.1318 82.4686 28.722 82.1609 28.1391L80.9449 28.7809C81.3972 29.638 82.0747 30.2682 82.96 30.651L83.5058 29.389ZM82.1645 28.1459C81.8515 27.5365 81.6704 26.6858 81.6704 25.55H80.2954C80.2954 26.8142 80.4943 27.9035 80.9413 28.7741L82.1645 28.1459ZM81.6704 25.55V8.36H80.2954V25.55H81.6704ZM80.9829 9.0475H84.6729V7.6725H80.9829V9.0475ZM83.9854 8.36V24.95H85.3604V8.36H83.9854ZM83.9854 24.95C83.9854 25.5839 84.0974 26.1676 84.3803 26.6486L85.5655 25.9514C85.4484 25.7524 85.3604 25.4361 85.3604 24.95H83.9854ZM84.3899 26.6644C84.6612 27.0984 85.0352 27.4251 85.5115 27.6037L85.9943 26.3163C85.8306 26.2549 85.6846 26.1416 85.5559 25.9356L84.3899 26.6644ZM85.5241 27.6083C85.9452 27.7569 86.3934 27.8275 86.8629 27.8275V26.4525C86.5324 26.4525 86.2406 26.4031 85.9817 26.3117L85.5241 27.6083ZM86.8629 27.8275H94.2129V26.4525H86.8629V27.8275ZM93.5254 27.14V30.5H94.9004V27.14H93.5254ZM94.2129 29.8125H85.9329V31.1875H94.2129V29.8125ZM96.2283 30.5L95.5745 30.2874C95.5064 30.4967 95.5427 30.7259 95.672 30.904C95.8014 31.0821 96.0082 31.1875 96.2283 31.1875V30.5ZM103.428 8.36V7.6725C103.131 7.6725 102.867 7.8642 102.774 8.14738L103.428 8.36ZM108.108 8.36L108.762 8.14738C108.67 7.8642 108.406 7.6725 108.108 7.6725V8.36ZM115.308 30.5V31.1875C115.528 31.1875 115.735 31.0821 115.865 30.904C115.994 30.7259 116.03 30.4967 115.962 30.2874L115.308 30.5ZM111.438 30.5L110.785 30.7129C110.877 30.9959 111.141 31.1875 111.438 31.1875V30.5ZM109.728 25.25L110.382 25.0371C110.29 24.7541 110.026 24.5625 109.728 24.5625V25.25ZM101.718 25.25V24.5625C101.419 24.5625 101.155 24.7557 101.063 25.0405L101.718 25.25ZM100.038 30.5V31.1875C100.337 31.1875 100.602 30.9943 100.693 30.7095L100.038 30.5ZM102.588 21.92L101.93 21.7221C101.867 21.9303 101.907 22.1558 102.037 22.3302C102.166 22.5047 102.371 22.6075 102.588 22.6075V21.92ZM108.828 21.92V22.6075C109.046 22.6075 109.25 22.5047 109.38 22.3302C109.51 22.1558 109.549 21.9303 109.487 21.7221L108.828 21.92ZM105.708 11.54L106.367 11.3421C106.279 11.0515 106.012 10.8525 105.708 10.8525C105.405 10.8525 105.137 11.0515 105.05 11.3421L105.708 11.54ZM96.8821 30.7126L104.082 8.57262L102.774 8.14738L95.5745 30.2874L96.8821 30.7126ZM103.428 9.0475H108.108V7.6725H103.428V9.0475ZM107.454 8.57262L114.654 30.7126L115.962 30.2874L108.762 8.14738L107.454 8.57262ZM115.308 29.8125H111.438V31.1875H115.308V29.8125ZM112.092 30.2871L110.382 25.0371L109.075 25.4629L110.785 30.7129L112.092 30.2871ZM109.728 24.5625H101.718V25.9375H109.728V24.5625ZM101.063 25.0405L99.3835 30.2905L100.693 30.7095L102.373 25.4595L101.063 25.0405ZM100.038 29.8125H96.2283V31.1875H100.038V29.8125ZM102.588 22.6075H108.828V21.2325H102.588V22.6075ZM109.487 21.7221L106.367 11.3421L105.05 11.7379L108.17 22.1179L109.487 21.7221ZM105.05 11.3421L101.93 21.7221L103.247 22.1179L106.367 11.7379L105.05 11.3421ZM123.428 30.62L123.472 29.9339C123.465 29.9335 123.458 29.9331 123.451 29.9329L123.428 30.62ZM121.568 30.5L121.48 31.1818C121.488 31.1829 121.496 31.1838 121.504 31.1845L121.568 30.5ZM119.798 30.29L119.701 30.9706C119.709 30.9717 119.717 30.9727 119.725 30.9736L119.798 30.29ZM118.298 30.02H117.611C117.611 30.341 117.833 30.6193 118.146 30.6904L118.298 30.02ZM118.298 27.11L118.347 26.4242C118.157 26.4107 117.969 26.4768 117.83 26.6068C117.69 26.7369 117.611 26.9192 117.611 27.11H118.298ZM120.248 27.23L120.211 27.9165L120.212 27.9165L120.248 27.23ZM122.618 27.32L122.601 28.0073L122.618 27.32ZM127.118 27.14L127.27 27.8106C127.276 27.8091 127.283 27.8074 127.29 27.8057L127.118 27.14ZM128.558 26.33L128.046 25.8716L128.558 26.33ZM128.408 21.86L127.934 22.3573L128.408 21.86ZM119.708 19.91L119.274 20.443L119.279 20.4468L119.708 19.91ZM119.858 9.62L120.287 10.1577L120.288 10.1568L119.858 9.62ZM127.328 8.3L127.26 8.98409C127.266 8.98469 127.272 8.98522 127.278 8.98567L127.328 8.3ZM129.668 8.54L129.576 9.22131L129.668 8.54ZM131.558 8.87H132.246C132.246 8.54986 132.025 8.27209 131.713 8.20011L131.558 8.87ZM131.558 11.78L131.511 12.4659C131.701 12.4789 131.888 12.4124 132.028 12.2824C132.167 12.1524 132.246 11.9705 132.246 11.78H131.558ZM128.528 11.6L128.491 12.2865L128.492 12.2865L128.528 11.6ZM123.398 11.75L123.581 12.4127L123.398 11.75ZM122.078 12.62L122.628 13.0325C122.631 13.0282 122.635 13.0239 122.638 13.0196L122.078 12.62ZM122.378 17.12L121.962 17.6675L121.973 17.6751L122.378 17.12ZM130.118 18.41L130.459 17.8131H130.459L130.118 18.41ZM131.978 20.39L131.357 20.6856C131.36 20.6916 131.363 20.6975 131.366 20.7034L131.978 20.39ZM131.648 28.4L132.204 28.8044L131.648 28.4ZM129.008 30.2L128.819 29.539L129.008 30.2ZM125.168 29.9925C124.645 29.9925 124.08 29.9731 123.472 29.9339L123.384 31.3061C124.017 31.3469 124.611 31.3675 125.168 31.3675V29.9925ZM123.451 29.9329C122.866 29.9134 122.26 29.8743 121.632 29.8155L121.504 31.1845C122.157 31.2457 122.791 31.2866 123.405 31.3071L123.451 29.9329ZM121.656 29.8182C121.032 29.7376 120.437 29.667 119.871 29.6064L119.725 30.9736C120.28 31.033 120.865 31.1024 121.48 31.1818L121.656 29.8182ZM119.895 29.6094C119.35 29.5314 118.868 29.4446 118.451 29.3496L118.146 30.6904C118.608 30.7954 119.127 30.8886 119.701 30.9706L119.895 29.6094ZM118.986 30.02V27.11H117.611V30.02H118.986ZM118.249 27.7958C118.814 27.8361 119.468 27.8763 120.211 27.9165L120.285 26.5435C119.548 26.5037 118.902 26.4639 118.347 26.4242L118.249 27.7958ZM120.212 27.9165C120.979 27.9569 121.775 27.9872 122.601 28.0073L122.635 26.6327C121.821 26.6129 121.037 26.5831 120.284 26.5434L120.212 27.9165ZM122.601 28.0073C123.427 28.0274 124.222 28.0375 124.988 28.0375V26.6625C124.234 26.6625 123.45 26.6526 122.635 26.6327L122.601 28.0073ZM124.988 28.0375C125.827 28.0375 126.589 27.9643 127.27 27.8106L126.967 26.4694C126.407 26.5957 125.75 26.6625 124.988 26.6625V28.0375ZM127.29 27.8057C128.008 27.6204 128.619 27.2927 129.071 26.7884L128.046 25.8716C127.817 26.1273 127.469 26.3396 126.946 26.4743L127.29 27.8057ZM129.071 26.7884C129.559 26.242 129.756 25.5157 129.756 24.71H128.381C128.381 25.3043 128.237 25.658 128.046 25.8716L129.071 26.7884ZM129.756 24.71V23.66H128.381V24.71H129.756ZM129.756 23.66C129.756 22.7481 129.495 21.9466 128.883 21.3627L127.934 22.3573C128.202 22.6134 128.381 23.0119 128.381 23.66H129.756ZM128.883 21.3627C128.27 20.7779 127.422 20.5425 126.458 20.5425V21.9175C127.215 21.9175 127.666 22.1021 127.934 22.3573L128.883 21.3627ZM126.458 20.5425H124.388V21.9175H126.458V20.5425ZM124.388 20.5425C122.458 20.5425 121.073 20.1211 120.138 19.3732L119.279 20.4468C120.544 21.4589 122.278 21.9175 124.388 21.9175V20.5425ZM120.142 19.377C119.293 18.6849 118.776 17.4254 118.776 15.38H117.401C117.401 17.6146 117.963 19.3751 119.274 20.443L120.142 19.377ZM118.776 15.38V14.24H117.401V15.38H118.776ZM118.776 14.24C118.776 12.2175 119.331 10.9192 120.287 10.1577L119.43 9.08226C118.026 10.2008 117.401 11.9825 117.401 14.24H118.776ZM120.288 10.1568C121.322 9.3295 122.857 8.8675 124.988 8.8675V7.4925C122.68 7.4925 120.795 7.9905 119.429 9.08315L120.288 10.1568ZM124.988 8.8675C125.724 8.8675 126.481 8.90623 127.26 8.98409L127.397 7.61591C126.575 7.53377 125.772 7.4925 124.988 7.4925V8.8675ZM127.278 8.98567C128.085 9.04474 128.851 9.12336 129.576 9.22131L129.76 7.85869C129.005 7.75663 128.211 7.67526 127.378 7.61433L127.278 8.98567ZM129.576 9.22131C130.303 9.31949 130.911 9.42612 131.404 9.53989L131.713 8.20011C131.166 8.07388 130.514 7.9605 129.76 7.85869L129.576 9.22131ZM130.871 8.87V11.78H132.246V8.87H130.871ZM131.605 11.0941C130.721 11.0338 129.707 10.9736 128.564 10.9134L128.492 12.2865C129.629 12.3464 130.636 12.4062 131.511 12.4659L131.605 11.0941ZM128.565 10.9135C127.435 10.8529 126.382 10.8225 125.408 10.8225V12.1975C126.354 12.1975 127.382 12.2271 128.491 12.2865L128.565 10.9135ZM125.408 10.8225C124.602 10.8225 123.868 10.9072 123.215 11.0873L123.581 12.4127C124.088 12.2728 124.695 12.1975 125.408 12.1975V10.8225ZM123.215 11.0873C122.51 11.2819 121.925 11.6515 121.519 12.2204L122.638 13.0196C122.831 12.7485 123.127 12.5381 123.581 12.4127L123.215 11.0873ZM121.528 12.2075C121.1 12.779 120.941 13.5539 120.941 14.42H122.316C122.316 13.6861 122.457 13.261 122.628 13.0325L121.528 12.2075ZM120.941 14.42V15.14H122.316V14.42H120.941ZM120.941 15.14C120.941 16.1844 121.219 17.1026 121.962 17.6674L122.794 16.5726C122.537 16.3774 122.316 15.9756 122.316 15.14H120.941ZM121.973 17.6751C122.655 18.174 123.56 18.3775 124.598 18.3775V17.0025C123.716 17.0025 123.141 16.826 122.784 16.5649L121.973 17.6751ZM124.598 18.3775H126.908V17.0025H124.598V18.3775ZM126.908 18.3775C128.128 18.3775 129.071 18.6032 129.777 19.0069L130.459 17.8131C129.486 17.2568 128.288 17.0025 126.908 17.0025V18.3775ZM129.777 19.0069C130.501 19.4203 131.02 19.9775 131.357 20.6856L132.599 20.0944C132.136 19.1225 131.416 18.3597 130.459 17.8131L129.777 19.0069ZM131.366 20.7034C131.73 21.4127 131.921 22.2425 131.921 23.21H133.296C133.296 22.0575 133.067 21.0073 132.59 20.0766L131.366 20.7034ZM131.921 23.21V24.62H133.296V23.21H131.921ZM131.921 24.62C131.921 26.1844 131.613 27.2791 131.092 27.9956L132.204 28.8044C132.963 27.7609 133.296 26.3356 133.296 24.62H131.921ZM131.092 27.9956C130.549 28.7424 129.803 29.2579 128.819 29.539L129.197 30.861C130.454 30.5021 131.467 29.8176 132.204 28.8044L131.092 27.9956ZM128.819 29.539C127.773 29.8378 126.559 29.9925 125.168 29.9925V31.3675C126.658 31.3675 128.003 31.2022 129.197 30.861L128.819 29.539ZM136.777 30.5H136.09C136.09 30.8797 136.397 31.1875 136.777 31.1875V30.5ZM136.777 8.36V7.6725C136.397 7.6725 136.09 7.9803 136.09 8.36H136.777ZM140.467 8.36H141.155C141.155 7.9803 140.847 7.6725 140.467 7.6725V8.36ZM140.467 17.81H139.78C139.78 18.1897 140.087 18.4975 140.467 18.4975V17.81ZM143.737 17.81V18.4975C143.99 18.4975 144.222 18.3589 144.342 18.1365L143.737 17.81ZM148.837 8.36V7.6725C148.584 7.6725 148.352 7.81111 148.232 8.03348L148.837 8.36ZM152.797 8.36L153.4 8.69069C153.517 8.4777 153.512 8.21884 153.389 8.00978C153.265 7.80072 153.04 7.6725 152.797 7.6725V8.36ZM146.707 19.46L146.104 19.1293C145.99 19.338 145.991 19.5911 146.109 19.7983L146.707 19.46ZM152.947 30.5V31.1875C153.192 31.1875 153.418 31.0576 153.541 30.8465C153.664 30.6353 153.666 30.3746 153.546 30.1617L152.947 30.5ZM148.987 30.5L148.388 30.8371C148.51 31.0536 148.739 31.1875 148.987 31.1875V30.5ZM143.737 21.17L144.336 20.8329C144.214 20.6164 143.985 20.4825 143.737 20.4825V21.17ZM140.467 21.17V20.4825C140.087 20.4825 139.78 20.7903 139.78 21.17H140.467ZM140.467 30.5V31.1875C140.847 31.1875 141.155 30.8797 141.155 30.5H140.467ZM137.465 30.5V8.36H136.09V30.5H137.465ZM136.777 9.0475H140.467V7.6725H136.777V9.0475ZM139.78 8.36V17.81H141.155V8.36H139.78ZM140.467 18.4975H143.737V17.1225H140.467V18.4975ZM144.342 18.1365L149.442 8.68652L148.232 8.03348L143.132 17.4835L144.342 18.1365ZM148.837 9.0475H152.797V7.6725H148.837V9.0475ZM152.194 8.02931L146.104 19.1293L147.31 19.7907L153.4 8.69069L152.194 8.02931ZM146.109 19.7983L152.349 30.8383L153.546 30.1617L147.306 19.1217L146.109 19.7983ZM152.947 29.8125H148.987V31.1875H152.947V29.8125ZM149.586 30.1629L144.336 20.8329L143.138 21.5071L148.388 30.8371L149.586 30.1629ZM143.737 20.4825H140.467V21.8575H143.737V20.4825ZM139.78 21.17V30.5H141.155V21.17H139.78ZM140.467 29.8125H136.777V31.1875H140.467V29.8125Z" fill="#10B6FF"/>
</svg>
