<svg width="69" height="70" viewBox="0 0 69 70" fill="none" xmlns="http://www.w3.org/2000/svg">
<g filter="url(#filter0_d_568_38824)">
<path d="M34.5005 7.19922C29.0649 7.21756 23.8142 9.17492 19.693 12.7192C15.5718 16.2635 12.8506 21.162 12.0189 26.5336C11.1871 31.9053 12.2995 37.3974 15.1558 42.0221C18.0122 46.6467 22.425 50.1004 27.6005 51.7617L33.6955 64.153C33.7679 64.3052 33.8819 64.4338 34.0244 64.5239C34.1669 64.6139 34.332 64.6617 34.5005 64.6617C34.6691 64.6617 34.8342 64.6139 34.9767 64.5239C35.1192 64.4338 35.2332 64.3052 35.3055 64.153L41.4293 51.7617C46.6071 50.0996 51.0215 46.6436 53.8776 42.0159C56.7337 37.3883 57.844 31.893 57.0085 26.5195C56.173 21.146 53.4466 16.2473 49.3203 12.7053C45.1939 9.16331 39.9386 7.21078 34.5005 7.19922Z" fill="#5DA694"/>
</g>
<path d="M34.5005 7.19922C29.0649 7.21756 23.8142 9.17492 19.693 12.7192C15.5718 16.2635 12.8506 21.162 12.0189 26.5336C11.1871 31.9053 12.2995 37.3974 15.1558 42.0221C18.0122 46.6467 22.425 50.1004 27.6005 51.7617L33.6955 64.153C33.7679 64.3052 33.8819 64.4338 34.0244 64.5239C34.1669 64.6139 34.332 64.6617 34.5005 64.6617C34.6691 64.6617 34.8342 64.6139 34.9767 64.5239C35.1192 64.4338 35.2332 64.3052 35.3055 64.153L41.4293 51.7617C46.6071 50.0996 51.0215 46.6436 53.8776 42.0159C56.7337 37.3883 57.844 31.893 57.0085 26.5195C56.173 21.146 53.4466 16.2473 49.3203 12.7053C45.1939 9.16331 39.9386 7.21078 34.5005 7.19922ZM38.928 48.5992L34.7018 57.4542C34.6868 57.4916 34.6611 57.5236 34.6277 57.5462C34.5944 57.5687 34.5551 57.5808 34.5149 57.5808C34.4747 57.5808 34.4354 57.5687 34.4021 57.5462C34.3687 57.5236 34.343 57.4916 34.328 57.4542L30.1018 48.628C26.6054 47.8014 23.4128 46.0064 20.8897 43.4487C18.3666 40.891 16.6153 37.6741 15.8364 34.1668C15.0576 30.6596 15.2827 27.0038 16.4861 23.6186C17.6894 20.2334 19.8222 17.2557 22.64 15.0269C25.4579 12.7982 28.8467 11.4085 32.418 11.0171C35.9894 10.6258 39.5987 11.2487 42.8323 12.8143C46.0659 14.38 48.793 16.8251 50.7008 19.8694C52.6087 22.9137 53.6201 26.434 53.6193 30.0267C53.6032 34.3203 52.1466 38.4842 49.4829 41.8516C46.8192 45.219 43.1025 47.5951 38.928 48.5992Z" fill="#F7F8FA"/>
<path d="M42.7373 25.1069C42.8213 24.4796 42.7707 23.8415 42.5888 23.2353C42.1868 22.1097 41.4278 21.1463 40.4276 20.492C39.4273 19.8377 38.2406 19.5283 37.0482 19.6109C36.7763 18.7497 36.2603 17.986 35.5628 17.4124C33.2901 15.526 29.5766 16.2093 27.289 18.9276C26.8325 19.4586 26.4571 20.0543 26.1749 20.6952C25.3255 21.0469 24.5856 21.6194 24.0319 22.3533C23.4781 23.0872 23.1308 23.9559 23.0259 24.8692C22.9819 25.6188 23.1194 26.3678 23.4269 27.0528C22.9305 27.4333 22.5258 27.9205 22.243 28.4785C21.9602 29.0364 21.8064 29.6508 21.793 30.2762C21.8402 30.9444 22.0281 31.5952 22.3445 32.1857C22.6608 32.7763 23.0985 33.2933 23.6286 33.7028C24.1588 34.1124 24.7696 34.4053 25.4209 34.5622C26.0722 34.7192 26.7493 34.7367 27.4078 34.6136C27.9548 35.1859 28.6673 35.5725 29.4453 35.7191C30.2232 35.8656 31.0276 35.7647 31.7453 35.4305C32.2217 35.6117 32.7222 35.7218 33.2307 35.7573V41.0009H29.7697C29.5727 41.0009 29.3838 41.0791 29.2445 41.2184C29.1052 41.3577 29.0269 41.5466 29.0269 41.7436C29.0308 41.9394 29.1102 42.1261 29.2487 42.2645C29.3872 42.403 29.5739 42.4825 29.7697 42.4863H38.4148C38.6118 42.4863 38.8007 42.408 38.94 42.2687C39.0792 42.1295 39.1575 41.9405 39.1575 41.7436C39.1575 41.5466 39.0792 41.3577 38.94 41.2184C38.8007 41.0791 38.6118 41.0009 38.4148 41.0009H34.7755V35.6979C35.3402 35.5925 35.8827 35.3916 36.3798 35.1038C37.859 35.6295 39.4681 35.666 40.9697 35.2077C44.401 34.1977 46.5103 31.0634 45.6785 28.2263C45.4536 27.519 45.0726 26.8714 44.5634 26.3314C44.0543 25.7914 43.4302 25.3729 42.7373 25.1069ZM40.5538 33.7817C39.2543 34.1874 37.8523 34.1136 36.6026 33.5738L36.1867 33.3955L35.8153 33.6778C35.5068 33.9089 35.1522 34.071 34.7755 34.1531V27.8401H35.0577C35.8295 27.8579 36.5841 27.6116 37.1967 27.1419C37.9933 26.4358 38.4923 25.4537 38.593 24.3939C38.6096 24.1991 38.5487 24.0057 38.4236 23.8556C38.2984 23.7054 38.1191 23.6106 37.9246 23.5918C37.7284 23.5793 37.535 23.6436 37.3853 23.7711C37.2356 23.8986 37.1414 24.0793 37.1225 24.2751C37.0531 24.9305 36.7467 25.5379 36.2609 25.9833C36.0479 26.135 35.8071 26.2433 35.5522 26.3019C35.2973 26.3606 35.0334 26.3684 34.7755 26.3249V24.3345C34.7755 24.1375 34.6973 23.9486 34.558 23.8093C34.4187 23.67 34.2298 23.5918 34.0328 23.5918C33.8358 23.5918 33.6469 23.67 33.5076 23.8093C33.3683 23.9486 33.2901 24.1375 33.2901 24.3345V30.1573C32.4251 30.2492 31.5568 30.0163 30.854 29.5037C30.0166 28.7251 29.4891 27.67 29.3686 26.5329C29.363 26.4359 29.338 26.341 29.2952 26.2538C29.2523 26.1667 29.1924 26.0889 29.119 26.0252C29.0457 25.9616 28.9603 25.9132 28.8679 25.8831C28.7756 25.8529 28.6781 25.8415 28.5813 25.8496C28.4837 25.8571 28.3885 25.8838 28.3012 25.9283C28.2139 25.9727 28.1363 26.034 28.0728 26.1085C28.0093 26.1831 27.9612 26.2694 27.9312 26.3627C27.9012 26.4559 27.8899 26.5541 27.898 26.6517C28.0285 28.2058 28.7647 29.6463 29.9479 30.6624C30.8255 31.3439 31.9119 31.7008 33.0227 31.6724H33.2901V34.2868C32.8617 34.2595 32.4428 34.1485 32.0572 33.96L31.671 33.7817L31.3145 34.0343C30.8408 34.3326 30.2722 34.4417 29.7217 34.3399C29.1712 34.238 28.6793 33.9327 28.3437 33.4847L28.0763 33.039L27.5564 33.143C27.0875 33.2909 26.5916 33.3329 26.1045 33.2662C25.6173 33.1996 25.151 33.0257 24.7391 32.7573C24.3272 32.4888 23.9799 32.1324 23.7222 31.7136C23.4644 31.2949 23.3027 30.8243 23.2487 30.3356C23.27 29.8488 23.4183 29.376 23.6789 28.9643C23.9395 28.5526 24.3033 28.2162 24.7341 27.9886L25.358 27.6173L24.9123 26.9191C24.5534 26.3315 24.392 25.6444 24.4519 24.9584C24.5626 24.2825 24.8546 23.6493 25.2966 23.1261C25.7387 22.603 26.3143 22.2095 26.9622 21.9875L27.3039 21.8984L27.4227 21.6162C27.6637 21.0121 27.9997 20.4505 28.4179 19.9525C30.1856 17.8284 32.9633 17.2193 34.6121 18.5859C35.1959 19.0914 35.5847 19.7849 35.7113 20.5467L35.8302 21.2151H36.5134C37.4652 21.0064 38.4599 21.1371 39.3253 21.5848C40.1908 22.0324 40.8723 22.7687 41.2519 23.666C41.4153 24.2288 41.4153 24.8264 41.2519 25.3891L41.0588 26.1021L41.757 26.3101C42.3283 26.4657 42.8523 26.76 43.2824 27.1668C43.7126 27.5737 44.0356 28.0805 44.2228 28.6422C44.8466 30.6921 43.1978 32.9945 40.5538 33.7817Z" fill="#F7F8FA"/>
<defs>
<filter id="filter0_d_568_38824" x="9.95" y="6.39922" width="49.5293" height="61.4629" filterUnits="userSpaceOnUse" color-interpolation-filters="sRGB">
<feFlood flood-opacity="0" result="BackgroundImageFix"/>
<feColorMatrix in="SourceAlpha" type="matrix" values="0 0 0 0 0 0 0 0 0 0 0 0 0 0 0 0 0 0 127 0" result="hardAlpha"/>
<feOffset dx="0.2" dy="1.2"/>
<feGaussianBlur stdDeviation="1"/>
<feComposite in2="hardAlpha" operator="out"/>
<feColorMatrix type="matrix" values="0 0 0 0 0 0 0 0 0 0 0 0 0 0 0 0 0 0 0.62 0"/>
<feBlend mode="normal" in2="BackgroundImageFix" result="effect1_dropShadow_568_38824"/>
<feBlend mode="normal" in="SourceGraphic" in2="effect1_dropShadow_568_38824" result="shape"/>
</filter>
</defs>
</svg>
