<svg width="48" height="48" viewBox="0 0 48 48" fill="none" xmlns="http://www.w3.org/2000/svg">
<g clip-path="url(#clip0_8303_160799)">
<path d="M12.1715 47.8302C9.31697 47.7004 7.76628 47.2254 6.73487 46.8231C5.36821 46.291 4.39385 45.6576 3.36815 44.6333C2.34244 43.609 1.70761 42.6347 1.17835 41.268C0.776057 40.2366 0.301008 38.6859 0.171189 35.8313C0.0285315 32.7456 0 31.8198 0 24.0021C0 16.1845 0.0313847 15.2601 0.169763 12.1715C0.299581 9.31697 0.777484 7.76913 1.17693 6.73487C1.70904 5.36821 2.34386 4.39385 3.36672 3.36672C4.391 2.34244 5.36535 1.70618 6.73344 1.17693C7.76485 0.774631 9.31554 0.299581 12.1701 0.169763C15.2572 0.0285315 16.1845 0 23.9993 0C31.8169 0 32.7413 0.0313847 35.8299 0.169763C38.6845 0.299581 40.2323 0.777484 41.2666 1.17693C42.6332 1.70618 43.6076 2.34244 44.6333 3.36672C45.659 4.391 46.291 5.36678 46.8231 6.73344C47.2254 7.76485 47.7004 9.31554 47.8302 12.1701C47.9715 15.2587 48 16.1831 48 24.0007C48 31.8155 47.9715 32.7428 47.8302 35.8313C47.7004 38.6859 47.2225 40.2366 46.8231 41.268C46.291 42.6347 45.6576 43.609 44.6333 44.6333C43.609 45.6576 42.6332 46.291 41.2666 46.8231C40.2351 47.2254 38.6845 47.7004 35.8299 47.8302C32.7442 47.9715 31.8169 48 23.9993 48C16.1845 48 15.2572 47.9729 12.1715 47.8302Z" fill="url(#paint0_radial_8303_160799)"/>
<path d="M12.1715 47.8302C9.31697 47.7004 7.76628 47.2254 6.73487 46.8231C5.36821 46.291 4.39385 45.6576 3.36815 44.6333C2.34244 43.609 1.70761 42.6347 1.17835 41.268C0.776057 40.2366 0.301008 38.6859 0.171189 35.8313C0.0285315 32.7456 0 31.8198 0 24.0021C0 16.1845 0.0313847 15.2601 0.169763 12.1715C0.299581 9.31697 0.777484 7.76913 1.17693 6.73487C1.70904 5.36821 2.34386 4.39385 3.36672 3.36672C4.391 2.34244 5.36535 1.70618 6.73344 1.17693C7.76485 0.774631 9.31554 0.299581 12.1701 0.169763C15.2572 0.0285315 16.1845 0 23.9993 0C31.8169 0 32.7413 0.0313847 35.8299 0.169763C38.6845 0.299581 40.2323 0.777484 41.2666 1.17693C42.6332 1.70618 43.6076 2.34244 44.6333 3.36672C45.659 4.391 46.291 5.36678 46.8231 6.73344C47.2254 7.76485 47.7004 9.31554 47.8302 12.1701C47.9715 15.2587 48 16.1831 48 24.0007C48 31.8155 47.9715 32.7428 47.8302 35.8313C47.7004 38.6859 47.2225 40.2366 46.8231 41.268C46.291 42.6347 45.6576 43.609 44.6333 44.6333C43.609 45.6576 42.6332 46.291 41.2666 46.8231C40.2351 47.2254 38.6845 47.7004 35.8299 47.8302C32.7442 47.9715 31.8169 48 23.9993 48C16.1845 48 15.2572 47.9729 12.1715 47.8302Z" fill="url(#paint1_radial_8303_160799)"/>
<path d="M18.5542 23.83C18.5542 20.9159 20.9159 18.5529 23.83 18.5529C26.7441 18.5529 29.1071 20.9159 29.1071 23.83C29.1071 26.7441 26.7441 29.1071 23.83 29.1071C20.9159 29.1071 18.5542 26.7441 18.5542 23.83ZM15.7015 23.83C15.7015 28.3194 19.3406 31.9585 23.83 31.9585C28.3194 31.9585 31.9585 28.3194 31.9585 23.83C31.9585 19.3406 28.3194 15.7015 23.83 15.7015C19.3406 15.7015 15.7016 19.3404 15.7016 23.83M30.3808 15.3792C30.3807 15.7549 30.4919 16.1222 30.7006 16.4347C30.9092 16.7471 31.2057 16.9907 31.5528 17.1347C31.8998 17.2786 32.2818 17.3163 32.6503 17.2432C33.0188 17.17 33.3573 16.9893 33.6231 16.7237C33.8889 16.4581 34.0699 16.1197 34.1434 15.7513C34.2168 15.3828 34.1794 15.0009 34.0357 14.6537C33.8921 14.3065 33.6487 14.0098 33.3364 13.8009C33.0241 13.5921 32.6569 13.4805 32.2812 13.4803H32.2804C31.7768 13.4806 31.2939 13.6807 30.9377 14.0367C30.5816 14.3927 30.3813 14.8756 30.3808 15.3792ZM17.4347 36.7154C15.8913 36.6451 15.0525 36.388 14.495 36.1708C13.7559 35.8831 13.2286 35.5404 12.6742 34.9867C12.1197 34.4331 11.7765 33.9062 11.4901 33.1672C11.2728 32.61 11.0157 31.7708 10.9455 30.2275C10.8688 28.5589 10.8535 28.0576 10.8535 23.8303C10.8535 19.6029 10.87 19.103 10.9455 17.433C11.0158 15.8897 11.2748 15.0522 11.4901 14.4933C11.7778 13.7543 12.1205 13.2269 12.6742 12.6725C13.2278 12.1181 13.7546 11.7749 14.495 11.4884C15.0522 11.2711 15.8913 11.014 17.4347 10.9439C19.1033 10.8671 19.6045 10.8518 23.83 10.8518C28.0555 10.8518 28.5572 10.8681 30.2272 10.9441C31.7706 11.0144 32.6081 11.2734 33.1669 11.4887C33.906 11.7751 34.4333 12.1191 34.9877 12.6728C35.5422 13.2264 35.8841 13.7545 36.1718 14.4936C36.3891 15.0508 36.6462 15.8899 36.7164 17.4333C36.7931 19.1033 36.8084 19.6031 36.8084 23.8305C36.8084 28.0579 36.7931 28.5577 36.7164 30.2277C36.6461 31.7711 36.3877 32.61 36.1718 33.1674C35.8841 33.9065 35.5414 34.4338 34.9877 34.987C34.4341 35.5402 33.906 35.8833 33.1669 36.1711C32.6097 36.3884 31.7706 36.6455 30.2272 36.7156C28.5586 36.7924 28.0574 36.8077 23.83 36.8077C19.6026 36.8077 19.1028 36.7924 17.4347 36.7156M17.3036 8.09587C15.6184 8.17261 14.4669 8.43982 13.4612 8.83114C12.4204 9.23525 11.5381 9.77739 10.657 10.657C9.776 11.5367 9.23525 12.4191 8.83114 13.4612C8.43982 14.4675 8.17261 15.6184 8.09587 17.3036C8.01786 18.9915 8 19.5311 8 23.83C8 28.1289 8.01786 28.6685 8.09587 30.3564C8.17261 32.0417 8.43982 33.1925 8.83114 34.1988C9.23525 35.2396 9.77613 36.1237 10.657 37.003C11.5379 37.8822 12.4191 38.4236 13.4612 38.8289C14.4688 39.2202 15.6184 39.4874 17.3036 39.5641C18.9924 39.6409 19.5311 39.66 23.83 39.66C28.1289 39.66 28.6685 39.6421 30.3564 39.5641C32.0417 39.4874 33.1925 39.2202 34.1988 38.8289C35.2396 38.4236 36.1219 37.8826 37.003 37.003C37.884 36.1233 38.4236 35.2396 38.8289 34.1988C39.2202 33.1925 39.4887 32.0416 39.5641 30.3564C39.6409 28.6673 39.6587 28.1289 39.6587 23.83C39.6587 19.5311 39.6409 18.9915 39.5641 17.3036C39.4874 15.6183 39.2202 14.4669 38.8289 13.4612C38.4236 12.4204 37.8826 11.5381 37.003 10.657C36.1233 9.776 35.2396 9.23525 34.2 8.83114C33.1925 8.43982 32.0416 8.17134 30.3577 8.09587C28.6695 8.01874 28.1302 8 23.8319 8C19.5336 8 18.993 8.01786 17.3042 8.09587" fill="white"/>
</g>
<defs>
<radialGradient id="paint0_radial_8303_160799" cx="0" cy="0" r="1" gradientUnits="userSpaceOnUse" gradientTransform="translate(3.10651 46.9485) scale(60.9422)">
<stop offset="0.09" stop-color="#FA8F21"/>
<stop offset="0.78" stop-color="#D82D7E"/>
</radialGradient>
<radialGradient id="paint1_radial_8303_160799" cx="0" cy="0" r="1" gradientUnits="userSpaceOnUse" gradientTransform="translate(33.2479 45.4072) scale(53.6297)">
<stop offset="0.64" stop-color="#8C3AAA" stop-opacity="0"/>
<stop offset="1" stop-color="#8C3AAA"/>
</radialGradient>
<clipPath id="clip0_8303_160799">
<rect width="48" height="48" fill="white"/>
</clipPath>
</defs>
</svg>
