<svg width="45" height="45" viewBox="0 0 29 34" fill="none" xmlns="http://www.w3.org/2000/svg">
<path d="M27.2053 13.3263L27.2053 13.3263L27.2109 13.3318C27.4932 13.6042 27.7179 13.9305 27.8718 14.2914C28.0256 14.6521 28.1054 15.0399 28.1067 15.432C28.1067 15.4322 28.1067 15.4324 28.1067 15.4327L28.1067 18.0001H28.1066L28.1067 18.0094C28.108 18.0701 28.0971 18.1305 28.0748 18.187C28.0524 18.2434 28.019 18.2949 27.9765 18.3383L28.2933 18.6487L27.9765 18.3383C27.9339 18.3817 27.8832 18.4162 27.8272 18.4397C27.7712 18.4632 27.711 18.4753 27.6503 18.4753H27.6502H26.6189H26.1754V18.9189V20.2501V20.2503C26.1763 22.3261 25.3678 24.3204 23.9217 25.8095C22.4757 27.2987 20.506 28.1654 18.4311 28.2255L18.0004 28.238V28.6689V32.8876H18.0003L18.0005 32.8969C18.0018 32.9576 17.9909 33.018 17.9685 33.0745C17.9461 33.1309 17.9127 33.1824 17.8702 33.2258C17.8277 33.2692 17.777 33.3037 17.7209 33.3272C17.6649 33.3507 17.6048 33.3628 17.544 33.3628H17.5439H7.42843C7.29595 33.3561 7.17029 33.3018 7.07465 33.2098C7.03335 33.1678 7.00057 33.1181 6.97812 33.0636L6.56798 33.2325L6.97812 33.0636C6.95528 33.0081 6.9436 32.9487 6.94375 32.8887V32.8876V28.6876V28.2969L6.55615 28.2476C5.6982 28.1385 4.90905 27.7216 4.33542 27.0743C3.76208 26.4274 3.44302 25.5944 3.4375 24.73V18.6564V18.6341L3.43527 18.612C3.42947 18.5542 3.42947 18.496 3.43527 18.4382L3.43973 18.3939L3.43527 18.3495C3.42947 18.2917 3.42947 18.2335 3.43527 18.1757L3.4375 18.1536V18.1314V5.41887V4.97532H2.99395H1.38672C1.26376 4.97184 1.14688 4.92079 1.06073 4.83285C0.973703 4.74401 0.92497 4.62458 0.924996 4.50021V4.50012V0.937622H0.924998L0.924995 0.936534C0.924848 0.876538 0.936531 0.8171 0.959375 0.761621C0.98222 0.706141 1.01578 0.655711 1.05813 0.613214L1.06658 0.604728L1.07457 0.595798C1.11256 0.553313 1.1592 0.519433 1.21134 0.496427C1.26349 0.473421 1.31995 0.461819 1.37694 0.462398L1.37694 0.46242H1.38145H14.0002V0.462517L14.0094 0.462324C14.0702 0.461059 14.1306 0.47193 14.187 0.494301C14.2435 0.516672 14.295 0.550092 14.3384 0.592606C14.3818 0.635121 14.4162 0.685869 14.4398 0.741875C14.4633 0.797881 14.4754 0.858022 14.4754 0.918773V0.918872V4.44387H14.4753L14.4755 4.45321C14.4768 4.51476 14.4656 4.57593 14.4427 4.63305L14.8542 4.79846L14.4427 4.63305C14.4197 4.69017 14.3854 4.74205 14.3419 4.78558C14.2984 4.82911 14.2465 4.86339 14.1894 4.88634C14.1323 4.9093 14.0711 4.92047 14.0095 4.91917L14.0095 4.91907H14.0002H12.5752H12.1316V5.36262V12.0189V12.4624H12.5752H25.1189H25.119C25.5065 12.4624 25.8901 12.5386 26.2481 12.6868C26.6061 12.8351 26.9313 13.0524 27.2053 13.3263ZM6.5002 28.6876V32.8876V28.6876ZM2.2252 1.45032H1.78165V1.89387V3.56262V4.00617H2.2252H3.81895H11.6002H13.0064H13.45V3.56262V1.89387V1.45032H13.0064H2.2252ZM11.1437 5.36262V4.91907H10.7002H4.75645H4.3129V5.36262V17.1564V17.5999H4.75645H10.7002H11.1437V17.1564V13.0126V5.36262ZM7.93165 31.9689V32.4134L8.3762 32.4124L16.6825 32.3937L17.125 32.3927V31.9501V28.7251V28.2816H16.6814H8.3752H7.93165V28.7251V31.9689ZM25.225 18.9939V18.5503H24.7814H22.6439H11.6564H4.79395H4.3504V18.9939V24.6163C4.34655 24.9691 4.41454 25.319 4.55023 25.6446C4.68628 25.9712 4.88754 26.2665 5.14167 26.5125L5.14164 26.5126L5.14607 26.5167C5.65362 26.9948 6.32193 27.2653 7.01913 27.2749L7.01913 27.2749H7.0252L18.2752 27.2749L18.2777 27.2749C19.1953 27.2697 20.1029 27.0837 20.9486 26.7277C21.7944 26.3717 22.5617 25.8526 23.2068 25.2001C23.8519 24.5475 24.3622 23.7743 24.7085 22.9246C25.0546 22.0752 25.2301 21.1661 25.225 20.2489V18.9939ZM12.1692 16.9689V17.4124H12.6127H25.1752H26.7502H27.1937V16.9689L27.1937 15.5075L26.7502 15.5064H27.1937V15.5066C27.1943 15.2387 27.1415 14.9734 27.0385 14.7261C26.9366 14.4817 26.7877 14.2597 26.6003 14.0729C26.4128 13.872 26.1841 13.714 25.9297 13.6098C25.6757 13.5057 25.4021 13.4577 25.1279 13.4691H12.6127H12.1692V13.9126V16.9689Z" fill="white" stroke="white" stroke-width="0.887097"/>
</svg>