<svg width="45" height="45" viewBox="0 0 28 34" fill="none" xmlns="http://www.w3.org/2000/svg">
<path d="M26.9701 20.8659C26.5974 18.8996 25.7435 17.1036 24.8943 15.4734C22.3421 10.4954 19.2709 5.97795 16.2468 1.79661L15.8694 1.21178C15.3505 0.50261 14.7324 0.125 14.0248 0.125C12.9869 0.125 12.3264 0.958504 12.1377 1.21178C12.1377 1.21178 12.1377 1.21178 12.1377 1.25322L11.4772 2.17422C10.2978 3.84583 9.0665 5.60494 7.88236 7.35944C6.03774 10.1178 3.72135 13.8018 2.02299 17.7299C1.45686 19.0285 0.937917 20.3225 0.89074 21.7454C0.702033 25.4248 2.21169 28.5194 5.3348 30.9462C7.74554 32.8251 10.8168 33.875 13.9823 33.875C18.6151 33.875 22.8233 31.7843 25.2293 28.2293C26.8286 25.8853 27.4419 23.371 26.9701 20.8659ZM23.7102 27.4326C21.6297 30.5272 17.9924 32.3231 13.9729 32.3231C11.2366 32.3231 8.53812 31.4436 6.46233 29.8134C3.76381 27.7227 2.44286 25.0058 2.58911 21.8237C2.63157 20.6541 3.06088 19.5258 3.627 18.3101C5.28291 14.4649 7.55212 10.8638 9.34484 8.1469C10.4818 6.43384 11.7084 4.67473 12.935 3.00312L13.5483 2.12357C13.5483 2.08212 13.5955 2.08212 13.5955 2.04068C13.6898 1.91634 13.8785 1.70451 13.9729 1.66307C13.9729 1.66307 14.1144 1.70451 14.3503 2.04068L14.7277 2.58407C17.6574 6.68251 20.7333 11.1586 23.2337 16.0537C24.0357 17.6424 24.8377 19.314 25.168 21.0731C25.6492 23.2467 25.1302 25.3788 23.7102 27.4326ZM14.8268 28.349C14.8268 28.7681 14.4494 29.1042 13.9729 29.1042C9.67508 29.1042 6.22645 26.0097 6.22645 22.2428C6.22645 21.8237 6.60386 21.4922 7.07563 21.4922C7.55212 21.4922 7.92953 21.8237 7.92953 22.2428C7.97671 25.1716 10.6705 27.5569 13.9729 27.5569C14.4494 27.5569 14.8268 27.9346 14.8268 28.349Z" fill="white" stroke="white" stroke-width="0.221774"/>
</svg>
